<?xml version="1.0" ?><svg xmlns="http://www.w3.org/2000/svg" xmlns:xlink="http://www.w3.org/1999/xlink" width="231pt" height="231pt" viewBox="0.00 0.00 231.00 231.00"><style>.txt { alignment-baseline:middle; text-anchor:middle; font-family:Times,serif; }</style><a xlink:href="https://algviz.com/"><g class="frame" style="opacity:0" transform="translate(5,5.0)"><g id="0"><rect x="6.00" y="6.00" width="20.00" height="20.00" fill="#ffffff" stroke="#7b7b7b"/><text class="txt" x="16.00" y="16.00" font-size="0.00" fill="#000000"/></g><g id="1"><rect x="26.00" y="6.00" width="20.00" height="20.00" fill="#ffffff" stroke="#7b7b7b"/><text class="txt" x="36.00" y="16.00" font-size="0.00" fill="#000000"/></g><g id="2"><rect x="46.00" y="6.00" width="20.00" height="20.00" fill="#ffffff" stroke="#7b7b7b"/><text class="txt" x="56.00" y="16.00" font-size="0.00" fill="#000000"/></g><g id="3"><rect x="66.00" y="6.00" width="20.00" height="20.00" fill="#ffffff" stroke="#7b7b7b"/><text class="txt" x="76.00" y="16.00" font-size="0.00" fill="#000000"/></g><g id="4"><rect x="86.00" y="6.00" width="20.00" height="20.00" fill="#ffffff" stroke="#7b7b7b"/><text class="txt" x="96.00" y="16.00" font-size="0.00" fill="#000000"/></g><g id="5"><rect x="106.00" y="6.00" width="20.00" height="20.00" fill="#ffffff" stroke="#7b7b7b"/><text class="txt" x="116.00" y="16.00" font-size="0.00" fill="#000000"/></g><g id="6"><rect x="126.00" y="6.00" width="20.00" height="20.00" fill="#ffffff" stroke="#7b7b7b"/><text class="txt" x="136.00" y="16.00" font-size="0.00" fill="#000000"/></g><g id="7"><rect x="146.00" y="6.00" width="20.00" height="20.00" fill="#ffffff" stroke="#7b7b7b"/><text class="txt" x="156.00" y="16.00" font-size="0.00" fill="#000000"/></g><g id="8"><rect x="166.00" y="6.00" width="20.00" height="20.00" fill="#ffffff" stroke="#7b7b7b"/><text class="txt" x="176.00" y="16.00" font-size="0.00" fill="#000000"/></g><g id="9"><rect x="186.00" y="6.00" width="20.00" height="20.00" fill="#ffffff" stroke="#7b7b7b"/><text class="txt" x="196.00" y="16.00" font-size="0.00" fill="#000000"/></g><g id="10"><rect x="6.00" y="26.00" width="20.00" height="20.00" fill="#ffffff" stroke="#7b7b7b"/><text class="txt" x="16.00" y="36.00" font-size="0.00" fill="#000000"/></g><g id="11"><rect x="26.00" y="26.00" width="20.00" height="20.00" fill="#ffffff" stroke="#7b7b7b"/><text class="txt" x="36.00" y="36.00" font-size="16.00" fill="#000000">⬇</text></g><g id="12"><rect x="46.00" y="26.00" width="20.00" height="20.00" fill="#c0c0c0" stroke="#7b7b7b"/><text class="txt" x="56.00" y="36.00" font-size="0.00" fill="#000000"/></g><g id="13"><rect x="66.00" y="26.00" width="20.00" height="20.00" fill="#ffffff" stroke="#7b7b7b"/><text class="txt" x="76.00" y="36.00" font-size="0.00" fill="#000000"/></g><g id="14"><rect x="86.00" y="26.00" width="20.00" height="20.00" fill="#ffffff" stroke="#7b7b7b"/><text class="txt" x="96.00" y="36.00" font-size="0.00" fill="#000000"/></g><g id="15"><rect x="106.00" y="26.00" width="20.00" height="20.00" fill="#ffffff" stroke="#7b7b7b"/><text class="txt" x="116.00" y="36.00" font-size="0.00" fill="#000000"/></g><g id="16"><rect x="126.00" y="26.00" width="20.00" height="20.00" fill="#ffffff" stroke="#7b7b7b"/><text class="txt" x="136.00" y="36.00" font-size="0.00" fill="#000000"/></g><g id="17"><rect x="146.00" y="26.00" width="20.00" height="20.00" fill="#ffffff" stroke="#7b7b7b"/><text class="txt" x="156.00" y="36.00" font-size="0.00" fill="#000000"/></g><g id="18"><rect x="166.00" y="26.00" width="20.00" height="20.00" fill="#ffffff" stroke="#7b7b7b"/><text class="txt" x="176.00" y="36.00" font-size="0.00" fill="#000000"/></g><g id="19"><rect x="186.00" y="26.00" width="20.00" height="20.00" fill="#ffffff" stroke="#7b7b7b"/><text class="txt" x="196.00" y="36.00" font-size="0.00" fill="#000000"/></g><g id="20"><rect x="6.00" y="46.00" width="20.00" height="20.00" fill="#ffffff" stroke="#7b7b7b"/><text class="txt" x="16.00" y="56.00" font-size="16.00" fill="#000000">⬇</text></g><g id="21"><rect x="26.00" y="46.00" width="20.00" height="20.00" fill="#ffffff" stroke="#7b7b7b"/><text class="txt" x="36.00" y="56.00" font-size="16.00" fill="#000000">⬇</text></g><g id="22"><rect x="46.00" y="46.00" width="20.00" height="20.00" fill="#ffffff" stroke="#7b7b7b"/><text class="txt" x="56.00" y="56.00" font-size="16.00" fill="#000000">⬅</text></g><g id="23"><rect x="66.00" y="46.00" width="20.00" height="20.00" fill="#c0c0c0" stroke="#7b7b7b"/><text class="txt" x="76.00" y="56.00" font-size="0.00" fill="#000000"/></g><g id="24"><rect x="86.00" y="46.00" width="20.00" height="20.00" fill="#ffffff" stroke="#7b7b7b"/><text class="txt" x="96.00" y="56.00" font-size="16.00" fill="#000000">⬇</text></g><g id="25"><rect x="106.00" y="46.00" width="20.00" height="20.00" fill="#ffffff" stroke="#7b7b7b"/><text class="txt" x="116.00" y="56.00" font-size="16.00" fill="#000000">⬇</text></g><g id="26"><rect x="126.00" y="46.00" width="20.00" height="20.00" fill="#ffffff" stroke="#7b7b7b"/><text class="txt" x="136.00" y="56.00" font-size="16.00" fill="#000000">⬇</text></g><g id="27"><rect x="146.00" y="46.00" width="20.00" height="20.00" fill="#ffffff" stroke="#7b7b7b"/><text class="txt" x="156.00" y="56.00" font-size="16.00" fill="#000000">⬇</text></g><g id="28"><rect x="166.00" y="46.00" width="20.00" height="20.00" fill="#ffffff" stroke="#7b7b7b"/><text class="txt" x="176.00" y="56.00" font-size="16.00" fill="#000000">⬇</text></g><g id="29"><rect x="186.00" y="46.00" width="20.00" height="20.00" fill="#ffffff" stroke="#7b7b7b"/><text class="txt" x="196.00" y="56.00" font-size="0.00" fill="#000000"/></g><g id="30"><rect x="6.00" y="66.00" width="20.00" height="20.00" fill="#ffffff" stroke="#7b7b7b"/><text class="txt" x="16.00" y="76.00" font-size="16.00" fill="#000000">➡</text></g><g id="31"><rect x="26.00" y="66.00" width="20.00" height="20.00" fill="#008000" stroke="#7b7b7b"/><text class="txt" x="36.00" y="76.00" font-size="16.00" fill="#FFFFFF">E</text></g><g id="32"><rect x="46.00" y="66.00" width="20.00" height="20.00" fill="#ffffff" stroke="#7b7b7b"/><text class="txt" x="56.00" y="76.00" font-size="16.00" fill="#000000">⬅</text></g><g id="33"><rect x="66.00" y="66.00" width="20.00" height="20.00" fill="#c0c0c0" stroke="#7b7b7b"/><text class="txt" x="76.00" y="76.00" font-size="0.00" fill="#000000"/></g><g id="34"><rect x="86.00" y="66.00" width="20.00" height="20.00" fill="#ffffff" stroke="#7b7b7b"/><text class="txt" x="96.00" y="76.00" font-size="16.00" fill="#000000">⬇</text></g><g id="35"><rect x="106.00" y="66.00" width="20.00" height="20.00" fill="#ffffff" stroke="#7b7b7b"/><text class="txt" x="116.00" y="76.00" font-size="16.00" fill="#000000">⬅</text></g><g id="36"><rect x="126.00" y="66.00" width="20.00" height="20.00" fill="#ffffff" stroke="#7b7b7b"/><text class="txt" x="136.00" y="76.00" font-size="16.00" fill="#000000">⬅</text></g><g id="37"><rect x="146.00" y="66.00" width="20.00" height="20.00" fill="#ffffff" stroke="#7b7b7b"/><text class="txt" x="156.00" y="76.00" font-size="16.00" fill="#000000">⬅</text></g><g id="38"><rect x="166.00" y="66.00" width="20.00" height="20.00" fill="#ffffff" stroke="#7b7b7b"/><text class="txt" x="176.00" y="76.00" font-size="16.00" fill="#000000">⬅</text></g><g id="39"><rect x="186.00" y="66.00" width="20.00" height="20.00" fill="#ffffff" stroke="#7b7b7b"/><text class="txt" x="196.00" y="76.00" font-size="16.00" fill="#000000">⬅</text></g><g id="40"><rect x="6.00" y="86.00" width="20.00" height="20.00" fill="#ffffff" stroke="#7b7b7b"/><text class="txt" x="16.00" y="96.00" font-size="16.00" fill="#000000">⬆</text></g><g id="41"><rect x="26.00" y="86.00" width="20.00" height="20.00" fill="#ffffff" stroke="#7b7b7b"/><text class="txt" x="36.00" y="96.00" font-size="16.00" fill="#000000">⬆</text></g><g id="42"><rect x="46.00" y="86.00" width="20.00" height="20.00" fill="#ffffff" stroke="#7b7b7b"/><text class="txt" x="56.00" y="96.00" font-size="16.00" fill="#000000">⬆</text></g><g id="43"><rect x="66.00" y="86.00" width="20.00" height="20.00" fill="#ffffff" stroke="#7b7b7b"/><text class="txt" x="76.00" y="96.00" font-size="16.00" fill="#000000">⬅</text></g><g id="44"><rect x="86.00" y="86.00" width="20.00" height="20.00" fill="#ffffff" stroke="#7b7b7b"/><text class="txt" x="96.00" y="96.00" font-size="16.00" fill="#000000">⬅</text></g><g id="45"><rect x="106.00" y="86.00" width="20.00" height="20.00" fill="#c0c0c0" stroke="#7b7b7b"/><text class="txt" x="116.00" y="96.00" font-size="0.00" fill="#000000"/></g><g id="46"><rect x="126.00" y="86.00" width="20.00" height="20.00" fill="#ffffff" stroke="#7b7b7b"/><text class="txt" x="136.00" y="96.00" font-size="16.00" fill="#000000">⬆</text></g><g id="47"><rect x="146.00" y="86.00" width="20.00" height="20.00" fill="#ffffff" stroke="#7b7b7b"/><text class="txt" x="156.00" y="96.00" font-size="16.00" fill="#000000">⬆</text></g><g id="48"><rect x="166.00" y="86.00" width="20.00" height="20.00" fill="#ffffff" stroke="#7b7b7b"/><text class="txt" x="176.00" y="96.00" font-size="16.00" fill="#000000">⬆</text></g><g id="49"><rect x="186.00" y="86.00" width="20.00" height="20.00" fill="#ffffff" stroke="#7b7b7b"/><text class="txt" x="196.00" y="96.00" font-size="16.00" fill="#000000">⬅</text></g><g id="50"><rect x="6.00" y="106.00" width="20.00" height="20.00" fill="#ffffff" stroke="#7b7b7b"/><text class="txt" x="16.00" y="116.00" font-size="16.00" fill="#000000">⬆</text></g><g id="51"><rect x="26.00" y="106.00" width="20.00" height="20.00" fill="#ffffff" stroke="#7b7b7b"/><text class="txt" x="36.00" y="116.00" font-size="16.00" fill="#000000">⬆</text></g><g id="52"><rect x="46.00" y="106.00" width="20.00" height="20.00" fill="#ffffff" stroke="#7b7b7b"/><text class="txt" x="56.00" y="116.00" font-size="16.00" fill="#000000">⬆</text></g><g id="53"><rect x="66.00" y="106.00" width="20.00" height="20.00" fill="#ffffff" stroke="#7b7b7b"/><text class="txt" x="76.00" y="116.00" font-size="16.00" fill="#000000">⬆</text></g><g id="54"><rect x="86.00" y="106.00" width="20.00" height="20.00" fill="#c0c0c0" stroke="#7b7b7b"/><text class="txt" x="96.00" y="116.00" font-size="0.00" fill="#000000"/></g><g id="55"><rect x="106.00" y="106.00" width="20.00" height="20.00" fill="#c0c0c0" stroke="#7b7b7b"/><text class="txt" x="116.00" y="116.00" font-size="0.00" fill="#000000"/></g><g id="56"><rect x="126.00" y="106.00" width="20.00" height="20.00" fill="#ffffff" stroke="#7b7b7b"/><text class="txt" x="136.00" y="116.00" font-size="16.00" fill="#000000">⬆</text></g><g id="57"><rect x="146.00" y="106.00" width="20.00" height="20.00" fill="#ffffff" stroke="#7b7b7b"/><text class="txt" x="156.00" y="116.00" font-size="16.00" fill="#000000">⬆</text></g><g id="58"><rect x="166.00" y="106.00" width="20.00" height="20.00" fill="#ffffff" stroke="#7b7b7b"/><text class="txt" x="176.00" y="116.00" font-size="16.00" fill="#000000">⬆</text></g><g id="59"><rect x="186.00" y="106.00" width="20.00" height="20.00" fill="#ffffff" stroke="#7b7b7b"/><text class="txt" x="196.00" y="116.00" font-size="16.00" fill="#000000">⬅</text></g><g id="60"><rect x="6.00" y="126.00" width="20.00" height="20.00" fill="#ffffff" stroke="#7b7b7b"/><text class="txt" x="16.00" y="136.00" font-size="16.00" fill="#000000">⬆</text></g><g id="61"><rect x="26.00" y="126.00" width="20.00" height="20.00" fill="#ffffff" stroke="#7b7b7b"/><text class="txt" x="36.00" y="136.00" font-size="16.00" fill="#000000">⬆</text></g><g id="62"><rect x="46.00" y="126.00" width="20.00" height="20.00" fill="#ffffff" stroke="#7b7b7b"/><text class="txt" x="56.00" y="136.00" font-size="16.00" fill="#000000">⬆</text></g><g id="63"><rect x="66.00" y="126.00" width="20.00" height="20.00" fill="#ffffff" stroke="#7b7b7b"/><text class="txt" x="76.00" y="136.00" font-size="16.00" fill="#000000">⬆</text></g><g id="64"><rect x="86.00" y="126.00" width="20.00" height="20.00" fill="#ffffff" stroke="#7b7b7b"/><text class="txt" x="96.00" y="136.00" font-size="16.00" fill="#000000">⬅</text></g><g id="65"><rect x="106.00" y="126.00" width="20.00" height="20.00" fill="#c0c0c0" stroke="#7b7b7b"/><text class="txt" x="116.00" y="136.00" font-size="0.00" fill="#000000"/></g><g id="66"><rect x="126.00" y="126.00" width="20.00" height="20.00" fill="#ffffff" stroke="#7b7b7b"/><text class="txt" x="136.00" y="136.00" font-size="16.00" fill="#000000">⬆</text></g><g id="67"><rect x="146.00" y="126.00" width="20.00" height="20.00" fill="#ffffff" stroke="#7b7b7b"/><text class="txt" x="156.00" y="136.00" font-size="16.00" fill="#000000">⬆</text></g><g id="68"><rect x="166.00" y="126.00" width="20.00" height="20.00" fill="#adff2f" stroke="#7b7b7b"/><text class="txt" x="176.00" y="136.00" font-size="16.00" fill="#000000">⬆</text></g><g id="69"><rect x="186.00" y="126.00" width="20.00" height="20.00" fill="#ffffff" stroke="#7b7b7b"/><text class="txt" x="196.00" y="136.00" font-size="0.00" fill="#000000"><animate attributeName="font-size" from="0.00" to="0" begin="0S41.end+0.00s" dur="0.50s" fill="freeze"/><animate attributeName="font-size" from="0" to="0.00" begin="0E41.end" dur="0.01s" fill="freeze"/></text><text class="txt" x="196.00" y="136.00" font-size="0" fill="#000000">⬅<animate attributeName="font-size" from="0" to="16.00" begin="0S41.end+0.60s" dur="0.40s" fill="freeze"/><animate attributeName="font-size" from="16.00" to="0" begin="0E41.end" dur="0.01s" fill="freeze"/></text></g><g id="70"><rect x="6.00" y="146.00" width="20.00" height="20.00" fill="#ffffff" stroke="#7b7b7b"/><text class="txt" x="16.00" y="156.00" font-size="16.00" fill="#000000">⬆</text></g><g id="71"><rect x="26.00" y="146.00" width="20.00" height="20.00" fill="#ffffff" stroke="#7b7b7b"/><text class="txt" x="36.00" y="156.00" font-size="16.00" fill="#000000">⬆</text></g><g id="72"><rect x="46.00" y="146.00" width="20.00" height="20.00" fill="#ffffff" stroke="#7b7b7b"/><text class="txt" x="56.00" y="156.00" font-size="16.00" fill="#000000">⬆</text></g><g id="73"><rect x="66.00" y="146.00" width="20.00" height="20.00" fill="#ffffff" stroke="#7b7b7b"/><text class="txt" x="76.00" y="156.00" font-size="16.00" fill="#000000">⬆</text></g><g id="74"><rect x="86.00" y="146.00" width="20.00" height="20.00" fill="#ffffff" stroke="#7b7b7b"/><text class="txt" x="96.00" y="156.00" font-size="16.00" fill="#000000">⬆</text></g><g id="75"><rect x="106.00" y="146.00" width="20.00" height="20.00" fill="#ffffff" stroke="#7b7b7b"/><text class="txt" x="116.00" y="156.00" font-size="16.00" fill="#000000">⬅</text></g><g id="76"><rect x="126.00" y="146.00" width="20.00" height="20.00" fill="#c0c0c0" stroke="#7b7b7b"/><text class="txt" x="136.00" y="156.00" font-size="0.00" fill="#000000"/></g><g id="77"><rect x="146.00" y="146.00" width="20.00" height="20.00" fill="#ffffff" stroke="#7b7b7b"/><text class="txt" x="156.00" y="156.00" font-size="16.00" fill="#000000">⬆</text></g><g id="78"><rect x="166.00" y="146.00" width="20.00" height="20.00" fill="#008000" stroke="#7b7b7b"/><text class="txt" x="176.00" y="156.00" font-size="16.00" fill="#FFFFFF">⬅<animate attributeName="font-size" from="16.00" to="0" begin="0S41.end+0.00s" dur="0.50s" fill="freeze"/><animate attributeName="font-size" from="0" to="16.00" begin="0E41.end" dur="0.01s" fill="freeze"/></text><text class="txt" x="176.00" y="156.00" font-size="0" fill="#FFFFFF">⬆<animate attributeName="font-size" from="0" to="16.00" begin="0S41.end+0.60s" dur="0.40s" fill="freeze"/><animate attributeName="font-size" from="16.00" to="0" begin="0E41.end" dur="0.01s" fill="freeze"/></text></g><g id="79"><rect x="186.00" y="146.00" width="20.00" height="20.00" fill="#ffffff" stroke="#7b7b7b"/><text class="txt" x="196.00" y="156.00" font-size="0.00" fill="#000000"/></g><g id="80"><rect x="6.00" y="166.00" width="20.00" height="20.00" fill="#ffffff" stroke="#7b7b7b"/><text class="txt" x="16.00" y="176.00" font-size="16.00" fill="#000000">⬆</text></g><g id="81"><rect x="26.00" y="166.00" width="20.00" height="20.00" fill="#ffffff" stroke="#7b7b7b"/><text class="txt" x="36.00" y="176.00" font-size="16.00" fill="#000000">⬆</text></g><g id="82"><rect x="46.00" y="166.00" width="20.00" height="20.00" fill="#ffffff" stroke="#7b7b7b"/><text class="txt" x="56.00" y="176.00" font-size="16.00" fill="#000000">⬅</text></g><g id="83"><rect x="66.00" y="166.00" width="20.00" height="20.00" fill="#ffffff" stroke="#7b7b7b"/><text class="txt" x="76.00" y="176.00" font-size="16.00" fill="#000000">⬆</text></g><g id="84"><rect x="86.00" y="166.00" width="20.00" height="20.00" fill="#ffffff" stroke="#7b7b7b"/><text class="txt" x="96.00" y="176.00" font-size="16.00" fill="#000000">⬆</text></g><g id="85"><rect x="106.00" y="166.00" width="20.00" height="20.00" fill="#ffffff" stroke="#7b7b7b"/><text class="txt" x="116.00" y="176.00" font-size="16.00" fill="#000000">⬆</text></g><g id="86"><rect x="126.00" y="166.00" width="20.00" height="20.00" fill="#c0c0c0" stroke="#7b7b7b"/><text class="txt" x="136.00" y="176.00" font-size="0.00" fill="#000000"/></g><g id="87"><rect x="146.00" y="166.00" width="20.00" height="20.00" fill="#ffffff" stroke="#7b7b7b"/><text class="txt" x="156.00" y="176.00" font-size="16.00" fill="#000000">⬆</text></g><g id="88"><rect x="166.00" y="166.00" width="20.00" height="20.00" fill="#ffffff" stroke="#7b7b7b"/><text class="txt" x="176.00" y="176.00" font-size="0.00" fill="#000000"/></g><g id="89"><rect x="186.00" y="166.00" width="20.00" height="20.00" fill="#ffffff" stroke="#7b7b7b"/><text class="txt" x="196.00" y="176.00" font-size="0.00" fill="#000000"/></g><g id="90"><rect x="6.00" y="186.00" width="20.00" height="20.00" fill="#ffffff" stroke="#7b7b7b"/><text class="txt" x="16.00" y="196.00" font-size="0.00" fill="#000000"/></g><g id="91"><rect x="26.00" y="186.00" width="20.00" height="20.00" fill="#ffffff" stroke="#7b7b7b"/><text class="txt" x="36.00" y="196.00" font-size="16.00" fill="#000000">⬆</text></g><g id="92"><rect x="46.00" y="186.00" width="20.00" height="20.00" fill="#ffffff" stroke="#7b7b7b"/><text class="txt" x="56.00" y="196.00" font-size="0.00" fill="#000000"/></g><g id="93"><rect x="66.00" y="186.00" width="20.00" height="20.00" fill="#ffffff" stroke="#7b7b7b"/><text class="txt" x="76.00" y="196.00" font-size="0.00" fill="#000000"/></g><g id="94"><rect x="86.00" y="186.00" width="20.00" height="20.00" fill="#ffffff" stroke="#7b7b7b"/><text class="txt" x="96.00" y="196.00" font-size="0.00" fill="#000000"/></g><g id="95"><rect x="106.00" y="186.00" width="20.00" height="20.00" fill="#ffffff" stroke="#7b7b7b"/><text class="txt" x="116.00" y="196.00" font-size="0.00" fill="#000000"/></g><g id="96"><rect x="126.00" y="186.00" width="20.00" height="20.00" fill="#ffffff" stroke="#7b7b7b"/><text class="txt" x="136.00" y="196.00" font-size="0.00" fill="#000000"/></g><g id="97"><rect x="146.00" y="186.00" width="20.00" height="20.00" fill="#ffffff" stroke="#7b7b7b"/><text class="txt" x="156.00" y="196.00" font-size="0.00" fill="#000000"/></g><g id="98"><rect x="166.00" y="186.00" width="20.00" height="20.00" fill="#ffffff" stroke="#7b7b7b"/><text class="txt" x="176.00" y="196.00" font-size="0.00" fill="#000000"/></g><g id="99"><rect x="186.00" y="186.00" width="20.00" height="20.00" fill="#ffffff" stroke="#7b7b7b"/><text class="txt" x="196.00" y="196.00" font-size="0.00" fill="#000000"/></g><g id="100"><text x="209.00" y="22.00" font-size="12.00" font-family="Times,serif" fill="#7b7b7b">0</text></g><g id="101"><text x="209.00" y="42.00" font-size="12.00" font-family="Times,serif" fill="#7b7b7b">1</text></g><g id="102"><text x="209.00" y="62.00" font-size="12.00" font-family="Times,serif" fill="#7b7b7b">2</text></g><g id="103"><text x="209.00" y="82.00" font-size="12.00" font-family="Times,serif" fill="#7b7b7b">3</text></g><g id="104"><text x="209.00" y="102.00" font-size="12.00" font-family="Times,serif" fill="#7b7b7b">4</text></g><g id="105"><text x="209.00" y="122.00" font-size="12.00" font-family="Times,serif" fill="#7b7b7b">5</text></g><g id="106"><text x="209.00" y="142.00" font-size="12.00" font-family="Times,serif" fill="#7b7b7b">6</text></g><g id="107"><text x="209.00" y="162.00" font-size="12.00" font-family="Times,serif" fill="#7b7b7b">7</text></g><g id="108"><text x="209.00" y="182.00" font-size="12.00" font-family="Times,serif" fill="#7b7b7b">8</text></g><g id="109"><text x="209.00" y="202.00" font-size="12.00" font-family="Times,serif" fill="#7b7b7b">9</text></g><g id="110"><text x="13.00" y="219.00" font-size="12.00" font-family="Times,serif" fill="#7b7b7b">0</text></g><g id="111"><text x="33.00" y="219.00" font-size="12.00" font-family="Times,serif" fill="#7b7b7b">1</text></g><g id="112"><text x="53.00" y="219.00" font-size="12.00" font-family="Times,serif" fill="#7b7b7b">2</text></g><g id="113"><text x="73.00" y="219.00" font-size="12.00" font-family="Times,serif" fill="#7b7b7b">3</text></g><g id="114"><text x="93.00" y="219.00" font-size="12.00" font-family="Times,serif" fill="#7b7b7b">4</text></g><g id="115"><text x="113.00" y="219.00" font-size="12.00" font-family="Times,serif" fill="#7b7b7b">5</text></g><g id="116"><text x="133.00" y="219.00" font-size="12.00" font-family="Times,serif" fill="#7b7b7b">6</text></g><g id="117"><text x="153.00" y="219.00" font-size="12.00" font-family="Times,serif" fill="#7b7b7b">7</text></g><g id="118"><text x="173.00" y="219.00" font-size="12.00" font-family="Times,serif" fill="#7b7b7b">8</text></g><g id="119"><text x="193.00" y="219.00" font-size="12.00" font-family="Times,serif" fill="#7b7b7b">9</text></g><animate attributeName="opacity" id="0S41" from="0" to="1" begin="0s;0E42.end+0s" dur="0.01s" fill="freeze"/><animate attributeName="opacity" id="0E41" begin="0S41.begin+1.5s" from="1" to="0" dur="0.01s" fill="freeze"/></g><g class="frame" style="opacity:0" transform="translate(5,5.0)"><g id="0"><rect x="6.00" y="6.00" width="20.00" height="20.00" fill="#ffffff" stroke="#7b7b7b"/><text class="txt" x="16.00" y="16.00" font-size="0.00" fill="#000000"/></g><g id="1"><rect x="26.00" y="6.00" width="20.00" height="20.00" fill="#ffffff" stroke="#7b7b7b"/><text class="txt" x="36.00" y="16.00" font-size="0.00" fill="#000000"/></g><g id="2"><rect x="46.00" y="6.00" width="20.00" height="20.00" fill="#ffffff" stroke="#7b7b7b"/><text class="txt" x="56.00" y="16.00" font-size="0.00" fill="#000000"/></g><g id="3"><rect x="66.00" y="6.00" width="20.00" height="20.00" fill="#ffffff" stroke="#7b7b7b"/><text class="txt" x="76.00" y="16.00" font-size="0.00" fill="#000000"/></g><g id="4"><rect x="86.00" y="6.00" width="20.00" height="20.00" fill="#ffffff" stroke="#7b7b7b"/><text class="txt" x="96.00" y="16.00" font-size="0.00" fill="#000000"/></g><g id="5"><rect x="106.00" y="6.00" width="20.00" height="20.00" fill="#ffffff" stroke="#7b7b7b"/><text class="txt" x="116.00" y="16.00" font-size="0.00" fill="#000000"/></g><g id="6"><rect x="126.00" y="6.00" width="20.00" height="20.00" fill="#ffffff" stroke="#7b7b7b"/><text class="txt" x="136.00" y="16.00" font-size="0.00" fill="#000000"/></g><g id="7"><rect x="146.00" y="6.00" width="20.00" height="20.00" fill="#ffffff" stroke="#7b7b7b"/><text class="txt" x="156.00" y="16.00" font-size="0.00" fill="#000000"/></g><g id="8"><rect x="166.00" y="6.00" width="20.00" height="20.00" fill="#ffffff" stroke="#7b7b7b"/><text class="txt" x="176.00" y="16.00" font-size="0.00" fill="#000000"/></g><g id="9"><rect x="186.00" y="6.00" width="20.00" height="20.00" fill="#ffffff" stroke="#7b7b7b"/><text class="txt" x="196.00" y="16.00" font-size="0.00" fill="#000000"/></g><g id="10"><rect x="6.00" y="26.00" width="20.00" height="20.00" fill="#ffffff" stroke="#7b7b7b"/><text class="txt" x="16.00" y="36.00" font-size="0.00" fill="#000000"/></g><g id="11"><rect x="26.00" y="26.00" width="20.00" height="20.00" fill="#ffffff" stroke="#7b7b7b"/><text class="txt" x="36.00" y="36.00" font-size="16.00" fill="#000000">⬇</text></g><g id="12"><rect x="46.00" y="26.00" width="20.00" height="20.00" fill="#c0c0c0" stroke="#7b7b7b"/><text class="txt" x="56.00" y="36.00" font-size="0.00" fill="#000000"/></g><g id="13"><rect x="66.00" y="26.00" width="20.00" height="20.00" fill="#ffffff" stroke="#7b7b7b"/><text class="txt" x="76.00" y="36.00" font-size="0.00" fill="#000000"/></g><g id="14"><rect x="86.00" y="26.00" width="20.00" height="20.00" fill="#ffffff" stroke="#7b7b7b"/><text class="txt" x="96.00" y="36.00" font-size="0.00" fill="#000000"/></g><g id="15"><rect x="106.00" y="26.00" width="20.00" height="20.00" fill="#ffffff" stroke="#7b7b7b"/><text class="txt" x="116.00" y="36.00" font-size="0.00" fill="#000000"/></g><g id="16"><rect x="126.00" y="26.00" width="20.00" height="20.00" fill="#ffffff" stroke="#7b7b7b"/><text class="txt" x="136.00" y="36.00" font-size="0.00" fill="#000000"/></g><g id="17"><rect x="146.00" y="26.00" width="20.00" height="20.00" fill="#ffffff" stroke="#7b7b7b"/><text class="txt" x="156.00" y="36.00" font-size="0.00" fill="#000000"/></g><g id="18"><rect x="166.00" y="26.00" width="20.00" height="20.00" fill="#ffffff" stroke="#7b7b7b"/><text class="txt" x="176.00" y="36.00" font-size="0.00" fill="#000000"/></g><g id="19"><rect x="186.00" y="26.00" width="20.00" height="20.00" fill="#ffffff" stroke="#7b7b7b"/><text class="txt" x="196.00" y="36.00" font-size="0.00" fill="#000000"/></g><g id="20"><rect x="6.00" y="46.00" width="20.00" height="20.00" fill="#ffffff" stroke="#7b7b7b"/><text class="txt" x="16.00" y="56.00" font-size="16.00" fill="#000000">⬇</text></g><g id="21"><rect x="26.00" y="46.00" width="20.00" height="20.00" fill="#ffffff" stroke="#7b7b7b"/><text class="txt" x="36.00" y="56.00" font-size="16.00" fill="#000000">⬇</text></g><g id="22"><rect x="46.00" y="46.00" width="20.00" height="20.00" fill="#ffffff" stroke="#7b7b7b"/><text class="txt" x="56.00" y="56.00" font-size="16.00" fill="#000000">⬅</text></g><g id="23"><rect x="66.00" y="46.00" width="20.00" height="20.00" fill="#c0c0c0" stroke="#7b7b7b"/><text class="txt" x="76.00" y="56.00" font-size="0.00" fill="#000000"/></g><g id="24"><rect x="86.00" y="46.00" width="20.00" height="20.00" fill="#ffffff" stroke="#7b7b7b"/><text class="txt" x="96.00" y="56.00" font-size="16.00" fill="#000000">⬇</text></g><g id="25"><rect x="106.00" y="46.00" width="20.00" height="20.00" fill="#ffffff" stroke="#7b7b7b"/><text class="txt" x="116.00" y="56.00" font-size="16.00" fill="#000000">⬇</text></g><g id="26"><rect x="126.00" y="46.00" width="20.00" height="20.00" fill="#ffffff" stroke="#7b7b7b"/><text class="txt" x="136.00" y="56.00" font-size="16.00" fill="#000000">⬇</text></g><g id="27"><rect x="146.00" y="46.00" width="20.00" height="20.00" fill="#ffffff" stroke="#7b7b7b"/><text class="txt" x="156.00" y="56.00" font-size="16.00" fill="#000000">⬇</text></g><g id="28"><rect x="166.00" y="46.00" width="20.00" height="20.00" fill="#ffffff" stroke="#7b7b7b"/><text class="txt" x="176.00" y="56.00" font-size="16.00" fill="#000000">⬇</text></g><g id="29"><rect x="186.00" y="46.00" width="20.00" height="20.00" fill="#ffffff" stroke="#7b7b7b"/><text class="txt" x="196.00" y="56.00" font-size="0.00" fill="#000000"/></g><g id="30"><rect x="6.00" y="66.00" width="20.00" height="20.00" fill="#ffffff" stroke="#7b7b7b"/><text class="txt" x="16.00" y="76.00" font-size="16.00" fill="#000000">➡</text></g><g id="31"><rect x="26.00" y="66.00" width="20.00" height="20.00" fill="#008000" stroke="#7b7b7b"/><text class="txt" x="36.00" y="76.00" font-size="16.00" fill="#FFFFFF">E</text></g><g id="32"><rect x="46.00" y="66.00" width="20.00" height="20.00" fill="#ff6347" stroke="#7b7b7b"/><text class="txt" x="56.00" y="76.00" font-size="16.00" fill="#000000">⬅</text></g><g id="33"><rect x="66.00" y="66.00" width="20.00" height="20.00" fill="#c0c0c0" stroke="#7b7b7b"/><text class="txt" x="76.00" y="76.00" font-size="0.00" fill="#000000"/></g><g id="34"><rect x="86.00" y="66.00" width="20.00" height="20.00" fill="#ff6347" stroke="#7b7b7b"/><text class="txt" x="96.00" y="76.00" font-size="16.00" fill="#000000">⬇</text></g><g id="35"><rect x="106.00" y="66.00" width="20.00" height="20.00" fill="#ff6347" stroke="#7b7b7b"/><text class="txt" x="116.00" y="76.00" font-size="16.00" fill="#000000">⬅</text></g><g id="36"><rect x="126.00" y="66.00" width="20.00" height="20.00" fill="#ff6347" stroke="#7b7b7b"/><text class="txt" x="136.00" y="76.00" font-size="16.00" fill="#000000">⬅</text></g><g id="37"><rect x="146.00" y="66.00" width="20.00" height="20.00" fill="#ff6347" stroke="#7b7b7b"/><text class="txt" x="156.00" y="76.00" font-size="16.00" fill="#000000">⬅</text></g><g id="38"><rect x="166.00" y="66.00" width="20.00" height="20.00" fill="#ff6347" stroke="#7b7b7b"/><text class="txt" x="176.00" y="76.00" font-size="16.00" fill="#000000">⬅</text></g><g id="39"><rect x="186.00" y="66.00" width="20.00" height="20.00" fill="#ffffff" stroke="#7b7b7b"/><text class="txt" x="196.00" y="76.00" font-size="16.00" fill="#000000">⬅</text></g><g id="40"><rect x="6.00" y="86.00" width="20.00" height="20.00" fill="#ffffff" stroke="#7b7b7b"/><text class="txt" x="16.00" y="96.00" font-size="16.00" fill="#000000">⬆</text></g><g id="41"><rect x="26.00" y="86.00" width="20.00" height="20.00" fill="#ffffff" stroke="#7b7b7b"/><text class="txt" x="36.00" y="96.00" font-size="16.00" fill="#000000">⬆</text></g><g id="42"><rect x="46.00" y="86.00" width="20.00" height="20.00" fill="#ff6347" stroke="#7b7b7b"/><text class="txt" x="56.00" y="96.00" font-size="16.00" fill="#000000">⬆</text></g><g id="43"><rect x="66.00" y="86.00" width="20.00" height="20.00" fill="#ff6347" stroke="#7b7b7b"/><text class="txt" x="76.00" y="96.00" font-size="16.00" fill="#000000">⬅</text></g><g id="44"><rect x="86.00" y="86.00" width="20.00" height="20.00" fill="#ff6347" stroke="#7b7b7b"/><text class="txt" x="96.00" y="96.00" font-size="16.00" fill="#000000">⬅</text></g><g id="45"><rect x="106.00" y="86.00" width="20.00" height="20.00" fill="#c0c0c0" stroke="#7b7b7b"/><text class="txt" x="116.00" y="96.00" font-size="0.00" fill="#000000"/></g><g id="46"><rect x="126.00" y="86.00" width="20.00" height="20.00" fill="#ffffff" stroke="#7b7b7b"/><text class="txt" x="136.00" y="96.00" font-size="16.00" fill="#000000">⬆</text></g><g id="47"><rect x="146.00" y="86.00" width="20.00" height="20.00" fill="#ffffff" stroke="#7b7b7b"/><text class="txt" x="156.00" y="96.00" font-size="16.00" fill="#000000">⬆</text></g><g id="48"><rect x="166.00" y="86.00" width="20.00" height="20.00" fill="#ff6347" stroke="#7b7b7b"/><text class="txt" x="176.00" y="96.00" font-size="16.00" fill="#000000">⬆</text></g><g id="49"><rect x="186.00" y="86.00" width="20.00" height="20.00" fill="#ffffff" stroke="#7b7b7b"/><text class="txt" x="196.00" y="96.00" font-size="16.00" fill="#000000">⬅</text></g><g id="50"><rect x="6.00" y="106.00" width="20.00" height="20.00" fill="#ffffff" stroke="#7b7b7b"/><text class="txt" x="16.00" y="116.00" font-size="16.00" fill="#000000">⬆</text></g><g id="51"><rect x="26.00" y="106.00" width="20.00" height="20.00" fill="#ffffff" stroke="#7b7b7b"/><text class="txt" x="36.00" y="116.00" font-size="16.00" fill="#000000">⬆</text></g><g id="52"><rect x="46.00" y="106.00" width="20.00" height="20.00" fill="#ffffff" stroke="#7b7b7b"/><text class="txt" x="56.00" y="116.00" font-size="16.00" fill="#000000">⬆</text></g><g id="53"><rect x="66.00" y="106.00" width="20.00" height="20.00" fill="#ffffff" stroke="#7b7b7b"/><text class="txt" x="76.00" y="116.00" font-size="16.00" fill="#000000">⬆</text></g><g id="54"><rect x="86.00" y="106.00" width="20.00" height="20.00" fill="#c0c0c0" stroke="#7b7b7b"/><text class="txt" x="96.00" y="116.00" font-size="0.00" fill="#000000"/></g><g id="55"><rect x="106.00" y="106.00" width="20.00" height="20.00" fill="#c0c0c0" stroke="#7b7b7b"/><text class="txt" x="116.00" y="116.00" font-size="0.00" fill="#000000"/></g><g id="56"><rect x="126.00" y="106.00" width="20.00" height="20.00" fill="#ffffff" stroke="#7b7b7b"/><text class="txt" x="136.00" y="116.00" font-size="16.00" fill="#000000">⬆</text></g><g id="57"><rect x="146.00" y="106.00" width="20.00" height="20.00" fill="#ffffff" stroke="#7b7b7b"/><text class="txt" x="156.00" y="116.00" font-size="16.00" fill="#000000">⬆</text></g><g id="58"><rect x="166.00" y="106.00" width="20.00" height="20.00" fill="#ff6347" stroke="#7b7b7b"/><text class="txt" x="176.00" y="116.00" font-size="16.00" fill="#000000">⬆</text></g><g id="59"><rect x="186.00" y="106.00" width="20.00" height="20.00" fill="#ffffff" stroke="#7b7b7b"/><text class="txt" x="196.00" y="116.00" font-size="16.00" fill="#000000">⬅</text></g><g id="60"><rect x="6.00" y="126.00" width="20.00" height="20.00" fill="#ffffff" stroke="#7b7b7b"/><text class="txt" x="16.00" y="136.00" font-size="16.00" fill="#000000">⬆</text></g><g id="61"><rect x="26.00" y="126.00" width="20.00" height="20.00" fill="#ffffff" stroke="#7b7b7b"/><text class="txt" x="36.00" y="136.00" font-size="16.00" fill="#000000">⬆</text></g><g id="62"><rect x="46.00" y="126.00" width="20.00" height="20.00" fill="#ffffff" stroke="#7b7b7b"/><text class="txt" x="56.00" y="136.00" font-size="16.00" fill="#000000">⬆</text></g><g id="63"><rect x="66.00" y="126.00" width="20.00" height="20.00" fill="#ffffff" stroke="#7b7b7b"/><text class="txt" x="76.00" y="136.00" font-size="16.00" fill="#000000">⬆</text></g><g id="64"><rect x="86.00" y="126.00" width="20.00" height="20.00" fill="#ffffff" stroke="#7b7b7b"/><text class="txt" x="96.00" y="136.00" font-size="16.00" fill="#000000">⬅</text></g><g id="65"><rect x="106.00" y="126.00" width="20.00" height="20.00" fill="#c0c0c0" stroke="#7b7b7b"/><text class="txt" x="116.00" y="136.00" font-size="0.00" fill="#000000"/></g><g id="66"><rect x="126.00" y="126.00" width="20.00" height="20.00" fill="#ffffff" stroke="#7b7b7b"/><text class="txt" x="136.00" y="136.00" font-size="16.00" fill="#000000">⬆</text></g><g id="67"><rect x="146.00" y="126.00" width="20.00" height="20.00" fill="#ffffff" stroke="#7b7b7b"/><text class="txt" x="156.00" y="136.00" font-size="16.00" fill="#000000">⬆</text></g><g id="68"><rect x="166.00" y="126.00" width="20.00" height="20.00" fill="#ff6347" stroke="#7b7b7b"/><text class="txt" x="176.00" y="136.00" font-size="16.00" fill="#000000">⬆</text></g><g id="69"><rect x="186.00" y="126.00" width="20.00" height="20.00" fill="#ffffff" stroke="#7b7b7b"/><text class="txt" x="196.00" y="136.00" font-size="16.00" fill="#000000">⬅</text></g><g id="70"><rect x="6.00" y="146.00" width="20.00" height="20.00" fill="#ffffff" stroke="#7b7b7b"/><text class="txt" x="16.00" y="156.00" font-size="16.00" fill="#000000">⬆</text></g><g id="71"><rect x="26.00" y="146.00" width="20.00" height="20.00" fill="#ffffff" stroke="#7b7b7b"/><text class="txt" x="36.00" y="156.00" font-size="16.00" fill="#000000">⬆</text></g><g id="72"><rect x="46.00" y="146.00" width="20.00" height="20.00" fill="#ffffff" stroke="#7b7b7b"/><text class="txt" x="56.00" y="156.00" font-size="16.00" fill="#000000">⬆</text></g><g id="73"><rect x="66.00" y="146.00" width="20.00" height="20.00" fill="#ffffff" stroke="#7b7b7b"/><text class="txt" x="76.00" y="156.00" font-size="16.00" fill="#000000">⬆</text></g><g id="74"><rect x="86.00" y="146.00" width="20.00" height="20.00" fill="#ffffff" stroke="#7b7b7b"/><text class="txt" x="96.00" y="156.00" font-size="16.00" fill="#000000">⬆</text></g><g id="75"><rect x="106.00" y="146.00" width="20.00" height="20.00" fill="#ffffff" stroke="#7b7b7b"/><text class="txt" x="116.00" y="156.00" font-size="16.00" fill="#000000">⬅</text></g><g id="76"><rect x="126.00" y="146.00" width="20.00" height="20.00" fill="#c0c0c0" stroke="#7b7b7b"/><text class="txt" x="136.00" y="156.00" font-size="0.00" fill="#000000"/></g><g id="77"><rect x="146.00" y="146.00" width="20.00" height="20.00" fill="#ffffff" stroke="#7b7b7b"/><text class="txt" x="156.00" y="156.00" font-size="16.00" fill="#000000">⬆</text></g><g id="78"><rect x="166.00" y="146.00" width="20.00" height="20.00" fill="#008000" stroke="#7b7b7b"/><text class="txt" x="176.00" y="156.00" font-size="16.00" fill="#FFFFFF">⬆</text></g><g id="79"><rect x="186.00" y="146.00" width="20.00" height="20.00" fill="#ffffff" stroke="#7b7b7b"/><text class="txt" x="196.00" y="156.00" font-size="0.00" fill="#000000"/></g><g id="80"><rect x="6.00" y="166.00" width="20.00" height="20.00" fill="#ffffff" stroke="#7b7b7b"/><text class="txt" x="16.00" y="176.00" font-size="16.00" fill="#000000">⬆</text></g><g id="81"><rect x="26.00" y="166.00" width="20.00" height="20.00" fill="#ffffff" stroke="#7b7b7b"/><text class="txt" x="36.00" y="176.00" font-size="16.00" fill="#000000">⬆</text></g><g id="82"><rect x="46.00" y="166.00" width="20.00" height="20.00" fill="#ffffff" stroke="#7b7b7b"/><text class="txt" x="56.00" y="176.00" font-size="16.00" fill="#000000">⬅</text></g><g id="83"><rect x="66.00" y="166.00" width="20.00" height="20.00" fill="#ffffff" stroke="#7b7b7b"/><text class="txt" x="76.00" y="176.00" font-size="16.00" fill="#000000">⬆</text></g><g id="84"><rect x="86.00" y="166.00" width="20.00" height="20.00" fill="#ffffff" stroke="#7b7b7b"/><text class="txt" x="96.00" y="176.00" font-size="16.00" fill="#000000">⬆</text></g><g id="85"><rect x="106.00" y="166.00" width="20.00" height="20.00" fill="#ffffff" stroke="#7b7b7b"/><text class="txt" x="116.00" y="176.00" font-size="16.00" fill="#000000">⬆</text></g><g id="86"><rect x="126.00" y="166.00" width="20.00" height="20.00" fill="#c0c0c0" stroke="#7b7b7b"/><text class="txt" x="136.00" y="176.00" font-size="0.00" fill="#000000"/></g><g id="87"><rect x="146.00" y="166.00" width="20.00" height="20.00" fill="#ffffff" stroke="#7b7b7b"/><text class="txt" x="156.00" y="176.00" font-size="16.00" fill="#000000">⬆</text></g><g id="88"><rect x="166.00" y="166.00" width="20.00" height="20.00" fill="#ffffff" stroke="#7b7b7b"/><text class="txt" x="176.00" y="176.00" font-size="0.00" fill="#000000"/></g><g id="89"><rect x="186.00" y="166.00" width="20.00" height="20.00" fill="#ffffff" stroke="#7b7b7b"/><text class="txt" x="196.00" y="176.00" font-size="0.00" fill="#000000"/></g><g id="90"><rect x="6.00" y="186.00" width="20.00" height="20.00" fill="#ffffff" stroke="#7b7b7b"/><text class="txt" x="16.00" y="196.00" font-size="0.00" fill="#000000"/></g><g id="91"><rect x="26.00" y="186.00" width="20.00" height="20.00" fill="#ffffff" stroke="#7b7b7b"/><text class="txt" x="36.00" y="196.00" font-size="16.00" fill="#000000">⬆</text></g><g id="92"><rect x="46.00" y="186.00" width="20.00" height="20.00" fill="#ffffff" stroke="#7b7b7b"/><text class="txt" x="56.00" y="196.00" font-size="0.00" fill="#000000"/></g><g id="93"><rect x="66.00" y="186.00" width="20.00" height="20.00" fill="#ffffff" stroke="#7b7b7b"/><text class="txt" x="76.00" y="196.00" font-size="0.00" fill="#000000"/></g><g id="94"><rect x="86.00" y="186.00" width="20.00" height="20.00" fill="#ffffff" stroke="#7b7b7b"/><text class="txt" x="96.00" y="196.00" font-size="0.00" fill="#000000"/></g><g id="95"><rect x="106.00" y="186.00" width="20.00" height="20.00" fill="#ffffff" stroke="#7b7b7b"/><text class="txt" x="116.00" y="196.00" font-size="0.00" fill="#000000"/></g><g id="96"><rect x="126.00" y="186.00" width="20.00" height="20.00" fill="#ffffff" stroke="#7b7b7b"/><text class="txt" x="136.00" y="196.00" font-size="0.00" fill="#000000"/></g><g id="97"><rect x="146.00" y="186.00" width="20.00" height="20.00" fill="#ffffff" stroke="#7b7b7b"/><text class="txt" x="156.00" y="196.00" font-size="0.00" fill="#000000"/></g><g id="98"><rect x="166.00" y="186.00" width="20.00" height="20.00" fill="#ffffff" stroke="#7b7b7b"/><text class="txt" x="176.00" y="196.00" font-size="0.00" fill="#000000"/></g><g id="99"><rect x="186.00" y="186.00" width="20.00" height="20.00" fill="#ffffff" stroke="#7b7b7b"/><text class="txt" x="196.00" y="196.00" font-size="0.00" fill="#000000"/></g><g id="100"><text x="209.00" y="22.00" font-size="12.00" font-family="Times,serif" fill="#7b7b7b">0</text></g><g id="101"><text x="209.00" y="42.00" font-size="12.00" font-family="Times,serif" fill="#7b7b7b">1</text></g><g id="102"><text x="209.00" y="62.00" font-size="12.00" font-family="Times,serif" fill="#7b7b7b">2</text></g><g id="103"><text x="209.00" y="82.00" font-size="12.00" font-family="Times,serif" fill="#7b7b7b">3</text></g><g id="104"><text x="209.00" y="102.00" font-size="12.00" font-family="Times,serif" fill="#7b7b7b">4</text></g><g id="105"><text x="209.00" y="122.00" font-size="12.00" font-family="Times,serif" fill="#7b7b7b">5</text></g><g id="106"><text x="209.00" y="142.00" font-size="12.00" font-family="Times,serif" fill="#7b7b7b">6</text></g><g id="107"><text x="209.00" y="162.00" font-size="12.00" font-family="Times,serif" fill="#7b7b7b">7</text></g><g id="108"><text x="209.00" y="182.00" font-size="12.00" font-family="Times,serif" fill="#7b7b7b">8</text></g><g id="109"><text x="209.00" y="202.00" font-size="12.00" font-family="Times,serif" fill="#7b7b7b">9</text></g><g id="110"><text x="13.00" y="219.00" font-size="12.00" font-family="Times,serif" fill="#7b7b7b">0</text></g><g id="111"><text x="33.00" y="219.00" font-size="12.00" font-family="Times,serif" fill="#7b7b7b">1</text></g><g id="112"><text x="53.00" y="219.00" font-size="12.00" font-family="Times,serif" fill="#7b7b7b">2</text></g><g id="113"><text x="73.00" y="219.00" font-size="12.00" font-family="Times,serif" fill="#7b7b7b">3</text></g><g id="114"><text x="93.00" y="219.00" font-size="12.00" font-family="Times,serif" fill="#7b7b7b">4</text></g><g id="115"><text x="113.00" y="219.00" font-size="12.00" font-family="Times,serif" fill="#7b7b7b">5</text></g><g id="116"><text x="133.00" y="219.00" font-size="12.00" font-family="Times,serif" fill="#7b7b7b">6</text></g><g id="117"><text x="153.00" y="219.00" font-size="12.00" font-family="Times,serif" fill="#7b7b7b">7</text></g><g id="118"><text x="173.00" y="219.00" font-size="12.00" font-family="Times,serif" fill="#7b7b7b">8</text></g><g id="119"><text x="193.00" y="219.00" font-size="12.00" font-family="Times,serif" fill="#7b7b7b">9</text></g><animate attributeName="opacity" id="0S42" from="0" to="1" begin="0E41.begin" dur="0.01s" fill="freeze"/><animate attributeName="opacity" id="0E42" begin="0S42.begin+1.5s" from="1" to="0" dur="0.01s" fill="freeze"/></g><g><animate attributeName="opacity" begin="1S43.begin" from="1" to="0" dur="0.01s" fill="freeze"/><animate attributeName="opacity" from="0" to="1" begin="1E43.end" dur="0.01s" fill="freeze"/></g></a></svg>