<?xml version="1.0" ?><svg xmlns="http://www.w3.org/2000/svg" xmlns:xlink="http://www.w3.org/1999/xlink" width="314pt" height="205pt" viewBox="0.00 0.00 314.00 205.00"><style>.txt { alignment-baseline:middle; text-anchor:middle; font-family:Times,serif; }</style><a xlink:href="https://algviz.com/"><g class="frame" style="opacity:0" transform="translate(5,5.0)"><g id="0"><rect x="261.00" y="38.00" width="40.00" height="110.00" rx="4.00" ry="4.00" fill="#808080" stroke="#7b7b7b"/><text class="txt" x="281.00" y="93.00" font-size="16.00" fill="#000000">5</text></g><g id="1"><rect x="89.00" y="82.00" width="40.00" height="66.00" rx="4.00" ry="4.00" fill="#ff0000" stroke="#7b7b7b"/><text class="txt" x="109.00" y="115.00" font-size="16.00" fill="#000000">3</text></g><g id="2"><rect x="3.00" y="148.00" width="40.00" height="44.00" rx="4.00" ry="4.00" fill="#ffffff" stroke="#7b7b7b"/><text class="txt" x="23.00" y="170.00" font-size="16.00" fill="#000000">-2</text></g><g id="3"><rect x="175.00" y="82.00" width="40.00" height="66.00" rx="4.00" ry="4.00" fill="#ffffff" stroke="#7b7b7b"/><text class="txt" x="195.00" y="115.00" font-size="16.00" fill="#000000">3</text></g><g id="4"><rect x="46.00" y="148.00" width="40.00" height="22.00" rx="2.20" ry="2.20" fill="#ffffff" stroke="#7b7b7b"/><text class="txt" x="66.00" y="159.00" font-size="16.00" fill="#000000">-1</text></g><g id="5"><rect x="132.00" y="126.00" width="40.00" height="22.00" rx="2.20" ry="2.20" fill="#008000" stroke="#7b7b7b"/><text class="txt" x="152.00" y="137.00" font-size="16.00" fill="#FFFFFF">1</text></g><g id="6"><rect x="218.00" y="60.00" width="40.00" height="88.00" rx="4.00" ry="4.00" fill="#808080" stroke="#7b7b7b"/><text class="txt" x="238.00" y="104.00" font-size="16.00" fill="#000000">4</text></g><g id="7"><polyline points="107.00,33.00 109.00,35.00 111.00,33.00" fill="none" stroke="#2874a6"/><text class="txt" x="109.00" y="26.00" font-size="14.00" fill="#2874a6">i</text><line x1="109.00" y1="35.00" stroke="#2874a6" x2="109.00" y2="34.40"/><animateMotion path="m0,0 l0.00,0.00" begin="0S37.end+0.00s" dur="1.00s" fill="freeze"/><animateMotion path="m0,0 l0,0" begin="0E37.end" dur="0.01s" fill="freeze"/></g><g id="8"><polyline points="152.00,33.00 154.00,35.00 156.00,33.00" fill="none" stroke="#935116"/><text class="txt" x="152.00" y="10.00" font-size="14.00" fill="#935116">j</text><line x1="154.00" y1="35.00" stroke="#935116" x2="154.00" y2="18.40"/><animateMotion path="m0,0 l0.00,0.00" begin="0S37.end+0.00s" dur="1.00s" fill="freeze"/><animateMotion path="m0,0 l0,0" begin="0E37.end" dur="0.01s" fill="freeze"/></g><animate attributeName="opacity" id="0S37" from="0" to="1" begin="0s;0E38.end+0s" dur="0.01s" fill="freeze"/><animate attributeName="opacity" id="0E37" begin="0S37.begin+1.5s" from="1" to="0" dur="0.01s" fill="freeze"/></g><g class="frame" style="opacity:0" transform="translate(5,5.0)"><g id="0"><rect x="261.00" y="38.00" width="40.00" height="110.00" rx="4.00" ry="4.00" fill="#808080" stroke="#7b7b7b"/><text class="txt" x="281.00" y="93.00" font-size="16.00" fill="#000000">5</text></g><g id="1"><rect x="89.00" y="82.00" width="40.00" height="66.00" rx="4.00" ry="4.00" fill="#ffffff" stroke="#7b7b7b"/><text class="txt" x="109.00" y="115.00" font-size="16.00" fill="#000000">3</text><animateMotion path="m0,0 l43.00,0.00" begin="0S38.end+0.00s" dur="1.20s" fill="freeze"/><animateMotion path="m0,0 l0,0" begin="0E38.end" dur="0.01s" fill="freeze"/></g><g id="2"><rect x="3.00" y="148.00" width="40.00" height="44.00" rx="4.00" ry="4.00" fill="#ffffff" stroke="#7b7b7b"/><text class="txt" x="23.00" y="170.00" font-size="16.00" fill="#000000">-2</text></g><g id="3"><rect x="175.00" y="82.00" width="40.00" height="66.00" rx="4.00" ry="4.00" fill="#ffffff" stroke="#7b7b7b"/><text class="txt" x="195.00" y="115.00" font-size="16.00" fill="#000000">3</text></g><g id="4"><rect x="46.00" y="148.00" width="40.00" height="22.00" rx="2.20" ry="2.20" fill="#ffffff" stroke="#7b7b7b"/><text class="txt" x="66.00" y="159.00" font-size="16.00" fill="#000000">-1</text></g><g id="5"><rect x="132.00" y="126.00" width="40.00" height="22.00" rx="2.20" ry="2.20" fill="#ffffff" stroke="#7b7b7b"/><text class="txt" x="152.00" y="137.00" font-size="16.00" fill="#000000">1</text><animateMotion path="m0,0 l-43.00,0.00" begin="0S38.end+0.00s" dur="1.20s" fill="freeze"/><animateMotion path="m0,0 l0,0" begin="0E38.end" dur="0.01s" fill="freeze"/></g><g id="6"><rect x="218.00" y="60.00" width="40.00" height="88.00" rx="4.00" ry="4.00" fill="#808080" stroke="#7b7b7b"/><text class="txt" x="238.00" y="104.00" font-size="16.00" fill="#000000">4</text></g><g id="7"><polyline points="107.00,33.00 109.00,35.00 111.00,33.00" fill="none" stroke="#2874a6"/><text class="txt" x="109.00" y="26.00" font-size="14.00" fill="#2874a6">i</text><line x1="109.00" y1="35.00" stroke="#2874a6" x2="109.00" y2="34.40"/><animateMotion path="m0,0 l0.00,0.00" begin="0S38.end+0.00s" dur="2.00s" fill="freeze"/><animateMotion path="m0,0 l0,0" begin="0E38.end" dur="0.01s" fill="freeze"/></g><g id="8"><polyline points="152.00,33.00 154.00,35.00 156.00,33.00" fill="none" stroke="#935116"/><text class="txt" x="152.00" y="10.00" font-size="14.00" fill="#935116">j</text><line x1="154.00" y1="35.00" stroke="#935116" x2="154.00" y2="18.40"/><animateMotion path="m0,0 l0.00,0.00" begin="0S38.end+0.00s" dur="2.00s" fill="freeze"/><animateMotion path="m0,0 l0,0" begin="0E38.end" dur="0.01s" fill="freeze"/></g><animate attributeName="opacity" id="0S38" from="0" to="1" begin="0E37.begin" dur="0.01s" fill="freeze"/><animate attributeName="opacity" id="0E38" begin="0S38.begin+2.5s" from="1" to="0" dur="0.01s" fill="freeze"/></g><g><animate attributeName="opacity" begin="1S39.begin" from="1" to="0" dur="0.01s" fill="freeze"/><animate attributeName="opacity" from="0" to="1" begin="1E39.end" dur="0.01s" fill="freeze"/></g></a></svg>