<?xml version="1.0" ?><svg xmlns="http://www.w3.org/2000/svg" xmlns:xlink="http://www.w3.org/1999/xlink" width="449pt" height="446pt" viewBox="0.00 0.00 449.00 446.00"><style>.txt { alignment-baseline:middle; text-anchor:middle; font-family:Times,serif; }</style><a xlink:href="https://zjl9959.github.io/algviz/"><g class="frame" style="opacity:0" transform="translate(5,23.0)"><g id="graph0" class="graph" transform="scale(1 1) rotate(0) translate(4 171)"><polygon fill="transparent" stroke="transparent" points="-4,4 -4,-171 435,-171 435,4 -4,4"/><g id="node1" class="node"><ellipse fill="#ffc0cb" stroke="#7b7b7b" cx="18" cy="-39" rx="18" ry="18"/><text text-anchor="middle" x="18" y="-35.3" font-family="Times New Roman,serif" font-size="14.00" fill="#000000">0</text></g><g id="node2" class="node"><ellipse fill="#d2b48c" stroke="#7b7b7b" cx="97" cy="-100" rx="18" ry="18"/><text text-anchor="middle" x="97" y="-96.3" font-family="Times New Roman,serif" font-size="14.00" fill="#000000">1</text></g><g id="edge3" class="edge"><path fill="none" stroke="#ffc0cb" d="M32.77,-49.91C44.26,-59.01 60.86,-72.16 74.17,-82.71"/><polygon fill="#ffc0cb" stroke="#ffc0cb" points="82.35,-89.19 71.72,-86.51 78.43,-86.08 74.51,-82.98 74.51,-82.98 74.51,-82.98 78.43,-86.08 77.31,-79.45 82.35,-89.19 82.35,-89.19"/><text text-anchor="middle" x="57.5" y="-74.4" font-family="Times New Roman,serif" font-size="12.00" fill="#c0c0c0">2</text></g><g id="node5" class="node"><ellipse fill="#ffffff" stroke="#7b7b7b" cx="413" cy="-46" rx="18" ry="18"/><text text-anchor="middle" x="413" y="-42.3" font-family="Times New Roman,serif" font-size="14.00" fill="#000000">4</text></g><g id="edge1" class="edge"><path fill="none" stroke="#7b7b7b" d="M32.16,-27.51C46.74,-16.01 71.42,0 96,0 96,0 96,0 335,0 356.74,0 377.67,-13.68 392.2,-26.12"/><polygon fill="#7b7b7b" stroke="#7b7b7b" points="399.98,-33.19 389.55,-29.79 396.28,-29.82 392.58,-26.46 392.58,-26.46 392.58,-26.46 396.28,-29.82 395.61,-23.13 399.98,-33.19 399.98,-33.19"/><text text-anchor="middle" x="215.5" y="-3.4" font-family="Times New Roman,serif" font-size="12.00" fill="#c0c0c0">8</text></g><g id="node7" class="node"><ellipse fill="#ffffff" stroke="#7b7b7b" cx="255" cy="-46" rx="18" ry="18"/><text text-anchor="middle" x="255" y="-42.3" font-family="Times New Roman,serif" font-size="14.00" fill="#000000">6</text></g><g id="edge2" class="edge"><path fill="none" stroke="#7b7b7b" d="M36.28,-39.51C76.68,-40.72 177.6,-43.72 226.53,-45.18"/><polygon fill="#7b7b7b" stroke="#7b7b7b" points="236.69,-45.48 226.56,-49.68 231.7,-45.34 226.7,-45.19 226.7,-45.19 226.7,-45.19 231.7,-45.34 226.83,-40.69 236.69,-45.48 236.69,-45.48"/><text text-anchor="middle" x="136.5" y="-45.4" font-family="Times New Roman,serif" font-size="12.00" fill="#c0c0c0">6</text></g><g id="node3" class="node"><ellipse fill="#adff2f" stroke="#7b7b7b" cx="255" cy="-149" rx="18" ry="18"/><text text-anchor="middle" x="255" y="-145.3" font-family="Times New Roman,serif" font-size="14.00" fill="#000000">2</text></g><g id="edge5" class="edge"><path fill="none" stroke="#ffc0cb" d="M113.57,-107.86C119.59,-110.82 126.57,-114.16 133,-117 166.68,-131.89 176.04,-134.03 212,-142 216.67,-143.04 221.67,-143.99 226.53,-144.85"/><polygon fill="#ffc0cb" stroke="#ffc0cb" points="236.76,-146.55 226.15,-149.35 231.82,-145.73 226.89,-144.91 226.89,-144.91 226.89,-144.91 231.82,-145.73 227.63,-140.47 236.76,-146.55 236.76,-146.55"/><text text-anchor="middle" x="176" y="-140.4" font-family="Times New Roman,serif" font-size="12.00" fill="#c0c0c0">3</text></g><g id="node6" class="node"><ellipse fill="#ffffff" stroke="#7b7b7b" cx="176" cy="-100" rx="18" ry="18"/><text text-anchor="middle" x="176" y="-96.3" font-family="Times New Roman,serif" font-size="14.00" fill="#000000">5</text></g><g id="edge4" class="edge"><path fill="none" stroke="#7b7b7b" d="M115.09,-100C124.66,-100 136.82,-100 147.68,-100"/><polygon fill="#7b7b7b" stroke="#7b7b7b" points="157.96,-100 147.96,-104.5 152.96,-100 147.96,-100 147.96,-100 147.96,-100 152.96,-100 147.96,-95.5 157.96,-100 157.96,-100"/><text text-anchor="middle" x="136.5" y="-103.4" font-family="Times New Roman,serif" font-size="12.00" fill="#c0c0c0">1</text></g><g id="node4" class="node"><ellipse fill="#ffffff" stroke="#7b7b7b" cx="334" cy="-100" rx="18" ry="18"/><text text-anchor="middle" x="334" y="-96.3" font-family="Times New Roman,serif" font-size="14.00" fill="#000000">3</text></g><g id="edge6" class="edge"><path fill="none" stroke="#7b7b7b" d="M270.48,-139.78C281.49,-132.78 296.86,-123 309.6,-114.89"/><polygon fill="#7b7b7b" stroke="#7b7b7b" points="318.32,-109.34 312.3,-118.51 314.1,-112.03 309.88,-114.71 309.88,-114.71 309.88,-114.71 314.1,-112.03 307.47,-110.91 318.32,-109.34 318.32,-109.34"/><text text-anchor="middle" x="294.5" y="-128.4" font-family="Times New Roman,serif" font-size="12.00" fill="#c0c0c0">1</text></g><g id="edge7" class="edge"><path fill="none" stroke="#7b7b7b" d="M349.12,-90.1C360.34,-82.23 376.25,-71.07 389.26,-61.95"/><polygon fill="#7b7b7b" stroke="#7b7b7b" points="397.71,-56.02 392.1,-65.45 393.61,-58.9 389.52,-61.77 389.52,-61.77 389.52,-61.77 393.61,-58.9 386.93,-58.08 397.71,-56.02 397.71,-56.02"/><text text-anchor="middle" x="373.5" y="-77.4" font-family="Times New Roman,serif" font-size="12.00" fill="#c0c0c0">3</text></g><g id="edge8" class="edge"><path fill="none" stroke="#7b7b7b" d="M191.48,-109.22C202.49,-116.22 217.86,-126 230.6,-134.11"/><polygon fill="#7b7b7b" stroke="#7b7b7b" points="239.32,-139.66 228.47,-138.09 235.1,-136.97 230.88,-134.29 230.88,-134.29 230.88,-134.29 235.1,-136.97 233.3,-130.49 239.32,-139.66 239.32,-139.66"/><text text-anchor="middle" x="215.5" y="-128.4" font-family="Times New Roman,serif" font-size="12.00" fill="#c0c0c0">1</text></g><g id="edge10" class="edge"><path fill="none" stroke="#7b7b7b" d="M194.29,-100C221.23,-100 273.46,-100 305.58,-100"/><polygon fill="#7b7b7b" stroke="#7b7b7b" points="315.63,-100 305.63,-104.5 310.63,-100 305.63,-100 305.63,-100 305.63,-100 310.63,-100 305.63,-95.5 315.63,-100 315.63,-100"/><text text-anchor="middle" x="255" y="-103.4" font-family="Times New Roman,serif" font-size="12.00" fill="#c0c0c0">2</text></g><g id="edge9" class="edge"><path fill="none" stroke="#7b7b7b" d="M190.43,-89.21C196.86,-84.16 204.72,-78.13 212,-73 217.9,-68.84 224.41,-64.53 230.51,-60.6"/><polygon fill="#7b7b7b" stroke="#7b7b7b" points="239.02,-55.19 232.99,-64.35 234.8,-57.87 230.58,-60.55 230.58,-60.55 230.58,-60.55 234.8,-57.87 228.17,-56.75 239.02,-55.19 239.02,-55.19"/><text text-anchor="middle" x="215.5" y="-76.4" font-family="Times New Roman,serif" font-size="12.00" fill="#c0c0c0">1</text></g><g id="edge11" class="edge"><path fill="none" stroke="#7b7b7b" d="M273.29,-46C300.23,-46 352.46,-46 384.58,-46"/><polygon fill="#7b7b7b" stroke="#7b7b7b" points="394.63,-46 384.63,-50.5 389.63,-46 384.63,-46 384.63,-46 384.63,-46 389.63,-46 384.63,-41.5 394.63,-46 394.63,-46"/><text text-anchor="middle" x="334" y="-49.4" font-family="Times New Roman,serif" font-size="12.00" fill="#c0c0c0">3</text></g></g><g id="graph1" class="graph" transform="scale(1 1) rotate(0) translate(4 171)"/><animate attributeName="opacity" id="0S10" from="0" to="1" begin="0s;0E12.end+0s" dur="0.01s" fill="freeze"/><animate attributeName="opacity" id="0E10" begin="0S10.begin+5s" from="1" to="0" dur="0.01s" fill="freeze"/></g><g class="frame" style="opacity:0" transform="translate(5,23.0)"><g id="graph0" class="graph" transform="scale(1 1) rotate(0) translate(4 171)"><polygon fill="transparent" stroke="transparent" points="-4,4 -4,-171 435,-171 435,4 -4,4"/><g id="node1" class="node"><ellipse fill="#ffffff" stroke="#7b7b7b" cx="18" cy="-39" rx="18" ry="18"/><text text-anchor="middle" x="18" y="-35.3" font-family="Times New Roman,serif" font-size="14.00" fill="#000000">0</text></g><g id="node2" class="node"><ellipse fill="#d2b48c" stroke="#7b7b7b" cx="97" cy="-100" rx="18" ry="18"/><text text-anchor="middle" x="97" y="-96.3" font-family="Times New Roman,serif" font-size="14.00" fill="#000000">1</text></g><g id="edge3" class="edge"><path fill="none" stroke="#7b7b7b" d="M32.77,-49.91C44.26,-59.01 60.86,-72.16 74.17,-82.71"/><polygon fill="#7b7b7b" stroke="#7b7b7b" points="82.35,-89.19 71.72,-86.51 78.43,-86.08 74.51,-82.98 74.51,-82.98 74.51,-82.98 78.43,-86.08 77.31,-79.45 82.35,-89.19 82.35,-89.19"/><text text-anchor="middle" x="57.5" y="-74.4" font-family="Times New Roman,serif" font-size="12.00" fill="#c0c0c0">2</text></g><g id="node5" class="node"><ellipse fill="#ffffff" stroke="#7b7b7b" cx="413" cy="-46" rx="18" ry="18"/><text text-anchor="middle" x="413" y="-42.3" font-family="Times New Roman,serif" font-size="14.00" fill="#000000">4</text></g><g id="edge1" class="edge"><path fill="none" stroke="#7b7b7b" d="M32.16,-27.51C46.74,-16.01 71.42,0 96,0 96,0 96,0 335,0 356.74,0 377.67,-13.68 392.2,-26.12"/><polygon fill="#7b7b7b" stroke="#7b7b7b" points="399.98,-33.19 389.55,-29.79 396.28,-29.82 392.58,-26.46 392.58,-26.46 392.58,-26.46 396.28,-29.82 395.61,-23.13 399.98,-33.19 399.98,-33.19"/><text text-anchor="middle" x="215.5" y="-3.4" font-family="Times New Roman,serif" font-size="12.00" fill="#c0c0c0">8</text></g><g id="node7" class="node"><ellipse fill="#ffffff" stroke="#7b7b7b" cx="255" cy="-46" rx="18" ry="18"/><text text-anchor="middle" x="255" y="-42.3" font-family="Times New Roman,serif" font-size="14.00" fill="#000000">6</text></g><g id="edge2" class="edge"><path fill="none" stroke="#7b7b7b" d="M36.28,-39.51C76.68,-40.72 177.6,-43.72 226.53,-45.18"/><polygon fill="#7b7b7b" stroke="#7b7b7b" points="236.69,-45.48 226.56,-49.68 231.7,-45.34 226.7,-45.19 226.7,-45.19 226.7,-45.19 231.7,-45.34 226.83,-40.69 236.69,-45.48 236.69,-45.48"/><text text-anchor="middle" x="136.5" y="-45.4" font-family="Times New Roman,serif" font-size="12.00" fill="#c0c0c0">6</text></g><g id="node3" class="node"><ellipse fill="#adff2f" stroke="#7b7b7b" cx="255" cy="-149" rx="18" ry="18"/><text text-anchor="middle" x="255" y="-145.3" font-family="Times New Roman,serif" font-size="14.00" fill="#000000">2</text></g><g id="edge5" class="edge"><path fill="none" stroke="#7b7b7b" d="M113.57,-107.86C119.59,-110.82 126.57,-114.16 133,-117 166.68,-131.89 176.04,-134.03 212,-142 216.67,-143.04 221.67,-143.99 226.53,-144.85"/><polygon fill="#7b7b7b" stroke="#7b7b7b" points="236.76,-146.55 226.15,-149.35 231.82,-145.73 226.89,-144.91 226.89,-144.91 226.89,-144.91 231.82,-145.73 227.63,-140.47 236.76,-146.55 236.76,-146.55"/><text text-anchor="middle" x="176" y="-140.4" font-family="Times New Roman,serif" font-size="12.00" fill="#c0c0c0">3</text></g><g id="node6" class="node"><ellipse fill="#ffffff" stroke="#7b7b7b" cx="176" cy="-100" rx="18" ry="18"/><text text-anchor="middle" x="176" y="-96.3" font-family="Times New Roman,serif" font-size="14.00" fill="#000000">5</text></g><g id="edge4" class="edge"><path fill="none" stroke="#7b7b7b" d="M115.09,-100C124.66,-100 136.82,-100 147.68,-100"/><polygon fill="#7b7b7b" stroke="#7b7b7b" points="157.96,-100 147.96,-104.5 152.96,-100 147.96,-100 147.96,-100 147.96,-100 152.96,-100 147.96,-95.5 157.96,-100 157.96,-100"/><text text-anchor="middle" x="136.5" y="-103.4" font-family="Times New Roman,serif" font-size="12.00" fill="#c0c0c0">1</text></g><g id="node4" class="node"><ellipse fill="#ffffff" stroke="#7b7b7b" cx="334" cy="-100" rx="18" ry="18"/><text text-anchor="middle" x="334" y="-96.3" font-family="Times New Roman,serif" font-size="14.00" fill="#000000">3</text></g><g id="edge6" class="edge"><path fill="none" stroke="#7b7b7b" d="M270.48,-139.78C281.49,-132.78 296.86,-123 309.6,-114.89"/><polygon fill="#7b7b7b" stroke="#7b7b7b" points="318.32,-109.34 312.3,-118.51 314.1,-112.03 309.88,-114.71 309.88,-114.71 309.88,-114.71 314.1,-112.03 307.47,-110.91 318.32,-109.34 318.32,-109.34"/><text text-anchor="middle" x="294.5" y="-128.4" font-family="Times New Roman,serif" font-size="12.00" fill="#c0c0c0">1</text></g><g id="edge7" class="edge"><path fill="none" stroke="#7b7b7b" d="M349.12,-90.1C360.34,-82.23 376.25,-71.07 389.26,-61.95"/><polygon fill="#7b7b7b" stroke="#7b7b7b" points="397.71,-56.02 392.1,-65.45 393.61,-58.9 389.52,-61.77 389.52,-61.77 389.52,-61.77 393.61,-58.9 386.93,-58.08 397.71,-56.02 397.71,-56.02"/><text text-anchor="middle" x="373.5" y="-77.4" font-family="Times New Roman,serif" font-size="12.00" fill="#c0c0c0">3</text></g><g id="edge8" class="edge"><path fill="none" stroke="#7b7b7b" d="M191.48,-109.22C202.49,-116.22 217.86,-126 230.6,-134.11"/><polygon fill="#7b7b7b" stroke="#7b7b7b" points="239.32,-139.66 228.47,-138.09 235.1,-136.97 230.88,-134.29 230.88,-134.29 230.88,-134.29 235.1,-136.97 233.3,-130.49 239.32,-139.66 239.32,-139.66"/><text text-anchor="middle" x="215.5" y="-128.4" font-family="Times New Roman,serif" font-size="12.00" fill="#c0c0c0">1</text></g><g id="edge10" class="edge"><path fill="none" stroke="#7b7b7b" d="M194.29,-100C221.23,-100 273.46,-100 305.58,-100"/><polygon fill="#7b7b7b" stroke="#7b7b7b" points="315.63,-100 305.63,-104.5 310.63,-100 305.63,-100 305.63,-100 305.63,-100 310.63,-100 305.63,-95.5 315.63,-100 315.63,-100"/><text text-anchor="middle" x="255" y="-103.4" font-family="Times New Roman,serif" font-size="12.00" fill="#c0c0c0">2</text></g><g id="edge9" class="edge"><path fill="none" stroke="#7b7b7b" d="M190.43,-89.21C196.86,-84.16 204.72,-78.13 212,-73 217.9,-68.84 224.41,-64.53 230.51,-60.6"/><polygon fill="#7b7b7b" stroke="#7b7b7b" points="239.02,-55.19 232.99,-64.35 234.8,-57.87 230.58,-60.55 230.58,-60.55 230.58,-60.55 234.8,-57.87 228.17,-56.75 239.02,-55.19 239.02,-55.19"/><text text-anchor="middle" x="215.5" y="-76.4" font-family="Times New Roman,serif" font-size="12.00" fill="#c0c0c0">1</text></g><g id="edge11" class="edge"><path fill="none" stroke="#7b7b7b" d="M273.29,-46C300.23,-46 352.46,-46 384.58,-46"/><polygon fill="#7b7b7b" stroke="#7b7b7b" points="394.63,-46 384.63,-50.5 389.63,-46 384.63,-46 384.63,-46 384.63,-46 389.63,-46 384.63,-41.5 394.63,-46 394.63,-46"/><text text-anchor="middle" x="334" y="-49.4" font-family="Times New Roman,serif" font-size="12.00" fill="#c0c0c0">3</text></g></g><g id="graph1" class="graph" transform="scale(1 1) rotate(0) translate(4 171)"/><animate attributeName="opacity" id="0S11" from="0" to="1" begin="0E10.begin" dur="0.01s" fill="freeze"/><animate attributeName="opacity" id="0E11" begin="0S11.begin+2s" from="1" to="0" dur="0.01s" fill="freeze"/></g><g class="frame" style="opacity:0" transform="translate(5,23.0)"><g id="graph0" class="graph" transform="scale(1 1) rotate(0) translate(4 171)"><polygon fill="transparent" stroke="transparent" points="-4,4 -4,-171 435,-171 435,4 -4,4"/><g id="node1" class="node"><ellipse fill="#ffffff" stroke="#7b7b7b" cx="18" cy="-39" rx="18" ry="18"/><text text-anchor="middle" x="18" y="-35.3" font-family="Times New Roman,serif" font-size="14.00" fill="#000000">0</text></g><g id="node2" class="node"><ellipse fill="#d2b48c" stroke="#7b7b7b" cx="97" cy="-100" rx="18" ry="18"/><text text-anchor="middle" x="97" y="-96.3" font-family="Times New Roman,serif" font-size="14.00" fill="#000000">1</text></g><g id="edge3" class="edge"><path fill="none" stroke="#7b7b7b" d="M32.77,-49.91C44.26,-59.01 60.86,-72.16 74.17,-82.71"/><polygon fill="#7b7b7b" stroke="#7b7b7b" points="82.35,-89.19 71.72,-86.51 78.43,-86.08 74.51,-82.98 74.51,-82.98 74.51,-82.98 78.43,-86.08 77.31,-79.45 82.35,-89.19 82.35,-89.19"/><text text-anchor="middle" x="57.5" y="-74.4" font-family="Times New Roman,serif" font-size="12.00" fill="#c0c0c0">2</text></g><g id="node5" class="node"><ellipse fill="#ffffff" stroke="#7b7b7b" cx="413" cy="-46" rx="18" ry="18"/><text text-anchor="middle" x="413" y="-42.3" font-family="Times New Roman,serif" font-size="14.00" fill="#000000">4</text></g><g id="edge1" class="edge"><path fill="none" stroke="#7b7b7b" d="M32.16,-27.51C46.74,-16.01 71.42,0 96,0 96,0 96,0 335,0 356.74,0 377.67,-13.68 392.2,-26.12"/><polygon fill="#7b7b7b" stroke="#7b7b7b" points="399.98,-33.19 389.55,-29.79 396.28,-29.82 392.58,-26.46 392.58,-26.46 392.58,-26.46 396.28,-29.82 395.61,-23.13 399.98,-33.19 399.98,-33.19"/><text text-anchor="middle" x="215.5" y="-3.4" font-family="Times New Roman,serif" font-size="12.00" fill="#c0c0c0">8</text></g><g id="node7" class="node"><ellipse fill="#ffffff" stroke="#7b7b7b" cx="255" cy="-46" rx="18" ry="18"/><text text-anchor="middle" x="255" y="-42.3" font-family="Times New Roman,serif" font-size="14.00" fill="#000000">6</text></g><g id="edge2" class="edge"><path fill="none" stroke="#7b7b7b" d="M36.28,-39.51C76.68,-40.72 177.6,-43.72 226.53,-45.18"/><polygon fill="#7b7b7b" stroke="#7b7b7b" points="236.69,-45.48 226.56,-49.68 231.7,-45.34 226.7,-45.19 226.7,-45.19 226.7,-45.19 231.7,-45.34 226.83,-40.69 236.69,-45.48 236.69,-45.48"/><text text-anchor="middle" x="136.5" y="-45.4" font-family="Times New Roman,serif" font-size="12.00" fill="#c0c0c0">6</text></g><g id="node3" class="node"><ellipse fill="#ffffff" stroke="#7b7b7b" cx="255" cy="-149" rx="18" ry="18"/><text text-anchor="middle" x="255" y="-145.3" font-family="Times New Roman,serif" font-size="14.00" fill="#000000">2</text></g><g id="edge5" class="edge"><path fill="none" stroke="#7b7b7b" d="M113.57,-107.86C119.59,-110.82 126.57,-114.16 133,-117 166.68,-131.89 176.04,-134.03 212,-142 216.67,-143.04 221.67,-143.99 226.53,-144.85"/><polygon fill="#7b7b7b" stroke="#7b7b7b" points="236.76,-146.55 226.15,-149.35 231.82,-145.73 226.89,-144.91 226.89,-144.91 226.89,-144.91 231.82,-145.73 227.63,-140.47 236.76,-146.55 236.76,-146.55"/><text text-anchor="middle" x="176" y="-140.4" font-family="Times New Roman,serif" font-size="12.00" fill="#c0c0c0">3</text></g><g id="node6" class="node"><ellipse fill="#ffffff" stroke="#7b7b7b" cx="176" cy="-100" rx="18" ry="18"/><text text-anchor="middle" x="176" y="-96.3" font-family="Times New Roman,serif" font-size="14.00" fill="#000000">5</text></g><g id="edge4" class="edge"><path fill="none" stroke="#7b7b7b" d="M115.09,-100C124.66,-100 136.82,-100 147.68,-100"/><polygon fill="#7b7b7b" stroke="#7b7b7b" points="157.96,-100 147.96,-104.5 152.96,-100 147.96,-100 147.96,-100 147.96,-100 152.96,-100 147.96,-95.5 157.96,-100 157.96,-100"/><text text-anchor="middle" x="136.5" y="-103.4" font-family="Times New Roman,serif" font-size="12.00" fill="#c0c0c0">1</text></g><g id="node4" class="node"><ellipse fill="#ffffff" stroke="#7b7b7b" cx="334" cy="-100" rx="18" ry="18"/><text text-anchor="middle" x="334" y="-96.3" font-family="Times New Roman,serif" font-size="14.00" fill="#000000">3</text></g><g id="edge6" class="edge"><path fill="none" stroke="#7b7b7b" d="M270.48,-139.78C281.49,-132.78 296.86,-123 309.6,-114.89"/><polygon fill="#7b7b7b" stroke="#7b7b7b" points="318.32,-109.34 312.3,-118.51 314.1,-112.03 309.88,-114.71 309.88,-114.71 309.88,-114.71 314.1,-112.03 307.47,-110.91 318.32,-109.34 318.32,-109.34"/><text text-anchor="middle" x="294.5" y="-128.4" font-family="Times New Roman,serif" font-size="12.00" fill="#c0c0c0">1</text></g><g id="edge7" class="edge"><path fill="none" stroke="#7b7b7b" d="M349.12,-90.1C360.34,-82.23 376.25,-71.07 389.26,-61.95"/><polygon fill="#7b7b7b" stroke="#7b7b7b" points="397.71,-56.02 392.1,-65.45 393.61,-58.9 389.52,-61.77 389.52,-61.77 389.52,-61.77 393.61,-58.9 386.93,-58.08 397.71,-56.02 397.71,-56.02"/><text text-anchor="middle" x="373.5" y="-77.4" font-family="Times New Roman,serif" font-size="12.00" fill="#c0c0c0">3</text></g><g id="edge8" class="edge"><path fill="none" stroke="#7b7b7b" d="M191.48,-109.22C202.49,-116.22 217.86,-126 230.6,-134.11"/><polygon fill="#7b7b7b" stroke="#7b7b7b" points="239.32,-139.66 228.47,-138.09 235.1,-136.97 230.88,-134.29 230.88,-134.29 230.88,-134.29 235.1,-136.97 233.3,-130.49 239.32,-139.66 239.32,-139.66"/><text text-anchor="middle" x="215.5" y="-128.4" font-family="Times New Roman,serif" font-size="12.00" fill="#c0c0c0">1</text></g><g id="edge10" class="edge"><path fill="none" stroke="#7b7b7b" d="M194.29,-100C221.23,-100 273.46,-100 305.58,-100"/><polygon fill="#7b7b7b" stroke="#7b7b7b" points="315.63,-100 305.63,-104.5 310.63,-100 305.63,-100 305.63,-100 305.63,-100 310.63,-100 305.63,-95.5 315.63,-100 315.63,-100"/><text text-anchor="middle" x="255" y="-103.4" font-family="Times New Roman,serif" font-size="12.00" fill="#c0c0c0">2</text></g><g id="edge9" class="edge"><path fill="none" stroke="#7b7b7b" d="M190.43,-89.21C196.86,-84.16 204.72,-78.13 212,-73 217.9,-68.84 224.41,-64.53 230.51,-60.6"/><polygon fill="#7b7b7b" stroke="#7b7b7b" points="239.02,-55.19 232.99,-64.35 234.8,-57.87 230.58,-60.55 230.58,-60.55 230.58,-60.55 234.8,-57.87 228.17,-56.75 239.02,-55.19 239.02,-55.19"/><text text-anchor="middle" x="215.5" y="-76.4" font-family="Times New Roman,serif" font-size="12.00" fill="#c0c0c0">1</text></g><g id="edge11" class="edge"><path fill="none" stroke="#7b7b7b" d="M273.29,-46C300.23,-46 352.46,-46 384.58,-46"/><polygon fill="#7b7b7b" stroke="#7b7b7b" points="394.63,-46 384.63,-50.5 389.63,-46 384.63,-46 384.63,-46 384.63,-46 389.63,-46 384.63,-41.5 394.63,-46 394.63,-46"/><text text-anchor="middle" x="334" y="-49.4" font-family="Times New Roman,serif" font-size="12.00" fill="#c0c0c0">3</text></g></g><g id="graph1" class="graph" transform="scale(1 1) rotate(0) translate(4 171)"/><animate attributeName="opacity" id="0S12" from="0" to="1" begin="0E11.begin" dur="0.01s" fill="freeze"/><animate attributeName="opacity" id="0E12" begin="0S12.begin+2s" from="1" to="0" dur="0.01s" fill="freeze"/></g><g class="frame" style="opacity:0" transform="translate(5,255.0)"><g id="10"><text x="5" y="12.00" font-size="12.00" font-family="cursive">Current shortest path: 0 -&gt; ... -&gt; 1</text></g><animate attributeName="opacity" id="1S10" from="0" to="1" begin="0s;1E12.end+0s" dur="0.01s" fill="freeze"/><animate attributeName="opacity" id="1E10" begin="1S10.begin+5s" from="1" to="0" dur="0.01s" fill="freeze"/></g><g class="frame" style="opacity:0" transform="translate(5,255.0)"><g id="11"><text x="5" y="12.00" font-size="12.00" font-family="cursive">Current shortest path: 0 -&gt; ... -&gt; 1</text></g><animate attributeName="opacity" id="1S11" from="0" to="1" begin="1E10.begin" dur="0.01s" fill="freeze"/><animate attributeName="opacity" id="1E11" begin="1S11.begin+2s" from="1" to="0" dur="0.01s" fill="freeze"/></g><g class="frame" style="opacity:0" transform="translate(5,255.0)"><g id="12"><text x="5" y="12.00" font-size="12.00" font-family="cursive">Current shortest path: 0 -&gt; ... -&gt; 1</text></g><animate attributeName="opacity" id="1S12" from="0" to="1" begin="1E11.begin" dur="0.01s" fill="freeze"/><animate attributeName="opacity" id="1E12" begin="1S12.begin+2s" from="1" to="0" dur="0.01s" fill="freeze"/></g><g class="frame" style="opacity:0" transform="translate(5,203.0)"><g id="10"><text x="5" y="12.00" font-size="12.00" font-family="cursive">Update the shortest path of node: 4</text><text x="5" y="26.40" font-size="12.00" font-family="cursive">0 -&gt; ... -&gt; 2 current minimum distance: ♾</text><text x="5" y="40.80" font-size="12.00" font-family="cursive">0 -&gt; ... -&gt; 1 -&gt; ... -&gt; 2 distance: 5</text></g><animate attributeName="opacity" id="2S10" from="0" to="1" begin="0s;2E12.end+0s" dur="0.01s" fill="freeze"/><animate attributeName="opacity" id="2E10" begin="2S10.begin+5s" from="1" to="0" dur="0.01s" fill="freeze"/></g><g class="frame" style="opacity:0" transform="translate(5,203.0)"><g id="11"><text x="5" y="12.00" font-size="12.00" font-family="cursive">0 -&gt; ... -&gt; 2 current minimum distance: ♾</text><text x="5" y="26.40" font-size="12.00" font-family="cursive">0 -&gt; ... -&gt; 1 -&gt; ... -&gt; 2 distance: 5</text><text x="5" y="40.80" font-size="12.00" font-family="cursive">Update the shortest path of node: 2</text></g><animate attributeName="opacity" id="2S11" from="0" to="1" begin="2E10.begin" dur="0.01s" fill="freeze"/><animate attributeName="opacity" id="2E11" begin="2S11.begin+2s" from="1" to="0" dur="0.01s" fill="freeze"/></g><g class="frame" style="opacity:0" transform="translate(5,203.0)"><g id="12"><text x="5" y="12.00" font-size="12.00" font-family="cursive">0 -&gt; ... -&gt; 2 current minimum distance: ♾</text><text x="5" y="26.40" font-size="12.00" font-family="cursive">0 -&gt; ... -&gt; 1 -&gt; ... -&gt; 2 distance: 5</text><text x="5" y="40.80" font-size="12.00" font-family="cursive">Update the shortest path of node: 2</text></g><animate attributeName="opacity" id="2S12" from="0" to="1" begin="2E11.begin" dur="0.01s" fill="freeze"/><animate attributeName="opacity" id="2E12" begin="2S12.begin+2s" from="1" to="0" dur="0.01s" fill="freeze"/></g><g class="frame" style="opacity:0" transform="translate(5,294.0)"><g id="0"><rect x="6.00" y="6.00" width="40.00" height="40.00" fill="#ffffff" stroke="#7b7b7b"/><text class="txt" x="26.00" y="26.00" font-size="16.00" fill="#000000">node</text></g><g id="1"><rect x="46.00" y="6.00" width="40.00" height="40.00" fill="#c0c0c0" stroke="#7b7b7b"/><text class="txt" x="66.00" y="26.00" font-size="16.00" fill="#000000">0</text></g><g id="2"><rect x="86.00" y="6.00" width="40.00" height="40.00" fill="#ffffff" stroke="#7b7b7b"/><text class="txt" x="106.00" y="26.00" font-size="16.00" fill="#000000">1</text></g><g id="3"><rect x="126.00" y="6.00" width="40.00" height="40.00" fill="#adff2f" stroke="#7b7b7b"/><text class="txt" x="146.00" y="26.00" font-size="16.00" fill="#000000">2</text></g><g id="4"><rect x="166.00" y="6.00" width="40.00" height="40.00" fill="#ffffff" stroke="#7b7b7b"/><text class="txt" x="186.00" y="26.00" font-size="16.00" fill="#000000">3</text></g><g id="5"><rect x="206.00" y="6.00" width="40.00" height="40.00" fill="#ffffff" stroke="#7b7b7b"/><text class="txt" x="226.00" y="26.00" font-size="16.00" fill="#000000">4</text></g><g id="6"><rect x="246.00" y="6.00" width="40.00" height="40.00" fill="#ffffff" stroke="#7b7b7b"/><text class="txt" x="266.00" y="26.00" font-size="16.00" fill="#000000">5</text></g><g id="7"><rect x="286.00" y="6.00" width="40.00" height="40.00" fill="#ffffff" stroke="#7b7b7b"/><text class="txt" x="306.00" y="26.00" font-size="16.00" fill="#000000">6</text></g><g id="8"><rect x="6.00" y="46.00" width="40.00" height="40.00" fill="#ffffff" stroke="#7b7b7b"/><text class="txt" x="26.00" y="66.00" font-size="16.00" fill="#000000">dist</text></g><g id="9"><rect x="46.00" y="46.00" width="40.00" height="40.00" fill="#c0c0c0" stroke="#7b7b7b"/><text class="txt" x="66.00" y="66.00" font-size="16.00" fill="#000000">0</text></g><g id="10"><rect x="86.00" y="46.00" width="40.00" height="40.00" fill="#ffffff" stroke="#7b7b7b"/><text class="txt" x="106.00" y="66.00" font-size="16.00" fill="#000000">2</text></g><g id="11"><rect x="126.00" y="46.00" width="40.00" height="40.00" fill="#ffffff" stroke="#7b7b7b"/><text class="txt" x="146.00" y="66.00" font-size="16.00" fill="#000000">♾</text></g><g id="12"><rect x="166.00" y="46.00" width="40.00" height="40.00" fill="#ffffff" stroke="#7b7b7b"/><text class="txt" x="186.00" y="66.00" font-size="16.00" fill="#000000">♾</text></g><g id="13"><rect x="206.00" y="46.00" width="40.00" height="40.00" fill="#ffffff" stroke="#7b7b7b"/><text class="txt" x="226.00" y="66.00" font-size="16.00" fill="#000000">8</text></g><g id="14"><rect x="246.00" y="46.00" width="40.00" height="40.00" fill="#ffffff" stroke="#7b7b7b"/><text class="txt" x="266.00" y="66.00" font-size="16.00" fill="#000000">♾</text></g><g id="15"><rect x="286.00" y="46.00" width="40.00" height="40.00" fill="#ffffff" stroke="#7b7b7b"/><text class="txt" x="306.00" y="66.00" font-size="16.00" fill="#000000">6</text></g><g id="16"><rect x="6.00" y="86.00" width="40.00" height="40.00" fill="#ffffff" stroke="#7b7b7b"/><text class="txt" x="26.00" y="106.00" font-size="16.00" fill="#000000">pred</text></g><g id="17"><rect x="46.00" y="86.00" width="40.00" height="40.00" fill="#c0c0c0" stroke="#7b7b7b"/></g><g id="18"><rect x="86.00" y="86.00" width="40.00" height="40.00" fill="#ffffff" stroke="#7b7b7b"/><text class="txt" x="106.00" y="106.00" font-size="16.00" fill="#000000">0</text></g><g id="19"><rect x="126.00" y="86.00" width="40.00" height="40.00" fill="#ffffff" stroke="#7b7b7b"/></g><g id="20"><rect x="166.00" y="86.00" width="40.00" height="40.00" fill="#ffffff" stroke="#7b7b7b"/></g><g id="21"><rect x="206.00" y="86.00" width="40.00" height="40.00" fill="#ffffff" stroke="#7b7b7b"/><text class="txt" x="226.00" y="106.00" font-size="16.00" fill="#000000">0</text></g><g id="22"><rect x="246.00" y="86.00" width="40.00" height="40.00" fill="#ffffff" stroke="#7b7b7b"/></g><g id="23"><rect x="286.00" y="86.00" width="40.00" height="40.00" fill="#ffffff" stroke="#7b7b7b"/><text class="txt" x="306.00" y="106.00" font-size="16.00" fill="#000000">0</text></g><animate attributeName="opacity" id="3S10" from="0" to="1" begin="0s;3E12.end+0s" dur="0.01s" fill="freeze"/><animate attributeName="opacity" id="3E10" begin="3S10.begin+5s" from="1" to="0" dur="0.01s" fill="freeze"/></g><g class="frame" style="opacity:0" transform="translate(5,294.0)"><g id="0"><rect x="6.00" y="6.00" width="40.00" height="40.00" fill="#ffffff" stroke="#7b7b7b"/><text class="txt" x="26.00" y="26.00" font-size="16.00" fill="#000000">node</text></g><g id="1"><rect x="46.00" y="6.00" width="40.00" height="40.00" fill="#c0c0c0" stroke="#7b7b7b"/><text class="txt" x="66.00" y="26.00" font-size="16.00" fill="#000000">0</text></g><g id="2"><rect x="86.00" y="6.00" width="40.00" height="40.00" fill="#ffffff" stroke="#7b7b7b"/><text class="txt" x="106.00" y="26.00" font-size="16.00" fill="#000000">1</text></g><g id="3"><rect x="126.00" y="6.00" width="40.00" height="40.00" fill="#adff2f" stroke="#7b7b7b"/><text class="txt" x="146.00" y="26.00" font-size="16.00" fill="#000000">2</text></g><g id="4"><rect x="166.00" y="6.00" width="40.00" height="40.00" fill="#ffffff" stroke="#7b7b7b"/><text class="txt" x="186.00" y="26.00" font-size="16.00" fill="#000000">3</text></g><g id="5"><rect x="206.00" y="6.00" width="40.00" height="40.00" fill="#ffffff" stroke="#7b7b7b"/><text class="txt" x="226.00" y="26.00" font-size="16.00" fill="#000000">4</text></g><g id="6"><rect x="246.00" y="6.00" width="40.00" height="40.00" fill="#ffffff" stroke="#7b7b7b"/><text class="txt" x="266.00" y="26.00" font-size="16.00" fill="#000000">5</text></g><g id="7"><rect x="286.00" y="6.00" width="40.00" height="40.00" fill="#ffffff" stroke="#7b7b7b"/><text class="txt" x="306.00" y="26.00" font-size="16.00" fill="#000000">6</text></g><g id="8"><rect x="6.00" y="46.00" width="40.00" height="40.00" fill="#ffffff" stroke="#7b7b7b"/><text class="txt" x="26.00" y="66.00" font-size="16.00" fill="#000000">dist</text></g><g id="9"><rect x="46.00" y="46.00" width="40.00" height="40.00" fill="#c0c0c0" stroke="#7b7b7b"/><text class="txt" x="66.00" y="66.00" font-size="16.00" fill="#000000">0</text></g><g id="10"><rect x="86.00" y="46.00" width="40.00" height="40.00" fill="#ffffff" stroke="#7b7b7b"/><text class="txt" x="106.00" y="66.00" font-size="16.00" fill="#000000">2</text></g><g id="11"><rect x="126.00" y="46.00" width="40.00" height="40.00" fill="#ffc0cb" stroke="#7b7b7b"/><text class="txt" x="146.00" y="66.00" font-size="16.00" fill="#000000">♾<animate attributeName="font-size" from="16.00" to="0" begin="3S11.end+0.00s" dur="0.50s" fill="freeze"/><animate attributeName="font-size" from="0" to="16.00" begin="3E11.end" dur="0.01s" fill="freeze"/></text><text class="txt" x="146.00" y="66.00" font-size="0" fill="#000000">5<animate attributeName="font-size" from="0" to="16.00" begin="3S11.end+0.60s" dur="0.40s" fill="freeze"/><animate attributeName="font-size" from="16.00" to="0" begin="3E11.end" dur="0.01s" fill="freeze"/></text></g><g id="12"><rect x="166.00" y="46.00" width="40.00" height="40.00" fill="#ffffff" stroke="#7b7b7b"/><text class="txt" x="186.00" y="66.00" font-size="16.00" fill="#000000">♾</text></g><g id="13"><rect x="206.00" y="46.00" width="40.00" height="40.00" fill="#ffffff" stroke="#7b7b7b"/><text class="txt" x="226.00" y="66.00" font-size="16.00" fill="#000000">8</text></g><g id="14"><rect x="246.00" y="46.00" width="40.00" height="40.00" fill="#ffffff" stroke="#7b7b7b"/><text class="txt" x="266.00" y="66.00" font-size="16.00" fill="#000000">♾</text></g><g id="15"><rect x="286.00" y="46.00" width="40.00" height="40.00" fill="#ffffff" stroke="#7b7b7b"/><text class="txt" x="306.00" y="66.00" font-size="16.00" fill="#000000">6</text></g><g id="16"><rect x="6.00" y="86.00" width="40.00" height="40.00" fill="#ffffff" stroke="#7b7b7b"/><text class="txt" x="26.00" y="106.00" font-size="16.00" fill="#000000">pred</text></g><g id="17"><rect x="46.00" y="86.00" width="40.00" height="40.00" fill="#c0c0c0" stroke="#7b7b7b"/></g><g id="18"><rect x="86.00" y="86.00" width="40.00" height="40.00" fill="#ffffff" stroke="#7b7b7b"/><text class="txt" x="106.00" y="106.00" font-size="16.00" fill="#000000">0</text></g><g id="19"><rect x="126.00" y="86.00" width="40.00" height="40.00" fill="#ffc0cb" stroke="#7b7b7b"/><text class="txt" x="146.00" y="106.00" font-size="0" fill="#000000">1<animate attributeName="font-size" from="0" to="16.00" begin="3S11.end+0.60s" dur="0.40s" fill="freeze"/><animate attributeName="font-size" from="16.00" to="0" begin="3E11.end" dur="0.01s" fill="freeze"/></text></g><g id="20"><rect x="166.00" y="86.00" width="40.00" height="40.00" fill="#ffffff" stroke="#7b7b7b"/></g><g id="21"><rect x="206.00" y="86.00" width="40.00" height="40.00" fill="#ffffff" stroke="#7b7b7b"/><text class="txt" x="226.00" y="106.00" font-size="16.00" fill="#000000">0</text></g><g id="22"><rect x="246.00" y="86.00" width="40.00" height="40.00" fill="#ffffff" stroke="#7b7b7b"/></g><g id="23"><rect x="286.00" y="86.00" width="40.00" height="40.00" fill="#ffffff" stroke="#7b7b7b"/><text class="txt" x="306.00" y="106.00" font-size="16.00" fill="#000000">0</text></g><animate attributeName="opacity" id="3S11" from="0" to="1" begin="3E10.begin" dur="0.01s" fill="freeze"/><animate attributeName="opacity" id="3E11" begin="3S11.begin+2s" from="1" to="0" dur="0.01s" fill="freeze"/></g><g class="frame" style="opacity:0" transform="translate(5,294.0)"><g id="0"><rect x="6.00" y="6.00" width="40.00" height="40.00" fill="#ffffff" stroke="#7b7b7b"/><text class="txt" x="26.00" y="26.00" font-size="16.00" fill="#000000">node</text></g><g id="1"><rect x="46.00" y="6.00" width="40.00" height="40.00" fill="#c0c0c0" stroke="#7b7b7b"/><text class="txt" x="66.00" y="26.00" font-size="16.00" fill="#000000">0</text></g><g id="2"><rect x="86.00" y="6.00" width="40.00" height="40.00" fill="#ffffff" stroke="#7b7b7b"/><text class="txt" x="106.00" y="26.00" font-size="16.00" fill="#000000">1</text></g><g id="3"><rect x="126.00" y="6.00" width="40.00" height="40.00" fill="#ffffff" stroke="#7b7b7b"/><text class="txt" x="146.00" y="26.00" font-size="16.00" fill="#000000">2</text></g><g id="4"><rect x="166.00" y="6.00" width="40.00" height="40.00" fill="#ffffff" stroke="#7b7b7b"/><text class="txt" x="186.00" y="26.00" font-size="16.00" fill="#000000">3</text></g><g id="5"><rect x="206.00" y="6.00" width="40.00" height="40.00" fill="#ffffff" stroke="#7b7b7b"/><text class="txt" x="226.00" y="26.00" font-size="16.00" fill="#000000">4</text></g><g id="6"><rect x="246.00" y="6.00" width="40.00" height="40.00" fill="#ffffff" stroke="#7b7b7b"/><text class="txt" x="266.00" y="26.00" font-size="16.00" fill="#000000">5</text></g><g id="7"><rect x="286.00" y="6.00" width="40.00" height="40.00" fill="#ffffff" stroke="#7b7b7b"/><text class="txt" x="306.00" y="26.00" font-size="16.00" fill="#000000">6</text></g><g id="8"><rect x="6.00" y="46.00" width="40.00" height="40.00" fill="#ffffff" stroke="#7b7b7b"/><text class="txt" x="26.00" y="66.00" font-size="16.00" fill="#000000">dist</text></g><g id="9"><rect x="46.00" y="46.00" width="40.00" height="40.00" fill="#c0c0c0" stroke="#7b7b7b"/><text class="txt" x="66.00" y="66.00" font-size="16.00" fill="#000000">0</text></g><g id="10"><rect x="86.00" y="46.00" width="40.00" height="40.00" fill="#ffffff" stroke="#7b7b7b"/><text class="txt" x="106.00" y="66.00" font-size="16.00" fill="#000000">2</text></g><g id="11"><rect x="126.00" y="46.00" width="40.00" height="40.00" fill="#ffffff" stroke="#7b7b7b"/><text class="txt" x="146.00" y="66.00" font-size="16.00" fill="#000000">5</text></g><g id="12"><rect x="166.00" y="46.00" width="40.00" height="40.00" fill="#ffffff" stroke="#7b7b7b"/><text class="txt" x="186.00" y="66.00" font-size="16.00" fill="#000000">♾</text></g><g id="13"><rect x="206.00" y="46.00" width="40.00" height="40.00" fill="#ffffff" stroke="#7b7b7b"/><text class="txt" x="226.00" y="66.00" font-size="16.00" fill="#000000">8</text></g><g id="14"><rect x="246.00" y="46.00" width="40.00" height="40.00" fill="#ffffff" stroke="#7b7b7b"/><text class="txt" x="266.00" y="66.00" font-size="16.00" fill="#000000">♾</text></g><g id="15"><rect x="286.00" y="46.00" width="40.00" height="40.00" fill="#ffffff" stroke="#7b7b7b"/><text class="txt" x="306.00" y="66.00" font-size="16.00" fill="#000000">6</text></g><g id="16"><rect x="6.00" y="86.00" width="40.00" height="40.00" fill="#ffffff" stroke="#7b7b7b"/><text class="txt" x="26.00" y="106.00" font-size="16.00" fill="#000000">pred</text></g><g id="17"><rect x="46.00" y="86.00" width="40.00" height="40.00" fill="#c0c0c0" stroke="#7b7b7b"/></g><g id="18"><rect x="86.00" y="86.00" width="40.00" height="40.00" fill="#ffffff" stroke="#7b7b7b"/><text class="txt" x="106.00" y="106.00" font-size="16.00" fill="#000000">0</text></g><g id="19"><rect x="126.00" y="86.00" width="40.00" height="40.00" fill="#ffffff" stroke="#7b7b7b"/><text class="txt" x="146.00" y="106.00" font-size="16.00" fill="#000000">1</text></g><g id="20"><rect x="166.00" y="86.00" width="40.00" height="40.00" fill="#ffffff" stroke="#7b7b7b"/></g><g id="21"><rect x="206.00" y="86.00" width="40.00" height="40.00" fill="#ffffff" stroke="#7b7b7b"/><text class="txt" x="226.00" y="106.00" font-size="16.00" fill="#000000">0</text></g><g id="22"><rect x="246.00" y="86.00" width="40.00" height="40.00" fill="#ffffff" stroke="#7b7b7b"/></g><g id="23"><rect x="286.00" y="86.00" width="40.00" height="40.00" fill="#ffffff" stroke="#7b7b7b"/><text class="txt" x="306.00" y="106.00" font-size="16.00" fill="#000000">0</text></g><animate attributeName="opacity" id="3S12" from="0" to="1" begin="3E11.begin" dur="0.01s" fill="freeze"/><animate attributeName="opacity" id="3E12" begin="3S12.begin+2s" from="1" to="0" dur="0.01s" fill="freeze"/></g><g><animate attributeName="opacity" begin="4S13.begin" from="1" to="0" dur="0.01s" fill="freeze"/><animate attributeName="opacity" from="0" to="1" begin="4E13.end" dur="0.01s" fill="freeze"/><text x="10.00" y="19.40" font-family="Times,serif" font-weight="bold" font-size="12.00" fill="#808080">Graph:</text><text x="10.00" y="290.40" font-family="Times,serif" font-weight="bold" font-size="12.00" fill="#808080">shortest_path_table:</text><rect x="5.00" y="5.00" width="439.00" height="193.00" stroke="#C0C0C0" stroke-dasharray="1, 5" fill="none"/><rect x="5.00" y="255.00" width="243.00" height="16.00" stroke="#C0C0C0" stroke-dasharray="1, 5" fill="none"/><rect x="5.00" y="203.00" width="276.00" height="47.00" stroke="#C0C0C0" stroke-dasharray="1, 5" fill="none"/><rect x="5.00" y="276.00" width="329.00" height="147.00" stroke="#C0C0C0" stroke-dasharray="1, 5" fill="none"/></g></a></svg>