<?xml version="1.0" ?><svg xmlns="http://www.w3.org/2000/svg" xmlns:xlink="http://www.w3.org/1999/xlink" width="216pt" height="250pt" viewBox="0.00 0.00 216.00 250.00"><style>.txt { alignment-baseline:middle; text-anchor:middle; font-family:Times,serif; }</style><a xlink:href="https://algviz.com/"><g class="frame" style="opacity:0" transform="translate(5,57.0)"><g id="graph0" class="graph" transform="scale(1 1) rotate(0) translate(4 184)"><polygon fill="transparent" stroke="transparent" points="-4,4 -4,-184 121,-184 121,4 -4,4"/><g id="node1" class="node"><ellipse fill="#ffffff" stroke="#7b7b7b" cx="18" cy="-90" rx="18" ry="18"/><text text-anchor="middle" x="18" y="-86.3" font-family="Times New Roman,serif" font-size="14.00" fill="#000000">0</text></g><g id="node2" class="node"><ellipse fill="#ffffff" stroke="#7b7b7b" cx="45" cy="-162" rx="18" ry="18"/><text text-anchor="middle" x="45" y="-158.3" font-family="Times New Roman,serif" font-size="14.00" fill="#000000">1</text></g><g id="edge2" class="edge"><path fill="none" stroke="#7b7b7b" d="M38.74,-144.76C35.5,-136.37 31.47,-125.93 27.83,-116.5"/><polygon fill="#7b7b7b" stroke="#7b7b7b" points="24.23,-107.15 32.03,-114.86 26.03,-111.81 27.83,-116.48 27.83,-116.48 27.83,-116.48 26.03,-111.81 23.63,-118.1 24.23,-107.15 24.23,-107.15"/></g><g id="node3" class="node"><ellipse fill="#ffffff" stroke="#7b7b7b" cx="72" cy="-90" rx="18" ry="18"/><text text-anchor="middle" x="72" y="-86.3" font-family="Times New Roman,serif" font-size="14.00" fill="#000000">3</text></g><g id="edge1" class="edge"><path fill="none" stroke="#7b7b7b" d="M51.26,-144.76C54.5,-136.37 58.53,-125.93 62.17,-116.5"/><polygon fill="#7b7b7b" stroke="#7b7b7b" points="65.77,-107.15 66.37,-118.1 63.97,-111.81 62.17,-116.48 62.17,-116.48 62.17,-116.48 63.97,-111.81 57.97,-114.86 65.77,-107.15 65.77,-107.15"/></g><g id="node4" class="node"><ellipse fill="#ffffff" stroke="#7b7b7b" cx="72" cy="-18" rx="18" ry="18"/><text text-anchor="middle" x="72" y="-14.3" font-family="Times New Roman,serif" font-size="14.00" fill="#000000">2</text></g><g id="edge3" class="edge"><path fill="none" stroke="#7b7b7b" d="M72,-71.7C72,-63.98 72,-54.71 72,-46.11"/><polygon fill="#7b7b7b" stroke="#7b7b7b" points="72,-36.1 76.5,-46.1 72,-41.1 72,-46.1 72,-46.1 72,-46.1 72,-41.1 67.5,-46.1 72,-36.1 72,-36.1"/></g><g id="node5" class="node"><ellipse fill="#00ff00" stroke="#7b7b7b" cx="99" cy="-162" rx="18" ry="18"/><text text-anchor="middle" x="99" y="-158.3" font-family="Times New Roman,serif" font-size="14.00" fill="#000000">4</text></g></g><g id="graph1" class="graph" transform="scale(1 1) rotate(0) translate(4 184)"/><animate attributeName="opacity" id="0S16" from="0" to="1" begin="0s;0E24.end+0s" dur="0.01s" fill="freeze"/><animate attributeName="opacity" id="0E16" begin="0S16.begin+1.0s" from="1" to="0" dur="0.01s" fill="freeze"/></g><g class="frame" style="opacity:0" transform="translate(5,57.0)"><g id="graph0" class="graph" transform="scale(1 1) rotate(0) translate(4 184)"><polygon fill="transparent" stroke="transparent" points="-4,4 -4,-184 121,-184 121,4 -4,4"/><g id="node1" class="node"><ellipse fill="#ffffff" stroke="#7b7b7b" cx="18" cy="-90" rx="18" ry="18"/><text text-anchor="middle" x="18" y="-86.3" font-family="Times New Roman,serif" font-size="14.00" fill="#000000">0</text></g><g id="node2" class="node"><ellipse fill="#ffffff" stroke="#7b7b7b" cx="45" cy="-162" rx="18" ry="18"/><text text-anchor="middle" x="45" y="-158.3" font-family="Times New Roman,serif" font-size="14.00" fill="#000000">1</text></g><g id="edge2" class="edge"><path fill="none" stroke="#7b7b7b" d="M38.74,-144.76C35.5,-136.37 31.47,-125.93 27.83,-116.5"/><polygon fill="#7b7b7b" stroke="#7b7b7b" points="24.23,-107.15 32.03,-114.86 26.03,-111.81 27.83,-116.48 27.83,-116.48 27.83,-116.48 26.03,-111.81 23.63,-118.1 24.23,-107.15 24.23,-107.15"/></g><g id="node3" class="node"><ellipse fill="#ffffff" stroke="#7b7b7b" cx="72" cy="-90" rx="18" ry="18"/><text text-anchor="middle" x="72" y="-86.3" font-family="Times New Roman,serif" font-size="14.00" fill="#000000">3</text></g><g id="edge1" class="edge"><path fill="none" stroke="#7b7b7b" d="M51.26,-144.76C54.5,-136.37 58.53,-125.93 62.17,-116.5"/><polygon fill="#7b7b7b" stroke="#7b7b7b" points="65.77,-107.15 66.37,-118.1 63.97,-111.81 62.17,-116.48 62.17,-116.48 62.17,-116.48 63.97,-111.81 57.97,-114.86 65.77,-107.15 65.77,-107.15"/></g><g id="node4" class="node"><ellipse fill="#ffffff" stroke="#7b7b7b" cx="72" cy="-18" rx="18" ry="18"/><text text-anchor="middle" x="72" y="-14.3" font-family="Times New Roman,serif" font-size="14.00" fill="#000000">2</text></g><g id="edge3" class="edge"><path fill="none" stroke="#7b7b7b" d="M72,-71.7C72,-63.98 72,-54.71 72,-46.11"/><polygon fill="#7b7b7b" stroke="#7b7b7b" points="72,-36.1 76.5,-46.1 72,-41.1 72,-46.1 72,-46.1 72,-46.1 72,-41.1 67.5,-46.1 72,-36.1 72,-36.1"/></g><g id="node5" class="node"><ellipse fill="#ff6347" stroke="#7b7b7b" cx="99" cy="-162" rx="18" ry="18"/><text text-anchor="middle" x="99" y="-158.3" font-family="Times New Roman,serif" font-size="14.00" fill="#000000">4</text></g></g><g id="graph1" class="graph" transform="scale(1 1) rotate(0) translate(4 184)"/><animate attributeName="opacity" id="0S17" from="0" to="1" begin="0E16.begin" dur="0.01s" fill="freeze"/><animate attributeName="opacity" id="0E17" begin="0S17.begin+1.0s" from="1" to="0" dur="0.01s" fill="freeze"/></g><g class="frame" style="opacity:0" transform="translate(5,57.0)"><g id="graph0" class="graph" transform="scale(1 1) rotate(0) translate(4 184)"><polygon fill="transparent" stroke="transparent" points="-4,4 -4,-184 121,-184 121,4 -4,4"/><g id="node1" class="node"><ellipse fill="#ffffff" stroke="#7b7b7b" cx="18" cy="-90" rx="18" ry="18"/><text text-anchor="middle" x="18" y="-86.3" font-family="Times New Roman,serif" font-size="14.00" fill="#000000">0</text></g><g id="node2" class="node"><ellipse fill="#ffffff" stroke="#7b7b7b" cx="45" cy="-162" rx="18" ry="18"/><text text-anchor="middle" x="45" y="-158.3" font-family="Times New Roman,serif" font-size="14.00" fill="#000000">1</text></g><g id="edge2" class="edge"><path fill="none" stroke="#7b7b7b" d="M38.74,-144.76C35.5,-136.37 31.47,-125.93 27.83,-116.5"/><polygon fill="#7b7b7b" stroke="#7b7b7b" points="24.23,-107.15 32.03,-114.86 26.03,-111.81 27.83,-116.48 27.83,-116.48 27.83,-116.48 26.03,-111.81 23.63,-118.1 24.23,-107.15 24.23,-107.15"/></g><g id="node3" class="node"><ellipse fill="#ffffff" stroke="#7b7b7b" cx="72" cy="-90" rx="18" ry="18"/><text text-anchor="middle" x="72" y="-86.3" font-family="Times New Roman,serif" font-size="14.00" fill="#000000">3</text></g><g id="edge1" class="edge"><path fill="none" stroke="#7b7b7b" d="M51.26,-144.76C54.5,-136.37 58.53,-125.93 62.17,-116.5"/><polygon fill="#7b7b7b" stroke="#7b7b7b" points="65.77,-107.15 66.37,-118.1 63.97,-111.81 62.17,-116.48 62.17,-116.48 62.17,-116.48 63.97,-111.81 57.97,-114.86 65.77,-107.15 65.77,-107.15"/></g><g id="node4" class="node"><ellipse fill="#00ff00" stroke="#7b7b7b" cx="72" cy="-18" rx="18" ry="18"/><text text-anchor="middle" x="72" y="-14.3" font-family="Times New Roman,serif" font-size="14.00" fill="#000000">2</text></g><g id="edge3" class="edge"><path fill="none" stroke="#7b7b7b" d="M72,-71.7C72,-63.98 72,-54.71 72,-46.11"/><polygon fill="#7b7b7b" stroke="#7b7b7b" points="72,-36.1 76.5,-46.1 72,-41.1 72,-46.1 72,-46.1 72,-46.1 72,-41.1 67.5,-46.1 72,-36.1 72,-36.1"/></g><g id="node5" class="node"><ellipse fill="#ff6347" stroke="#7b7b7b" cx="99" cy="-162" rx="18" ry="18"/><text text-anchor="middle" x="99" y="-158.3" font-family="Times New Roman,serif" font-size="14.00" fill="#000000">4</text></g></g><g id="graph1" class="graph" transform="scale(1 1) rotate(0) translate(4 184)"/><animate attributeName="opacity" id="0S18" from="0" to="1" begin="0E17.begin" dur="0.01s" fill="freeze"/><animate attributeName="opacity" id="0E18" begin="0S18.begin+1.0s" from="1" to="0" dur="0.01s" fill="freeze"/></g><g class="frame" style="opacity:0" transform="translate(5,57.0)"><g id="graph0" class="graph" transform="scale(1 1) rotate(0) translate(4 184)"><polygon fill="transparent" stroke="transparent" points="-4,4 -4,-184 121,-184 121,4 -4,4"/><g id="node1" class="node"><ellipse fill="#ffffff" stroke="#7b7b7b" cx="18" cy="-90" rx="18" ry="18"/><text text-anchor="middle" x="18" y="-86.3" font-family="Times New Roman,serif" font-size="14.00" fill="#000000">0</text></g><g id="node2" class="node"><ellipse fill="#ffffff" stroke="#7b7b7b" cx="45" cy="-162" rx="18" ry="18"/><text text-anchor="middle" x="45" y="-158.3" font-family="Times New Roman,serif" font-size="14.00" fill="#000000">1</text></g><g id="edge2" class="edge"><path fill="none" stroke="#7b7b7b" d="M38.74,-144.76C35.5,-136.37 31.47,-125.93 27.83,-116.5"/><polygon fill="#7b7b7b" stroke="#7b7b7b" points="24.23,-107.15 32.03,-114.86 26.03,-111.81 27.83,-116.48 27.83,-116.48 27.83,-116.48 26.03,-111.81 23.63,-118.1 24.23,-107.15 24.23,-107.15"/></g><g id="node3" class="node"><ellipse fill="#00ff00" stroke="#7b7b7b" cx="72" cy="-90" rx="18" ry="18"/><text text-anchor="middle" x="72" y="-86.3" font-family="Times New Roman,serif" font-size="14.00" fill="#000000">3</text></g><g id="edge1" class="edge"><path fill="none" stroke="#7b7b7b" d="M51.26,-144.76C54.5,-136.37 58.53,-125.93 62.17,-116.5"/><polygon fill="#7b7b7b" stroke="#7b7b7b" points="65.77,-107.15 66.37,-118.1 63.97,-111.81 62.17,-116.48 62.17,-116.48 62.17,-116.48 63.97,-111.81 57.97,-114.86 65.77,-107.15 65.77,-107.15"/></g><g id="node4" class="node"><ellipse fill="#ffffff" stroke="#7b7b7b" cx="72" cy="-18" rx="18" ry="18"/><text text-anchor="middle" x="72" y="-14.3" font-family="Times New Roman,serif" font-size="14.00" fill="#000000">2</text></g><g id="edge3" class="edge"><path fill="none" stroke="#7b7b7b" d="M72,-71.7C72,-63.98 72,-54.71 72,-46.11"/><polygon fill="#7b7b7b" stroke="#7b7b7b" points="72,-36.1 76.5,-46.1 72,-41.1 72,-46.1 72,-46.1 72,-46.1 72,-41.1 67.5,-46.1 72,-36.1 72,-36.1"/></g><g id="node5" class="node"><ellipse fill="#ff6347" stroke="#7b7b7b" cx="99" cy="-162" rx="18" ry="18"/><text text-anchor="middle" x="99" y="-158.3" font-family="Times New Roman,serif" font-size="14.00" fill="#000000">4</text></g></g><g id="graph1" class="graph" transform="scale(1 1) rotate(0) translate(4 184)"/><animate attributeName="opacity" id="0S19" from="0" to="1" begin="0E18.begin" dur="0.01s" fill="freeze"/><animate attributeName="opacity" id="0E19" begin="0S19.begin+1.0s" from="1" to="0" dur="0.01s" fill="freeze"/></g><g class="frame" style="opacity:0" transform="translate(5,57.0)"><g id="graph0" class="graph" transform="scale(1 1) rotate(0) translate(4 184)"><polygon fill="transparent" stroke="transparent" points="-4,4 -4,-184 121,-184 121,4 -4,4"/><g id="node1" class="node"><ellipse fill="#ffffff" stroke="#7b7b7b" cx="18" cy="-90" rx="18" ry="18"/><text text-anchor="middle" x="18" y="-86.3" font-family="Times New Roman,serif" font-size="14.00" fill="#000000">0</text></g><g id="node2" class="node"><ellipse fill="#00ff00" stroke="#7b7b7b" cx="45" cy="-162" rx="18" ry="18"/><text text-anchor="middle" x="45" y="-158.3" font-family="Times New Roman,serif" font-size="14.00" fill="#000000">1</text></g><g id="edge2" class="edge"><path fill="none" stroke="#7b7b7b" d="M38.74,-144.76C35.5,-136.37 31.47,-125.93 27.83,-116.5"/><polygon fill="#7b7b7b" stroke="#7b7b7b" points="24.23,-107.15 32.03,-114.86 26.03,-111.81 27.83,-116.48 27.83,-116.48 27.83,-116.48 26.03,-111.81 23.63,-118.1 24.23,-107.15 24.23,-107.15"/></g><g id="node3" class="node"><ellipse fill="#ffffff" stroke="#7b7b7b" cx="72" cy="-90" rx="18" ry="18"/><text text-anchor="middle" x="72" y="-86.3" font-family="Times New Roman,serif" font-size="14.00" fill="#000000">3</text></g><g id="edge1" class="edge"><path fill="none" stroke="#7b7b7b" d="M51.26,-144.76C54.5,-136.37 58.53,-125.93 62.17,-116.5"/><polygon fill="#7b7b7b" stroke="#7b7b7b" points="65.77,-107.15 66.37,-118.1 63.97,-111.81 62.17,-116.48 62.17,-116.48 62.17,-116.48 63.97,-111.81 57.97,-114.86 65.77,-107.15 65.77,-107.15"/></g><g id="node4" class="node"><ellipse fill="#ffffff" stroke="#7b7b7b" cx="72" cy="-18" rx="18" ry="18"/><text text-anchor="middle" x="72" y="-14.3" font-family="Times New Roman,serif" font-size="14.00" fill="#000000">2</text></g><g id="edge3" class="edge"><path fill="none" stroke="#7b7b7b" d="M72,-71.7C72,-63.98 72,-54.71 72,-46.11"/><polygon fill="#7b7b7b" stroke="#7b7b7b" points="72,-36.1 76.5,-46.1 72,-41.1 72,-46.1 72,-46.1 72,-46.1 72,-41.1 67.5,-46.1 72,-36.1 72,-36.1"/></g><g id="node5" class="node"><ellipse fill="#ff6347" stroke="#7b7b7b" cx="99" cy="-162" rx="18" ry="18"/><text text-anchor="middle" x="99" y="-158.3" font-family="Times New Roman,serif" font-size="14.00" fill="#000000">4</text></g></g><g id="graph1" class="graph" transform="scale(1 1) rotate(0) translate(4 184)"/><animate attributeName="opacity" id="0S20" from="0" to="1" begin="0E19.begin" dur="0.01s" fill="freeze"/><animate attributeName="opacity" id="0E20" begin="0S20.begin+1.0s" from="1" to="0" dur="0.01s" fill="freeze"/></g><g class="frame" style="opacity:0" transform="translate(5,57.0)"><g id="graph0" class="graph" transform="scale(1 1) rotate(0) translate(4 184)"><polygon fill="transparent" stroke="transparent" points="-4,4 -4,-184 121,-184 121,4 -4,4"/><g id="node1" class="node"><ellipse fill="#ffffff" stroke="#7b7b7b" cx="18" cy="-90" rx="18" ry="18"/><text text-anchor="middle" x="18" y="-86.3" font-family="Times New Roman,serif" font-size="14.00" fill="#000000">0</text></g><g id="node2" class="node"><ellipse fill="#ff6347" stroke="#7b7b7b" cx="45" cy="-162" rx="18" ry="18"/><text text-anchor="middle" x="45" y="-158.3" font-family="Times New Roman,serif" font-size="14.00" fill="#000000">1</text></g><g id="edge2" class="edge"><path fill="none" stroke="#7b7b7b" d="M38.74,-144.76C35.5,-136.37 31.47,-125.93 27.83,-116.5"/><polygon fill="#7b7b7b" stroke="#7b7b7b" points="24.23,-107.15 32.03,-114.86 26.03,-111.81 27.83,-116.48 27.83,-116.48 27.83,-116.48 26.03,-111.81 23.63,-118.1 24.23,-107.15 24.23,-107.15"/></g><g id="node3" class="node"><ellipse fill="#ffffff" stroke="#7b7b7b" cx="72" cy="-90" rx="18" ry="18"/><text text-anchor="middle" x="72" y="-86.3" font-family="Times New Roman,serif" font-size="14.00" fill="#000000">3</text></g><g id="edge1" class="edge"><path fill="none" stroke="#7b7b7b" d="M51.26,-144.76C54.5,-136.37 58.53,-125.93 62.17,-116.5"/><polygon fill="#7b7b7b" stroke="#7b7b7b" points="65.77,-107.15 66.37,-118.1 63.97,-111.81 62.17,-116.48 62.17,-116.48 62.17,-116.48 63.97,-111.81 57.97,-114.86 65.77,-107.15 65.77,-107.15"/></g><g id="node4" class="node"><ellipse fill="#ffffff" stroke="#7b7b7b" cx="72" cy="-18" rx="18" ry="18"/><text text-anchor="middle" x="72" y="-14.3" font-family="Times New Roman,serif" font-size="14.00" fill="#000000">2</text></g><g id="edge3" class="edge"><path fill="none" stroke="#7b7b7b" d="M72,-71.7C72,-63.98 72,-54.71 72,-46.11"/><polygon fill="#7b7b7b" stroke="#7b7b7b" points="72,-36.1 76.5,-46.1 72,-41.1 72,-46.1 72,-46.1 72,-46.1 72,-41.1 67.5,-46.1 72,-36.1 72,-36.1"/></g><g id="node5" class="node"><ellipse fill="#ff6347" stroke="#7b7b7b" cx="99" cy="-162" rx="18" ry="18"/><text text-anchor="middle" x="99" y="-158.3" font-family="Times New Roman,serif" font-size="14.00" fill="#000000">4</text></g></g><g id="graph1" class="graph" transform="scale(1 1) rotate(0) translate(4 184)"/><animate attributeName="opacity" id="0S21" from="0" to="1" begin="0E20.begin" dur="0.01s" fill="freeze"/><animate attributeName="opacity" id="0E21" begin="0S21.begin+1.0s" from="1" to="0" dur="0.01s" fill="freeze"/></g><g class="frame" style="opacity:0" transform="translate(5,57.0)"><g id="graph0" class="graph" transform="scale(1 1) rotate(0) translate(4 184)"><polygon fill="transparent" stroke="transparent" points="-4,4 -4,-184 121,-184 121,4 -4,4"/><g id="node1" class="node"><ellipse fill="#ffffff" stroke="#7b7b7b" cx="18" cy="-90" rx="18" ry="18"/><text text-anchor="middle" x="18" y="-86.3" font-family="Times New Roman,serif" font-size="14.00" fill="#000000">0</text></g><g id="node2" class="node"><ellipse fill="#ff6347" stroke="#7b7b7b" cx="45" cy="-162" rx="18" ry="18"/><text text-anchor="middle" x="45" y="-158.3" font-family="Times New Roman,serif" font-size="14.00" fill="#000000">1</text></g><g id="edge2" class="edge"><path fill="none" stroke="#7b7b7b" d="M38.74,-144.76C35.5,-136.37 31.47,-125.93 27.83,-116.5"/><polygon fill="#7b7b7b" stroke="#7b7b7b" points="24.23,-107.15 32.03,-114.86 26.03,-111.81 27.83,-116.48 27.83,-116.48 27.83,-116.48 26.03,-111.81 23.63,-118.1 24.23,-107.15 24.23,-107.15"/></g><g id="node3" class="node"><ellipse fill="#ffffff" stroke="#7b7b7b" cx="72" cy="-90" rx="18" ry="18"/><text text-anchor="middle" x="72" y="-86.3" font-family="Times New Roman,serif" font-size="14.00" fill="#000000">3</text></g><g id="edge1" class="edge"><path fill="none" stroke="#7b7b7b" d="M51.26,-144.76C54.5,-136.37 58.53,-125.93 62.17,-116.5"/><polygon fill="#7b7b7b" stroke="#7b7b7b" points="65.77,-107.15 66.37,-118.1 63.97,-111.81 62.17,-116.48 62.17,-116.48 62.17,-116.48 63.97,-111.81 57.97,-114.86 65.77,-107.15 65.77,-107.15"/></g><g id="node4" class="node"><ellipse fill="#ffffff" stroke="#7b7b7b" cx="72" cy="-18" rx="18" ry="18"/><text text-anchor="middle" x="72" y="-14.3" font-family="Times New Roman,serif" font-size="14.00" fill="#000000">2</text></g><g id="edge3" class="edge"><path fill="none" stroke="#7b7b7b" d="M72,-71.7C72,-63.98 72,-54.71 72,-46.11"/><polygon fill="#7b7b7b" stroke="#7b7b7b" points="72,-36.1 76.5,-46.1 72,-41.1 72,-46.1 72,-46.1 72,-46.1 72,-41.1 67.5,-46.1 72,-36.1 72,-36.1"/></g><g id="node5" class="node"><ellipse fill="#ff6347" stroke="#7b7b7b" cx="99" cy="-162" rx="18" ry="18"/><text text-anchor="middle" x="99" y="-158.3" font-family="Times New Roman,serif" font-size="14.00" fill="#000000">4</text></g></g><g id="graph1" class="graph" transform="scale(1 1) rotate(0) translate(4 184)"/><animate attributeName="opacity" id="0S22" from="0" to="1" begin="0E21.begin" dur="0.01s" fill="freeze"/><animate attributeName="opacity" id="0E22" begin="0S22.begin+1.5s" from="1" to="0" dur="0.01s" fill="freeze"/></g><g class="frame" style="opacity:0" transform="translate(5,57.0)"><g id="graph0" class="graph" transform="scale(1 1) rotate(0) translate(4 184)"><polygon fill="transparent" stroke="transparent" points="-4,4 -4,-184 121,-184 121,4 -4,4"/><g id="node1" class="node"><ellipse fill="#ffffff" stroke="#7b7b7b" cx="18" cy="-90" rx="18" ry="18"/><text text-anchor="middle" x="18" y="-86.3" font-family="Times New Roman,serif" font-size="14.00" fill="#000000">0</text></g><g id="node2" class="node"><ellipse fill="#ff6347" stroke="#7b7b7b" cx="45" cy="-162" rx="18" ry="18"/><text text-anchor="middle" x="45" y="-158.3" font-family="Times New Roman,serif" font-size="14.00" fill="#000000">1</text><animateMotion path="m0,0 l27.00,0.00" begin="0S23.end+0.20s" dur="0.48s" fill="freeze"/><animateMotion path="m0,0 l0,0" begin="0E23.end" dur="0.01s" fill="freeze"/></g><g id="edge2" class="edge" style="opacity:1"><path fill="none" stroke="#7b7b7b" d="M38.74,-144.76C35.5,-136.37 31.47,-125.93 27.83,-116.5"/><polygon fill="#7b7b7b" stroke="#7b7b7b" points="24.23,-107.15 32.03,-114.86 26.03,-111.81 27.83,-116.48 27.83,-116.48 27.83,-116.48 26.03,-111.81 23.63,-118.1 24.23,-107.15 24.23,-107.15"/><animate attributeName="opacity" from="1" to="0" begin="0S23.end+0.00s" dur="0.20s" fill="freeze"/><animate attributeName="opacity" from="0" to="1" begin="0E23.end" dur="0.01s" fill="freeze"/></g><g id="node3" class="node"><ellipse fill="#ffffff" stroke="#7b7b7b" cx="72" cy="-90" rx="18" ry="18"/><text text-anchor="middle" x="72" y="-86.3" font-family="Times New Roman,serif" font-size="14.00" fill="#000000">3</text></g><g id="edge1" class="edge" style="opacity:1"><path fill="none" stroke="#7b7b7b" d="M51.26,-144.76C54.5,-136.37 58.53,-125.93 62.17,-116.5"/><polygon fill="#7b7b7b" stroke="#7b7b7b" points="65.77,-107.15 66.37,-118.1 63.97,-111.81 62.17,-116.48 62.17,-116.48 62.17,-116.48 63.97,-111.81 57.97,-114.86 65.77,-107.15 65.77,-107.15"/><animate attributeName="opacity" from="1" to="0" begin="0S23.end+0.00s" dur="0.20s" fill="freeze"/><animate attributeName="opacity" from="0" to="1" begin="0E23.end" dur="0.01s" fill="freeze"/></g><g id="node4" class="node"><ellipse fill="#ffffff" stroke="#7b7b7b" cx="72" cy="-18" rx="18" ry="18"/><text text-anchor="middle" x="72" y="-14.3" font-family="Times New Roman,serif" font-size="14.00" fill="#000000">2</text><animateMotion path="m0,0 l54.00,-72.00" begin="0S23.end+0.20s" dur="0.48s" fill="freeze"/><animateMotion path="m0,0 l0,0" begin="0E23.end" dur="0.01s" fill="freeze"/></g><g id="edge3" class="edge" style="opacity:1"><path fill="none" stroke="#7b7b7b" d="M72,-71.7C72,-63.98 72,-54.71 72,-46.11"/><polygon fill="#7b7b7b" stroke="#7b7b7b" points="72,-36.1 76.5,-46.1 72,-41.1 72,-46.1 72,-46.1 72,-46.1 72,-41.1 67.5,-46.1 72,-36.1 72,-36.1"/><animate attributeName="opacity" from="1" to="0" begin="0S23.end+0.00s" dur="0.20s" fill="freeze"/><animate attributeName="opacity" from="0" to="1" begin="0E23.end" dur="0.01s" fill="freeze"/></g><g id="node5" class="node"><ellipse fill="#ff6347" stroke="#7b7b7b" cx="99" cy="-162" rx="18" ry="18"/><text text-anchor="middle" x="99" y="-158.3" font-family="Times New Roman,serif" font-size="14.00" fill="#000000">4</text><animateMotion path="m0,0 l27.00,0.00" begin="0S23.end+0.20s" dur="0.48s" fill="freeze"/><animateMotion path="m0,0 l0,0" begin="0E23.end" dur="0.01s" fill="freeze"/></g></g><g id="graph1" class="graph" transform="scale(1 1) rotate(0) translate(4 112)"><g id="edge2" class="edge" style="opacity:0"><path fill="none" stroke="#7b7b7b" d="M61.33,-75.17C53.79,-65.39 43.52,-52.08 34.87,-40.87"/><polygon fill="#7b7b7b" stroke="#7b7b7b" points="28.65,-32.8 38.32,-37.97 31.7,-36.76 34.75,-40.72 34.75,-40.72 34.75,-40.72 31.7,-36.76 31.19,-43.47 28.65,-32.8 28.65,-32.8"/><animate attributeName="opacity" from="0" to="1" begin="0S23.end+0.68s" dur="0.32s" fill="freeze"/><animate attributeName="opacity" from="1" to="0" begin="0E23.end" dur="0.01s" fill="freeze"/></g><g id="edge1" class="edge" style="opacity:0"><path fill="none" stroke="#7b7b7b" d="M72,-71.7C72,-63.98 72,-54.71 72,-46.11"/><polygon fill="#7b7b7b" stroke="#7b7b7b" points="72,-36.1 76.5,-46.1 72,-41.1 72,-46.1 72,-46.1 72,-46.1 72,-41.1 67.5,-46.1 72,-36.1 72,-36.1"/><animate attributeName="opacity" from="0" to="1" begin="0S23.end+0.68s" dur="0.32s" fill="freeze"/><animate attributeName="opacity" from="1" to="0" begin="0E23.end" dur="0.01s" fill="freeze"/></g><g id="edge4" class="edge" style="opacity:0"><path fill="none" stroke="#7b7b7b" d="M82.67,-75.17C90.21,-65.39 100.48,-52.08 109.13,-40.87"/><polygon fill="#7b7b7b" stroke="#7b7b7b" points="115.35,-32.8 112.81,-43.47 112.3,-36.76 109.25,-40.72 109.25,-40.72 109.25,-40.72 112.3,-36.76 105.68,-37.97 115.35,-32.8 115.35,-32.8"/><animate attributeName="opacity" from="0" to="1" begin="0S23.end+0.68s" dur="0.32s" fill="freeze"/><animate attributeName="opacity" from="1" to="0" begin="0E23.end" dur="0.01s" fill="freeze"/></g></g><animate attributeName="opacity" id="0S23" from="0" to="1" begin="0E22.begin" dur="0.01s" fill="freeze"/><animate attributeName="opacity" id="0E23" begin="0S23.begin+1.5s" from="1" to="0" dur="0.01s" fill="freeze"/></g><g class="frame" style="opacity:0" transform="translate(5,57.0)"><g id="graph0" class="graph" transform="scale(1 1) rotate(0) translate(4 112)"><polygon fill="transparent" stroke="transparent" points="-4,4 -4,-112 148,-112 148,4 -4,4"/><g id="node1" class="node"><ellipse fill="#ffffff" stroke="#7b7b7b" cx="18" cy="-18" rx="18" ry="18"/><text text-anchor="middle" x="18" y="-14.3" font-family="Times New Roman,serif" font-size="14.00" fill="#000000">0</text></g><g id="node2" class="node"><ellipse fill="#ffffff" stroke="#7b7b7b" cx="72" cy="-90" rx="18" ry="18"/><text text-anchor="middle" x="72" y="-86.3" font-family="Times New Roman,serif" font-size="14.00" fill="#000000">1</text><animateMotion path="m0,0 l27.00,0.00" begin="0S24.end+0.20s" dur="0.48s" fill="freeze"/><animateMotion path="m0,0 l0,0" begin="0E24.end" dur="0.01s" fill="freeze"/></g><g id="edge3" class="edge" style="opacity:1"><path fill="none" stroke="#7b7b7b" d="M61.33,-75.17C53.79,-65.39 43.52,-52.08 34.87,-40.87"/><polygon fill="#7b7b7b" stroke="#7b7b7b" points="28.65,-32.8 38.32,-37.97 31.7,-36.76 34.75,-40.72 34.75,-40.72 34.75,-40.72 31.7,-36.76 31.19,-43.47 28.65,-32.8 28.65,-32.8"/><animate attributeName="opacity" from="1" to="0" begin="0S24.end+0.00s" dur="0.20s" fill="freeze"/><animate attributeName="opacity" from="0" to="1" begin="0E24.end" dur="0.01s" fill="freeze"/></g><g id="node3" class="node"><ellipse fill="#ffffff" stroke="#7b7b7b" cx="72" cy="-18" rx="18" ry="18"/><text text-anchor="middle" x="72" y="-14.3" font-family="Times New Roman,serif" font-size="14.00" fill="#000000">3</text></g><g id="edge2" class="edge" style="opacity:1"><path fill="none" stroke="#7b7b7b" d="M72,-71.7C72,-63.98 72,-54.71 72,-46.11"/><polygon fill="#7b7b7b" stroke="#7b7b7b" points="72,-36.1 76.5,-46.1 72,-41.1 72,-46.1 72,-46.1 72,-46.1 72,-41.1 67.5,-46.1 72,-36.1 72,-36.1"/><animate attributeName="opacity" from="1" to="0" begin="0S24.end+0.00s" dur="0.20s" fill="freeze"/><animate attributeName="opacity" from="0" to="1" begin="0E24.end" dur="0.01s" fill="freeze"/></g><g id="node4" class="node"><ellipse fill="#ffffff" stroke="#7b7b7b" cx="126" cy="-18" rx="18" ry="18"/><text text-anchor="middle" x="126" y="-14.3" font-family="Times New Roman,serif" font-size="14.00" fill="#000000">2</text></g><g id="edge1" class="edge" style="opacity:1"><path fill="none" stroke="#7b7b7b" d="M82.67,-75.17C90.21,-65.39 100.48,-52.08 109.13,-40.87"/><polygon fill="#7b7b7b" stroke="#7b7b7b" points="115.35,-32.8 112.81,-43.47 112.3,-36.76 109.25,-40.72 109.25,-40.72 109.25,-40.72 112.3,-36.76 105.68,-37.97 115.35,-32.8 115.35,-32.8"/><animate attributeName="opacity" from="1" to="0" begin="0S24.end+0.00s" dur="0.20s" fill="freeze"/><animate attributeName="opacity" from="0" to="1" begin="0E24.end" dur="0.01s" fill="freeze"/></g><g id="node5" class="node"><ellipse fill="#ffffff" stroke="#7b7b7b" cx="126" cy="-90" rx="18" ry="18"/><text text-anchor="middle" x="126" y="-86.3" font-family="Times New Roman,serif" font-size="14.00" fill="#000000">4</text><animateMotion path="m0,0 l54.00,72.00" begin="0S24.end+0.20s" dur="0.48s" fill="freeze"/><animateMotion path="m0,0 l0,0" begin="0E24.end" dur="0.01s" fill="freeze"/></g></g><g id="graph1" class="graph" transform="scale(1 1) rotate(0) translate(4 112)"><g id="edge3" class="edge" style="opacity:0"><path fill="none" stroke="#7b7b7b" d="M85.62,-77.44C72.89,-66.43 53.52,-49.7 38.77,-36.95"/><polygon fill="#7b7b7b" stroke="#7b7b7b" points="31.13,-30.34 41.64,-33.48 34.91,-33.61 38.69,-36.88 38.69,-36.88 38.69,-36.88 34.91,-33.61 35.75,-40.29 31.13,-30.34 31.13,-30.34"/><animate attributeName="opacity" from="0" to="1" begin="0S24.end+0.68s" dur="0.32s" fill="freeze"/><animate attributeName="opacity" from="1" to="0" begin="0E24.end" dur="0.01s" fill="freeze"/></g><g id="edge2" class="edge" style="opacity:0"><path fill="none" stroke="#7b7b7b" d="M92.74,-72.76C89.5,-64.37 85.47,-53.93 81.83,-44.5"/><polygon fill="#7b7b7b" stroke="#7b7b7b" points="78.23,-35.15 86.03,-42.86 80.03,-39.81 81.83,-44.48 81.83,-44.48 81.83,-44.48 80.03,-39.81 77.63,-46.1 78.23,-35.15 78.23,-35.15"/><animate attributeName="opacity" from="0" to="1" begin="0S24.end+0.68s" dur="0.32s" fill="freeze"/><animate attributeName="opacity" from="1" to="0" begin="0E24.end" dur="0.01s" fill="freeze"/></g><g id="edge1" class="edge" style="opacity:0"><path fill="none" stroke="#7b7b7b" d="M105.26,-72.76C108.5,-64.37 112.53,-53.93 116.17,-44.5"/><polygon fill="#7b7b7b" stroke="#7b7b7b" points="119.77,-35.15 120.37,-46.1 117.97,-39.81 116.17,-44.48 116.17,-44.48 116.17,-44.48 117.97,-39.81 111.97,-42.86 119.77,-35.15 119.77,-35.15"/><animate attributeName="opacity" from="0" to="1" begin="0S24.end+0.68s" dur="0.32s" fill="freeze"/><animate attributeName="opacity" from="1" to="0" begin="0E24.end" dur="0.01s" fill="freeze"/></g><g id="edge4" class="edge" style="opacity:0"><path fill="none" stroke="#7b7b7b" d="M112.38,-77.44C125.11,-66.43 144.48,-49.7 159.23,-36.95"/><polygon fill="#7b7b7b" stroke="#7b7b7b" points="166.87,-30.34 162.25,-40.29 163.09,-33.61 159.31,-36.88 159.31,-36.88 159.31,-36.88 163.09,-33.61 156.36,-33.48 166.87,-30.34 166.87,-30.34"/><animate attributeName="opacity" from="0" to="1" begin="0S24.end+0.68s" dur="0.32s" fill="freeze"/><animate attributeName="opacity" from="1" to="0" begin="0E24.end" dur="0.01s" fill="freeze"/></g></g><animate attributeName="opacity" id="0S24" from="0" to="1" begin="0E23.begin" dur="0.01s" fill="freeze"/><animate attributeName="opacity" id="0E24" begin="0S24.begin+1.5s" from="1" to="0" dur="0.01s" fill="freeze"/></g><g class="frame" style="opacity:0" transform="translate(5,31.0)"><g id="16"><text x="5" y="16.00" font-size="16.00" font-family="cursive">Union: 4 &lt;=&gt; 2</text></g><animate attributeName="opacity" id="1S16" from="0" to="1" begin="0s;1E24.end+0s" dur="0.01s" fill="freeze"/><animate attributeName="opacity" id="1E16" begin="1S16.begin+1.0s" from="1" to="0" dur="0.01s" fill="freeze"/></g><g class="frame" style="opacity:0" transform="translate(5,31.0)"><g id="17"><text x="5" y="16.00" font-size="16.00" font-family="cursive">Union: 4 &lt;=&gt; 2</text></g><animate attributeName="opacity" id="1S17" from="0" to="1" begin="1E16.begin" dur="0.01s" fill="freeze"/><animate attributeName="opacity" id="1E17" begin="1S17.begin+1.0s" from="1" to="0" dur="0.01s" fill="freeze"/></g><g class="frame" style="opacity:0" transform="translate(5,31.0)"><g id="18"><text x="5" y="16.00" font-size="16.00" font-family="cursive">Union: 4 &lt;=&gt; 2</text></g><animate attributeName="opacity" id="1S18" from="0" to="1" begin="1E17.begin" dur="0.01s" fill="freeze"/><animate attributeName="opacity" id="1E18" begin="1S18.begin+1.0s" from="1" to="0" dur="0.01s" fill="freeze"/></g><g class="frame" style="opacity:0" transform="translate(5,31.0)"><g id="19"><text x="5" y="16.00" font-size="16.00" font-family="cursive">Union: 4 &lt;=&gt; 2</text></g><animate attributeName="opacity" id="1S19" from="0" to="1" begin="1E18.begin" dur="0.01s" fill="freeze"/><animate attributeName="opacity" id="1E19" begin="1S19.begin+1.0s" from="1" to="0" dur="0.01s" fill="freeze"/></g><g class="frame" style="opacity:0" transform="translate(5,31.0)"><g id="20"><text x="5" y="16.00" font-size="16.00" font-family="cursive">Union: 4 &lt;=&gt; 2</text></g><animate attributeName="opacity" id="1S20" from="0" to="1" begin="1E19.begin" dur="0.01s" fill="freeze"/><animate attributeName="opacity" id="1E20" begin="1S20.begin+1.0s" from="1" to="0" dur="0.01s" fill="freeze"/></g><g class="frame" style="opacity:0" transform="translate(5,31.0)"><g id="21"><text x="5" y="16.00" font-size="16.00" font-family="cursive">Union: 4 &lt;=&gt; 2</text></g><animate attributeName="opacity" id="1S21" from="0" to="1" begin="1E20.begin" dur="0.01s" fill="freeze"/><animate attributeName="opacity" id="1E21" begin="1S21.begin+1.0s" from="1" to="0" dur="0.01s" fill="freeze"/></g><g class="frame" style="opacity:0" transform="translate(5,31.0)"><g id="22"><text x="5" y="16.00" font-size="16.00" font-family="cursive">Union: 4 &lt;=&gt; 2</text></g><animate attributeName="opacity" id="1S22" from="0" to="1" begin="1E21.begin" dur="0.01s" fill="freeze"/><animate attributeName="opacity" id="1E22" begin="1S22.begin+1.5s" from="1" to="0" dur="0.01s" fill="freeze"/></g><g class="frame" style="opacity:0" transform="translate(5,31.0)"><g id="23"><text x="5" y="16.00" font-size="16.00" font-family="cursive">Union: 4 &lt;=&gt; 2</text></g><animate attributeName="opacity" id="1S23" from="0" to="1" begin="1E22.begin" dur="0.01s" fill="freeze"/><animate attributeName="opacity" id="1E23" begin="1S23.begin+1.5s" from="1" to="0" dur="0.01s" fill="freeze"/></g><g class="frame" style="opacity:0" transform="translate(5,31.0)"><g id="24"><text x="5" y="16.00" font-size="16.00" font-family="cursive">Union: 4 &lt;=&gt; 2</text></g><animate attributeName="opacity" id="1S24" from="0" to="1" begin="1E23.begin" dur="0.01s" fill="freeze"/><animate attributeName="opacity" id="1E24" begin="1S24.begin+1.5s" from="1" to="0" dur="0.01s" fill="freeze"/></g><g class="frame" style="opacity:0" transform="translate(5,5.0)"><g id="16"/><animate attributeName="opacity" id="2S16" from="0" to="1" begin="0s;2E24.end+0s" dur="0.01s" fill="freeze"/><animate attributeName="opacity" id="2E16" begin="2S16.begin+1.0s" from="1" to="0" dur="0.01s" fill="freeze"/></g><g class="frame" style="opacity:0" transform="translate(5,5.0)"><g id="17"/><animate attributeName="opacity" id="2S17" from="0" to="1" begin="2E16.begin" dur="0.01s" fill="freeze"/><animate attributeName="opacity" id="2E17" begin="2S17.begin+1.0s" from="1" to="0" dur="0.01s" fill="freeze"/></g><g class="frame" style="opacity:0" transform="translate(5,5.0)"><g id="18"/><animate attributeName="opacity" id="2S18" from="0" to="1" begin="2E17.begin" dur="0.01s" fill="freeze"/><animate attributeName="opacity" id="2E18" begin="2S18.begin+1.0s" from="1" to="0" dur="0.01s" fill="freeze"/></g><g class="frame" style="opacity:0" transform="translate(5,5.0)"><g id="19"/><animate attributeName="opacity" id="2S19" from="0" to="1" begin="2E18.begin" dur="0.01s" fill="freeze"/><animate attributeName="opacity" id="2E19" begin="2S19.begin+1.0s" from="1" to="0" dur="0.01s" fill="freeze"/></g><g class="frame" style="opacity:0" transform="translate(5,5.0)"><g id="20"/><animate attributeName="opacity" id="2S20" from="0" to="1" begin="2E19.begin" dur="0.01s" fill="freeze"/><animate attributeName="opacity" id="2E20" begin="2S20.begin+1.0s" from="1" to="0" dur="0.01s" fill="freeze"/></g><g class="frame" style="opacity:0" transform="translate(5,5.0)"><g id="21"/><animate attributeName="opacity" id="2S21" from="0" to="1" begin="2E20.begin" dur="0.01s" fill="freeze"/><animate attributeName="opacity" id="2E21" begin="2S21.begin+1.0s" from="1" to="0" dur="0.01s" fill="freeze"/></g><g class="frame" style="opacity:0" transform="translate(5,5.0)"><g id="22"/><animate attributeName="opacity" id="2S22" from="0" to="1" begin="2E21.begin" dur="0.01s" fill="freeze"/><animate attributeName="opacity" id="2E22" begin="2S22.begin+1.5s" from="1" to="0" dur="0.01s" fill="freeze"/></g><g class="frame" style="opacity:0" transform="translate(5,5.0)"><g id="23"><text x="5" y="16.00" font-size="16.00" font-family="cursive">Compress path: 2 -&gt; 1</text></g><animate attributeName="opacity" id="2S23" from="0" to="1" begin="2E22.begin" dur="0.01s" fill="freeze"/><animate attributeName="opacity" id="2E23" begin="2S23.begin+1.5s" from="1" to="0" dur="0.01s" fill="freeze"/></g><g class="frame" style="opacity:0" transform="translate(5,5.0)"><g id="24"><text x="5" y="16.00" font-size="16.00" font-family="cursive"/></g><animate attributeName="opacity" id="2S24" from="0" to="1" begin="2E23.begin" dur="0.01s" fill="freeze"/><animate attributeName="opacity" id="2E24" begin="2S24.begin+1.5s" from="1" to="0" dur="0.01s" fill="freeze"/></g><g><animate attributeName="opacity" begin="3S25.begin" from="1" to="0" dur="0.01s" fill="freeze"/><animate attributeName="opacity" from="0" to="1" begin="3E25.end" dur="0.01s" fill="freeze"/><rect x="5.00" y="57.00" width="206.00" height="188.00" stroke="#C0C0C0" stroke-dasharray="1, 5" fill="none"/><rect x="5.00" y="31.00" width="128.00" height="21.00" stroke="#C0C0C0" stroke-dasharray="1, 5" fill="none"/><rect x="5.00" y="5.00" width="190.00" height="21.00" stroke="#C0C0C0" stroke-dasharray="1, 5" fill="none"/></g></a></svg>