<?xml version="1.0" ?><svg xmlns="http://www.w3.org/2000/svg" xmlns:xlink="http://www.w3.org/1999/xlink" width="231pt" height="116pt" viewBox="0.00 0.00 231.00 116.00"><style>.txt { alignment-baseline:middle; text-anchor:middle; font-family:Times,serif; }</style><a xlink:href="https://zjl9959.github.io/algviz/"><g class="frame" style="opacity:0" transform="translate(5,5.0)"><g id="graph0" class="graph" transform="scale(1 1) rotate(0) translate(4 4)"><polygon fill="transparent" stroke="transparent" points="-4,4 -4,-4 4,-4 4,4 -4,4"/></g><g id="graph1" class="graph" transform="scale(1 1) rotate(0) translate(4 73)"><g id="node1" class="node" style="opacity:0"><ellipse fill="none" stroke="#7b7b7b" cx="194" cy="-18" rx="18" ry="18"/><text text-anchor="middle" x="194" y="-14.3" font-family="Times New Roman,serif" font-size="14.00">c</text><animate attributeName="opacity" from="0" to="1" begin="0S0.end+0.00s" dur="3.00s" fill="freeze"/><animate attributeName="opacity" from="1" to="0" begin="0E0.end" dur="0.01s" fill="freeze"/></g><g id="node2" class="node" style="opacity:0"><ellipse fill="none" stroke="#7b7b7b" cx="106" cy="-51" rx="18" ry="18"/><text text-anchor="middle" x="106" y="-47.3" font-family="Times New Roman,serif" font-size="14.00">b</text><animate attributeName="opacity" from="0" to="1" begin="0S0.end+0.00s" dur="3.00s" fill="freeze"/><animate attributeName="opacity" from="1" to="0" begin="0E0.end" dur="0.01s" fill="freeze"/></g><g id="node3" class="node" style="opacity:0"><ellipse fill="none" stroke="#7b7b7b" cx="18" cy="-18" rx="18" ry="18"/><text text-anchor="middle" x="18" y="-14.3" font-family="Times New Roman,serif" font-size="14.00">a</text><animate attributeName="opacity" from="0" to="1" begin="0S0.end+0.00s" dur="3.00s" fill="freeze"/><animate attributeName="opacity" from="1" to="0" begin="0E0.end" dur="0.01s" fill="freeze"/></g><g id="edge1" class="edge" style="opacity:0"><path fill="none" stroke="#7b7b7b" d="M35.18,-24.21C47.67,-29 65.19,-35.72 79.56,-41.24"/><polygon fill="#7b7b7b" stroke="#7b7b7b" points="88.9,-44.82 77.95,-45.44 84.23,-43.03 79.56,-41.24 79.56,-41.24 79.56,-41.24 84.23,-43.03 81.17,-37.04 88.9,-44.82 88.9,-44.82"/><text text-anchor="middle" x="62" y="-40.4" font-family="Times New Roman,serif" font-size="12.00" fill="#c0c0c0">a-b</text><animate attributeName="opacity" from="0" to="1" begin="0S0.end+0.00s" dur="3.00s" fill="freeze"/><animate attributeName="opacity" from="1" to="0" begin="0E0.end" dur="0.01s" fill="freeze"/></g><g id="edge2" class="edge" style="opacity:0"><path fill="none" stroke="#7b7b7b" d="M123.18,-44.79C135.67,-40 153.19,-33.28 167.56,-27.76"/><polygon fill="#7b7b7b" stroke="#7b7b7b" points="176.9,-24.18 169.17,-31.96 172.23,-25.97 167.56,-27.76 167.56,-27.76 167.56,-27.76 172.23,-25.97 165.95,-23.56 176.9,-24.18 176.9,-24.18"/><text text-anchor="middle" x="150" y="-40.4" font-family="Times New Roman,serif" font-size="12.00" fill="#c0c0c0">b-c</text><animate attributeName="opacity" from="0" to="1" begin="0S0.end+0.00s" dur="3.00s" fill="freeze"/><animate attributeName="opacity" from="1" to="0" begin="0E0.end" dur="0.01s" fill="freeze"/></g><g id="edge3" class="edge" style="opacity:0"><path fill="none" stroke="#7b7b7b" d="M176.02,-15.79C162.08,-14.1 141.8,-11.9 124,-11 108.02,-10.19 103.98,-10.19 88,-11 74.1,-11.7 58.68,-13.2 45.95,-14.63"/><polygon fill="#7b7b7b" stroke="#7b7b7b" points="35.98,-15.79 45.39,-10.16 40.94,-15.21 45.91,-14.63 45.91,-14.63 45.91,-14.63 40.94,-15.21 46.43,-19.1 35.98,-15.79 35.98,-15.79"/><text text-anchor="middle" x="106" y="-14.4" font-family="Times New Roman,serif" font-size="12.00" fill="#c0c0c0">c-a</text><animate attributeName="opacity" from="0" to="1" begin="0S0.end+0.00s" dur="3.00s" fill="freeze"/><animate attributeName="opacity" from="1" to="0" begin="0E0.end" dur="0.01s" fill="freeze"/></g></g><animate attributeName="opacity" id="0S0" from="0" to="1" begin="0s;0E2.end+0s" dur="0.01s" fill="freeze"/><animate attributeName="opacity" id="0E0" begin="0S0.begin+4.0s" from="1" to="0" dur="0.01s" fill="freeze"/></g><g class="frame" style="opacity:0" transform="translate(5,5.0)"><g id="graph0" class="graph" transform="scale(1 1) rotate(0) translate(4 73)"><polygon fill="transparent" stroke="transparent" points="-4,4 -4,-73 216,-73 216,4 -4,4"/><g id="node1" class="node"><ellipse fill="#ffffff" stroke="#7b7b7b" cx="18" cy="-18" rx="18" ry="18"/><text text-anchor="middle" x="18" y="-14.3" font-family="Times New Roman,serif" font-size="14.00" fill="#000000">a</text><animateMotion path="m0,0 l0.00,-33.00" begin="0S1.end+0.60s" dur="1.44s" fill="freeze"/><animateMotion path="m0,0 l0,0" begin="0E1.end" dur="0.01s" fill="freeze"/></g><g id="node2" class="node"><ellipse fill="#ffffff" stroke="#7b7b7b" cx="106" cy="-51" rx="18" ry="18"/><text text-anchor="middle" x="106" y="-47.3" font-family="Times New Roman,serif" font-size="14.00" fill="#000000">b</text></g><g id="edge1" class="edge" style="opacity:1"><path fill="none" stroke="#7b7b7b" d="M35.18,-24.21C47.67,-29 65.19,-35.72 79.56,-41.24"/><polygon fill="#7b7b7b" stroke="#7b7b7b" points="88.9,-44.82 77.95,-45.44 84.23,-43.03 79.56,-41.24 79.56,-41.24 79.56,-41.24 84.23,-43.03 81.17,-37.04 88.9,-44.82 88.9,-44.82"/><text text-anchor="middle" x="62" y="-40.4" font-family="Times New Roman,serif" font-size="12.00" fill="#c0c0c0">a-b</text><animate attributeName="opacity" from="1" to="0" begin="0S1.end+0.00s" dur="0.60s" fill="freeze"/><animate attributeName="opacity" from="0" to="1" begin="0E1.end" dur="0.01s" fill="freeze"/></g><g id="node3" class="node"><ellipse fill="#ffffff" stroke="#7b7b7b" cx="194" cy="-18" rx="18" ry="18"/><text text-anchor="middle" x="194" y="-14.3" font-family="Times New Roman,serif" font-size="14.00" fill="#000000">c</text><animateMotion path="m0,0 l0.00,-33.00" begin="0S1.end+0.60s" dur="1.44s" fill="freeze"/><animateMotion path="m0,0 l0,0" begin="0E1.end" dur="0.01s" fill="freeze"/></g><g id="edge2" class="edge" style="opacity:1"><path fill="none" stroke="#7b7b7b" d="M123.18,-44.79C135.67,-40 153.19,-33.28 167.56,-27.76"/><polygon fill="#7b7b7b" stroke="#7b7b7b" points="176.9,-24.18 169.17,-31.96 172.23,-25.97 167.56,-27.76 167.56,-27.76 167.56,-27.76 172.23,-25.97 165.95,-23.56 176.9,-24.18 176.9,-24.18"/><text text-anchor="middle" x="150" y="-40.4" font-family="Times New Roman,serif" font-size="12.00" fill="#c0c0c0">b-c</text><animate attributeName="opacity" from="1" to="0" begin="0S1.end+0.00s" dur="0.60s" fill="freeze"/><animate attributeName="opacity" from="0" to="1" begin="0E1.end" dur="0.01s" fill="freeze"/></g><g id="edge3" class="edge" style="opacity:1"><path fill="none" stroke="#7b7b7b" d="M176.02,-15.79C162.08,-14.1 141.8,-11.9 124,-11 108.02,-10.19 103.98,-10.19 88,-11 74.1,-11.7 58.68,-13.2 45.95,-14.63"/><polygon fill="#7b7b7b" stroke="#7b7b7b" points="35.98,-15.79 45.39,-10.16 40.94,-15.21 45.91,-14.63 45.91,-14.63 45.91,-14.63 40.94,-15.21 46.43,-19.1 35.98,-15.79 35.98,-15.79"/><text text-anchor="middle" x="106" y="-14.4" font-family="Times New Roman,serif" font-size="12.00" fill="#c0c0c0">c-a</text><animate attributeName="opacity" from="1" to="0" begin="0S1.end+0.00s" dur="0.60s" fill="freeze"/><animate attributeName="opacity" from="0" to="1" begin="0E1.end" dur="0.01s" fill="freeze"/></g></g><g id="graph1" class="graph" transform="scale(1 1) rotate(0) translate(4 40)"><g id="edge1" class="edge" style="opacity:0"><path fill="none" stroke="#7b7b7b" d="M36.4,-18C48.25,-18 64.18,-18 77.71,-18"/><polygon fill="#7b7b7b" stroke="#7b7b7b" points="87.92,-18 77.92,-22.5 82.92,-18 77.92,-18 77.92,-18 77.92,-18 82.92,-18 77.92,-13.5 87.92,-18 87.92,-18"/><text text-anchor="middle" x="62" y="-21.4" font-family="Times New Roman,serif" font-size="12.00" fill="#c0c0c0">a-b</text><animate attributeName="opacity" from="0" to="1" begin="0S1.end+2.04s" dur="0.96s" fill="freeze"/><animate attributeName="opacity" from="1" to="0" begin="0E1.end" dur="0.01s" fill="freeze"/></g><g id="edge2" class="edge" style="opacity:0"><path fill="none" stroke="#7b7b7b" d="M124.4,-18C136.25,-18 152.18,-18 165.71,-18"/><polygon fill="#7b7b7b" stroke="#7b7b7b" points="175.92,-18 165.92,-22.5 170.92,-18 165.92,-18 165.92,-18 165.92,-18 170.92,-18 165.92,-13.5 175.92,-18 175.92,-18"/><text text-anchor="middle" x="150" y="-21.4" font-family="Times New Roman,serif" font-size="12.00" fill="#c0c0c0">b-c</text><animate attributeName="opacity" from="0" to="1" begin="0S1.end+2.04s" dur="0.96s" fill="freeze"/><animate attributeName="opacity" from="1" to="0" begin="0E1.end" dur="0.01s" fill="freeze"/></g></g><animate attributeName="opacity" id="0S1" from="0" to="1" begin="0E0.begin" dur="0.01s" fill="freeze"/><animate attributeName="opacity" id="0E1" begin="0S1.begin+4.0s" from="1" to="0" dur="0.01s" fill="freeze"/></g><g class="frame" style="opacity:0" transform="translate(5,5.0)"><g id="graph0" class="graph" transform="scale(1 1) rotate(0) translate(4 40)"><polygon fill="transparent" stroke="transparent" points="-4,4 -4,-40 216,-40 216,4 -4,4"/><g id="node1" class="node"><ellipse fill="#ffffff" stroke="#7b7b7b" cx="18" cy="-18" rx="18" ry="18"/><text text-anchor="middle" x="18" y="-14.3" font-family="Times New Roman,serif" font-size="14.00" fill="#000000">a</text><animateMotion path="m0,0 l0.00,53.00" begin="0S2.end+0.60s" dur="1.44s" fill="freeze"/><animateMotion path="m0,0 l0,0" begin="0E2.end" dur="0.01s" fill="freeze"/></g><g id="node2" class="node"><ellipse fill="#ffffff" stroke="#7b7b7b" cx="106" cy="-18" rx="18" ry="18"/><text text-anchor="middle" x="106" y="-14.3" font-family="Times New Roman,serif" font-size="14.00" fill="#000000">b</text><animateMotion path="m0,0 l0.00,20.00" begin="0S2.end+0.60s" dur="1.44s" fill="freeze"/><animateMotion path="m0,0 l0,0" begin="0E2.end" dur="0.01s" fill="freeze"/></g><g id="edge1" class="edge" style="opacity:1"><path fill="none" stroke="#7b7b7b" d="M36.4,-18C48.25,-18 64.18,-18 77.71,-18"/><polygon fill="#7b7b7b" stroke="#7b7b7b" points="87.92,-18 77.92,-22.5 82.92,-18 77.92,-18 77.92,-18 77.92,-18 82.92,-18 77.92,-13.5 87.92,-18 87.92,-18"/><text text-anchor="middle" x="62" y="-21.4" font-family="Times New Roman,serif" font-size="12.00" fill="#c0c0c0">a-b</text><animate attributeName="opacity" from="1" to="0" begin="0S2.end+0.00s" dur="0.60s" fill="freeze"/><animate attributeName="opacity" from="0" to="1" begin="0E2.end" dur="0.01s" fill="freeze"/></g><g id="node3" class="node"><ellipse fill="#ffffff" stroke="#7b7b7b" cx="194" cy="-18" rx="18" ry="18"/><text text-anchor="middle" x="194" y="-14.3" font-family="Times New Roman,serif" font-size="14.00" fill="#000000">c</text><animateMotion path="m0,0 l1.00,0.00" begin="0S2.end+0.60s" dur="1.44s" fill="freeze"/><animateMotion path="m0,0 l0,0" begin="0E2.end" dur="0.01s" fill="freeze"/></g><g id="edge2" class="edge" style="opacity:1"><path fill="none" stroke="#7b7b7b" d="M124.4,-18C136.25,-18 152.18,-18 165.71,-18"/><polygon fill="#7b7b7b" stroke="#7b7b7b" points="175.92,-18 165.92,-22.5 170.92,-18 165.92,-18 165.92,-18 165.92,-18 170.92,-18 165.92,-13.5 175.92,-18 175.92,-18"/><text text-anchor="middle" x="150" y="-21.4" font-family="Times New Roman,serif" font-size="12.00" fill="#c0c0c0">b-c</text><animate attributeName="opacity" from="1" to="0" begin="0S2.end+0.00s" dur="0.60s" fill="freeze"/><animate attributeName="opacity" from="0" to="1" begin="0E2.end" dur="0.01s" fill="freeze"/></g></g><g id="graph1" class="graph" transform="scale(1 1) rotate(0) translate(4 102)"><g id="node4" class="node" style="opacity:0"><ellipse fill="none" stroke="#7b7b7b" cx="195" cy="-18" rx="18" ry="18"/><text text-anchor="middle" x="195" y="-14.3" font-family="Times New Roman,serif" font-size="14.00">d</text><animate attributeName="opacity" from="0" to="1" begin="0S2.end+2.04s" dur="0.96s" fill="freeze"/><animate attributeName="opacity" from="1" to="0" begin="0E2.end" dur="0.01s" fill="freeze"/></g><g id="edge1" class="edge" style="opacity:0"><path fill="none" stroke="#7b7b7b" d="M35.18,-33.21C47.67,-38 65.19,-44.72 79.56,-50.24"/><polygon fill="#7b7b7b" stroke="#7b7b7b" points="88.9,-53.82 77.95,-54.44 84.23,-52.03 79.56,-50.24 79.56,-50.24 79.56,-50.24 84.23,-52.03 81.17,-46.04 88.9,-53.82 88.9,-53.82"/><text text-anchor="middle" x="62" y="-49.4" font-family="Times New Roman,serif" font-size="12.00" fill="#c0c0c0">a-b</text><animate attributeName="opacity" from="0" to="1" begin="0S2.end+2.04s" dur="0.96s" fill="freeze"/><animate attributeName="opacity" from="1" to="0" begin="0E2.end" dur="0.01s" fill="freeze"/></g><g id="edge3" class="edge" style="opacity:0"><path fill="none" stroke="#7b7b7b" d="M122.55,-52.49C135.54,-46.22 154.3,-37.17 169.34,-29.91"/><polygon fill="#7b7b7b" stroke="#7b7b7b" points="178.58,-25.44 171.53,-33.84 174.08,-27.62 169.58,-29.79 169.58,-29.79 169.58,-29.79 174.08,-27.62 167.62,-25.74 178.58,-25.44 178.58,-25.44"/><text text-anchor="middle" x="150.5" y="-45.4" font-family="Times New Roman,serif" font-size="12.00" fill="#c0c0c0">b-d</text><animate attributeName="opacity" from="0" to="1" begin="0S2.end+2.04s" dur="0.96s" fill="freeze"/><animate attributeName="opacity" from="1" to="0" begin="0E2.end" dur="0.01s" fill="freeze"/></g><g id="edge2" class="edge" style="opacity:0"><path fill="none" stroke="#7b7b7b" d="M123.77,-63.86C136.05,-66.68 152.96,-70.57 167.12,-73.82"/><polygon fill="#7b7b7b" stroke="#7b7b7b" points="177.28,-76.16 166.52,-78.3 172.4,-75.04 167.53,-73.92 167.53,-73.92 167.53,-73.92 172.4,-75.04 168.54,-69.53 177.28,-76.16 177.28,-76.16"/><text text-anchor="middle" x="150.5" y="-74.4" font-family="Times New Roman,serif" font-size="12.00" fill="#c0c0c0">b-c</text><animate attributeName="opacity" from="0" to="1" begin="0S2.end+2.04s" dur="0.96s" fill="freeze"/><animate attributeName="opacity" from="1" to="0" begin="0E2.end" dur="0.01s" fill="freeze"/></g><g id="edge4" class="edge" style="opacity:0"><path fill="none" stroke="#7b7b7b" d="M176.72,-17.89C155.73,-17.86 119.23,-18.12 88,-20 74.1,-20.83 58.68,-22.34 45.95,-23.75"/><polygon fill="#7b7b7b" stroke="#7b7b7b" points="35.98,-24.88 45.41,-19.28 40.95,-24.32 45.92,-23.75 45.92,-23.75 45.92,-23.75 40.95,-24.32 46.43,-28.22 35.98,-24.88 35.98,-24.88"/><text text-anchor="middle" x="106" y="-23.4" font-family="Times New Roman,serif" font-size="12.00" fill="#c0c0c0">d-a</text><animate attributeName="opacity" from="0" to="1" begin="0S2.end+2.04s" dur="0.96s" fill="freeze"/><animate attributeName="opacity" from="1" to="0" begin="0E2.end" dur="0.01s" fill="freeze"/></g></g><animate attributeName="opacity" id="0S2" from="0" to="1" begin="0E1.begin" dur="0.01s" fill="freeze"/><animate attributeName="opacity" id="0E2" begin="0S2.begin+4.0s" from="1" to="0" dur="0.01s" fill="freeze"/></g><g><animate attributeName="opacity" begin="1S3.begin" from="1" to="0" dur="0.01s" fill="freeze"/><animate attributeName="opacity" from="0" to="1" begin="1E3.end" dur="0.01s" fill="freeze"/></g></a></svg>