<?xml version="1.0" ?><svg xmlns="http://www.w3.org/2000/svg" xmlns:xlink="http://www.w3.org/1999/xlink" width="271pt" height="71pt" viewBox="0.00 0.00 271.00 71.00"><style>.txt { alignment-baseline:middle; text-anchor:middle; font-family:Times,serif; }</style><a xlink:href="https://zjl9959.github.io/algviz/"><g class="frame" style="opacity:0" transform="translate(5,5.0)"><g id="0"><rect x="3.00" y="6.00" width="40.00" height="40.00" rx="4.00" ry="4.00" fill="#ffffff" stroke="#7b7b7b"/><text class="txt" x="23.00" y="26.00" font-size="16.00" fill="#000000">5</text></g><g id="1"><rect x="46.00" y="6.00" width="40.00" height="40.00" rx="4.00" ry="4.00" fill="#ffffff" stroke="#7b7b7b"/><text class="txt" x="66.00" y="26.00" font-size="16.00" fill="#000000">1</text></g><g id="2"><rect x="89.00" y="6.00" width="40.00" height="40.00" rx="4.00" ry="4.00" fill="#ffffff" stroke="#7b7b7b"/><text class="txt" x="109.00" y="26.00" font-size="16.00" fill="#000000">2</text></g><g id="3"><rect x="132.00" y="6.00" width="40.00" height="40.00" rx="4.00" ry="4.00" fill="#008000" stroke="#7b7b7b"/><text class="txt" x="152.00" y="26.00" font-size="16.00" fill="#FFFFFF">3</text></g><g id="4"><text x="20.00" y="58.00" font-size="12.00" font-family="Times,serif" fill="#7b7b7b">0</text></g><g id="5"><text x="63.00" y="58.00" font-size="12.00" font-family="Times,serif" fill="#7b7b7b">1</text></g><g id="6"><text x="106.00" y="58.00" font-size="12.00" font-family="Times,serif" fill="#7b7b7b">2</text></g><g id="7"><text x="149.00" y="58.00" font-size="12.00" font-family="Times,serif" fill="#7b7b7b">3</text></g><g id="8" style="opacity:1"><rect x="218.00" y="6.00" width="40.00" height="40.00" rx="4.00" ry="4.00" fill="#ffffff" stroke="#7b7b7b"/><text class="txt" x="238.00" y="26.00" font-size="16.00" fill="#000000">0</text></g><g id="9"><text x="192.00" y="58.00" font-size="12.00" font-family="Times,serif" fill="#7b7b7b">4</text></g><g id="10" style="opacity:1"><rect x="175.00" y="6.00" width="40.00" height="40.00" rx="4.00" ry="4.00" fill="#ffffff" stroke="#7b7b7b"/><text class="txt" x="195.00" y="26.00" font-size="16.00" fill="#000000">4</text></g><g id="11"><text x="235.00" y="58.00" font-size="12.00" font-family="Times,serif" fill="#7b7b7b">5</text></g><animate attributeName="opacity" id="0S2" from="0" to="1" begin="0s;0E4.end+0s" dur="0.01s" fill="freeze"/><animate attributeName="opacity" id="0E2" begin="0S2.begin+1.5s" from="1" to="0" dur="0.01s" fill="freeze"/></g><g class="frame" style="opacity:0" transform="translate(5,5.0)"><g id="0"><rect x="3.00" y="6.00" width="40.00" height="40.00" rx="4.00" ry="4.00" fill="#ffffff" stroke="#7b7b7b"/><text class="txt" x="23.00" y="26.00" font-size="16.00" fill="#000000">5</text></g><g id="1"><rect x="46.00" y="6.00" width="40.00" height="40.00" rx="4.00" ry="4.00" fill="#808080" stroke="#7b7b7b"/><text class="txt" x="66.00" y="26.00" font-size="16.00" fill="#000000">1</text></g><g id="2"><rect x="89.00" y="6.00" width="40.00" height="40.00" rx="4.00" ry="4.00" fill="#808080" stroke="#7b7b7b"/><text class="txt" x="109.00" y="26.00" font-size="16.00" fill="#000000">2</text></g><g id="3"><rect x="132.00" y="6.00" width="40.00" height="40.00" rx="4.00" ry="4.00" fill="#ffffff" stroke="#7b7b7b"/><text class="txt" x="152.00" y="26.00" font-size="16.00" fill="#000000">3</text></g><g id="4"><text x="20.00" y="58.00" font-size="12.00" font-family="Times,serif" fill="#7b7b7b">0</text></g><g id="5"><text x="63.00" y="58.00" font-size="12.00" font-family="Times,serif" fill="#7b7b7b">1</text></g><g id="6"><text x="106.00" y="58.00" font-size="12.00" font-family="Times,serif" fill="#7b7b7b">2</text></g><g id="7"><text x="149.00" y="58.00" font-size="12.00" font-family="Times,serif" fill="#7b7b7b">3</text></g><g id="8" style="opacity:1"><rect x="218.00" y="6.00" width="40.00" height="40.00" rx="4.00" ry="4.00" fill="#ffffff" stroke="#7b7b7b"/><text class="txt" x="238.00" y="26.00" font-size="16.00" fill="#000000">0</text></g><g id="9"><text x="192.00" y="58.00" font-size="12.00" font-family="Times,serif" fill="#7b7b7b">4</text></g><g id="10" style="opacity:1"><rect x="175.00" y="6.00" width="40.00" height="40.00" rx="4.00" ry="4.00" fill="#ffffff" stroke="#7b7b7b"/><text class="txt" x="195.00" y="26.00" font-size="16.00" fill="#000000">4</text></g><g id="11"><text x="235.00" y="58.00" font-size="12.00" font-family="Times,serif" fill="#7b7b7b">5</text></g><animate attributeName="opacity" id="0S3" from="0" to="1" begin="0E2.begin" dur="0.01s" fill="freeze"/><animate attributeName="opacity" id="0E3" begin="0S3.begin+1.5s" from="1" to="0" dur="0.01s" fill="freeze"/></g><g class="frame" style="opacity:0" transform="translate(5,5.0)"><g id="0"><rect x="3.00" y="6.00" width="40.00" height="40.00" rx="4.00" ry="4.00" fill="#ffffff" stroke="#7b7b7b"/><text class="txt" x="23.00" y="26.00" font-size="16.00" fill="#000000">5</text></g><g id="1"><rect x="46.00" y="6.00" width="40.00" height="40.00" rx="4.00" ry="4.00" fill="#ffffff" stroke="#7b7b7b"/><text class="txt" x="66.00" y="26.00" font-size="16.00" fill="#000000">1</text></g><g id="2"><rect x="89.00" y="6.00" width="40.00" height="40.00" rx="4.00" ry="4.00" fill="#ffffff" stroke="#7b7b7b"/><text class="txt" x="109.00" y="26.00" font-size="16.00" fill="#000000">2</text></g><g id="3"><rect x="132.00" y="6.00" width="40.00" height="40.00" rx="4.00" ry="4.00" fill="#ffffff" stroke="#7b7b7b"/><text class="txt" x="152.00" y="26.00" font-size="16.00" fill="#000000">3</text></g><g id="4"><text x="20.00" y="58.00" font-size="12.00" font-family="Times,serif" fill="#7b7b7b">0</text></g><g id="5"><text x="63.00" y="58.00" font-size="12.00" font-family="Times,serif" fill="#7b7b7b">1</text></g><g id="6"><text x="106.00" y="58.00" font-size="12.00" font-family="Times,serif" fill="#7b7b7b">2</text></g><g id="7"><text x="149.00" y="58.00" font-size="12.00" font-family="Times,serif" fill="#7b7b7b">3</text></g><g id="8" style="opacity:1"><rect x="218.00" y="6.00" width="40.00" height="40.00" rx="4.00" ry="4.00" fill="#ffffff" stroke="#7b7b7b"/><text class="txt" x="238.00" y="26.00" font-size="16.00" fill="#000000">0</text></g><g id="9"><text x="192.00" y="58.00" font-size="12.00" font-family="Times,serif" fill="#7b7b7b">4</text></g><g id="10" style="opacity:1"><rect x="175.00" y="6.00" width="40.00" height="40.00" rx="4.00" ry="4.00" fill="#ffffff" stroke="#7b7b7b"/><text class="txt" x="195.00" y="26.00" font-size="16.00" fill="#000000">4</text></g><g id="11"><text x="235.00" y="58.00" font-size="12.00" font-family="Times,serif" fill="#7b7b7b">5</text></g><animate attributeName="opacity" id="0S4" from="0" to="1" begin="0E3.begin" dur="0.01s" fill="freeze"/><animate attributeName="opacity" id="0E4" begin="0S4.begin+1.5s" from="1" to="0" dur="0.01s" fill="freeze"/></g><g><animate attributeName="opacity" begin="1S5.begin" from="1" to="0" dur="0.01s" fill="freeze"/><animate attributeName="opacity" from="0" to="1" begin="1E5.end" dur="0.01s" fill="freeze"/></g></a></svg>