<?xml version="1.0" ?><svg xmlns="http://www.w3.org/2000/svg" xmlns:xlink="http://www.w3.org/1999/xlink" width="270pt" height="54pt" viewBox="0.00 0.00 270.00 54.00"><style>.txt { alignment-baseline:middle; text-anchor:middle; font-family:Times,serif; }</style><a xlink:href="https://algviz.com/"><g class="frame" style="opacity:0" transform="translate(5,5.0)"><g id="graph0" class="graph" transform="scale(1 1) rotate(0) translate(4 4)"><polygon fill="transparent" stroke="transparent" points="-4,4 -4,-4 4,-4 4,4 -4,4"/></g><g id="graph1" class="graph" transform="scale(1 1) rotate(0) translate(4 40)"><g id="node1" class="node" style="opacity:0"><ellipse fill="none" stroke="#7b7b7b" cx="234" cy="-18" rx="18" ry="18"/><text text-anchor="middle" x="234" y="-14.3" font-family="Times New Roman,serif" font-size="14.00">3</text><animate attributeName="opacity" from="0" to="1" begin="0S0.end+0.00s" dur="3.00s" fill="freeze"/><animate attributeName="opacity" from="1" to="0" begin="0E0.end" dur="0.01s" fill="freeze"/></g><g id="node2" class="node" style="opacity:0"><ellipse fill="none" stroke="#7b7b7b" cx="162" cy="-18" rx="18" ry="18"/><text text-anchor="middle" x="162" y="-14.3" font-family="Times New Roman,serif" font-size="14.00">2</text><animate attributeName="opacity" from="0" to="1" begin="0S0.end+0.00s" dur="3.00s" fill="freeze"/><animate attributeName="opacity" from="1" to="0" begin="0E0.end" dur="0.01s" fill="freeze"/></g><g id="node3" class="node" style="opacity:0"><ellipse fill="none" stroke="#7b7b7b" cx="90" cy="-18" rx="18" ry="18"/><text text-anchor="middle" x="90" y="-14.3" font-family="Times New Roman,serif" font-size="14.00">1</text><animate attributeName="opacity" from="0" to="1" begin="0S0.end+0.00s" dur="3.00s" fill="freeze"/><animate attributeName="opacity" from="1" to="0" begin="0E0.end" dur="0.01s" fill="freeze"/></g><g id="node4" class="node" style="opacity:0"><ellipse fill="none" stroke="#7b7b7b" cx="18" cy="-18" rx="18" ry="18"/><text text-anchor="middle" x="18" y="-14.3" font-family="Times New Roman,serif" font-size="14.00">0</text><animate attributeName="opacity" from="0" to="1" begin="0S0.end+0.00s" dur="3.00s" fill="freeze"/><animate attributeName="opacity" from="1" to="0" begin="0E0.end" dur="0.01s" fill="freeze"/></g><g id="edge1" class="edge" style="opacity:0"><path fill="none" stroke="#7b7b7b" d="M36.3,-18C44.02,-18 53.29,-18 61.89,-18"/><polygon fill="#7b7b7b" stroke="#7b7b7b" points="71.9,-18 61.9,-22.5 66.9,-18 61.9,-18 61.9,-18 61.9,-18 66.9,-18 61.9,-13.5 71.9,-18 71.9,-18"/><animate attributeName="opacity" from="0" to="1" begin="0S0.end+0.00s" dur="3.00s" fill="freeze"/><animate attributeName="opacity" from="1" to="0" begin="0E0.end" dur="0.01s" fill="freeze"/></g><g id="edge2" class="edge" style="opacity:0"><path fill="none" stroke="#7b7b7b" d="M108.3,-18C116.02,-18 125.29,-18 133.89,-18"/><polygon fill="#7b7b7b" stroke="#7b7b7b" points="143.9,-18 133.9,-22.5 138.9,-18 133.9,-18 133.9,-18 133.9,-18 138.9,-18 133.9,-13.5 143.9,-18 143.9,-18"/><animate attributeName="opacity" from="0" to="1" begin="0S0.end+0.00s" dur="3.00s" fill="freeze"/><animate attributeName="opacity" from="1" to="0" begin="0E0.end" dur="0.01s" fill="freeze"/></g><g id="edge3" class="edge" style="opacity:0"><path fill="none" stroke="#7b7b7b" d="M180.3,-18C188.02,-18 197.29,-18 205.89,-18"/><polygon fill="#7b7b7b" stroke="#7b7b7b" points="215.9,-18 205.9,-22.5 210.9,-18 205.9,-18 205.9,-18 205.9,-18 210.9,-18 205.9,-13.5 215.9,-18 215.9,-18"/><animate attributeName="opacity" from="0" to="1" begin="0S0.end+0.00s" dur="3.00s" fill="freeze"/><animate attributeName="opacity" from="1" to="0" begin="0E0.end" dur="0.01s" fill="freeze"/></g></g><animate attributeName="opacity" id="0S0" from="0" to="1" begin="0s;0E2.end+0s" dur="0.01s" fill="freeze"/><animate attributeName="opacity" id="0E0" begin="0S0.begin+3.5s" from="1" to="0" dur="0.01s" fill="freeze"/></g><g class="frame" style="opacity:0" transform="translate(5,5.0)"><g id="graph0" class="graph" transform="scale(1 1) rotate(0) translate(4 40)"><polygon fill="transparent" stroke="transparent" points="-4,4 -4,-40 256,-40 256,4 -4,4"/><g id="node1" class="node"><ellipse fill="#ffffff" stroke="#7b7b7b" cx="18" cy="-18" rx="18" ry="18"/><text text-anchor="middle" x="18" y="-14.3" font-family="Times New Roman,serif" font-size="14.00" fill="#000000">0</text></g><g id="node2" class="node" style="opacity:1"><ellipse fill="#ffffff" stroke="#7b7b7b" cx="90" cy="-18" rx="18" ry="18"/><text text-anchor="middle" x="90" y="-14.3" font-family="Times New Roman,serif" font-size="14.00" fill="#000000">1</text><animate attributeName="opacity" from="1" to="0" begin="0S1.end+0.00s" dur="0.60s" fill="freeze"/><animate attributeName="opacity" from="0" to="1" begin="0E1.end" dur="0.01s" fill="freeze"/></g><g id="edge1" class="edge" style="opacity:1"><path fill="none" stroke="#7b7b7b" d="M36.3,-18C44.02,-18 53.29,-18 61.89,-18"/><polygon fill="#7b7b7b" stroke="#7b7b7b" points="71.9,-18 61.9,-22.5 66.9,-18 61.9,-18 61.9,-18 61.9,-18 66.9,-18 61.9,-13.5 71.9,-18 71.9,-18"/><animate attributeName="opacity" from="1" to="0" begin="0S1.end+0.00s" dur="0.60s" fill="freeze"/><animate attributeName="opacity" from="0" to="1" begin="0E1.end" dur="0.01s" fill="freeze"/></g><g id="node3" class="node"><ellipse fill="#ffffff" stroke="#7b7b7b" cx="162" cy="-18" rx="18" ry="18"/><text text-anchor="middle" x="162" y="-14.3" font-family="Times New Roman,serif" font-size="14.00" fill="#000000">2</text><animateMotion path="m0,0 l-72.00,0.00" begin="0S1.end+0.60s" dur="1.44s" fill="freeze"/><animateMotion path="m0,0 l0,0" begin="0E1.end" dur="0.01s" fill="freeze"/></g><g id="edge2" class="edge" style="opacity:1"><path fill="none" stroke="#7b7b7b" d="M108.3,-18C116.02,-18 125.29,-18 133.89,-18"/><polygon fill="#7b7b7b" stroke="#7b7b7b" points="143.9,-18 133.9,-22.5 138.9,-18 133.9,-18 133.9,-18 133.9,-18 138.9,-18 133.9,-13.5 143.9,-18 143.9,-18"/><animate attributeName="opacity" from="1" to="0" begin="0S1.end+0.00s" dur="0.60s" fill="freeze"/><animate attributeName="opacity" from="0" to="1" begin="0E1.end" dur="0.01s" fill="freeze"/></g><g id="node4" class="node"><ellipse fill="#ffffff" stroke="#7b7b7b" cx="234" cy="-18" rx="18" ry="18"/><text text-anchor="middle" x="234" y="-14.3" font-family="Times New Roman,serif" font-size="14.00" fill="#000000">3</text><animateMotion path="m0,0 l-72.00,0.00" begin="0S1.end+0.60s" dur="1.44s" fill="freeze"/><animateMotion path="m0,0 l0,0" begin="0E1.end" dur="0.01s" fill="freeze"/></g><g id="edge3" class="edge" style="opacity:1"><path fill="none" stroke="#7b7b7b" d="M180.3,-18C188.02,-18 197.29,-18 205.89,-18"/><polygon fill="#7b7b7b" stroke="#7b7b7b" points="215.9,-18 205.9,-22.5 210.9,-18 205.9,-18 205.9,-18 205.9,-18 210.9,-18 205.9,-13.5 215.9,-18 215.9,-18"/><animate attributeName="opacity" from="1" to="0" begin="0S1.end+0.00s" dur="0.60s" fill="freeze"/><animate attributeName="opacity" from="0" to="1" begin="0E1.end" dur="0.01s" fill="freeze"/></g></g><g id="graph1" class="graph" transform="scale(1 1) rotate(0) translate(4 40)"><g id="edge4" class="edge" style="opacity:0"><path fill="none" stroke="#7b7b7b" d="M36.3,-18C44.02,-18 53.29,-18 61.89,-18"/><polygon fill="#7b7b7b" stroke="#7b7b7b" points="71.9,-18 61.9,-22.5 66.9,-18 61.9,-18 61.9,-18 61.9,-18 66.9,-18 61.9,-13.5 71.9,-18 71.9,-18"/><animate attributeName="opacity" from="0" to="1" begin="0S1.end+2.04s" dur="0.96s" fill="freeze"/><animate attributeName="opacity" from="1" to="0" begin="0E1.end" dur="0.01s" fill="freeze"/></g><g id="edge3" class="edge" style="opacity:0"><path fill="none" stroke="#7b7b7b" d="M108.3,-18C116.02,-18 125.29,-18 133.89,-18"/><polygon fill="#7b7b7b" stroke="#7b7b7b" points="143.9,-18 133.9,-22.5 138.9,-18 133.9,-18 133.9,-18 133.9,-18 138.9,-18 133.9,-13.5 143.9,-18 143.9,-18"/><animate attributeName="opacity" from="0" to="1" begin="0S1.end+2.04s" dur="0.96s" fill="freeze"/><animate attributeName="opacity" from="1" to="0" begin="0E1.end" dur="0.01s" fill="freeze"/></g></g><animate attributeName="opacity" id="0S1" from="0" to="1" begin="0E0.begin" dur="0.01s" fill="freeze"/><animate attributeName="opacity" id="0E1" begin="0S1.begin+3.5s" from="1" to="0" dur="0.01s" fill="freeze"/></g><g class="frame" style="opacity:0" transform="translate(5,5.0)"><g id="graph0" class="graph" transform="scale(1 1) rotate(0) translate(4 40)"><polygon fill="transparent" stroke="transparent" points="-4,4 -4,-40 184,-40 184,4 -4,4"/><g id="node1" class="node"><ellipse fill="#ffffff" stroke="#7b7b7b" cx="18" cy="-18" rx="18" ry="18"/><text text-anchor="middle" x="18" y="-14.3" font-family="Times New Roman,serif" font-size="14.00" fill="#000000">0</text></g><g id="node2" class="node"><ellipse fill="#ffffff" stroke="#7b7b7b" cx="90" cy="-18" rx="18" ry="18"/><text text-anchor="middle" x="90" y="-14.3" font-family="Times New Roman,serif" font-size="14.00" fill="#000000">2</text></g><g id="edge1" class="edge"><path fill="none" stroke="#7b7b7b" d="M36.3,-18C44.02,-18 53.29,-18 61.89,-18"/><polygon fill="#7b7b7b" stroke="#7b7b7b" points="71.9,-18 61.9,-22.5 66.9,-18 61.9,-18 61.9,-18 61.9,-18 66.9,-18 61.9,-13.5 71.9,-18 71.9,-18"/></g><g id="node3" class="node"><ellipse fill="#ffffff" stroke="#7b7b7b" cx="162" cy="-18" rx="18" ry="18"/><text text-anchor="middle" x="162" y="-14.3" font-family="Times New Roman,serif" font-size="14.00" fill="#000000">3</text><animateMotion path="m0,0 l72.00,0.00" begin="0S2.end+0.60s" dur="1.44s" fill="freeze"/><animateMotion path="m0,0 l0,0" begin="0E2.end" dur="0.01s" fill="freeze"/></g><g id="edge2" class="edge" style="opacity:1"><path fill="none" stroke="#7b7b7b" d="M108.3,-18C116.02,-18 125.29,-18 133.89,-18"/><polygon fill="#7b7b7b" stroke="#7b7b7b" points="143.9,-18 133.9,-22.5 138.9,-18 133.9,-18 133.9,-18 133.9,-18 138.9,-18 133.9,-13.5 143.9,-18 143.9,-18"/><animate attributeName="opacity" from="1" to="0" begin="0S2.end+0.00s" dur="0.60s" fill="freeze"/><animate attributeName="opacity" from="0" to="1" begin="0E2.end" dur="0.01s" fill="freeze"/></g></g><g id="graph1" class="graph" transform="scale(1 1) rotate(0) translate(4 40)"><g id="node4" class="node" style="opacity:0"><ellipse fill="none" stroke="#7b7b7b" cx="162" cy="-18" rx="18" ry="18"/><text text-anchor="middle" x="162" y="-14.3" font-family="Times New Roman,serif" font-size="14.00">4</text><animate attributeName="opacity" from="0" to="1" begin="0S2.end+2.04s" dur="0.96s" fill="freeze"/><animate attributeName="opacity" from="1" to="0" begin="0E2.end" dur="0.01s" fill="freeze"/></g><g id="edge3" class="edge" style="opacity:0"><path fill="none" stroke="#7b7b7b" d="M108.3,-18C116.02,-18 125.29,-18 133.89,-18"/><polygon fill="#7b7b7b" stroke="#7b7b7b" points="143.9,-18 133.9,-22.5 138.9,-18 133.9,-18 133.9,-18 133.9,-18 138.9,-18 133.9,-13.5 143.9,-18 143.9,-18"/><animate attributeName="opacity" from="0" to="1" begin="0S2.end+2.04s" dur="0.96s" fill="freeze"/><animate attributeName="opacity" from="1" to="0" begin="0E2.end" dur="0.01s" fill="freeze"/></g><g id="edge4" class="edge" style="opacity:0"><path fill="none" stroke="#7b7b7b" d="M180.3,-18C188.02,-18 197.29,-18 205.89,-18"/><polygon fill="#7b7b7b" stroke="#7b7b7b" points="215.9,-18 205.9,-22.5 210.9,-18 205.9,-18 205.9,-18 205.9,-18 210.9,-18 205.9,-13.5 215.9,-18 215.9,-18"/><animate attributeName="opacity" from="0" to="1" begin="0S2.end+2.04s" dur="0.96s" fill="freeze"/><animate attributeName="opacity" from="1" to="0" begin="0E2.end" dur="0.01s" fill="freeze"/></g></g><animate attributeName="opacity" id="0S2" from="0" to="1" begin="0E1.begin" dur="0.01s" fill="freeze"/><animate attributeName="opacity" id="0E2" begin="0S2.begin+3.5s" from="1" to="0" dur="0.01s" fill="freeze"/></g><g><animate attributeName="opacity" begin="1S3.begin" from="1" to="0" dur="0.01s" fill="freeze"/><animate attributeName="opacity" from="0" to="1" begin="1E3.end" dur="0.01s" fill="freeze"/></g></a></svg>