<?xml version="1.0" ?><!DOCTYPE svg  PUBLIC '-//W3C//DTD SVG 1.1//EN'  'http://www.w3.org/Graphics/SVG/1.1/DTD/svg11.dtd'><!-- Generated by graphviz version 2.44.1 (20200629.0800) --><!-- Pages: 1 --><svg xmlns="http://www.w3.org/2000/svg" xmlns:xlink="http://www.w3.org/1999/xlink" width="128pt" height="44pt" viewBox="0.00 0.00 128.00 44.00"><g id="graph0" class="graph" transform="scale(1 1) rotate(0) translate(4 4)"><polygon fill="transparent" stroke="transparent" points="-4,4 -4,-4 4,-4 4,4 -4,4"/></g><desc>Generated by algviz-0.1.6(see https://algviz.com).</desc><g id="graph1" class="graph" transform="scale(1 1) rotate(0) translate(4 40.28)"><g id="node1" class="node" style="opacity:0"><ellipse fill="none" stroke="#7b7b7b" cx="18" cy="-18.28" rx="18" ry="18"/><text text-anchor="middle" x="18" y="-14.58" font-family="Times New Roman,serif" font-size="14.00">n1</text><animate attributeName="opacity" from="0" to="1" begin="0.00s" dur="3.00s" fill="freeze"/></g><g id="node2" class="node" style="opacity:0"><ellipse fill="none" stroke="#7b7b7b" cx="102" cy="-18.28" rx="18" ry="18"/><text text-anchor="middle" x="102" y="-14.58" font-family="Times New Roman,serif" font-size="14.00">n2</text><animate attributeName="opacity" from="0" to="1" begin="0.00s" dur="3.00s" fill="freeze"/></g><g id="edge1" class="edge" style="opacity:0"><path fill="none" stroke="#7b7b7b" d="M36.39,-18.28C47.23,-18.28 61.4,-18.28 73.71,-18.28"/><polygon fill="#7b7b7b" stroke="#7b7b7b" points="83.92,-18.28 73.92,-22.78 78.92,-18.28 73.92,-18.28 73.92,-18.28 73.92,-18.28 78.92,-18.28 73.92,-13.78 83.92,-18.28 83.92,-18.28"/><text text-anchor="middle" x="60" y="-21.68" font-family="Times New Roman,serif" font-size="12.00" fill="#c0c0c0">e1</text><animate attributeName="opacity" from="0" to="1" begin="0.00s" dur="3.00s" fill="freeze"/></g><g id="edge2" class="edge" style="opacity:0"><path fill="none" stroke="#7b7b7b" d="M86.46,-8.37C77.31,-3.32 65.16,1.28 54,-1.28 50.29,-2.14 46.52,-3.44 42.9,-4.95"/><polygon fill="#7b7b7b" stroke="#7b7b7b" points="33.78,-9.27 40.89,-0.92 38.3,-7.13 42.82,-4.98 42.82,-4.98 42.82,-4.98 38.3,-7.13 44.74,-9.05 33.78,-9.27 33.78,-9.27"/><text text-anchor="middle" x="60" y="-4.68" font-family="Times New Roman,serif" font-size="12.00" fill="#c0c0c0">e2</text><animate attributeName="opacity" from="0" to="1" begin="0.00s" dur="3.00s" fill="freeze"/></g></g></svg>