<?xml version="1.0" ?><!DOCTYPE svg  PUBLIC '-//W3C//DTD SVG 1.1//EN'  'http://www.w3.org/Graphics/SVG/1.1/DTD/svg11.dtd'><!-- Generated by graphviz version 2.44.1 (20200629.0800) --><!-- Pages: 1 --><svg xmlns="http://www.w3.org/2000/svg" xmlns:xlink="http://www.w3.org/1999/xlink" width="206pt" height="188pt" viewBox="0.00 0.00 206.00 188.00"><g id="graph0" class="graph" transform="scale(1 1) rotate(0) translate(4 4)"><polygon fill="transparent" stroke="transparent" points="-4,4 -4,-4 4,-4 4,4 -4,4"/></g><desc>Generated by algviz-0.1.7(see https://zjl9959.github.io/algviz).</desc><g id="graph1" class="graph" transform="scale(1 1) rotate(0) translate(4 184)"><g id="node1" class="node" style="opacity:0"><ellipse fill="none" stroke="#7b7b7b" cx="126" cy="-162" rx="18" ry="18"/><text text-anchor="middle" x="126" y="-158.76" font-family="Times New Roman,serif" font-size="12.80">root</text><animate attributeName="opacity" from="0" to="1" begin="0.00s" dur="3.00s" fill="freeze"/></g><g id="node2" class="node" style="opacity:0"><ellipse fill="none" stroke="#7b7b7b" cx="126" cy="-18" rx="18" ry="18"/><text text-anchor="middle" x="126" y="-14.3" font-family="Times New Roman,serif" font-size="14.00">6</text><animate attributeName="opacity" from="0" to="1" begin="0.00s" dur="3.00s" fill="freeze"/></g><g id="node3" class="node" style="opacity:0"><ellipse fill="none" stroke="#7b7b7b" cx="72" cy="-90" rx="18" ry="18"/><text text-anchor="middle" x="72" y="-86.3" font-family="Times New Roman,serif" font-size="14.00">1</text><animate attributeName="opacity" from="0" to="1" begin="0.00s" dur="3.00s" fill="freeze"/></g><g id="node4" class="node" style="opacity:0"><ellipse fill="none" stroke="#7b7b7b" cx="126" cy="-90" rx="18" ry="18"/><text text-anchor="middle" x="126" y="-86.3" font-family="Times New Roman,serif" font-size="14.00">2</text><animate attributeName="opacity" from="0" to="1" begin="0.00s" dur="3.00s" fill="freeze"/></g><g id="node5" class="node" style="opacity:0"><ellipse fill="none" stroke="#7b7b7b" cx="180" cy="-90" rx="18" ry="18"/><text text-anchor="middle" x="180" y="-86.3" font-family="Times New Roman,serif" font-size="14.00">n3</text><animate attributeName="opacity" from="0" to="1" begin="0.00s" dur="3.00s" fill="freeze"/></g><g id="node6" class="node" style="opacity:0"><ellipse fill="none" stroke="#7b7b7b" cx="18" cy="-18" rx="18" ry="18"/><text text-anchor="middle" x="18" y="-14.3" font-family="Times New Roman,serif" font-size="14.00">4</text><animate attributeName="opacity" from="0" to="1" begin="0.00s" dur="3.00s" fill="freeze"/></g><g id="node7" class="node" style="opacity:0"><ellipse fill="none" stroke="#7b7b7b" cx="72" cy="-18" rx="18" ry="18"/><text text-anchor="middle" x="72" y="-14.3" font-family="Times New Roman,serif" font-size="14.00">5</text><animate attributeName="opacity" from="0" to="1" begin="0.00s" dur="3.00s" fill="freeze"/></g><g id="edge1" class="edge" style="opacity:0"><path fill="none" stroke="#7b7b7b" d="M115.33,-147.17C107.79,-137.39 97.52,-124.08 88.87,-112.87"/><polygon fill="#7b7b7b" stroke="#7b7b7b" points="82.65,-104.8 92.32,-109.97 85.7,-108.76 88.75,-112.72 88.75,-112.72 88.75,-112.72 85.7,-108.76 85.19,-115.47 82.65,-104.8 82.65,-104.8"/><animate attributeName="opacity" from="0" to="1" begin="0.00s" dur="3.00s" fill="freeze"/></g><g id="edge2" class="edge" style="opacity:0"><path fill="none" stroke="#7b7b7b" d="M126,-143.7C126,-135.98 126,-126.71 126,-118.11"/><polygon fill="#7b7b7b" stroke="#7b7b7b" points="126,-108.1 130.5,-118.1 126,-113.1 126,-118.1 126,-118.1 126,-118.1 126,-113.1 121.5,-118.1 126,-108.1 126,-108.1"/><animate attributeName="opacity" from="0" to="1" begin="0.00s" dur="3.00s" fill="freeze"/></g><g id="edge3" class="edge" style="opacity:0"><path fill="none" stroke="#7b7b7b" d="M136.67,-147.17C144.21,-137.39 154.48,-124.08 163.13,-112.87"/><polygon fill="#7b7b7b" stroke="#7b7b7b" points="169.35,-104.8 166.81,-115.47 166.3,-108.76 163.25,-112.72 163.25,-112.72 163.25,-112.72 166.3,-108.76 159.68,-109.97 169.35,-104.8 169.35,-104.8"/><animate attributeName="opacity" from="0" to="1" begin="0.00s" dur="3.00s" fill="freeze"/></g><g id="edge4" class="edge" style="opacity:0"><path fill="none" stroke="#7b7b7b" d="M61.33,-75.17C53.79,-65.39 43.52,-52.08 34.87,-40.87"/><polygon fill="#7b7b7b" stroke="#7b7b7b" points="28.65,-32.8 38.32,-37.97 31.7,-36.76 34.75,-40.72 34.75,-40.72 34.75,-40.72 31.7,-36.76 31.19,-43.47 28.65,-32.8 28.65,-32.8"/><animate attributeName="opacity" from="0" to="1" begin="0.00s" dur="3.00s" fill="freeze"/></g><g id="edge5" class="edge" style="opacity:0"><path fill="none" stroke="#7b7b7b" d="M72,-71.7C72,-63.98 72,-54.71 72,-46.11"/><polygon fill="#7b7b7b" stroke="#7b7b7b" points="72,-36.1 76.5,-46.1 72,-41.1 72,-46.1 72,-46.1 72,-46.1 72,-41.1 67.5,-46.1 72,-36.1 72,-36.1"/><animate attributeName="opacity" from="0" to="1" begin="0.00s" dur="3.00s" fill="freeze"/></g><g id="edge6" class="edge" style="opacity:0"><path fill="none" stroke="#7b7b7b" d="M126,-71.7C126,-63.98 126,-54.71 126,-46.11"/><polygon fill="#7b7b7b" stroke="#7b7b7b" points="126,-36.1 130.5,-46.1 126,-41.1 126,-46.1 126,-46.1 126,-46.1 126,-41.1 121.5,-46.1 126,-36.1 126,-36.1"/><animate attributeName="opacity" from="0" to="1" begin="0.00s" dur="3.00s" fill="freeze"/></g></g></svg>