<?xml version="1.0" ?><!DOCTYPE svg  PUBLIC '-//W3C//DTD SVG 1.1//EN'  'http://www.w3.org/Graphics/SVG/1.1/DTD/svg11.dtd'><!-- Generated by graphviz version 2.44.1 (20200629.0800) --><!-- Pages: 1 --><svg xmlns="http://www.w3.org/2000/svg" xmlns:xlink="http://www.w3.org/1999/xlink" width="220pt" height="77pt" viewBox="0.00 0.00 220.00 77.00"><g id="graph0" class="graph" transform="scale(1 1) rotate(0) translate(4 4)"><polygon fill="transparent" stroke="transparent" points="-4,4 -4,-4 4,-4 4,4 -4,4"/></g><desc>Generated by algviz-0.1.7(see https://algviz.com).</desc><g id="graph1" class="graph" transform="scale(1 1) rotate(0) translate(4 73)"><g id="node1" class="node" style="opacity:0"><ellipse fill="none" stroke="#7b7b7b" cx="18" cy="-18" rx="18" ry="18"/><text text-anchor="middle" x="18" y="-14.3" font-family="Times New Roman,serif" font-size="14.00">a</text><animate attributeName="opacity" from="0" to="1" begin="0.00s" dur="3.00s" fill="freeze"/></g><g id="node2" class="node" style="opacity:0"><ellipse fill="none" stroke="#7b7b7b" cx="194" cy="-18" rx="18" ry="18"/><text text-anchor="middle" x="194" y="-14.3" font-family="Times New Roman,serif" font-size="14.00">c</text><animate attributeName="opacity" from="0" to="1" begin="0.00s" dur="3.00s" fill="freeze"/></g><g id="node3" class="node" style="opacity:0"><ellipse fill="none" stroke="#7b7b7b" cx="106" cy="-51" rx="18" ry="18"/><text text-anchor="middle" x="106" y="-47.3" font-family="Times New Roman,serif" font-size="14.00">b</text><animate attributeName="opacity" from="0" to="1" begin="0.00s" dur="3.00s" fill="freeze"/></g><g id="edge1" class="edge" style="opacity:0"><path fill="none" stroke="#7b7b7b" d="M35.18,-24.21C47.67,-29 65.19,-35.72 79.56,-41.24"/><polygon fill="#7b7b7b" stroke="#7b7b7b" points="88.9,-44.82 77.95,-45.44 84.23,-43.03 79.56,-41.24 79.56,-41.24 79.56,-41.24 84.23,-43.03 81.17,-37.04 88.9,-44.82 88.9,-44.82"/><text text-anchor="middle" x="62" y="-40.4" font-family="Times New Roman,serif" font-size="12.00" fill="#c0c0c0">a-b</text><animate attributeName="opacity" from="0" to="1" begin="0.00s" dur="3.00s" fill="freeze"/></g><g id="edge2" class="edge" style="opacity:0"><path fill="none" stroke="#7b7b7b" d="M123.18,-44.79C135.67,-40 153.19,-33.28 167.56,-27.76"/><polygon fill="#7b7b7b" stroke="#7b7b7b" points="176.9,-24.18 169.17,-31.96 172.23,-25.97 167.56,-27.76 167.56,-27.76 167.56,-27.76 172.23,-25.97 165.95,-23.56 176.9,-24.18 176.9,-24.18"/><text text-anchor="middle" x="150" y="-40.4" font-family="Times New Roman,serif" font-size="12.00" fill="#c0c0c0">b-c</text><animate attributeName="opacity" from="0" to="1" begin="0.00s" dur="3.00s" fill="freeze"/></g><g id="edge3" class="edge" style="opacity:0"><path fill="none" stroke="#7b7b7b" d="M176.02,-15.79C162.08,-14.1 141.8,-11.9 124,-11 108.02,-10.19 103.98,-10.19 88,-11 74.1,-11.7 58.68,-13.2 45.95,-14.63"/><polygon fill="#7b7b7b" stroke="#7b7b7b" points="35.98,-15.79 45.39,-10.16 40.94,-15.21 45.91,-14.63 45.91,-14.63 45.91,-14.63 40.94,-15.21 46.43,-19.1 35.98,-15.79 35.98,-15.79"/><text text-anchor="middle" x="106" y="-14.4" font-family="Times New Roman,serif" font-size="12.00" fill="#c0c0c0">c-a</text><animate attributeName="opacity" from="0" to="1" begin="0.00s" dur="3.00s" fill="freeze"/></g></g></svg>