<?xml version="1.0" ?><svg width="141pt" height="141pt" viewBox="0.00 0.00 141.00 141.00" xmlns="http://www.w3.org/2000/svg"><desc>Generated by algviz-0.1.6(see https://algviz.com).</desc><style>.txt { alignment-baseline:middle; text-anchor:middle; font-family:Times,serif; }</style><g id="0"><rect x="6.00" y="6.00" width="40.00" height="40.00" fill="#ffffff" stroke="#7b7b7b"/><text class="txt" x="26.00" y="26.00" font-size="16.00" fill="#000000">1</text></g><g id="1"><rect x="46.00" y="6.00" width="40.00" height="40.00" fill="#ffffff" stroke="#7b7b7b"/><text class="txt" x="66.00" y="26.00" font-size="16.00" fill="#000000">1</text></g><g id="2"><rect x="86.00" y="6.00" width="40.00" height="40.00" fill="#ffffff" stroke="#7b7b7b"/><text class="txt" x="106.00" y="26.00" font-size="16.00" fill="#000000">1</text></g><g id="3"><rect x="6.00" y="46.00" width="40.00" height="40.00" fill="#ffffff" stroke="#7b7b7b"/><text class="txt" x="26.00" y="66.00" font-size="16.00" fill="#000000">1</text></g><g id="4"><rect x="46.00" y="46.00" width="40.00" height="40.00" fill="#ffffff" stroke="#7b7b7b"/><text class="txt" x="66.00" y="66.00" font-size="16.00" fill="#000000">0</text></g><g id="5"><rect x="86.00" y="46.00" width="40.00" height="40.00" fill="#ffffff" stroke="#7b7b7b"/><text class="txt" x="106.00" y="66.00" font-size="16.00" fill="#000000">1</text></g><g id="6"><rect x="6.00" y="86.00" width="40.00" height="40.00" fill="#ffffff" stroke="#7b7b7b"/><text class="txt" x="26.00" y="106.00" font-size="16.00" fill="#000000">1</text></g><g id="7"><rect x="46.00" y="86.00" width="40.00" height="40.00" fill="#ffffff" stroke="#7b7b7b"/><text class="txt" x="66.00" y="106.00" font-size="16.00" fill="#000000">1</text></g><g id="8"><rect x="86.00" y="86.00" width="40.00" height="40.00" fill="#ffffff" stroke="#7b7b7b"/><text class="txt" x="106.00" y="106.00" font-size="16.00" fill="#000000">1</text></g><g id="9"><text x="129.00" y="32.00" font-size="12.00" font-family="Times,serif" fill="#7b7b7b">0</text></g><g id="10"><text x="129.00" y="72.00" font-size="12.00" font-family="Times,serif" fill="#7b7b7b">1</text></g><g id="11"><text x="129.00" y="112.00" font-size="12.00" font-family="Times,serif" fill="#7b7b7b">2</text></g><g id="12"><text x="23.00" y="139.00" font-size="12.00" font-family="Times,serif" fill="#7b7b7b">0</text></g><g id="13"><text x="63.00" y="139.00" font-size="12.00" font-family="Times,serif" fill="#7b7b7b">1</text></g><g id="14"><text x="103.00" y="139.00" font-size="12.00" font-family="Times,serif" fill="#7b7b7b">2</text></g></svg>