<?xml version="1.0" ?><svg xmlns="http://www.w3.org/2000/svg" xmlns:xlink="http://www.w3.org/1999/xlink" width="270pt" height="198pt" viewBox="0.00 0.00 270.00 198.00"><style>.txt { alignment-baseline:middle; text-anchor:middle; font-family:Times,serif; }</style><a xlink:href="https://zjl9959.github.io/algviz/"><g class="frame" style="opacity:0" transform="translate(5,5.0)"><g id="graph0" class="graph" transform="scale(1 1) rotate(0) translate(4 4)"><polygon fill="transparent" stroke="transparent" points="-4,4 -4,-4 4,-4 4,4 -4,4"/></g><g id="graph1" class="graph" transform="scale(1 1) rotate(0) translate(4 184)"><g id="node1" class="node" style="opacity:0"><ellipse fill="none" stroke="#7b7b7b" cx="72" cy="-18" rx="18" ry="18"/><text text-anchor="middle" x="72" y="-14.3" font-family="Times New Roman,serif" font-size="14.00">5</text><animate attributeName="opacity" from="0" to="1" begin="0S0.end+0.00s" dur="3.00s" fill="freeze"/><animate attributeName="opacity" from="1" to="0" begin="0E0.end" dur="0.01s" fill="freeze"/></g><g id="node2" class="node" style="opacity:0"><ellipse fill="none" stroke="#7b7b7b" cx="180" cy="-90" rx="18" ry="18"/><text text-anchor="middle" x="180" y="-86.3" font-family="Times New Roman,serif" font-size="14.00">n3</text><animate attributeName="opacity" from="0" to="1" begin="0S0.end+0.00s" dur="3.00s" fill="freeze"/><animate attributeName="opacity" from="1" to="0" begin="0E0.end" dur="0.01s" fill="freeze"/></g><g id="node3" class="node" style="opacity:0"><ellipse fill="none" stroke="#7b7b7b" cx="126" cy="-162" rx="18" ry="18"/><text text-anchor="middle" x="126" y="-158.76" font-family="Times New Roman,serif" font-size="12.80">root</text><animate attributeName="opacity" from="0" to="1" begin="0S0.end+0.00s" dur="3.00s" fill="freeze"/><animate attributeName="opacity" from="1" to="0" begin="0E0.end" dur="0.01s" fill="freeze"/></g><g id="node4" class="node" style="opacity:0"><ellipse fill="none" stroke="#7b7b7b" cx="18" cy="-18" rx="18" ry="18"/><text text-anchor="middle" x="18" y="-14.3" font-family="Times New Roman,serif" font-size="14.00">4</text><animate attributeName="opacity" from="0" to="1" begin="0S0.end+0.00s" dur="3.00s" fill="freeze"/><animate attributeName="opacity" from="1" to="0" begin="0E0.end" dur="0.01s" fill="freeze"/></g><g id="node5" class="node" style="opacity:0"><ellipse fill="none" stroke="#7b7b7b" cx="72" cy="-90" rx="18" ry="18"/><text text-anchor="middle" x="72" y="-86.3" font-family="Times New Roman,serif" font-size="14.00">1</text><animate attributeName="opacity" from="0" to="1" begin="0S0.end+0.00s" dur="3.00s" fill="freeze"/><animate attributeName="opacity" from="1" to="0" begin="0E0.end" dur="0.01s" fill="freeze"/></g><g id="node6" class="node" style="opacity:0"><ellipse fill="none" stroke="#7b7b7b" cx="126" cy="-18" rx="18" ry="18"/><text text-anchor="middle" x="126" y="-14.3" font-family="Times New Roman,serif" font-size="14.00">6</text><animate attributeName="opacity" from="0" to="1" begin="0S0.end+0.00s" dur="3.00s" fill="freeze"/><animate attributeName="opacity" from="1" to="0" begin="0E0.end" dur="0.01s" fill="freeze"/></g><g id="node7" class="node" style="opacity:0"><ellipse fill="none" stroke="#7b7b7b" cx="126" cy="-90" rx="18" ry="18"/><text text-anchor="middle" x="126" y="-86.3" font-family="Times New Roman,serif" font-size="14.00">2</text><animate attributeName="opacity" from="0" to="1" begin="0S0.end+0.00s" dur="3.00s" fill="freeze"/><animate attributeName="opacity" from="1" to="0" begin="0E0.end" dur="0.01s" fill="freeze"/></g><g id="edge1" class="edge" style="opacity:0"><path fill="none" stroke="#7b7b7b" d="M115.33,-147.17C107.79,-137.39 97.52,-124.08 88.87,-112.87"/><polygon fill="#7b7b7b" stroke="#7b7b7b" points="82.65,-104.8 92.32,-109.97 85.7,-108.76 88.75,-112.72 88.75,-112.72 88.75,-112.72 85.7,-108.76 85.19,-115.47 82.65,-104.8 82.65,-104.8"/><animate attributeName="opacity" from="0" to="1" begin="0S0.end+0.00s" dur="3.00s" fill="freeze"/><animate attributeName="opacity" from="1" to="0" begin="0E0.end" dur="0.01s" fill="freeze"/></g><g id="edge2" class="edge" style="opacity:0"><path fill="none" stroke="#7b7b7b" d="M126,-143.7C126,-135.98 126,-126.71 126,-118.11"/><polygon fill="#7b7b7b" stroke="#7b7b7b" points="126,-108.1 130.5,-118.1 126,-113.1 126,-118.1 126,-118.1 126,-118.1 126,-113.1 121.5,-118.1 126,-108.1 126,-108.1"/><animate attributeName="opacity" from="0" to="1" begin="0S0.end+0.00s" dur="3.00s" fill="freeze"/><animate attributeName="opacity" from="1" to="0" begin="0E0.end" dur="0.01s" fill="freeze"/></g><g id="edge3" class="edge" style="opacity:0"><path fill="none" stroke="#7b7b7b" d="M136.67,-147.17C144.21,-137.39 154.48,-124.08 163.13,-112.87"/><polygon fill="#7b7b7b" stroke="#7b7b7b" points="169.35,-104.8 166.81,-115.47 166.3,-108.76 163.25,-112.72 163.25,-112.72 163.25,-112.72 166.3,-108.76 159.68,-109.97 169.35,-104.8 169.35,-104.8"/><animate attributeName="opacity" from="0" to="1" begin="0S0.end+0.00s" dur="3.00s" fill="freeze"/><animate attributeName="opacity" from="1" to="0" begin="0E0.end" dur="0.01s" fill="freeze"/></g><g id="edge4" class="edge" style="opacity:0"><path fill="none" stroke="#7b7b7b" d="M61.33,-75.17C53.79,-65.39 43.52,-52.08 34.87,-40.87"/><polygon fill="#7b7b7b" stroke="#7b7b7b" points="28.65,-32.8 38.32,-37.97 31.7,-36.76 34.75,-40.72 34.75,-40.72 34.75,-40.72 31.7,-36.76 31.19,-43.47 28.65,-32.8 28.65,-32.8"/><animate attributeName="opacity" from="0" to="1" begin="0S0.end+0.00s" dur="3.00s" fill="freeze"/><animate attributeName="opacity" from="1" to="0" begin="0E0.end" dur="0.01s" fill="freeze"/></g><g id="edge5" class="edge" style="opacity:0"><path fill="none" stroke="#7b7b7b" d="M72,-71.7C72,-63.98 72,-54.71 72,-46.11"/><polygon fill="#7b7b7b" stroke="#7b7b7b" points="72,-36.1 76.5,-46.1 72,-41.1 72,-46.1 72,-46.1 72,-46.1 72,-41.1 67.5,-46.1 72,-36.1 72,-36.1"/><animate attributeName="opacity" from="0" to="1" begin="0S0.end+0.00s" dur="3.00s" fill="freeze"/><animate attributeName="opacity" from="1" to="0" begin="0E0.end" dur="0.01s" fill="freeze"/></g><g id="edge6" class="edge" style="opacity:0"><path fill="none" stroke="#7b7b7b" d="M126,-71.7C126,-63.98 126,-54.71 126,-46.11"/><polygon fill="#7b7b7b" stroke="#7b7b7b" points="126,-36.1 130.5,-46.1 126,-41.1 126,-46.1 126,-46.1 126,-46.1 126,-41.1 121.5,-46.1 126,-36.1 126,-36.1"/><animate attributeName="opacity" from="0" to="1" begin="0S0.end+0.00s" dur="3.00s" fill="freeze"/><animate attributeName="opacity" from="1" to="0" begin="0E0.end" dur="0.01s" fill="freeze"/></g></g><animate attributeName="opacity" id="0S0" from="0" to="1" begin="0s;0E6.end+0s" dur="0.01s" fill="freeze"/><animate attributeName="opacity" id="0E0" begin="0S0.begin+4.0s" from="1" to="0" dur="0.01s" fill="freeze"/></g><g class="frame" style="opacity:0" transform="translate(5,5.0)"><g id="graph0" class="graph" transform="scale(1 1) rotate(0) translate(4 184)"><polygon fill="transparent" stroke="transparent" points="-4,4 -4,-184 202,-184 202,4 -4,4"/><g id="node1" class="node"><ellipse fill="#ffffff" stroke="#7b7b7b" cx="126" cy="-162" rx="18" ry="18"/><text text-anchor="middle" x="126" y="-158.76" font-family="Times New Roman,serif" font-size="12.80" fill="#000000">root</text></g><g id="node2" class="node"><ellipse fill="#adff2f" stroke="#7b7b7b" cx="72" cy="-90" rx="18" ry="18"/><text text-anchor="middle" x="72" y="-86.3" font-family="Times New Roman,serif" font-size="14.00" fill="#000000">1</text></g><g id="edge3" class="edge"><path fill="none" stroke="#7b7b7b" d="M115.33,-147.17C107.79,-137.39 97.52,-124.08 88.87,-112.87"/><polygon fill="#7b7b7b" stroke="#7b7b7b" points="82.65,-104.8 92.32,-109.97 85.7,-108.76 88.75,-112.72 88.75,-112.72 88.75,-112.72 85.7,-108.76 85.19,-115.47 82.65,-104.8 82.65,-104.8"/></g><g id="node5" class="node"><ellipse fill="#ffffff" stroke="#7b7b7b" cx="126" cy="-90" rx="18" ry="18"/><text text-anchor="middle" x="126" y="-86.3" font-family="Times New Roman,serif" font-size="14.00" fill="#000000">2</text></g><g id="edge2" class="edge"><path fill="none" stroke="#7b7b7b" d="M126,-143.7C126,-135.98 126,-126.71 126,-118.11"/><polygon fill="#7b7b7b" stroke="#7b7b7b" points="126,-108.1 130.5,-118.1 126,-113.1 126,-118.1 126,-118.1 126,-118.1 126,-113.1 121.5,-118.1 126,-108.1 126,-108.1"/></g><g id="node7" class="node"><ellipse fill="#ffffff" stroke="#7b7b7b" cx="180" cy="-90" rx="18" ry="18"/><text text-anchor="middle" x="180" y="-86.3" font-family="Times New Roman,serif" font-size="14.00" fill="#000000">n3</text></g><g id="edge1" class="edge"><path fill="none" stroke="#7b7b7b" d="M136.67,-147.17C144.21,-137.39 154.48,-124.08 163.13,-112.87"/><polygon fill="#7b7b7b" stroke="#7b7b7b" points="169.35,-104.8 166.81,-115.47 166.3,-108.76 163.25,-112.72 163.25,-112.72 163.25,-112.72 166.3,-108.76 159.68,-109.97 169.35,-104.8 169.35,-104.8"/></g><g id="node3" class="node"><ellipse fill="#ffffff" stroke="#7b7b7b" cx="18" cy="-18" rx="18" ry="18"/><text text-anchor="middle" x="18" y="-14.3" font-family="Times New Roman,serif" font-size="14.00" fill="#000000">4</text></g><g id="edge5" class="edge"><path fill="none" stroke="#7b7b7b" d="M61.33,-75.17C53.79,-65.39 43.52,-52.08 34.87,-40.87"/><polygon fill="#7b7b7b" stroke="#7b7b7b" points="28.65,-32.8 38.32,-37.97 31.7,-36.76 34.75,-40.72 34.75,-40.72 34.75,-40.72 31.7,-36.76 31.19,-43.47 28.65,-32.8 28.65,-32.8"/></g><g id="node4" class="node"><ellipse fill="#ffffff" stroke="#7b7b7b" cx="72" cy="-18" rx="18" ry="18"/><text text-anchor="middle" x="72" y="-14.3" font-family="Times New Roman,serif" font-size="14.00" fill="#000000">5</text></g><g id="edge4" class="edge"><path fill="none" stroke="#7b7b7b" d="M72,-71.7C72,-63.98 72,-54.71 72,-46.11"/><polygon fill="#7b7b7b" stroke="#7b7b7b" points="72,-36.1 76.5,-46.1 72,-41.1 72,-46.1 72,-46.1 72,-46.1 72,-41.1 67.5,-46.1 72,-36.1 72,-36.1"/></g><g id="node6" class="node"><ellipse fill="#ffffff" stroke="#7b7b7b" cx="126" cy="-18" rx="18" ry="18"/><text text-anchor="middle" x="126" y="-14.3" font-family="Times New Roman,serif" font-size="14.00" fill="#000000">6</text></g><g id="edge6" class="edge"><path fill="none" stroke="#7b7b7b" d="M126,-71.7C126,-63.98 126,-54.71 126,-46.11"/><polygon fill="#7b7b7b" stroke="#7b7b7b" points="126,-36.1 130.5,-46.1 126,-41.1 126,-46.1 126,-46.1 126,-46.1 126,-41.1 121.5,-46.1 126,-36.1 126,-36.1"/></g></g><g id="graph1" class="graph" transform="scale(1 1) rotate(0) translate(4 184)"/><animate attributeName="opacity" id="0S1" from="0" to="1" begin="0E0.begin" dur="0.01s" fill="freeze"/><animate attributeName="opacity" id="0E1" begin="0S1.begin+2.0s" from="1" to="0" dur="0.01s" fill="freeze"/></g><g class="frame" style="opacity:0" transform="translate(5,5.0)"><g id="graph0" class="graph" transform="scale(1 1) rotate(0) translate(4 184)"><polygon fill="transparent" stroke="transparent" points="-4,4 -4,-184 202,-184 202,4 -4,4"/><g id="node1" class="node"><ellipse fill="#ffffff" stroke="#7b7b7b" cx="126" cy="-162" rx="18" ry="18"/><text text-anchor="middle" x="126" y="-158.76" font-family="Times New Roman,serif" font-size="12.80" fill="#000000">root</text></g><g id="node2" class="node"><ellipse fill="#ffffff" stroke="#7b7b7b" cx="72" cy="-90" rx="18" ry="18"/><text text-anchor="middle" x="72" y="-86.3" font-family="Times New Roman,serif" font-size="14.00" fill="#000000">1</text></g><g id="edge3" class="edge"><path fill="none" stroke="#7b7b7b" d="M115.33,-147.17C107.79,-137.39 97.52,-124.08 88.87,-112.87"/><polygon fill="#7b7b7b" stroke="#7b7b7b" points="82.65,-104.8 92.32,-109.97 85.7,-108.76 88.75,-112.72 88.75,-112.72 88.75,-112.72 85.7,-108.76 85.19,-115.47 82.65,-104.8 82.65,-104.8"/></g><g id="node5" class="node"><ellipse fill="#adff2f" stroke="#7b7b7b" cx="126" cy="-90" rx="18" ry="18"/><text text-anchor="middle" x="126" y="-86.3" font-family="Times New Roman,serif" font-size="14.00" fill="#000000">2</text></g><g id="edge2" class="edge"><path fill="none" stroke="#7b7b7b" d="M126,-143.7C126,-135.98 126,-126.71 126,-118.11"/><polygon fill="#7b7b7b" stroke="#7b7b7b" points="126,-108.1 130.5,-118.1 126,-113.1 126,-118.1 126,-118.1 126,-118.1 126,-113.1 121.5,-118.1 126,-108.1 126,-108.1"/></g><g id="node7" class="node"><ellipse fill="#ffffff" stroke="#7b7b7b" cx="180" cy="-90" rx="18" ry="18"/><text text-anchor="middle" x="180" y="-86.3" font-family="Times New Roman,serif" font-size="14.00" fill="#000000">n3</text></g><g id="edge1" class="edge"><path fill="none" stroke="#7b7b7b" d="M136.67,-147.17C144.21,-137.39 154.48,-124.08 163.13,-112.87"/><polygon fill="#7b7b7b" stroke="#7b7b7b" points="169.35,-104.8 166.81,-115.47 166.3,-108.76 163.25,-112.72 163.25,-112.72 163.25,-112.72 166.3,-108.76 159.68,-109.97 169.35,-104.8 169.35,-104.8"/></g><g id="node3" class="node"><ellipse fill="#ffffff" stroke="#7b7b7b" cx="18" cy="-18" rx="18" ry="18"/><text text-anchor="middle" x="18" y="-14.3" font-family="Times New Roman,serif" font-size="14.00" fill="#000000">4</text></g><g id="edge5" class="edge"><path fill="none" stroke="#7b7b7b" d="M61.33,-75.17C53.79,-65.39 43.52,-52.08 34.87,-40.87"/><polygon fill="#7b7b7b" stroke="#7b7b7b" points="28.65,-32.8 38.32,-37.97 31.7,-36.76 34.75,-40.72 34.75,-40.72 34.75,-40.72 31.7,-36.76 31.19,-43.47 28.65,-32.8 28.65,-32.8"/></g><g id="node4" class="node"><ellipse fill="#ffffff" stroke="#7b7b7b" cx="72" cy="-18" rx="18" ry="18"/><text text-anchor="middle" x="72" y="-14.3" font-family="Times New Roman,serif" font-size="14.00" fill="#000000">5</text></g><g id="edge4" class="edge"><path fill="none" stroke="#7b7b7b" d="M72,-71.7C72,-63.98 72,-54.71 72,-46.11"/><polygon fill="#7b7b7b" stroke="#7b7b7b" points="72,-36.1 76.5,-46.1 72,-41.1 72,-46.1 72,-46.1 72,-46.1 72,-41.1 67.5,-46.1 72,-36.1 72,-36.1"/></g><g id="node6" class="node"><ellipse fill="#ffffff" stroke="#7b7b7b" cx="126" cy="-18" rx="18" ry="18"/><text text-anchor="middle" x="126" y="-14.3" font-family="Times New Roman,serif" font-size="14.00" fill="#000000">6</text></g><g id="edge6" class="edge"><path fill="none" stroke="#7b7b7b" d="M126,-71.7C126,-63.98 126,-54.71 126,-46.11"/><polygon fill="#7b7b7b" stroke="#7b7b7b" points="126,-36.1 130.5,-46.1 126,-41.1 126,-46.1 126,-46.1 126,-46.1 126,-41.1 121.5,-46.1 126,-36.1 126,-36.1"/></g></g><g id="graph1" class="graph" transform="scale(1 1) rotate(0) translate(4 184)"/><animate attributeName="opacity" id="0S2" from="0" to="1" begin="0E1.begin" dur="0.01s" fill="freeze"/><animate attributeName="opacity" id="0E2" begin="0S2.begin+2.0s" from="1" to="0" dur="0.01s" fill="freeze"/></g><g class="frame" style="opacity:0" transform="translate(5,5.0)"><g id="graph0" class="graph" transform="scale(1 1) rotate(0) translate(4 184)"><polygon fill="transparent" stroke="transparent" points="-4,4 -4,-184 202,-184 202,4 -4,4"/><g id="node1" class="node"><ellipse fill="#ffffff" stroke="#7b7b7b" cx="126" cy="-162" rx="18" ry="18"/><text text-anchor="middle" x="126" y="-158.76" font-family="Times New Roman,serif" font-size="12.80" fill="#000000">root</text></g><g id="node2" class="node"><ellipse fill="#ffffff" stroke="#7b7b7b" cx="72" cy="-90" rx="18" ry="18"/><text text-anchor="middle" x="72" y="-86.3" font-family="Times New Roman,serif" font-size="14.00" fill="#000000">1</text></g><g id="edge3" class="edge"><path fill="none" stroke="#7b7b7b" d="M115.33,-147.17C107.79,-137.39 97.52,-124.08 88.87,-112.87"/><polygon fill="#7b7b7b" stroke="#7b7b7b" points="82.65,-104.8 92.32,-109.97 85.7,-108.76 88.75,-112.72 88.75,-112.72 88.75,-112.72 85.7,-108.76 85.19,-115.47 82.65,-104.8 82.65,-104.8"/></g><g id="node5" class="node"><ellipse fill="#ffffff" stroke="#7b7b7b" cx="126" cy="-90" rx="18" ry="18"/><text text-anchor="middle" x="126" y="-86.3" font-family="Times New Roman,serif" font-size="14.00" fill="#000000">2</text></g><g id="edge2" class="edge"><path fill="none" stroke="#7b7b7b" d="M126,-143.7C126,-135.98 126,-126.71 126,-118.11"/><polygon fill="#7b7b7b" stroke="#7b7b7b" points="126,-108.1 130.5,-118.1 126,-113.1 126,-118.1 126,-118.1 126,-118.1 126,-113.1 121.5,-118.1 126,-108.1 126,-108.1"/></g><g id="node7" class="node"><ellipse fill="#adff2f" stroke="#7b7b7b" cx="180" cy="-90" rx="18" ry="18"/><text text-anchor="middle" x="180" y="-86.3" font-family="Times New Roman,serif" font-size="14.00" fill="#000000">n3</text></g><g id="edge1" class="edge"><path fill="none" stroke="#7b7b7b" d="M136.67,-147.17C144.21,-137.39 154.48,-124.08 163.13,-112.87"/><polygon fill="#7b7b7b" stroke="#7b7b7b" points="169.35,-104.8 166.81,-115.47 166.3,-108.76 163.25,-112.72 163.25,-112.72 163.25,-112.72 166.3,-108.76 159.68,-109.97 169.35,-104.8 169.35,-104.8"/></g><g id="node3" class="node"><ellipse fill="#ffffff" stroke="#7b7b7b" cx="18" cy="-18" rx="18" ry="18"/><text text-anchor="middle" x="18" y="-14.3" font-family="Times New Roman,serif" font-size="14.00" fill="#000000">4</text></g><g id="edge5" class="edge"><path fill="none" stroke="#7b7b7b" d="M61.33,-75.17C53.79,-65.39 43.52,-52.08 34.87,-40.87"/><polygon fill="#7b7b7b" stroke="#7b7b7b" points="28.65,-32.8 38.32,-37.97 31.7,-36.76 34.75,-40.72 34.75,-40.72 34.75,-40.72 31.7,-36.76 31.19,-43.47 28.65,-32.8 28.65,-32.8"/></g><g id="node4" class="node"><ellipse fill="#ffffff" stroke="#7b7b7b" cx="72" cy="-18" rx="18" ry="18"/><text text-anchor="middle" x="72" y="-14.3" font-family="Times New Roman,serif" font-size="14.00" fill="#000000">5</text></g><g id="edge4" class="edge"><path fill="none" stroke="#7b7b7b" d="M72,-71.7C72,-63.98 72,-54.71 72,-46.11"/><polygon fill="#7b7b7b" stroke="#7b7b7b" points="72,-36.1 76.5,-46.1 72,-41.1 72,-46.1 72,-46.1 72,-46.1 72,-41.1 67.5,-46.1 72,-36.1 72,-36.1"/></g><g id="node6" class="node"><ellipse fill="#ffffff" stroke="#7b7b7b" cx="126" cy="-18" rx="18" ry="18"/><text text-anchor="middle" x="126" y="-14.3" font-family="Times New Roman,serif" font-size="14.00" fill="#000000">6</text></g><g id="edge6" class="edge"><path fill="none" stroke="#7b7b7b" d="M126,-71.7C126,-63.98 126,-54.71 126,-46.11"/><polygon fill="#7b7b7b" stroke="#7b7b7b" points="126,-36.1 130.5,-46.1 126,-41.1 126,-46.1 126,-46.1 126,-46.1 126,-41.1 121.5,-46.1 126,-36.1 126,-36.1"/></g></g><g id="graph1" class="graph" transform="scale(1 1) rotate(0) translate(4 184)"/><animate attributeName="opacity" id="0S3" from="0" to="1" begin="0E2.begin" dur="0.01s" fill="freeze"/><animate attributeName="opacity" id="0E3" begin="0S3.begin+2.0s" from="1" to="0" dur="0.01s" fill="freeze"/></g><g class="frame" style="opacity:0" transform="translate(5,5.0)"><g id="graph0" class="graph" transform="scale(1 1) rotate(0) translate(4 184)"><polygon fill="transparent" stroke="transparent" points="-4,4 -4,-184 202,-184 202,4 -4,4"/><g id="node1" class="node"><ellipse fill="#ffffff" stroke="#7b7b7b" cx="126" cy="-162" rx="18" ry="18"/><text text-anchor="middle" x="126" y="-158.76" font-family="Times New Roman,serif" font-size="12.80" fill="#000000">root</text></g><g id="node2" class="node"><ellipse fill="#ffffff" stroke="#7b7b7b" cx="72" cy="-90" rx="18" ry="18"/><text text-anchor="middle" x="72" y="-86.3" font-family="Times New Roman,serif" font-size="14.00" fill="#000000">1</text></g><g id="edge3" class="edge"><path fill="none" stroke="#7b7b7b" d="M115.33,-147.17C107.79,-137.39 97.52,-124.08 88.87,-112.87"/><polygon fill="#7b7b7b" stroke="#7b7b7b" points="82.65,-104.8 92.32,-109.97 85.7,-108.76 88.75,-112.72 88.75,-112.72 88.75,-112.72 85.7,-108.76 85.19,-115.47 82.65,-104.8 82.65,-104.8"/></g><g id="node5" class="node"><ellipse fill="#ffffff" stroke="#7b7b7b" cx="126" cy="-90" rx="18" ry="18"/><text text-anchor="middle" x="126" y="-86.3" font-family="Times New Roman,serif" font-size="14.00" fill="#000000">2</text></g><g id="edge2" class="edge"><path fill="none" stroke="#7b7b7b" d="M126,-143.7C126,-135.98 126,-126.71 126,-118.11"/><polygon fill="#7b7b7b" stroke="#7b7b7b" points="126,-108.1 130.5,-118.1 126,-113.1 126,-118.1 126,-118.1 126,-118.1 126,-113.1 121.5,-118.1 126,-108.1 126,-108.1"/></g><g id="node7" class="node"><ellipse fill="#ffffff" stroke="#7b7b7b" cx="180" cy="-90" rx="18" ry="18"/><text text-anchor="middle" x="180" y="-86.3" font-family="Times New Roman,serif" font-size="14.00" fill="#000000">n3</text></g><g id="edge1" class="edge"><path fill="none" stroke="#7b7b7b" d="M136.67,-147.17C144.21,-137.39 154.48,-124.08 163.13,-112.87"/><polygon fill="#7b7b7b" stroke="#7b7b7b" points="169.35,-104.8 166.81,-115.47 166.3,-108.76 163.25,-112.72 163.25,-112.72 163.25,-112.72 166.3,-108.76 159.68,-109.97 169.35,-104.8 169.35,-104.8"/></g><g id="node3" class="node"><ellipse fill="#ffffff" stroke="#7b7b7b" cx="18" cy="-18" rx="18" ry="18"/><text text-anchor="middle" x="18" y="-14.3" font-family="Times New Roman,serif" font-size="14.00" fill="#000000">4</text></g><g id="edge5" class="edge"><path fill="none" stroke="#7b7b7b" d="M61.33,-75.17C53.79,-65.39 43.52,-52.08 34.87,-40.87"/><polygon fill="#7b7b7b" stroke="#7b7b7b" points="28.65,-32.8 38.32,-37.97 31.7,-36.76 34.75,-40.72 34.75,-40.72 34.75,-40.72 31.7,-36.76 31.19,-43.47 28.65,-32.8 28.65,-32.8"/></g><g id="node4" class="node"><ellipse fill="#ffffff" stroke="#7b7b7b" cx="72" cy="-18" rx="18" ry="18"/><text text-anchor="middle" x="72" y="-14.3" font-family="Times New Roman,serif" font-size="14.00" fill="#000000">5</text></g><g id="edge4" class="edge"><path fill="none" stroke="#7b7b7b" d="M72,-71.7C72,-63.98 72,-54.71 72,-46.11"/><polygon fill="#7b7b7b" stroke="#7b7b7b" points="72,-36.1 76.5,-46.1 72,-41.1 72,-46.1 72,-46.1 72,-46.1 72,-41.1 67.5,-46.1 72,-36.1 72,-36.1"/></g><g id="node6" class="node"><ellipse fill="#ffffff" stroke="#7b7b7b" cx="126" cy="-18" rx="18" ry="18"/><text text-anchor="middle" x="126" y="-14.3" font-family="Times New Roman,serif" font-size="14.00" fill="#000000">6</text></g><g id="edge6" class="edge"><path fill="none" stroke="#7b7b7b" d="M126,-71.7C126,-63.98 126,-54.71 126,-46.11"/><polygon fill="#7b7b7b" stroke="#7b7b7b" points="126,-36.1 130.5,-46.1 126,-41.1 126,-46.1 126,-46.1 126,-46.1 126,-41.1 121.5,-46.1 126,-36.1 126,-36.1"/></g></g><g id="graph1" class="graph" transform="scale(1 1) rotate(0) translate(4 184)"><g id="node8" class="node" style="opacity:0"><ellipse fill="none" stroke="#7b7b7b" cx="180" cy="-18" rx="18" ry="18"/><text text-anchor="middle" x="180" y="-14.3" font-family="Times New Roman,serif" font-size="14.00">8</text><animate attributeName="opacity" from="0" to="1" begin="0S4.end+0.00s" dur="3.00s" fill="freeze"/><animate attributeName="opacity" from="1" to="0" begin="0E4.end" dur="0.01s" fill="freeze"/></g><g id="edge7" class="edge" style="opacity:0"><path fill="none" stroke="#7b7b7b" d="M180,-71.7C180,-63.98 180,-54.71 180,-46.11"/><polygon fill="#7b7b7b" stroke="#7b7b7b" points="180,-36.1 184.5,-46.1 180,-41.1 180,-46.1 180,-46.1 180,-46.1 180,-41.1 175.5,-46.1 180,-36.1 180,-36.1"/><animate attributeName="opacity" from="0" to="1" begin="0S4.end+0.00s" dur="3.00s" fill="freeze"/><animate attributeName="opacity" from="1" to="0" begin="0E4.end" dur="0.01s" fill="freeze"/></g></g><animate attributeName="opacity" id="0S4" from="0" to="1" begin="0E3.begin" dur="0.01s" fill="freeze"/><animate attributeName="opacity" id="0E4" begin="0S4.begin+4.0s" from="1" to="0" dur="0.01s" fill="freeze"/></g><g class="frame" style="opacity:0" transform="translate(5,5.0)"><g id="graph0" class="graph" transform="scale(1 1) rotate(0) translate(4 184)"><polygon fill="transparent" stroke="transparent" points="-4,4 -4,-184 202,-184 202,4 -4,4"/><g id="node1" class="node"><ellipse fill="#ffffff" stroke="#7b7b7b" cx="126" cy="-162" rx="18" ry="18"/><text text-anchor="middle" x="126" y="-158.76" font-family="Times New Roman,serif" font-size="12.80" fill="#000000">root</text></g><g id="node2" class="node"><ellipse fill="#ffffff" stroke="#7b7b7b" cx="72" cy="-90" rx="18" ry="18"/><text text-anchor="middle" x="72" y="-86.3" font-family="Times New Roman,serif" font-size="14.00" fill="#000000">1</text></g><g id="edge3" class="edge"><path fill="none" stroke="#7b7b7b" d="M115.33,-147.17C107.79,-137.39 97.52,-124.08 88.87,-112.87"/><polygon fill="#7b7b7b" stroke="#7b7b7b" points="82.65,-104.8 92.32,-109.97 85.7,-108.76 88.75,-112.72 88.75,-112.72 88.75,-112.72 85.7,-108.76 85.19,-115.47 82.65,-104.8 82.65,-104.8"/></g><g id="node5" class="node"><ellipse fill="#ffffff" stroke="#7b7b7b" cx="126" cy="-90" rx="18" ry="18"/><text text-anchor="middle" x="126" y="-86.3" font-family="Times New Roman,serif" font-size="14.00" fill="#000000">2</text></g><g id="edge2" class="edge"><path fill="none" stroke="#7b7b7b" d="M126,-143.7C126,-135.98 126,-126.71 126,-118.11"/><polygon fill="#7b7b7b" stroke="#7b7b7b" points="126,-108.1 130.5,-118.1 126,-113.1 126,-118.1 126,-118.1 126,-118.1 126,-113.1 121.5,-118.1 126,-108.1 126,-108.1"/></g><g id="node7" class="node"><ellipse fill="#ffffff" stroke="#7b7b7b" cx="180" cy="-90" rx="18" ry="18"/><text text-anchor="middle" x="180" y="-86.3" font-family="Times New Roman,serif" font-size="14.00" fill="#000000">n3</text></g><g id="edge1" class="edge"><path fill="none" stroke="#7b7b7b" d="M136.67,-147.17C144.21,-137.39 154.48,-124.08 163.13,-112.87"/><polygon fill="#7b7b7b" stroke="#7b7b7b" points="169.35,-104.8 166.81,-115.47 166.3,-108.76 163.25,-112.72 163.25,-112.72 163.25,-112.72 166.3,-108.76 159.68,-109.97 169.35,-104.8 169.35,-104.8"/></g><g id="node3" class="node"><ellipse fill="#ffffff" stroke="#7b7b7b" cx="18" cy="-18" rx="18" ry="18"/><text text-anchor="middle" x="18" y="-14.3" font-family="Times New Roman,serif" font-size="14.00" fill="#000000">4</text></g><g id="edge5" class="edge"><path fill="none" stroke="#7b7b7b" d="M61.33,-75.17C53.79,-65.39 43.52,-52.08 34.87,-40.87"/><polygon fill="#7b7b7b" stroke="#7b7b7b" points="28.65,-32.8 38.32,-37.97 31.7,-36.76 34.75,-40.72 34.75,-40.72 34.75,-40.72 31.7,-36.76 31.19,-43.47 28.65,-32.8 28.65,-32.8"/></g><g id="node4" class="node"><ellipse fill="#ffffff" stroke="#7b7b7b" cx="72" cy="-18" rx="18" ry="18"/><text text-anchor="middle" x="72" y="-14.3" font-family="Times New Roman,serif" font-size="14.00" fill="#000000">5</text></g><g id="edge4" class="edge"><path fill="none" stroke="#7b7b7b" d="M72,-71.7C72,-63.98 72,-54.71 72,-46.11"/><polygon fill="#7b7b7b" stroke="#7b7b7b" points="72,-36.1 76.5,-46.1 72,-41.1 72,-46.1 72,-46.1 72,-46.1 72,-41.1 67.5,-46.1 72,-36.1 72,-36.1"/></g><g id="node6" class="node"><ellipse fill="#ffffff" stroke="#7b7b7b" cx="126" cy="-18" rx="18" ry="18"/><text text-anchor="middle" x="126" y="-14.3" font-family="Times New Roman,serif" font-size="14.00" fill="#000000">6</text></g><g id="edge6" class="edge"><path fill="none" stroke="#7b7b7b" d="M126,-71.7C126,-63.98 126,-54.71 126,-46.11"/><polygon fill="#7b7b7b" stroke="#7b7b7b" points="126,-36.1 130.5,-46.1 126,-41.1 126,-46.1 126,-46.1 126,-46.1 126,-41.1 121.5,-46.1 126,-36.1 126,-36.1"/></g><g id="node8" class="node"><ellipse fill="#ffffff" stroke="#7b7b7b" cx="180" cy="-18" rx="18" ry="18"/><text text-anchor="middle" x="180" y="-14.3" font-family="Times New Roman,serif" font-size="14.00" fill="#000000">8</text><animateMotion path="m0,0 l54.00,0.00" begin="0S5.end+0.60s" dur="1.44s" fill="freeze"/><animateMotion path="m0,0 l0,0" begin="0E5.end" dur="0.01s" fill="freeze"/></g><g id="edge7" class="edge" style="opacity:1"><path fill="none" stroke="#7b7b7b" d="M180,-71.7C180,-63.98 180,-54.71 180,-46.11"/><polygon fill="#7b7b7b" stroke="#7b7b7b" points="180,-36.1 184.5,-46.1 180,-41.1 180,-46.1 180,-46.1 180,-46.1 180,-41.1 175.5,-46.1 180,-36.1 180,-36.1"/><animate attributeName="opacity" from="1" to="0" begin="0S5.end+0.00s" dur="0.60s" fill="freeze"/><animate attributeName="opacity" from="0" to="1" begin="0E5.end" dur="0.01s" fill="freeze"/></g></g><g id="graph1" class="graph" transform="scale(1 1) rotate(0) translate(4 184)"><g id="node9" class="node" style="opacity:0"><ellipse fill="none" stroke="#7b7b7b" cx="180" cy="-18" rx="18" ry="18"/><text text-anchor="middle" x="180" y="-14.3" font-family="Times New Roman,serif" font-size="14.00">7</text><animate attributeName="opacity" from="0" to="1" begin="0S5.end+2.04s" dur="0.96s" fill="freeze"/><animate attributeName="opacity" from="1" to="0" begin="0E5.end" dur="0.01s" fill="freeze"/></g><g id="edge8" class="edge" style="opacity:0"><path fill="none" stroke="#7b7b7b" d="M180,-71.7C180,-63.98 180,-54.71 180,-46.11"/><polygon fill="#7b7b7b" stroke="#7b7b7b" points="180,-36.1 184.5,-46.1 180,-41.1 180,-46.1 180,-46.1 180,-46.1 180,-41.1 175.5,-46.1 180,-36.1 180,-36.1"/><animate attributeName="opacity" from="0" to="1" begin="0S5.end+2.04s" dur="0.96s" fill="freeze"/><animate attributeName="opacity" from="1" to="0" begin="0E5.end" dur="0.01s" fill="freeze"/></g><g id="edge7" class="edge" style="opacity:0"><path fill="none" stroke="#7b7b7b" d="M190.67,-75.17C198.21,-65.39 208.48,-52.08 217.13,-40.87"/><polygon fill="#7b7b7b" stroke="#7b7b7b" points="223.35,-32.8 220.81,-43.47 220.3,-36.76 217.25,-40.72 217.25,-40.72 217.25,-40.72 220.3,-36.76 213.68,-37.97 223.35,-32.8 223.35,-32.8"/><animate attributeName="opacity" from="0" to="1" begin="0S5.end+2.04s" dur="0.96s" fill="freeze"/><animate attributeName="opacity" from="1" to="0" begin="0E5.end" dur="0.01s" fill="freeze"/></g></g><animate attributeName="opacity" id="0S5" from="0" to="1" begin="0E4.begin" dur="0.01s" fill="freeze"/><animate attributeName="opacity" id="0E5" begin="0S5.begin+4.0s" from="1" to="0" dur="0.01s" fill="freeze"/></g><g class="frame" style="opacity:0" transform="translate(5,5.0)"><g id="graph0" class="graph" transform="scale(1 1) rotate(0) translate(4 184)"><polygon fill="transparent" stroke="transparent" points="-4,4 -4,-184 256,-184 256,4 -4,4"/><g id="node1" class="node"><ellipse fill="#ffffff" stroke="#7b7b7b" cx="126" cy="-162" rx="18" ry="18"/><text text-anchor="middle" x="126" y="-158.76" font-family="Times New Roman,serif" font-size="12.80" fill="#000000">root</text><animateMotion path="m0,0 l-28.00,0.00" begin="0S6.end+0.60s" dur="1.44s" fill="freeze"/><animateMotion path="m0,0 l0,0" begin="0E6.end" dur="0.01s" fill="freeze"/></g><g id="node2" class="node"><ellipse fill="#ffffff" stroke="#7b7b7b" cx="72" cy="-90" rx="18" ry="18"/><text text-anchor="middle" x="72" y="-86.3" font-family="Times New Roman,serif" font-size="14.00" fill="#000000">1</text></g><g id="edge3" class="edge" style="opacity:1"><path fill="none" stroke="#7b7b7b" d="M115.33,-147.17C107.79,-137.39 97.52,-124.08 88.87,-112.87"/><polygon fill="#7b7b7b" stroke="#7b7b7b" points="82.65,-104.8 92.32,-109.97 85.7,-108.76 88.75,-112.72 88.75,-112.72 88.75,-112.72 85.7,-108.76 85.19,-115.47 82.65,-104.8 82.65,-104.8"/><animate attributeName="opacity" from="1" to="0" begin="0S6.end+0.00s" dur="0.60s" fill="freeze"/><animate attributeName="opacity" from="0" to="1" begin="0E6.end" dur="0.01s" fill="freeze"/></g><g id="node5" class="node"><ellipse fill="#ffffff" stroke="#7b7b7b" cx="126" cy="-90" rx="18" ry="18"/><text text-anchor="middle" x="126" y="-86.3" font-family="Times New Roman,serif" font-size="14.00" fill="#000000">2</text><animateMotion path="m0,0 l54.00,-72.00" begin="0S6.end+0.60s" dur="1.44s" fill="freeze"/><animateMotion path="m0,0 l0,0" begin="0E6.end" dur="0.01s" fill="freeze"/></g><g id="edge2" class="edge" style="opacity:1"><path fill="none" stroke="#7b7b7b" d="M126,-143.7C126,-135.98 126,-126.71 126,-118.11"/><polygon fill="#7b7b7b" stroke="#7b7b7b" points="126,-108.1 130.5,-118.1 126,-113.1 126,-118.1 126,-118.1 126,-118.1 126,-113.1 121.5,-118.1 126,-108.1 126,-108.1"/><animate attributeName="opacity" from="1" to="0" begin="0S6.end+0.00s" dur="0.60s" fill="freeze"/><animate attributeName="opacity" from="0" to="1" begin="0E6.end" dur="0.01s" fill="freeze"/></g><g id="node7" class="node"><ellipse fill="#ffffff" stroke="#7b7b7b" cx="180" cy="-90" rx="18" ry="18"/><text text-anchor="middle" x="180" y="-86.3" font-family="Times New Roman,serif" font-size="14.00" fill="#000000">n3</text><animateMotion path="m0,0 l-54.00,0.00" begin="0S6.end+0.60s" dur="1.44s" fill="freeze"/><animateMotion path="m0,0 l0,0" begin="0E6.end" dur="0.01s" fill="freeze"/></g><g id="edge1" class="edge" style="opacity:1"><path fill="none" stroke="#7b7b7b" d="M136.67,-147.17C144.21,-137.39 154.48,-124.08 163.13,-112.87"/><polygon fill="#7b7b7b" stroke="#7b7b7b" points="169.35,-104.8 166.81,-115.47 166.3,-108.76 163.25,-112.72 163.25,-112.72 163.25,-112.72 166.3,-108.76 159.68,-109.97 169.35,-104.8 169.35,-104.8"/><animate attributeName="opacity" from="1" to="0" begin="0S6.end+0.00s" dur="0.60s" fill="freeze"/><animate attributeName="opacity" from="0" to="1" begin="0E6.end" dur="0.01s" fill="freeze"/></g><g id="node3" class="node"><ellipse fill="#ffffff" stroke="#7b7b7b" cx="18" cy="-18" rx="18" ry="18"/><text text-anchor="middle" x="18" y="-14.3" font-family="Times New Roman,serif" font-size="14.00" fill="#000000">4</text></g><g id="edge5" class="edge"><path fill="none" stroke="#7b7b7b" d="M61.33,-75.17C53.79,-65.39 43.52,-52.08 34.87,-40.87"/><polygon fill="#7b7b7b" stroke="#7b7b7b" points="28.65,-32.8 38.32,-37.97 31.7,-36.76 34.75,-40.72 34.75,-40.72 34.75,-40.72 31.7,-36.76 31.19,-43.47 28.65,-32.8 28.65,-32.8"/></g><g id="node4" class="node"><ellipse fill="#ffffff" stroke="#7b7b7b" cx="72" cy="-18" rx="18" ry="18"/><text text-anchor="middle" x="72" y="-14.3" font-family="Times New Roman,serif" font-size="14.00" fill="#000000">5</text></g><g id="edge4" class="edge"><path fill="none" stroke="#7b7b7b" d="M72,-71.7C72,-63.98 72,-54.71 72,-46.11"/><polygon fill="#7b7b7b" stroke="#7b7b7b" points="72,-36.1 76.5,-46.1 72,-41.1 72,-46.1 72,-46.1 72,-46.1 72,-41.1 67.5,-46.1 72,-36.1 72,-36.1"/></g><g id="node6" class="node"><ellipse fill="#ffffff" stroke="#7b7b7b" cx="126" cy="-18" rx="18" ry="18"/><text text-anchor="middle" x="126" y="-14.3" font-family="Times New Roman,serif" font-size="14.00" fill="#000000">6</text><animateMotion path="m0,0 l54.00,-72.00" begin="0S6.end+0.60s" dur="1.44s" fill="freeze"/><animateMotion path="m0,0 l0,0" begin="0E6.end" dur="0.01s" fill="freeze"/></g><g id="edge6" class="edge" style="opacity:1"><path fill="none" stroke="#7b7b7b" d="M126,-71.7C126,-63.98 126,-54.71 126,-46.11"/><polygon fill="#7b7b7b" stroke="#7b7b7b" points="126,-36.1 130.5,-46.1 126,-41.1 126,-46.1 126,-46.1 126,-46.1 126,-41.1 121.5,-46.1 126,-36.1 126,-36.1"/><animate attributeName="opacity" from="1" to="0" begin="0S6.end+0.00s" dur="0.60s" fill="freeze"/><animate attributeName="opacity" from="0" to="1" begin="0E6.end" dur="0.01s" fill="freeze"/></g><g id="node8" class="node"><ellipse fill="#ffffff" stroke="#7b7b7b" cx="180" cy="-18" rx="18" ry="18"/><text text-anchor="middle" x="180" y="-14.3" font-family="Times New Roman,serif" font-size="14.00" fill="#000000">7</text><animateMotion path="m0,0 l-54.00,0.00" begin="0S6.end+0.60s" dur="1.44s" fill="freeze"/><animateMotion path="m0,0 l0,0" begin="0E6.end" dur="0.01s" fill="freeze"/></g><g id="edge8" class="edge" style="opacity:1"><path fill="none" stroke="#7b7b7b" d="M180,-71.7C180,-63.98 180,-54.71 180,-46.11"/><polygon fill="#7b7b7b" stroke="#7b7b7b" points="180,-36.1 184.5,-46.1 180,-41.1 180,-46.1 180,-46.1 180,-46.1 180,-41.1 175.5,-46.1 180,-36.1 180,-36.1"/><animate attributeName="opacity" from="1" to="0" begin="0S6.end+0.00s" dur="0.60s" fill="freeze"/><animate attributeName="opacity" from="0" to="1" begin="0E6.end" dur="0.01s" fill="freeze"/></g><g id="node9" class="node"><ellipse fill="#ffffff" stroke="#7b7b7b" cx="234" cy="-18" rx="18" ry="18"/><text text-anchor="middle" x="234" y="-14.3" font-family="Times New Roman,serif" font-size="14.00" fill="#000000">8</text><animateMotion path="m0,0 l-54.00,0.00" begin="0S6.end+0.60s" dur="1.44s" fill="freeze"/><animateMotion path="m0,0 l0,0" begin="0E6.end" dur="0.01s" fill="freeze"/></g><g id="edge7" class="edge" style="opacity:1"><path fill="none" stroke="#7b7b7b" d="M190.67,-75.17C198.21,-65.39 208.48,-52.08 217.13,-40.87"/><polygon fill="#7b7b7b" stroke="#7b7b7b" points="223.35,-32.8 220.81,-43.47 220.3,-36.76 217.25,-40.72 217.25,-40.72 217.25,-40.72 220.3,-36.76 213.68,-37.97 223.35,-32.8 223.35,-32.8"/><animate attributeName="opacity" from="1" to="0" begin="0S6.end+0.00s" dur="0.60s" fill="freeze"/><animate attributeName="opacity" from="0" to="1" begin="0E6.end" dur="0.01s" fill="freeze"/></g></g><g id="graph1" class="graph" transform="scale(1 1) rotate(0) translate(4 184)"><g id="edge3" class="edge" style="opacity:0"><path fill="none" stroke="#7b7b7b" d="M91.97,-144.76C88.89,-136.46 85.06,-126.15 81.58,-116.79"/><polygon fill="#7b7b7b" stroke="#7b7b7b" points="78,-107.15 85.7,-114.95 79.74,-111.83 81.48,-116.52 81.48,-116.52 81.48,-116.52 79.74,-111.83 77.26,-118.09 78,-107.15 78,-107.15"/><animate attributeName="opacity" from="0" to="1" begin="0S6.end+2.04s" dur="0.96s" fill="freeze"/><animate attributeName="opacity" from="1" to="0" begin="0E6.end" dur="0.01s" fill="freeze"/></g><g id="edge1" class="edge" style="opacity:0"><path fill="none" stroke="#7b7b7b" d="M104.35,-145.12C107.71,-136.73 111.9,-126.24 115.71,-116.73"/><polygon fill="#7b7b7b" stroke="#7b7b7b" points="119.48,-107.31 119.94,-118.26 117.62,-111.95 115.76,-116.59 115.76,-116.59 115.76,-116.59 117.62,-111.95 111.59,-114.92 119.48,-107.31 119.48,-107.31"/><animate attributeName="opacity" from="0" to="1" begin="0S6.end+2.04s" dur="0.96s" fill="freeze"/><animate attributeName="opacity" from="1" to="0" begin="0E6.end" dur="0.01s" fill="freeze"/></g><g id="edge8" class="edge" style="opacity:0"><path fill="none" stroke="#7b7b7b" d="M126,-71.7C126,-63.98 126,-54.71 126,-46.11"/><polygon fill="#7b7b7b" stroke="#7b7b7b" points="126,-36.1 130.5,-46.1 126,-41.1 126,-46.1 126,-46.1 126,-46.1 126,-41.1 121.5,-46.1 126,-36.1 126,-36.1"/><animate attributeName="opacity" from="0" to="1" begin="0S6.end+2.04s" dur="0.96s" fill="freeze"/><animate attributeName="opacity" from="1" to="0" begin="0E6.end" dur="0.01s" fill="freeze"/></g><g id="edge7" class="edge" style="opacity:0"><path fill="none" stroke="#7b7b7b" d="M136.67,-75.17C144.21,-65.39 154.48,-52.08 163.13,-40.87"/><polygon fill="#7b7b7b" stroke="#7b7b7b" points="169.35,-32.8 166.81,-43.47 166.3,-36.76 163.25,-40.72 163.25,-40.72 163.25,-40.72 166.3,-36.76 159.68,-37.97 169.35,-32.8 169.35,-32.8"/><animate attributeName="opacity" from="0" to="1" begin="0S6.end+2.04s" dur="0.96s" fill="freeze"/><animate attributeName="opacity" from="1" to="0" begin="0E6.end" dur="0.01s" fill="freeze"/></g><g id="edge6" class="edge" style="opacity:0"><path fill="none" stroke="#7b7b7b" d="M180,-143.7C180,-135.98 180,-126.71 180,-118.11"/><polygon fill="#7b7b7b" stroke="#7b7b7b" points="180,-108.1 184.5,-118.1 180,-113.1 180,-118.1 180,-118.1 180,-118.1 180,-113.1 175.5,-118.1 180,-108.1 180,-108.1"/><animate attributeName="opacity" from="0" to="1" begin="0S6.end+2.04s" dur="0.96s" fill="freeze"/><animate attributeName="opacity" from="1" to="0" begin="0E6.end" dur="0.01s" fill="freeze"/></g></g><animate attributeName="opacity" id="0S6" from="0" to="1" begin="0E5.begin" dur="0.01s" fill="freeze"/><animate attributeName="opacity" id="0E6" begin="0S6.begin+4.0s" from="1" to="0" dur="0.01s" fill="freeze"/></g><g><animate attributeName="opacity" begin="1S7.begin" from="1" to="0" dur="0.01s" fill="freeze"/><animate attributeName="opacity" from="0" to="1" begin="1E7.end" dur="0.01s" fill="freeze"/></g></a></svg>