<?xml version="1.0" ?><svg width="429pt" height="169pt" viewBox="0.00 0.00 429.00 169.00" xmlns="http://www.w3.org/2000/svg"><desc>Generated by algviz-0.1.7(see https://zjl9959.github.io/algviz).</desc><style>.txt { alignment-baseline:middle; text-anchor:middle; font-family:Times,serif; }</style><g id="0"><rect x="6.00" y="6.00" width="60.00" height="40.00" fill="#00ffff" stroke="#7b7b7b"/><text class="txt" x="36.00" y="26.00" font-size="16.00" fill="#000000">aqua</text></g><g id="1"><rect x="66.00" y="6.00" width="60.00" height="40.00" fill="#000000" stroke="#7b7b7b"/><text class="txt" x="96.00" y="26.00" font-size="16.00" fill="#FFFFFF">black</text></g><g id="2"><rect x="126.00" y="6.00" width="60.00" height="40.00" fill="#0000ff" stroke="#7b7b7b"/><text class="txt" x="156.00" y="26.00" font-size="16.00" fill="#000000">blue</text></g><g id="3"><rect x="186.00" y="6.00" width="60.00" height="40.00" fill="#a52a2a" stroke="#7b7b7b"/><text class="txt" x="216.00" y="26.00" font-size="16.00" fill="#000000">brown</text></g><g id="4"><rect x="246.00" y="6.00" width="60.00" height="40.00" fill="#00008b" stroke="#7b7b7b"/><text class="txt" x="276.00" y="26.00" font-size="10.67" fill="#FFFFFF">dark_blue</text></g><g id="5"><rect x="306.00" y="6.00" width="60.00" height="40.00" fill="#006400" stroke="#7b7b7b"/><text class="txt" x="336.00" y="26.00" font-size="9.60" fill="#FFFFFF">dark_green</text></g><g id="6"><rect x="366.00" y="6.00" width="60.00" height="40.00" fill="#8b0000" stroke="#7b7b7b"/><text class="txt" x="396.00" y="26.00" font-size="12.00" fill="#FFFFFF">dark_red</text></g><g id="7"><rect x="6.00" y="46.00" width="60.00" height="40.00" fill="#ffd700" stroke="#7b7b7b"/><text class="txt" x="36.00" y="66.00" font-size="16.00" fill="#000000">gold</text></g><g id="8"><rect x="66.00" y="46.00" width="60.00" height="40.00" fill="#808080" stroke="#7b7b7b"/><text class="txt" x="96.00" y="66.00" font-size="16.00" fill="#000000">gray</text></g><g id="9"><rect x="126.00" y="46.00" width="60.00" height="40.00" fill="#008000" stroke="#7b7b7b"/><text class="txt" x="156.00" y="66.00" font-size="16.00" fill="#FFFFFF">green</text></g><g id="10"><rect x="186.00" y="46.00" width="60.00" height="40.00" fill="#adff2f" stroke="#7b7b7b"/><text class="txt" x="216.00" y="66.00" font-size="8.00" fill="#000000">green_yellow</text></g><g id="11"><rect x="246.00" y="46.00" width="60.00" height="40.00" fill="#add8e6" stroke="#7b7b7b"/><text class="txt" x="276.00" y="66.00" font-size="9.60" fill="#000000">light_blue</text></g><g id="12"><rect x="306.00" y="46.00" width="60.00" height="40.00" fill="#00ff00" stroke="#7b7b7b"/><text class="txt" x="336.00" y="66.00" font-size="16.00" fill="#000000">lime</text></g><g id="13"><rect x="366.00" y="46.00" width="60.00" height="40.00" fill="#ffa500" stroke="#7b7b7b"/><text class="txt" x="396.00" y="66.00" font-size="16.00" fill="#000000">orange</text></g><g id="14"><rect x="6.00" y="86.00" width="60.00" height="40.00" fill="#ffc0cb" stroke="#7b7b7b"/><text class="txt" x="36.00" y="106.00" font-size="16.00" fill="#000000">pink</text></g><g id="15"><rect x="66.00" y="86.00" width="60.00" height="40.00" fill="#dda0dd" stroke="#7b7b7b"/><text class="txt" x="96.00" y="106.00" font-size="16.00" fill="#000000">plum</text></g><g id="16"><rect x="126.00" y="86.00" width="60.00" height="40.00" fill="#800080" stroke="#7b7b7b"/><text class="txt" x="156.00" y="106.00" font-size="16.00" fill="#000000">purple</text></g><g id="17"><rect x="186.00" y="86.00" width="60.00" height="40.00" fill="#ff0000" stroke="#7b7b7b"/><text class="txt" x="216.00" y="106.00" font-size="16.00" fill="#000000">red</text></g><g id="18"><rect x="246.00" y="86.00" width="60.00" height="40.00" fill="#c0c0c0" stroke="#7b7b7b"/><text class="txt" x="276.00" y="106.00" font-size="16.00" fill="#000000">silver</text></g><g id="19"><rect x="306.00" y="86.00" width="60.00" height="40.00" fill="#6a5acd" stroke="#7b7b7b"/><text class="txt" x="336.00" y="106.00" font-size="9.60" fill="#000000">slate_blue</text></g><g id="20"><rect x="366.00" y="86.00" width="60.00" height="40.00" fill="#00ff7f" stroke="#7b7b7b"/><text class="txt" x="396.00" y="106.00" font-size="8.00" fill="#000000">spring_green</text></g><g id="21"><rect x="6.00" y="126.00" width="60.00" height="40.00" fill="#d2b48c" stroke="#7b7b7b"/><text class="txt" x="36.00" y="146.00" font-size="16.00" fill="#000000">tan</text></g><g id="22"><rect x="66.00" y="126.00" width="60.00" height="40.00" fill="#ff6347" stroke="#7b7b7b"/><text class="txt" x="96.00" y="146.00" font-size="16.00" fill="#000000">tomato</text></g><g id="23"><rect x="126.00" y="126.00" width="60.00" height="40.00" fill="#ee82ee" stroke="#7b7b7b"/><text class="txt" x="156.00" y="146.00" font-size="16.00" fill="#000000">violet</text></g><g id="24"><rect x="186.00" y="126.00" width="60.00" height="40.00" fill="#f5deb3" stroke="#7b7b7b"/><text class="txt" x="216.00" y="146.00" font-size="16.00" fill="#000000">wheat</text></g><g id="25"><rect x="246.00" y="126.00" width="60.00" height="40.00" fill="#ffffff" stroke="#7b7b7b"/><text class="txt" x="276.00" y="146.00" font-size="16.00" fill="#000000">white</text></g><g id="26"><rect x="306.00" y="126.00" width="60.00" height="40.00" fill="#ffff00" stroke="#7b7b7b"/><text class="txt" x="336.00" y="146.00" font-size="16.00" fill="#000000">yellow</text></g><g id="27"><rect x="366.00" y="126.00" width="60.00" height="40.00" fill="#ffffff" stroke="#7b7b7b"/></g></svg>