<?xml version="1.0" ?><!DOCTYPE svg  PUBLIC '-//W3C//DTD SVG 1.1//EN'  'http://www.w3.org/Graphics/SVG/1.1/DTD/svg11.dtd'><!-- Generated by graphviz version 2.44.1 (20200629.0800) --><!-- Pages: 1 --><svg xmlns="http://www.w3.org/2000/svg" xmlns:xlink="http://www.w3.org/1999/xlink" width="260pt" height="44pt" viewBox="0.00 0.00 260.00 44.00"><g id="graph0" class="graph" transform="scale(1 1) rotate(0) translate(4 4)"><polygon fill="transparent" stroke="transparent" points="-4,4 -4,-4 4,-4 4,4 -4,4"/></g><desc>Generated by algviz-0.1.6(see https://zjl9959.github.io/algviz).</desc><g id="graph1" class="graph" transform="scale(1 1) rotate(0) translate(4 40)"><g id="node1" class="node" style="opacity:0"><ellipse fill="none" stroke="#7b7b7b" cx="90" cy="-18" rx="18" ry="18"/><text text-anchor="middle" x="90" y="-14.3" font-family="Times New Roman,serif" font-size="14.00">1</text><animate attributeName="opacity" from="0" to="1" begin="0.00s" dur="3.00s" fill="freeze"/></g><g id="node2" class="node" style="opacity:0"><ellipse fill="none" stroke="#7b7b7b" cx="162" cy="-18" rx="18" ry="18"/><text text-anchor="middle" x="162" y="-14.3" font-family="Times New Roman,serif" font-size="14.00">2</text><animate attributeName="opacity" from="0" to="1" begin="0.00s" dur="3.00s" fill="freeze"/></g><g id="node3" class="node" style="opacity:0"><ellipse fill="none" stroke="#7b7b7b" cx="18" cy="-18" rx="18" ry="18"/><text text-anchor="middle" x="18" y="-14.3" font-family="Times New Roman,serif" font-size="14.00">0</text><animate attributeName="opacity" from="0" to="1" begin="0.00s" dur="3.00s" fill="freeze"/></g><g id="node4" class="node" style="opacity:0"><ellipse fill="none" stroke="#7b7b7b" cx="234" cy="-18" rx="18" ry="18"/><text text-anchor="middle" x="234" y="-14.3" font-family="Times New Roman,serif" font-size="14.00">3</text><animate attributeName="opacity" from="0" to="1" begin="0.00s" dur="3.00s" fill="freeze"/></g><g id="edge1" class="edge" style="opacity:0"><path fill="none" stroke="#7b7b7b" d="M35.24,-12.2C43.36,-11.29 53.41,-11.03 62.61,-11.43"/><polygon fill="#7b7b7b" stroke="#7b7b7b" points="72.85,-12.21 62.54,-15.94 67.87,-11.83 62.88,-11.46 62.88,-11.46 62.88,-11.46 67.87,-11.83 63.22,-6.97 72.85,-12.21 72.85,-12.21"/><animate attributeName="opacity" from="0" to="1" begin="0.00s" dur="3.00s" fill="freeze"/></g><g id="edge2" class="edge" style="opacity:0"><path fill="none" stroke="#7b7b7b" d="M72.85,-23.79C64.74,-24.71 54.7,-24.97 45.49,-24.57"/><polygon fill="#7b7b7b" stroke="#7b7b7b" points="35.24,-23.8 45.54,-20.06 40.22,-24.17 45.21,-24.55 45.21,-24.55 45.21,-24.55 40.22,-24.17 44.87,-29.04 35.24,-23.8 35.24,-23.8"/><animate attributeName="opacity" from="0" to="1" begin="0.00s" dur="3.00s" fill="freeze"/></g><g id="edge3" class="edge" style="opacity:0"><path fill="none" stroke="#7b7b7b" d="M107.24,-12.2C115.36,-11.29 125.41,-11.03 134.61,-11.43"/><polygon fill="#7b7b7b" stroke="#7b7b7b" points="144.85,-12.21 134.54,-15.94 139.87,-11.83 134.88,-11.46 134.88,-11.46 134.88,-11.46 139.87,-11.83 135.22,-6.97 144.85,-12.21 144.85,-12.21"/><animate attributeName="opacity" from="0" to="1" begin="0.00s" dur="3.00s" fill="freeze"/></g><g id="edge4" class="edge" style="opacity:0"><path fill="none" stroke="#7b7b7b" d="M144.85,-23.79C136.74,-24.71 126.7,-24.97 117.49,-24.57"/><polygon fill="#7b7b7b" stroke="#7b7b7b" points="107.24,-23.8 117.54,-20.06 112.22,-24.17 117.21,-24.55 117.21,-24.55 117.21,-24.55 112.22,-24.17 116.87,-29.04 107.24,-23.8 107.24,-23.8"/><animate attributeName="opacity" from="0" to="1" begin="0.00s" dur="3.00s" fill="freeze"/></g><g id="edge5" class="edge" style="opacity:0"><path fill="none" stroke="#7b7b7b" d="M179.24,-12.2C187.36,-11.29 197.41,-11.03 206.61,-11.43"/><polygon fill="#7b7b7b" stroke="#7b7b7b" points="216.85,-12.21 206.54,-15.94 211.87,-11.83 206.88,-11.46 206.88,-11.46 206.88,-11.46 211.87,-11.83 207.22,-6.97 216.85,-12.21 216.85,-12.21"/><animate attributeName="opacity" from="0" to="1" begin="0.00s" dur="3.00s" fill="freeze"/></g><g id="edge6" class="edge" style="opacity:0"><path fill="none" stroke="#7b7b7b" d="M216.85,-23.79C208.74,-24.71 198.7,-24.97 189.49,-24.57"/><polygon fill="#7b7b7b" stroke="#7b7b7b" points="179.24,-23.8 189.54,-20.06 184.22,-24.17 189.21,-24.55 189.21,-24.55 189.21,-24.55 184.22,-24.17 188.87,-29.04 179.24,-23.8 179.24,-23.8"/><animate attributeName="opacity" from="0" to="1" begin="0.00s" dur="3.00s" fill="freeze"/></g></g></svg>