<?xml version="1.0" ?><!DOCTYPE svg  PUBLIC '-//W3C//DTD SVG 1.1//EN'  'http://www.w3.org/Graphics/SVG/1.1/DTD/svg11.dtd'><!-- Generated by graphviz version 2.44.1 (20200629.0800) --><!-- Pages: 1 --><svg xmlns="http://www.w3.org/2000/svg" xmlns:xlink="http://www.w3.org/1999/xlink" width="152pt" height="202pt" viewBox="0.00 0.00 152.00 202.00"><g id="graph0" class="graph" transform="scale(1 1) rotate(0) translate(4 4)"><polygon fill="transparent" stroke="transparent" points="-4,4 -4,-4 4,-4 4,4 -4,4"/></g><desc>Generated by algviz-0.1.6(see https://zjl9959.github.io/algviz).</desc><g id="graph1" class="graph" transform="scale(1 1) rotate(0) translate(4 198)"><g id="node1" class="node" style="opacity:0"><ellipse fill="none" stroke="#7b7b7b" cx="126" cy="-18" rx="18" ry="18"/><text text-anchor="middle" x="126" y="-14.3" font-family="Times New Roman,serif" font-size="14.00">6</text><animate attributeName="opacity" from="0" to="1" begin="0.00s" dur="3.00s" fill="freeze"/></g><g id="node2" class="node" style="opacity:0"><ellipse fill="none" stroke="#7b7b7b" cx="72" cy="-18" rx="18" ry="18"/><text text-anchor="middle" x="72" y="-14.3" font-family="Times New Roman,serif" font-size="14.00">5</text><animate attributeName="opacity" from="0" to="1" begin="0.00s" dur="3.00s" fill="freeze"/></g><g id="node3" class="node" style="opacity:0"><ellipse fill="none" stroke="#7b7b7b" cx="18" cy="-18" rx="18" ry="18"/><text text-anchor="middle" x="18" y="-14.3" font-family="Times New Roman,serif" font-size="14.00">4</text><animate attributeName="opacity" from="0" to="1" begin="0.00s" dur="3.00s" fill="freeze"/></g><g id="node4" class="node" style="opacity:0"><ellipse fill="none" stroke="#7b7b7b" cx="18" cy="-103" rx="18" ry="18"/><text text-anchor="middle" x="18" y="-99.3" font-family="Times New Roman,serif" font-size="14.00">2</text><animate attributeName="opacity" from="0" to="1" begin="0.00s" dur="3.00s" fill="freeze"/></g><g id="node5" class="node" style="opacity:0"><ellipse fill="none" stroke="#7b7b7b" cx="44" cy="-176" rx="18" ry="18"/><text text-anchor="middle" x="44" y="-172.3" font-family="Times New Roman,serif" font-size="14.00">1</text><animate attributeName="opacity" from="0" to="1" begin="0.00s" dur="3.00s" fill="freeze"/></g><g id="node6" class="node" style="opacity:0"><ellipse fill="none" stroke="#7b7b7b" cx="72" cy="-103" rx="18" ry="18"/><text text-anchor="middle" x="72" y="-99.3" font-family="Times New Roman,serif" font-size="14.00">3</text><animate attributeName="opacity" from="0" to="1" begin="0.00s" dur="3.00s" fill="freeze"/></g><g id="edge1" class="edge" style="opacity:0"><path fill="none" stroke="#7b7b7b" d="M38.1,-158.89C34.94,-150.27 30.98,-139.44 27.41,-129.69"/><polygon fill="#7b7b7b" stroke="#7b7b7b" points="23.88,-120.05 31.54,-127.89 25.6,-124.74 27.32,-129.44 27.32,-129.44 27.32,-129.44 25.6,-124.74 23.09,-130.98 23.88,-120.05 23.88,-120.05"/><animate attributeName="opacity" from="0" to="1" begin="0.00s" dur="3.00s" fill="freeze"/></g><g id="edge2" class="edge" style="opacity:0"><path fill="none" stroke="#7b7b7b" d="M50.35,-158.89C53.79,-150.17 58.11,-139.21 61.99,-129.38"/><polygon fill="#7b7b7b" stroke="#7b7b7b" points="65.67,-120.05 66.19,-131 63.84,-124.7 62,-129.35 62,-129.35 62,-129.35 63.84,-124.7 57.82,-127.7 65.67,-120.05 65.67,-120.05"/><animate attributeName="opacity" from="0" to="1" begin="0.00s" dur="3.00s" fill="freeze"/></g><g id="edge3" class="edge" style="opacity:0"><path fill="none" stroke="#7b7b7b" d="M18,-84.8C18,-73.67 18,-58.94 18,-46.24"/><polygon fill="#7b7b7b" stroke="#7b7b7b" points="18,-36.18 22.5,-46.18 18,-41.18 18,-46.18 18,-46.18 18,-46.18 18,-41.18 13.5,-46.18 18,-36.18 18,-36.18"/><text text-anchor="middle" x="21.5" y="-57.4" font-family="Times New Roman,serif" font-size="12.00" fill="#c0c0c0">L</text><animate attributeName="opacity" from="0" to="1" begin="0.00s" dur="3.00s" fill="freeze"/></g><g id="edge4" class="edge" style="opacity:0"><path fill="none" stroke="#7b7b7b" d="M72,-84.8C72,-73.67 72,-58.94 72,-46.24"/><polygon fill="#7b7b7b" stroke="#7b7b7b" points="72,-36.18 76.5,-46.18 72,-41.18 72,-46.18 72,-46.18 72,-46.18 72,-41.18 67.5,-46.18 72,-36.18 72,-36.18"/><animate attributeName="opacity" from="0" to="1" begin="0.00s" dur="3.00s" fill="freeze"/></g><g id="edge5" class="edge" style="opacity:0"><path fill="none" stroke="#7b7b7b" d="M81.41,-87.54C89.56,-75 101.52,-56.63 111,-42.06"/><polygon fill="#7b7b7b" stroke="#7b7b7b" points="116.52,-33.57 114.84,-44.41 113.79,-37.76 111.07,-41.95 111.07,-41.95 111.07,-41.95 113.79,-37.76 107.3,-39.5 116.52,-33.57 116.52,-33.57"/><animate attributeName="opacity" from="0" to="1" begin="0.00s" dur="3.00s" fill="freeze"/></g></g></svg>