<?xml version="1.0" ?><svg xmlns="http://www.w3.org/2000/svg" xmlns:xlink="http://www.w3.org/1999/xlink" width="220pt" height="212pt" viewBox="0.00 0.00 220.00 212.00"><style>.txt { alignment-baseline:middle; text-anchor:middle; font-family:Times,serif; }</style><a xlink:href="https://zjl9959.github.io/algviz/"><g class="frame" style="opacity:0" transform="translate(5,5.0)"><g id="graph0" class="graph" transform="scale(1 1) rotate(0) translate(4 4)"><polygon fill="transparent" stroke="transparent" points="-4,4 -4,-4 4,-4 4,4 -4,4"/></g><g id="graph1" class="graph" transform="scale(1 1) rotate(0) translate(4 198)"><g id="node1" class="node" style="opacity:0"><ellipse fill="none" stroke="#7b7b7b" cx="72" cy="-18" rx="18" ry="18"/><text text-anchor="middle" x="72" y="-14.3" font-family="Times New Roman,serif" font-size="14.00">5</text><animate attributeName="opacity" from="0" to="1" begin="0S0.end+0.00s" dur="1.00s" fill="freeze"/><animate attributeName="opacity" from="1" to="0" begin="0E0.end" dur="0.01s" fill="freeze"/></g><g id="node2" class="node" style="opacity:0"><ellipse fill="none" stroke="#7b7b7b" cx="126" cy="-18" rx="18" ry="18"/><text text-anchor="middle" x="126" y="-14.3" font-family="Times New Roman,serif" font-size="14.00">6</text><animate attributeName="opacity" from="0" to="1" begin="0S0.end+0.00s" dur="1.00s" fill="freeze"/><animate attributeName="opacity" from="1" to="0" begin="0E0.end" dur="0.01s" fill="freeze"/></g><g id="node3" class="node" style="opacity:0"><ellipse fill="none" stroke="#7b7b7b" cx="44" cy="-176" rx="18" ry="18"/><text text-anchor="middle" x="44" y="-172.3" font-family="Times New Roman,serif" font-size="14.00">1</text><animate attributeName="opacity" from="0" to="1" begin="0S0.end+0.00s" dur="1.00s" fill="freeze"/><animate attributeName="opacity" from="1" to="0" begin="0E0.end" dur="0.01s" fill="freeze"/></g><g id="node4" class="node" style="opacity:0"><ellipse fill="none" stroke="#7b7b7b" cx="72" cy="-103" rx="18" ry="18"/><text text-anchor="middle" x="72" y="-99.3" font-family="Times New Roman,serif" font-size="14.00">3</text><animate attributeName="opacity" from="0" to="1" begin="0S0.end+0.00s" dur="1.00s" fill="freeze"/><animate attributeName="opacity" from="1" to="0" begin="0E0.end" dur="0.01s" fill="freeze"/></g><g id="node5" class="node" style="opacity:0"><ellipse fill="none" stroke="#7b7b7b" cx="18" cy="-18" rx="18" ry="18"/><text text-anchor="middle" x="18" y="-14.3" font-family="Times New Roman,serif" font-size="14.00">4</text><animate attributeName="opacity" from="0" to="1" begin="0S0.end+0.00s" dur="1.00s" fill="freeze"/><animate attributeName="opacity" from="1" to="0" begin="0E0.end" dur="0.01s" fill="freeze"/></g><g id="node6" class="node" style="opacity:0"><ellipse fill="none" stroke="#7b7b7b" cx="18" cy="-103" rx="18" ry="18"/><text text-anchor="middle" x="18" y="-99.3" font-family="Times New Roman,serif" font-size="14.00">2</text><animate attributeName="opacity" from="0" to="1" begin="0S0.end+0.00s" dur="1.00s" fill="freeze"/><animate attributeName="opacity" from="1" to="0" begin="0E0.end" dur="0.01s" fill="freeze"/></g><g id="edge1" class="edge" style="opacity:0"><path fill="none" stroke="#7b7b7b" d="M38.1,-158.89C34.94,-150.27 30.98,-139.44 27.41,-129.69"/><polygon fill="#7b7b7b" stroke="#7b7b7b" points="23.88,-120.05 31.54,-127.89 25.6,-124.74 27.32,-129.44 27.32,-129.44 27.32,-129.44 25.6,-124.74 23.09,-130.98 23.88,-120.05 23.88,-120.05"/><animate attributeName="opacity" from="0" to="1" begin="0S0.end+0.00s" dur="1.00s" fill="freeze"/><animate attributeName="opacity" from="1" to="0" begin="0E0.end" dur="0.01s" fill="freeze"/></g><g id="edge2" class="edge" style="opacity:0"><path fill="none" stroke="#7b7b7b" d="M50.35,-158.89C53.79,-150.17 58.11,-139.21 61.99,-129.38"/><polygon fill="#7b7b7b" stroke="#7b7b7b" points="65.67,-120.05 66.19,-131 63.84,-124.7 62,-129.35 62,-129.35 62,-129.35 63.84,-124.7 57.82,-127.7 65.67,-120.05 65.67,-120.05"/><animate attributeName="opacity" from="0" to="1" begin="0S0.end+0.00s" dur="1.00s" fill="freeze"/><animate attributeName="opacity" from="1" to="0" begin="0E0.end" dur="0.01s" fill="freeze"/></g><g id="edge3" class="edge" style="opacity:0"><path fill="none" stroke="#7b7b7b" d="M18,-84.8C18,-73.67 18,-58.94 18,-46.24"/><polygon fill="#7b7b7b" stroke="#7b7b7b" points="18,-36.18 22.5,-46.18 18,-41.18 18,-46.18 18,-46.18 18,-46.18 18,-41.18 13.5,-46.18 18,-36.18 18,-36.18"/><text text-anchor="middle" x="21.5" y="-57.4" font-family="Times New Roman,serif" font-size="12.00" fill="#c0c0c0">L</text><animate attributeName="opacity" from="0" to="1" begin="0S0.end+0.00s" dur="1.00s" fill="freeze"/><animate attributeName="opacity" from="1" to="0" begin="0E0.end" dur="0.01s" fill="freeze"/></g><g id="edge4" class="edge" style="opacity:0"><path fill="none" stroke="#7b7b7b" d="M72,-84.8C72,-73.67 72,-58.94 72,-46.24"/><polygon fill="#7b7b7b" stroke="#7b7b7b" points="72,-36.18 76.5,-46.18 72,-41.18 72,-46.18 72,-46.18 72,-46.18 72,-41.18 67.5,-46.18 72,-36.18 72,-36.18"/><animate attributeName="opacity" from="0" to="1" begin="0S0.end+0.00s" dur="1.00s" fill="freeze"/><animate attributeName="opacity" from="1" to="0" begin="0E0.end" dur="0.01s" fill="freeze"/></g><g id="edge5" class="edge" style="opacity:0"><path fill="none" stroke="#7b7b7b" d="M81.41,-87.54C89.56,-75 101.52,-56.63 111,-42.06"/><polygon fill="#7b7b7b" stroke="#7b7b7b" points="116.52,-33.57 114.84,-44.41 113.79,-37.76 111.07,-41.95 111.07,-41.95 111.07,-41.95 113.79,-37.76 107.3,-39.5 116.52,-33.57 116.52,-33.57"/><animate attributeName="opacity" from="0" to="1" begin="0S0.end+0.00s" dur="1.00s" fill="freeze"/><animate attributeName="opacity" from="1" to="0" begin="0E0.end" dur="0.01s" fill="freeze"/></g></g><animate attributeName="opacity" id="0S0" from="0" to="1" begin="0s;0E2.end+0s" dur="0.01s" fill="freeze"/><animate attributeName="opacity" id="0E0" begin="0S0.begin+2s" from="1" to="0" dur="0.01s" fill="freeze"/></g><g class="frame" style="opacity:0" transform="translate(5,5.0)"><g id="graph0" class="graph" transform="scale(1 1) rotate(0) translate(4 198)"><polygon fill="transparent" stroke="transparent" points="-4,4 -4,-198 148,-198 148,4 -4,4"/><g id="node1" class="node"><ellipse fill="#ffffff" stroke="#7b7b7b" cx="44" cy="-176" rx="18" ry="18"/><text text-anchor="middle" x="44" y="-172.3" font-family="Times New Roman,serif" font-size="14.00" fill="#000000">1</text><animateMotion path="m0,0 l54.00,0.00" begin="0S1.end+0.60s" dur="1.44s" fill="freeze"/><animateMotion path="m0,0 l0,0" begin="0E1.end" dur="0.01s" fill="freeze"/></g><g id="node2" class="node"><ellipse fill="#ffffff" stroke="#7b7b7b" cx="18" cy="-103" rx="18" ry="18"/><text text-anchor="middle" x="18" y="-99.3" font-family="Times New Roman,serif" font-size="14.00" fill="#000000">2</text><animateMotion path="m0,0 l108.00,0.00" begin="0S1.end+0.60s" dur="1.44s" fill="freeze"/><animateMotion path="m0,0 l0,0" begin="0E1.end" dur="0.01s" fill="freeze"/></g><g id="edge2" class="edge" style="opacity:1"><path fill="none" stroke="#7b7b7b" d="M38.1,-158.89C34.94,-150.27 30.98,-139.44 27.41,-129.69"/><polygon fill="#7b7b7b" stroke="#7b7b7b" points="23.88,-120.05 31.54,-127.89 25.6,-124.74 27.32,-129.44 27.32,-129.44 27.32,-129.44 25.6,-124.74 23.09,-130.98 23.88,-120.05 23.88,-120.05"/><animate attributeName="opacity" from="1" to="0" begin="0S1.end+0.00s" dur="0.60s" fill="freeze"/><animate attributeName="opacity" from="0" to="1" begin="0E1.end" dur="0.01s" fill="freeze"/></g><g id="node4" class="node"><ellipse fill="#ffffff" stroke="#7b7b7b" cx="72" cy="-103" rx="18" ry="18"/><text text-anchor="middle" x="72" y="-99.3" font-family="Times New Roman,serif" font-size="14.00" fill="#000000">3</text></g><g id="edge1" class="edge" style="opacity:1"><path fill="none" stroke="#7b7b7b" d="M50.35,-158.89C53.79,-150.17 58.11,-139.21 61.99,-129.38"/><polygon fill="#7b7b7b" stroke="#7b7b7b" points="65.67,-120.05 66.19,-131 63.84,-124.7 62,-129.35 62,-129.35 62,-129.35 63.84,-124.7 57.82,-127.7 65.67,-120.05 65.67,-120.05"/><animate attributeName="opacity" from="1" to="0" begin="0S1.end+0.00s" dur="0.60s" fill="freeze"/><animate attributeName="opacity" from="0" to="1" begin="0E1.end" dur="0.01s" fill="freeze"/></g><g id="node3" class="node"><ellipse fill="#ffffff" stroke="#7b7b7b" cx="18" cy="-18" rx="18" ry="18"/><text text-anchor="middle" x="18" y="-14.3" font-family="Times New Roman,serif" font-size="14.00" fill="#000000">4</text><animateMotion path="m0,0 l108.00,0.00" begin="0S1.end+0.60s" dur="1.44s" fill="freeze"/><animateMotion path="m0,0 l0,0" begin="0E1.end" dur="0.01s" fill="freeze"/></g><g id="edge3" class="edge" style="opacity:1"><path fill="none" stroke="#7b7b7b" d="M18,-84.8C18,-73.67 18,-58.94 18,-46.24"/><polygon fill="#7b7b7b" stroke="#7b7b7b" points="18,-36.18 22.5,-46.18 18,-41.18 18,-46.18 18,-46.18 18,-46.18 18,-41.18 13.5,-46.18 18,-36.18 18,-36.18"/><text text-anchor="middle" x="21.5" y="-57.4" font-family="Times New Roman,serif" font-size="12.00" fill="#c0c0c0">L</text><animate attributeName="opacity" from="1" to="0" begin="0S1.end+0.00s" dur="0.60s" fill="freeze"/><animate attributeName="opacity" from="0" to="1" begin="0E1.end" dur="0.01s" fill="freeze"/></g><g id="node5" class="node"><ellipse fill="#ffffff" stroke="#7b7b7b" cx="72" cy="-18" rx="18" ry="18"/><text text-anchor="middle" x="72" y="-14.3" font-family="Times New Roman,serif" font-size="14.00" fill="#000000">5</text><animateMotion path="m0,0 l-54.00,0.00" begin="0S1.end+0.60s" dur="1.44s" fill="freeze"/><animateMotion path="m0,0 l0,0" begin="0E1.end" dur="0.01s" fill="freeze"/></g><g id="edge5" class="edge" style="opacity:1"><path fill="none" stroke="#7b7b7b" d="M72,-84.8C72,-73.67 72,-58.94 72,-46.24"/><polygon fill="#7b7b7b" stroke="#7b7b7b" points="72,-36.18 76.5,-46.18 72,-41.18 72,-46.18 72,-46.18 72,-46.18 72,-41.18 67.5,-46.18 72,-36.18 72,-36.18"/><animate attributeName="opacity" from="1" to="0" begin="0S1.end+0.00s" dur="0.60s" fill="freeze"/><animate attributeName="opacity" from="0" to="1" begin="0E1.end" dur="0.01s" fill="freeze"/></g><g id="node6" class="node"><ellipse fill="#ffffff" stroke="#7b7b7b" cx="126" cy="-18" rx="18" ry="18"/><text text-anchor="middle" x="126" y="-14.3" font-family="Times New Roman,serif" font-size="14.00" fill="#000000">6</text><animateMotion path="m0,0 l-54.00,0.00" begin="0S1.end+0.60s" dur="1.44s" fill="freeze"/><animateMotion path="m0,0 l0,0" begin="0E1.end" dur="0.01s" fill="freeze"/></g><g id="edge4" class="edge" style="opacity:1"><path fill="none" stroke="#7b7b7b" d="M81.41,-87.54C89.56,-75 101.52,-56.63 111,-42.06"/><polygon fill="#7b7b7b" stroke="#7b7b7b" points="116.52,-33.57 114.84,-44.41 113.79,-37.76 111.07,-41.95 111.07,-41.95 111.07,-41.95 113.79,-37.76 107.3,-39.5 116.52,-33.57 116.52,-33.57"/><animate attributeName="opacity" from="1" to="0" begin="0S1.end+0.00s" dur="0.60s" fill="freeze"/><animate attributeName="opacity" from="0" to="1" begin="0E1.end" dur="0.01s" fill="freeze"/></g></g><g id="graph1" class="graph" transform="scale(1 1) rotate(0) translate(4 198)"><g id="edge1" class="edge" style="opacity:0"><path fill="none" stroke="#7b7b7b" d="M92.1,-158.89C88.94,-150.27 84.98,-139.44 81.41,-129.69"/><polygon fill="#7b7b7b" stroke="#7b7b7b" points="77.88,-120.05 85.54,-127.89 79.6,-124.74 81.32,-129.44 81.32,-129.44 81.32,-129.44 79.6,-124.74 77.09,-130.98 77.88,-120.05 77.88,-120.05"/><animate attributeName="opacity" from="0" to="1" begin="0S1.end+2.04s" dur="0.96s" fill="freeze"/><animate attributeName="opacity" from="1" to="0" begin="0E1.end" dur="0.01s" fill="freeze"/></g><g id="edge2" class="edge" style="opacity:0"><path fill="none" stroke="#7b7b7b" d="M104.35,-158.89C107.79,-150.17 112.11,-139.21 115.99,-129.38"/><polygon fill="#7b7b7b" stroke="#7b7b7b" points="119.67,-120.05 120.19,-131 117.84,-124.7 116,-129.35 116,-129.35 116,-129.35 117.84,-124.7 111.82,-127.7 119.67,-120.05 119.67,-120.05"/><animate attributeName="opacity" from="0" to="1" begin="0S1.end+2.04s" dur="0.96s" fill="freeze"/><animate attributeName="opacity" from="1" to="0" begin="0E1.end" dur="0.01s" fill="freeze"/></g><g id="edge5" class="edge" style="opacity:0"><path fill="none" stroke="#7b7b7b" d="M62.59,-87.54C54.44,-75 42.48,-56.63 33,-42.06"/><polygon fill="#7b7b7b" stroke="#7b7b7b" points="27.48,-33.57 36.7,-39.5 30.21,-37.76 32.93,-41.95 32.93,-41.95 32.93,-41.95 30.21,-37.76 29.16,-44.41 27.48,-33.57 27.48,-33.57"/><animate attributeName="opacity" from="0" to="1" begin="0S1.end+2.04s" dur="0.96s" fill="freeze"/><animate attributeName="opacity" from="1" to="0" begin="0E1.end" dur="0.01s" fill="freeze"/></g><g id="edge4" class="edge" style="opacity:0"><path fill="none" stroke="#7b7b7b" d="M72,-84.8C72,-73.67 72,-58.94 72,-46.24"/><polygon fill="#7b7b7b" stroke="#7b7b7b" points="72,-36.18 76.5,-46.18 72,-41.18 72,-46.18 72,-46.18 72,-46.18 72,-41.18 67.5,-46.18 72,-36.18 72,-36.18"/><animate attributeName="opacity" from="0" to="1" begin="0S1.end+2.04s" dur="0.96s" fill="freeze"/><animate attributeName="opacity" from="1" to="0" begin="0E1.end" dur="0.01s" fill="freeze"/></g><g id="edge3" class="edge" style="opacity:0"><path fill="none" stroke="#7b7b7b" d="M126,-84.8C126,-73.67 126,-58.94 126,-46.24"/><polygon fill="#7b7b7b" stroke="#7b7b7b" points="126,-36.18 130.5,-46.18 126,-41.18 126,-46.18 126,-46.18 126,-46.18 126,-41.18 121.5,-46.18 126,-36.18 126,-36.18"/><text text-anchor="middle" x="129.5" y="-57.4" font-family="Times New Roman,serif" font-size="12.00" fill="#c0c0c0">L</text><animate attributeName="opacity" from="0" to="1" begin="0S1.end+2.04s" dur="0.96s" fill="freeze"/><animate attributeName="opacity" from="1" to="0" begin="0E1.end" dur="0.01s" fill="freeze"/></g></g><animate attributeName="opacity" id="0S1" from="0" to="1" begin="0E0.begin" dur="0.01s" fill="freeze"/><animate attributeName="opacity" id="0E1" begin="0S1.begin+4.0s" from="1" to="0" dur="0.01s" fill="freeze"/></g><g class="frame" style="opacity:0" transform="translate(5,5.0)"><g id="graph0" class="graph" transform="scale(1 1) rotate(0) translate(4 198)"><polygon fill="transparent" stroke="transparent" points="-4,4 -4,-198 148,-198 148,4 -4,4"/><g id="node1" class="node"><ellipse fill="#ffffff" stroke="#7b7b7b" cx="98" cy="-176" rx="18" ry="18"/><text text-anchor="middle" x="98" y="-172.3" font-family="Times New Roman,serif" font-size="14.00" fill="#000000">1</text><animateMotion path="m0,0 l1.00,0.00" begin="0S2.end+0.60s" dur="1.44s" fill="freeze"/><animateMotion path="m0,0 l0,0" begin="0E2.end" dur="0.01s" fill="freeze"/></g><g id="node2" class="node"><ellipse fill="#ffffff" stroke="#7b7b7b" cx="72" cy="-103" rx="18" ry="18"/><text text-anchor="middle" x="72" y="-99.3" font-family="Times New Roman,serif" font-size="14.00" fill="#000000">3</text><animateMotion path="m0,0 l0.00,-1.00" begin="0S2.end+0.60s" dur="1.44s" fill="freeze"/><animateMotion path="m0,0 l0,0" begin="0E2.end" dur="0.01s" fill="freeze"/></g><g id="edge2" class="edge" style="opacity:1"><path fill="none" stroke="#7b7b7b" d="M92.1,-158.89C88.94,-150.27 84.98,-139.44 81.41,-129.69"/><polygon fill="#7b7b7b" stroke="#7b7b7b" points="77.88,-120.05 85.54,-127.89 79.6,-124.74 81.32,-129.44 81.32,-129.44 81.32,-129.44 79.6,-124.74 77.09,-130.98 77.88,-120.05 77.88,-120.05"/><animate attributeName="opacity" from="1" to="0" begin="0S2.end+0.00s" dur="0.60s" fill="freeze"/><animate attributeName="opacity" from="0" to="1" begin="0E2.end" dur="0.01s" fill="freeze"/></g><g id="node5" class="node"><ellipse fill="#ffffff" stroke="#7b7b7b" cx="126" cy="-103" rx="18" ry="18"/><text text-anchor="middle" x="126" y="-99.3" font-family="Times New Roman,serif" font-size="14.00" fill="#000000">2</text><animateMotion path="m0,0 l0.00,-1.00" begin="0S2.end+0.60s" dur="1.44s" fill="freeze"/><animateMotion path="m0,0 l0,0" begin="0E2.end" dur="0.01s" fill="freeze"/></g><g id="edge1" class="edge" style="opacity:1"><path fill="none" stroke="#7b7b7b" d="M104.35,-158.89C107.79,-150.17 112.11,-139.21 115.99,-129.38"/><polygon fill="#7b7b7b" stroke="#7b7b7b" points="119.67,-120.05 120.19,-131 117.84,-124.7 116,-129.35 116,-129.35 116,-129.35 117.84,-124.7 111.82,-127.7 119.67,-120.05 119.67,-120.05"/><animate attributeName="opacity" from="1" to="0" begin="0S2.end+0.00s" dur="0.60s" fill="freeze"/><animate attributeName="opacity" from="0" to="1" begin="0E2.end" dur="0.01s" fill="freeze"/></g><g id="node3" class="node"><ellipse fill="#ffffff" stroke="#7b7b7b" cx="18" cy="-18" rx="18" ry="18"/><text text-anchor="middle" x="18" y="-14.3" font-family="Times New Roman,serif" font-size="14.00" fill="#000000">5</text><animateMotion path="m0,0 l0.00,-14.00" begin="0S2.end+0.60s" dur="1.44s" fill="freeze"/><animateMotion path="m0,0 l0,0" begin="0E2.end" dur="0.01s" fill="freeze"/></g><g id="edge4" class="edge" style="opacity:1"><path fill="none" stroke="#7b7b7b" d="M62.59,-87.54C54.44,-75 42.48,-56.63 33,-42.06"/><polygon fill="#7b7b7b" stroke="#7b7b7b" points="27.48,-33.57 36.7,-39.5 30.21,-37.76 32.93,-41.95 32.93,-41.95 32.93,-41.95 30.21,-37.76 29.16,-44.41 27.48,-33.57 27.48,-33.57"/><animate attributeName="opacity" from="1" to="0" begin="0S2.end+0.00s" dur="0.60s" fill="freeze"/><animate attributeName="opacity" from="0" to="1" begin="0E2.end" dur="0.01s" fill="freeze"/></g><g id="node4" class="node"><ellipse fill="#ffffff" stroke="#7b7b7b" cx="72" cy="-18" rx="18" ry="18"/><text text-anchor="middle" x="72" y="-14.3" font-family="Times New Roman,serif" font-size="14.00" fill="#000000">6</text><animateMotion path="m0,0 l0.00,-14.00" begin="0S2.end+0.60s" dur="1.44s" fill="freeze"/><animateMotion path="m0,0 l0,0" begin="0E2.end" dur="0.01s" fill="freeze"/></g><g id="edge3" class="edge" style="opacity:1"><path fill="none" stroke="#7b7b7b" d="M72,-84.8C72,-73.67 72,-58.94 72,-46.24"/><polygon fill="#7b7b7b" stroke="#7b7b7b" points="72,-36.18 76.5,-46.18 72,-41.18 72,-46.18 72,-46.18 72,-46.18 72,-41.18 67.5,-46.18 72,-36.18 72,-36.18"/><animate attributeName="opacity" from="1" to="0" begin="0S2.end+0.00s" dur="0.60s" fill="freeze"/><animate attributeName="opacity" from="0" to="1" begin="0E2.end" dur="0.01s" fill="freeze"/></g><g id="node6" class="node"><ellipse fill="#ffffff" stroke="#7b7b7b" cx="126" cy="-18" rx="18" ry="18"/><text text-anchor="middle" x="126" y="-14.3" font-family="Times New Roman,serif" font-size="14.00" fill="#000000">4</text><animateMotion path="m0,0 l0.00,-14.00" begin="0S2.end+0.60s" dur="1.44s" fill="freeze"/><animateMotion path="m0,0 l0,0" begin="0E2.end" dur="0.01s" fill="freeze"/></g><g id="edge5" class="edge" style="opacity:1"><path fill="none" stroke="#7b7b7b" d="M126,-84.8C126,-73.67 126,-58.94 126,-46.24"/><polygon fill="#7b7b7b" stroke="#7b7b7b" points="126,-36.18 130.5,-46.18 126,-41.18 126,-46.18 126,-46.18 126,-46.18 126,-41.18 121.5,-46.18 126,-36.18 126,-36.18"/><text text-anchor="middle" x="129.5" y="-57.4" font-family="Times New Roman,serif" font-size="12.00" fill="#c0c0c0">L</text><animate attributeName="opacity" from="1" to="0" begin="0S2.end+0.00s" dur="0.60s" fill="freeze"/><animate attributeName="opacity" from="0" to="1" begin="0E2.end" dur="0.01s" fill="freeze"/></g></g><g id="graph1" class="graph" transform="scale(1 1) rotate(0) translate(4 184)"><g id="node7" class="node" style="opacity:0"><ellipse fill="none" stroke="#7b7b7b" cx="182" cy="-18" rx="18" ry="18"/><text text-anchor="middle" x="182" y="-14.3" font-family="Times New Roman,serif" font-size="14.00">new</text><animate attributeName="opacity" from="0" to="1" begin="0S2.end+2.04s" dur="0.96s" fill="freeze"/><animate attributeName="opacity" from="1" to="0" begin="0E2.end" dur="0.01s" fill="freeze"/></g><g id="edge2" class="edge" style="opacity:0"><path fill="none" stroke="#7b7b7b" d="M92.74,-144.76C89.5,-136.37 85.47,-125.93 81.83,-116.5"/><polygon fill="#7b7b7b" stroke="#7b7b7b" points="78.23,-107.15 86.03,-114.86 80.03,-111.81 81.83,-116.48 81.83,-116.48 81.83,-116.48 80.03,-111.81 77.63,-118.1 78.23,-107.15 78.23,-107.15"/><animate attributeName="opacity" from="0" to="1" begin="0S2.end+2.04s" dur="0.96s" fill="freeze"/><animate attributeName="opacity" from="1" to="0" begin="0E2.end" dur="0.01s" fill="freeze"/></g><g id="edge1" class="edge" style="opacity:0"><path fill="none" stroke="#7b7b7b" d="M105.26,-144.76C108.5,-136.37 112.53,-125.93 116.17,-116.5"/><polygon fill="#7b7b7b" stroke="#7b7b7b" points="119.77,-107.15 120.37,-118.1 117.97,-111.81 116.17,-116.48 116.17,-116.48 116.17,-116.48 117.97,-111.81 111.97,-114.86 119.77,-107.15 119.77,-107.15"/><animate attributeName="opacity" from="0" to="1" begin="0S2.end+2.04s" dur="0.96s" fill="freeze"/><animate attributeName="opacity" from="1" to="0" begin="0E2.end" dur="0.01s" fill="freeze"/></g><g id="edge4" class="edge" style="opacity:0"><path fill="none" stroke="#7b7b7b" d="M61.33,-75.17C53.79,-65.39 43.52,-52.08 34.87,-40.87"/><polygon fill="#7b7b7b" stroke="#7b7b7b" points="28.65,-32.8 38.32,-37.97 31.7,-36.76 34.75,-40.72 34.75,-40.72 34.75,-40.72 31.7,-36.76 31.19,-43.47 28.65,-32.8 28.65,-32.8"/><animate attributeName="opacity" from="0" to="1" begin="0S2.end+2.04s" dur="0.96s" fill="freeze"/><animate attributeName="opacity" from="1" to="0" begin="0E2.end" dur="0.01s" fill="freeze"/></g><g id="edge3" class="edge" style="opacity:0"><path fill="none" stroke="#7b7b7b" d="M72,-71.7C72,-63.98 72,-54.71 72,-46.11"/><polygon fill="#7b7b7b" stroke="#7b7b7b" points="72,-36.1 76.5,-46.1 72,-41.1 72,-46.1 72,-46.1 72,-46.1 72,-41.1 67.5,-46.1 72,-36.1 72,-36.1"/><animate attributeName="opacity" from="0" to="1" begin="0S2.end+2.04s" dur="0.96s" fill="freeze"/><animate attributeName="opacity" from="1" to="0" begin="0E2.end" dur="0.01s" fill="freeze"/></g><g id="edge5" class="edge" style="opacity:0"><path fill="none" stroke="#7b7b7b" d="M126,-71.7C126,-63.98 126,-54.71 126,-46.11"/><polygon fill="#7b7b7b" stroke="#7b7b7b" points="126,-36.1 130.5,-46.1 126,-41.1 126,-46.1 126,-46.1 126,-46.1 126,-41.1 121.5,-46.1 126,-36.1 126,-36.1"/><animate attributeName="opacity" from="0" to="1" begin="0S2.end+2.04s" dur="0.96s" fill="freeze"/><animate attributeName="opacity" from="1" to="0" begin="0E2.end" dur="0.01s" fill="freeze"/></g><g id="edge6" class="edge" style="opacity:0"><path fill="none" stroke="#7b7b7b" d="M136.8,-75.5C144.78,-65.53 155.8,-51.75 164.96,-40.3"/><polygon fill="#7b7b7b" stroke="#7b7b7b" points="171.24,-32.46 168.5,-43.08 168.11,-36.36 164.99,-40.26 164.99,-40.26 164.99,-40.26 168.11,-36.36 161.47,-37.45 171.24,-32.46 171.24,-32.46"/><animate attributeName="opacity" from="0" to="1" begin="0S2.end+2.04s" dur="0.96s" fill="freeze"/><animate attributeName="opacity" from="1" to="0" begin="0E2.end" dur="0.01s" fill="freeze"/></g></g><animate attributeName="opacity" id="0S2" from="0" to="1" begin="0E1.begin" dur="0.01s" fill="freeze"/><animate attributeName="opacity" id="0E2" begin="0S2.begin+4.0s" from="1" to="0" dur="0.01s" fill="freeze"/></g><g><animate attributeName="opacity" begin="1S3.begin" from="1" to="0" dur="0.01s" fill="freeze"/><animate attributeName="opacity" from="0" to="1" begin="1E3.end" dur="0.01s" fill="freeze"/></g></a></svg>