<?xml version="1.0" ?><svg xmlns="http://www.w3.org/2000/svg" xmlns:xlink="http://www.w3.org/1999/xlink" width="135pt" height="198pt" viewBox="0.00 0.00 135.00 198.00"><style>.txt { alignment-baseline:middle; text-anchor:middle; font-family:Times,serif; }</style><a xlink:href="https://algviz.com/"><g class="frame" style="opacity:0" transform="translate(5,5.0)"><g id="graph0" class="graph" transform="scale(1 1) rotate(0) translate(4 184)"><polygon fill="transparent" stroke="transparent" points="-4,4 -4,-184 121,-184 121,4 -4,4"/><g id="node1" class="node"><ellipse fill="#ff6347" stroke="#7b7b7b" cx="72" cy="-162" rx="18" ry="18"/><text text-anchor="middle" x="72" y="-159.68" font-family="Times New Roman,serif" font-size="8.53" fill="#000000">fib(3)</text></g><g id="node2" class="node"><ellipse fill="#c0c0c0" stroke="#7b7b7b" cx="45" cy="-90" rx="18" ry="18"/><text text-anchor="middle" x="45" y="-86.3" font-family="Times New Roman,serif" font-size="14.00" fill="#000000">1</text></g><g id="edge2" class="edge"><path fill="none" stroke="#7b7b7b" d="M65.74,-144.76C62.5,-136.37 58.47,-125.93 54.83,-116.5"/><polygon fill="#7b7b7b" stroke="#7b7b7b" points="51.23,-107.15 59.03,-114.86 53.03,-111.81 54.83,-116.48 54.83,-116.48 54.83,-116.48 53.03,-111.81 50.63,-118.1 51.23,-107.15 51.23,-107.15"/></g><g id="node5" class="node"><ellipse fill="#c0c0c0" stroke="#7b7b7b" cx="99" cy="-90" rx="18" ry="18"/><text text-anchor="middle" x="99" y="-87.68" font-family="Times New Roman,serif" font-size="8.53" fill="#000000">fib(1)<animate attributeName="font-size" from="8.53" to="0" begin="0S8.end+0.00s" dur="0.50s" fill="freeze"/><animate attributeName="font-size" from="0" to="8.53" begin="0E8.end" dur="0.01s" fill="freeze"/></text><text alignment-baseline="middle" text-anchor="middle" font-family="Times,serif" x="99.00" y="-90.00" font-size="0.00" fill="#000000">1<animate attributeName="font-size" from="0" to="14.00" begin="0S8.end+0.60s" dur="0.40s" fill="freeze"/><animate attributeName="font-size" from="14.00" to="0" begin="0E8.end" dur="0.01s" fill="freeze"/></text></g><g id="edge1" class="edge"><path fill="none" stroke="#7b7b7b" d="M78.26,-144.76C81.5,-136.37 85.53,-125.93 89.17,-116.5"/><polygon fill="#7b7b7b" stroke="#7b7b7b" points="92.77,-107.15 93.37,-118.1 90.97,-111.81 89.17,-116.48 89.17,-116.48 89.17,-116.48 90.97,-111.81 84.97,-114.86 92.77,-107.15 92.77,-107.15"/></g><g id="node3" class="node"><ellipse fill="#c0c0c0" stroke="#7b7b7b" cx="18" cy="-18" rx="18" ry="18"/><text text-anchor="middle" x="18" y="-14.3" font-family="Times New Roman,serif" font-size="14.00" fill="#000000">1</text></g><g id="edge4" class="edge"><path fill="none" stroke="#7b7b7b" d="M38.74,-72.76C35.5,-64.37 31.47,-53.93 27.83,-44.5"/><polygon fill="#7b7b7b" stroke="#7b7b7b" points="24.23,-35.15 32.03,-42.86 26.03,-39.81 27.83,-44.48 27.83,-44.48 27.83,-44.48 26.03,-39.81 23.63,-46.1 24.23,-35.15 24.23,-35.15"/></g><g id="node4" class="node"><ellipse fill="#c0c0c0" stroke="#7b7b7b" cx="72" cy="-18" rx="18" ry="18"/><text text-anchor="middle" x="72" y="-14.3" font-family="Times New Roman,serif" font-size="14.00" fill="#000000">0</text></g><g id="edge3" class="edge"><path fill="none" stroke="#7b7b7b" d="M51.26,-72.76C54.5,-64.37 58.53,-53.93 62.17,-44.5"/><polygon fill="#7b7b7b" stroke="#7b7b7b" points="65.77,-35.15 66.37,-46.1 63.97,-39.81 62.17,-44.48 62.17,-44.48 62.17,-44.48 63.97,-39.81 57.97,-42.86 65.77,-35.15 65.77,-35.15"/></g></g><g id="graph1" class="graph" transform="scale(1 1) rotate(0) translate(4 184)"/><animate attributeName="opacity" id="0S8" from="0" to="1" begin="0s;0E9.end+0s" dur="0.01s" fill="freeze"/><animate attributeName="opacity" id="0E8" begin="0S8.begin+1.5s" from="1" to="0" dur="0.01s" fill="freeze"/></g><g class="frame" style="opacity:0" transform="translate(5,5.0)"><g id="graph0" class="graph" transform="scale(1 1) rotate(0) translate(4 184)"><polygon fill="transparent" stroke="transparent" points="-4,4 -4,-184 121,-184 121,4 -4,4"/><g id="node1" class="node"><ellipse fill="#ff6347" stroke="#7b7b7b" cx="72" cy="-162" rx="18" ry="18"/><text text-anchor="middle" x="72" y="-159.68" font-family="Times New Roman,serif" font-size="8.53" fill="#000000">fib(3)<animate attributeName="font-size" from="8.53" to="0" begin="0S9.end+0.00s" dur="0.50s" fill="freeze"/><animate attributeName="font-size" from="0" to="8.53" begin="0E9.end" dur="0.01s" fill="freeze"/></text><text alignment-baseline="middle" text-anchor="middle" font-family="Times,serif" x="72.00" y="-162.00" font-size="0.00" fill="#000000">2<animate attributeName="font-size" from="0" to="14.00" begin="0S9.end+0.60s" dur="0.40s" fill="freeze"/><animate attributeName="font-size" from="14.00" to="0" begin="0E9.end" dur="0.01s" fill="freeze"/></text></g><g id="node2" class="node"><ellipse fill="#c0c0c0" stroke="#7b7b7b" cx="45" cy="-90" rx="18" ry="18"/><text text-anchor="middle" x="45" y="-86.3" font-family="Times New Roman,serif" font-size="14.00" fill="#000000">1</text></g><g id="edge2" class="edge"><path fill="none" stroke="#7b7b7b" d="M65.74,-144.76C62.5,-136.37 58.47,-125.93 54.83,-116.5"/><polygon fill="#7b7b7b" stroke="#7b7b7b" points="51.23,-107.15 59.03,-114.86 53.03,-111.81 54.83,-116.48 54.83,-116.48 54.83,-116.48 53.03,-111.81 50.63,-118.1 51.23,-107.15 51.23,-107.15"/></g><g id="node5" class="node"><ellipse fill="#c0c0c0" stroke="#7b7b7b" cx="99" cy="-90" rx="18" ry="18"/><text text-anchor="middle" x="99" y="-86.3" font-family="Times New Roman,serif" font-size="14.00" fill="#000000">1</text></g><g id="edge1" class="edge"><path fill="none" stroke="#7b7b7b" d="M78.26,-144.76C81.5,-136.37 85.53,-125.93 89.17,-116.5"/><polygon fill="#7b7b7b" stroke="#7b7b7b" points="92.77,-107.15 93.37,-118.1 90.97,-111.81 89.17,-116.48 89.17,-116.48 89.17,-116.48 90.97,-111.81 84.97,-114.86 92.77,-107.15 92.77,-107.15"/></g><g id="node3" class="node"><ellipse fill="#c0c0c0" stroke="#7b7b7b" cx="18" cy="-18" rx="18" ry="18"/><text text-anchor="middle" x="18" y="-14.3" font-family="Times New Roman,serif" font-size="14.00" fill="#000000">1</text></g><g id="edge4" class="edge"><path fill="none" stroke="#7b7b7b" d="M38.74,-72.76C35.5,-64.37 31.47,-53.93 27.83,-44.5"/><polygon fill="#7b7b7b" stroke="#7b7b7b" points="24.23,-35.15 32.03,-42.86 26.03,-39.81 27.83,-44.48 27.83,-44.48 27.83,-44.48 26.03,-39.81 23.63,-46.1 24.23,-35.15 24.23,-35.15"/></g><g id="node4" class="node"><ellipse fill="#c0c0c0" stroke="#7b7b7b" cx="72" cy="-18" rx="18" ry="18"/><text text-anchor="middle" x="72" y="-14.3" font-family="Times New Roman,serif" font-size="14.00" fill="#000000">0</text></g><g id="edge3" class="edge"><path fill="none" stroke="#7b7b7b" d="M51.26,-72.76C54.5,-64.37 58.53,-53.93 62.17,-44.5"/><polygon fill="#7b7b7b" stroke="#7b7b7b" points="65.77,-35.15 66.37,-46.1 63.97,-39.81 62.17,-44.48 62.17,-44.48 62.17,-44.48 63.97,-39.81 57.97,-42.86 65.77,-35.15 65.77,-35.15"/></g></g><g id="graph1" class="graph" transform="scale(1 1) rotate(0) translate(4 184)"/><animate attributeName="opacity" id="0S9" from="0" to="1" begin="0E8.begin" dur="0.01s" fill="freeze"/><animate attributeName="opacity" id="0E9" begin="0S9.begin+1.5s" from="1" to="0" dur="0.01s" fill="freeze"/></g><g><animate attributeName="opacity" begin="1S10.begin" from="1" to="0" dur="0.01s" fill="freeze"/><animate attributeName="opacity" from="0" to="1" begin="1E10.end" dur="0.01s" fill="freeze"/></g></a></svg>