<?xml version="1.0" ?><svg xmlns="http://www.w3.org/2000/svg" xmlns:xlink="http://www.w3.org/1999/xlink" width="263pt" height="299pt" viewBox="0.00 0.00 263.00 299.00"><style>.txt { alignment-baseline:middle; text-anchor:middle; font-family:Times,serif; }</style><a xlink:href="https://algviz.com/"><g class="frame" style="opacity:0" transform="translate(5,23.0)"><g id="0"><rect x="38.00" y="38.00" width="40.00" height="40.00" fill="#ffffff" stroke="#7b7b7b"/><text class="txt" x="58.00" y="58.00" font-size="16.00" fill="#000000">0</text></g><g id="1"><rect x="78.00" y="38.00" width="40.00" height="40.00" fill="#ffffff" stroke="#7b7b7b"/><text class="txt" x="98.00" y="58.00" font-size="16.00" fill="#000000">2</text></g><g id="2"><rect x="118.00" y="38.00" width="40.00" height="40.00" fill="#ffffff" stroke="#7b7b7b"/><text class="txt" x="138.00" y="58.00" font-size="16.00" fill="#000000">5</text></g><g id="3"><rect x="158.00" y="38.00" width="40.00" height="40.00" fill="#ffffff" stroke="#7b7b7b"/></g><g id="4"><rect x="198.00" y="38.00" width="40.00" height="40.00" fill="#ffffff" stroke="#7b7b7b"/><text class="txt" x="218.00" y="58.00" font-size="16.00" fill="#000000">1</text></g><g id="5"><rect x="38.00" y="78.00" width="40.00" height="40.00" fill="#ffffff" stroke="#7b7b7b"/></g><g id="6"><rect x="78.00" y="78.00" width="40.00" height="40.00" fill="#00ff00" stroke="#7b7b7b"/><text class="txt" x="98.00" y="98.00" font-size="16.00" fill="#000000">0</text></g><g id="7"><rect x="118.00" y="78.00" width="40.00" height="40.00" fill="#ffffff" stroke="#7b7b7b"/><text class="txt" x="138.00" y="98.00" font-size="16.00" fill="#000000">3</text></g><g id="8"><rect x="158.00" y="78.00" width="40.00" height="40.00" fill="#ffffff" stroke="#7b7b7b"/></g><g id="9"><rect x="198.00" y="78.00" width="40.00" height="40.00" fill="#ffffff" stroke="#7b7b7b"/></g><g id="10"><rect x="38.00" y="118.00" width="40.00" height="40.00" fill="#ffffff" stroke="#7b7b7b"/></g><g id="11"><rect x="78.00" y="118.00" width="40.00" height="40.00" fill="#ffffff" stroke="#7b7b7b"/></g><g id="12"><rect x="118.00" y="118.00" width="40.00" height="40.00" fill="#ffffff" stroke="#7b7b7b"/><text class="txt" x="138.00" y="138.00" font-size="16.00" fill="#000000">0</text></g><g id="13"><rect x="158.00" y="118.00" width="40.00" height="40.00" fill="#ffffff" stroke="#7b7b7b"/><text class="txt" x="178.00" y="138.00" font-size="16.00" fill="#000000">1</text></g><g id="14"><rect x="198.00" y="118.00" width="40.00" height="40.00" fill="#ffffff" stroke="#7b7b7b"/></g><g id="15"><rect x="38.00" y="158.00" width="40.00" height="40.00" fill="#ffffff" stroke="#7b7b7b"/></g><g id="16"><rect x="78.00" y="158.00" width="40.00" height="40.00" fill="#ff6347" stroke="#7b7b7b"/><text class="txt" x="98.00" y="178.00" font-size="16.00" fill="#000000">4</text></g><g id="17"><rect x="118.00" y="158.00" width="40.00" height="40.00" fill="#ffffff" stroke="#7b7b7b"/></g><g id="18"><rect x="158.00" y="158.00" width="40.00" height="40.00" fill="#ffffff" stroke="#7b7b7b"/><text class="txt" x="178.00" y="178.00" font-size="16.00" fill="#000000">0</text></g><g id="19"><rect x="198.00" y="158.00" width="40.00" height="40.00" fill="#ffffff" stroke="#7b7b7b"/></g><g id="20"><rect x="38.00" y="198.00" width="40.00" height="40.00" fill="#ffffff" stroke="#7b7b7b"/></g><g id="21"><rect x="78.00" y="198.00" width="40.00" height="40.00" fill="#ffffff" stroke="#7b7b7b"/><text class="txt" x="98.00" y="218.00" font-size="16.00" fill="#000000">1</text></g><g id="22"><rect x="118.00" y="198.00" width="40.00" height="40.00" fill="#ffffff" stroke="#7b7b7b"/></g><g id="23"><rect x="158.00" y="198.00" width="40.00" height="40.00" fill="#ffffff" stroke="#7b7b7b"/><text class="txt" x="178.00" y="218.00" font-size="16.00" fill="#000000">2</text></g><g id="24"><rect x="198.00" y="198.00" width="40.00" height="40.00" fill="#ffffff" stroke="#7b7b7b"/><text class="txt" x="218.00" y="218.00" font-size="16.00" fill="#000000">0</text></g><g id="25"><text x="241.00" y="64.00" font-size="12.00" font-family="Times,serif" fill="#7b7b7b">0</text></g><g id="26"><text x="241.00" y="104.00" font-size="12.00" font-family="Times,serif" fill="#7b7b7b">1</text></g><g id="27"><text x="241.00" y="144.00" font-size="12.00" font-family="Times,serif" fill="#7b7b7b">2</text></g><g id="28"><text x="241.00" y="184.00" font-size="12.00" font-family="Times,serif" fill="#7b7b7b">3</text></g><g id="29"><text x="241.00" y="224.00" font-size="12.00" font-family="Times,serif" fill="#7b7b7b">4</text></g><g id="30"><text x="55.00" y="251.00" font-size="12.00" font-family="Times,serif" fill="#7b7b7b">0</text></g><g id="31"><text x="95.00" y="251.00" font-size="12.00" font-family="Times,serif" fill="#7b7b7b">1</text></g><g id="32"><text x="135.00" y="251.00" font-size="12.00" font-family="Times,serif" fill="#7b7b7b">2</text></g><g id="33"><text x="175.00" y="251.00" font-size="12.00" font-family="Times,serif" fill="#7b7b7b">3</text></g><g id="34"><text x="215.00" y="251.00" font-size="12.00" font-family="Times,serif" fill="#7b7b7b">4</text></g><g id="35"><polyline points="33.00,176.00 35.00,178.00 33.00,180.00" fill="none" stroke="#2874a6"/><text class="txt" transform="rotate(-90, 10.0, 23.0)" x="-145.00" y="39.00" font-size="14.00" fill="#2874a6">i</text><line x1="35.00" y1="178.00" stroke="#2874a6" x2="34.40" y2="178.00"/><animateMotion path="m0,0 l0.00,0.00" begin="0S17.end+0.00s" dur="1.00s" fill="freeze"/><animateMotion path="m0,0 l0,0" begin="0E17.end" dur="0.01s" fill="freeze"/></g><g id="36"><polyline points="96.00,33.00 98.00,35.00 100.00,33.00" fill="none" stroke="#196f3d"/><text class="txt" x="98.00" y="26.00" font-size="14.00" fill="#196f3d">k</text><line x1="98.00" y1="35.00" stroke="#196f3d" x2="98.00" y2="34.40"/></g><g id="37"><polyline points="33.00,98.00 35.00,100.00 33.00,102.00" fill="none" stroke="#196f3d"/><text class="txt" transform="rotate(-90, 10.0, 82.0)" x="-6.00" y="82.00" font-size="14.00" fill="#196f3d">k</text><line x1="35.00" y1="100.00" stroke="#196f3d" x2="18.40" y2="100.00"/></g><g id="38"><polyline points="58.00,33.00 60.00,35.00 62.00,33.00" fill="none" stroke="#935116"/><text class="txt" x="58.00" y="10.00" font-size="14.00" fill="#935116">j</text><line x1="60.00" y1="35.00" stroke="#935116" x2="60.00" y2="18.40"/><animateMotion path="m0,0 l40.00,0.00" begin="0S17.end+0.00s" dur="1.00s" fill="freeze"/><animateMotion path="m0,0 l0,0" begin="0E17.end" dur="0.01s" fill="freeze"/></g><animate attributeName="opacity" id="0S17" from="0" to="1" begin="0s;0E18.end+0s" dur="0.01s" fill="freeze"/><animate attributeName="opacity" id="0E17" begin="0S17.begin+1.5s" from="1" to="0" dur="0.01s" fill="freeze"/></g><g class="frame" style="opacity:0" transform="translate(5,23.0)"><g id="0"><rect x="38.00" y="38.00" width="40.00" height="40.00" fill="#ffffff" stroke="#7b7b7b"/><text class="txt" x="58.00" y="58.00" font-size="16.00" fill="#000000">0</text></g><g id="1"><rect x="78.00" y="38.00" width="40.00" height="40.00" fill="#ffffff" stroke="#7b7b7b"/><text class="txt" x="98.00" y="58.00" font-size="16.00" fill="#000000">2</text></g><g id="2"><rect x="118.00" y="38.00" width="40.00" height="40.00" fill="#ffffff" stroke="#7b7b7b"/><text class="txt" x="138.00" y="58.00" font-size="16.00" fill="#000000">5</text></g><g id="3"><rect x="158.00" y="38.00" width="40.00" height="40.00" fill="#ffffff" stroke="#7b7b7b"/></g><g id="4"><rect x="198.00" y="38.00" width="40.00" height="40.00" fill="#ffffff" stroke="#7b7b7b"/><text class="txt" x="218.00" y="58.00" font-size="16.00" fill="#000000">1</text></g><g id="5"><rect x="38.00" y="78.00" width="40.00" height="40.00" fill="#ffffff" stroke="#7b7b7b"/></g><g id="6"><rect x="78.00" y="78.00" width="40.00" height="40.00" fill="#ffffff" stroke="#7b7b7b"/><text class="txt" x="98.00" y="98.00" font-size="16.00" fill="#000000">0</text></g><g id="7"><rect x="118.00" y="78.00" width="40.00" height="40.00" fill="#00ff00" stroke="#7b7b7b"/><text class="txt" x="138.00" y="98.00" font-size="16.00" fill="#000000">3</text></g><g id="8"><rect x="158.00" y="78.00" width="40.00" height="40.00" fill="#ffffff" stroke="#7b7b7b"/></g><g id="9"><rect x="198.00" y="78.00" width="40.00" height="40.00" fill="#ffffff" stroke="#7b7b7b"/></g><g id="10"><rect x="38.00" y="118.00" width="40.00" height="40.00" fill="#ffffff" stroke="#7b7b7b"/></g><g id="11"><rect x="78.00" y="118.00" width="40.00" height="40.00" fill="#ffffff" stroke="#7b7b7b"/></g><g id="12"><rect x="118.00" y="118.00" width="40.00" height="40.00" fill="#ffffff" stroke="#7b7b7b"/><text class="txt" x="138.00" y="138.00" font-size="16.00" fill="#000000">0</text></g><g id="13"><rect x="158.00" y="118.00" width="40.00" height="40.00" fill="#ffffff" stroke="#7b7b7b"/><text class="txt" x="178.00" y="138.00" font-size="16.00" fill="#000000">1</text></g><g id="14"><rect x="198.00" y="118.00" width="40.00" height="40.00" fill="#ffffff" stroke="#7b7b7b"/></g><g id="15"><rect x="38.00" y="158.00" width="40.00" height="40.00" fill="#ffffff" stroke="#7b7b7b"/></g><g id="16"><rect x="78.00" y="158.00" width="40.00" height="40.00" fill="#00ff00" stroke="#7b7b7b"/><text class="txt" x="98.00" y="178.00" font-size="16.00" fill="#000000">4</text></g><g id="17"><rect x="118.00" y="158.00" width="40.00" height="40.00" fill="#ff6347" stroke="#7b7b7b"/><text class="txt" x="138.00" y="178.00" font-size="0" fill="#000000">7<animate attributeName="font-size" from="0" to="16.00" begin="0S18.end+0.60s" dur="0.40s" fill="freeze"/><animate attributeName="font-size" from="16.00" to="0" begin="0E18.end" dur="0.01s" fill="freeze"/></text></g><g id="18"><rect x="158.00" y="158.00" width="40.00" height="40.00" fill="#ffffff" stroke="#7b7b7b"/><text class="txt" x="178.00" y="178.00" font-size="16.00" fill="#000000">0</text></g><g id="19"><rect x="198.00" y="158.00" width="40.00" height="40.00" fill="#ffffff" stroke="#7b7b7b"/></g><g id="20"><rect x="38.00" y="198.00" width="40.00" height="40.00" fill="#ffffff" stroke="#7b7b7b"/></g><g id="21"><rect x="78.00" y="198.00" width="40.00" height="40.00" fill="#ffffff" stroke="#7b7b7b"/><text class="txt" x="98.00" y="218.00" font-size="16.00" fill="#000000">1</text></g><g id="22"><rect x="118.00" y="198.00" width="40.00" height="40.00" fill="#ffffff" stroke="#7b7b7b"/></g><g id="23"><rect x="158.00" y="198.00" width="40.00" height="40.00" fill="#ffffff" stroke="#7b7b7b"/><text class="txt" x="178.00" y="218.00" font-size="16.00" fill="#000000">2</text></g><g id="24"><rect x="198.00" y="198.00" width="40.00" height="40.00" fill="#ffffff" stroke="#7b7b7b"/><text class="txt" x="218.00" y="218.00" font-size="16.00" fill="#000000">0</text></g><g id="25"><text x="241.00" y="64.00" font-size="12.00" font-family="Times,serif" fill="#7b7b7b">0</text></g><g id="26"><text x="241.00" y="104.00" font-size="12.00" font-family="Times,serif" fill="#7b7b7b">1</text></g><g id="27"><text x="241.00" y="144.00" font-size="12.00" font-family="Times,serif" fill="#7b7b7b">2</text></g><g id="28"><text x="241.00" y="184.00" font-size="12.00" font-family="Times,serif" fill="#7b7b7b">3</text></g><g id="29"><text x="241.00" y="224.00" font-size="12.00" font-family="Times,serif" fill="#7b7b7b">4</text></g><g id="30"><text x="55.00" y="251.00" font-size="12.00" font-family="Times,serif" fill="#7b7b7b">0</text></g><g id="31"><text x="95.00" y="251.00" font-size="12.00" font-family="Times,serif" fill="#7b7b7b">1</text></g><g id="32"><text x="135.00" y="251.00" font-size="12.00" font-family="Times,serif" fill="#7b7b7b">2</text></g><g id="33"><text x="175.00" y="251.00" font-size="12.00" font-family="Times,serif" fill="#7b7b7b">3</text></g><g id="34"><text x="215.00" y="251.00" font-size="12.00" font-family="Times,serif" fill="#7b7b7b">4</text></g><g id="35"><polyline points="33.00,176.00 35.00,178.00 33.00,180.00" fill="none" stroke="#2874a6"/><text class="txt" transform="rotate(-90, 10.0, 23.0)" x="-145.00" y="39.00" font-size="14.00" fill="#2874a6">i</text><line x1="35.00" y1="178.00" stroke="#2874a6" x2="34.40" y2="178.00"/><animateMotion path="m0,0 l0.00,0.00" begin="0S18.end+0.00s" dur="1.00s" fill="freeze"/><animateMotion path="m0,0 l0,0" begin="0E18.end" dur="0.01s" fill="freeze"/></g><g id="36"><polyline points="96.00,33.00 98.00,35.00 100.00,33.00" fill="none" stroke="#196f3d"/><text class="txt" x="98.00" y="26.00" font-size="14.00" fill="#196f3d">k</text><line x1="98.00" y1="35.00" stroke="#196f3d" x2="98.00" y2="34.40"/></g><g id="37"><polyline points="33.00,98.00 35.00,100.00 33.00,102.00" fill="none" stroke="#196f3d"/><text class="txt" transform="rotate(-90, 10.0, 82.0)" x="-6.00" y="82.00" font-size="14.00" fill="#196f3d">k</text><line x1="35.00" y1="100.00" stroke="#196f3d" x2="18.40" y2="100.00"/></g><g id="38"><polyline points="98.00,33.00 100.00,35.00 102.00,33.00" fill="none" stroke="#935116"/><text class="txt" x="98.00" y="10.00" font-size="14.00" fill="#935116">j</text><line x1="100.00" y1="35.00" stroke="#935116" x2="100.00" y2="18.40"/><animateMotion path="m0,0 l40.00,0.00" begin="0S18.end+0.00s" dur="1.00s" fill="freeze"/><animateMotion path="m0,0 l0,0" begin="0E18.end" dur="0.01s" fill="freeze"/></g><animate attributeName="opacity" id="0S18" from="0" to="1" begin="0E17.begin" dur="0.01s" fill="freeze"/><animate attributeName="opacity" id="0E18" begin="0S18.begin+1.5s" from="1" to="0" dur="0.01s" fill="freeze"/></g><g><animate attributeName="opacity" begin="1S19.begin" from="1" to="0" dur="0.01s" fill="freeze"/><animate attributeName="opacity" from="0" to="1" begin="1E19.end" dur="0.01s" fill="freeze"/><text x="10.00" y="19.40" font-family="Times,serif" font-weight="bold" font-size="12.00" fill="#808080">Minimum distance::</text></g></a></svg>