<?xml version="1.0" ?><svg xmlns="http://www.w3.org/2000/svg" xmlns:xlink="http://www.w3.org/1999/xlink" width="357pt" height="213pt" viewBox="0.00 0.00 357.00 213.00"><style>.txt { alignment-baseline:middle; text-anchor:middle; font-family:Times,serif; }</style><a xlink:href="https://algviz.com/"><g class="frame" style="opacity:0" transform="translate(5,5.0)"><g id="0"><rect x="89.00" y="6.00" width="40.00" height="138.57" rx="4.00" ry="4.00" fill="#ffffff" stroke="#7b7b7b"/><text class="txt" x="109.00" y="75.28" font-size="16.00" fill="#000000">5</text></g><g id="3"><rect x="132.00" y="61.43" width="40.00" height="83.14" rx="4.00" ry="4.00" fill="#c0c0c0" stroke="#7b7b7b"/><text class="txt" x="152.00" y="103.00" font-size="16.00" fill="#000000">3</text></g><g id="4"><rect x="175.00" y="144.57" width="40.00" height="27.71" rx="2.77" ry="2.77" fill="#c0c0c0" stroke="#7b7b7b"/><text class="txt" x="195.00" y="158.42" font-size="16.00" fill="#000000">-1</text></g><g id="5"><rect x="218.00" y="116.86" width="40.00" height="27.71" rx="2.77" ry="2.77" fill="#c0c0c0" stroke="#7b7b7b"/><text class="txt" x="238.00" y="130.72" font-size="16.00" fill="#000000">1</text></g><g id="6"><rect x="261.00" y="33.71" width="40.00" height="110.86" rx="4.00" ry="4.00" fill="#c0c0c0" stroke="#7b7b7b"/><text class="txt" x="281.00" y="89.14" font-size="16.00" fill="#000000">4</text></g><g id="7" style="opacity:1"><rect x="46.00" y="61.43" width="40.00" height="83.14" rx="4.00" ry="4.00" fill="#ffffff" stroke="#7b7b7b"/><text class="txt" x="66.00" y="103.00" font-size="16.00" fill="#000000">3</text></g><g id="8" style="opacity:1"><rect x="3.00" y="144.57" width="40.00" height="55.43" rx="4.00" ry="4.00" fill="#ffffff" stroke="#7b7b7b"/><text class="txt" x="23.00" y="172.28" font-size="16.00" fill="#000000">-2</text></g><animate attributeName="opacity" id="0S7" from="0" to="1" begin="0s;0E10.end+0s" dur="0.01s" fill="freeze"/><animate attributeName="opacity" id="0E7" begin="0S7.begin+1.5s" from="1" to="0" dur="0.01s" fill="freeze"/></g><g class="frame" style="opacity:0" transform="translate(5,5.0)"><g id="0"><rect x="89.00" y="6.00" width="40.00" height="138.57" rx="4.00" ry="4.00" fill="#008000" stroke="#7b7b7b"/><text class="txt" x="109.00" y="75.28" font-size="16.00" fill="#FFFFFF">5</text></g><g id="3"><rect x="132.00" y="61.43" width="40.00" height="83.14" rx="4.00" ry="4.00" fill="#ff0000" stroke="#7b7b7b"/><text class="txt" x="152.00" y="103.00" font-size="16.00" fill="#000000">3</text></g><g id="4"><rect x="175.00" y="144.57" width="40.00" height="27.71" rx="2.77" ry="2.77" fill="#c0c0c0" stroke="#7b7b7b"/><text class="txt" x="195.00" y="158.42" font-size="16.00" fill="#000000">-1</text></g><g id="5"><rect x="218.00" y="116.86" width="40.00" height="27.71" rx="2.77" ry="2.77" fill="#c0c0c0" stroke="#7b7b7b"/><text class="txt" x="238.00" y="130.72" font-size="16.00" fill="#000000">1</text></g><g id="6"><rect x="261.00" y="33.71" width="40.00" height="110.86" rx="4.00" ry="4.00" fill="#c0c0c0" stroke="#7b7b7b"/><text class="txt" x="281.00" y="89.14" font-size="16.00" fill="#000000">4</text></g><g id="7" style="opacity:1"><rect x="46.00" y="61.43" width="40.00" height="83.14" rx="4.00" ry="4.00" fill="#ffffff" stroke="#7b7b7b"/><text class="txt" x="66.00" y="103.00" font-size="16.00" fill="#000000">3</text></g><g id="8" style="opacity:1"><rect x="3.00" y="144.57" width="40.00" height="55.43" rx="4.00" ry="4.00" fill="#ffffff" stroke="#7b7b7b"/><text class="txt" x="23.00" y="172.28" font-size="16.00" fill="#000000">-2</text></g><animate attributeName="opacity" id="0S8" from="0" to="1" begin="0E7.begin" dur="0.01s" fill="freeze"/><animate attributeName="opacity" id="0E8" begin="0S8.begin+1.5s" from="1" to="0" dur="0.01s" fill="freeze"/></g><g class="frame" style="opacity:0" transform="translate(5,5.0)"><g id="0"><rect x="89.00" y="6.00" width="40.00" height="138.57" rx="4.00" ry="4.00" fill="#008000" stroke="#7b7b7b"/><text class="txt" x="109.00" y="75.28" font-size="16.00" fill="#FFFFFF">5</text></g><g id="3"><rect x="132.00" y="61.43" width="40.00" height="83.14" rx="4.00" ry="4.00" fill="#ff0000" stroke="#7b7b7b"/><text class="txt" x="152.00" y="103.00" font-size="16.00" fill="#000000">3</text></g><g id="4"><rect x="175.00" y="144.57" width="40.00" height="27.71" rx="2.77" ry="2.77" fill="#c0c0c0" stroke="#7b7b7b"/><text class="txt" x="195.00" y="158.42" font-size="16.00" fill="#000000">-1</text></g><g id="5"><rect x="218.00" y="116.86" width="40.00" height="27.71" rx="2.77" ry="2.77" fill="#c0c0c0" stroke="#7b7b7b"/><text class="txt" x="238.00" y="130.72" font-size="16.00" fill="#000000">1</text></g><g id="6"><rect x="261.00" y="33.71" width="40.00" height="110.86" rx="4.00" ry="4.00" fill="#c0c0c0" stroke="#7b7b7b"/><text class="txt" x="281.00" y="89.14" font-size="16.00" fill="#000000">4</text></g><g id="7" style="opacity:1"><rect x="46.00" y="61.43" width="40.00" height="83.14" rx="4.00" ry="4.00" fill="#ffd700" stroke="#7b7b7b"/><text class="txt" x="66.00" y="103.00" font-size="16.00" fill="#000000">3</text></g><g id="8" style="opacity:1"><rect x="3.00" y="144.57" width="40.00" height="55.43" rx="4.00" ry="4.00" fill="#ffffff" stroke="#7b7b7b"/><text class="txt" x="23.00" y="172.28" font-size="16.00" fill="#000000">-2</text></g><animate attributeName="opacity" id="0S9" from="0" to="1" begin="0E8.begin" dur="0.01s" fill="freeze"/><animate attributeName="opacity" id="0E9" begin="0S9.begin+1.5s" from="1" to="0" dur="0.01s" fill="freeze"/></g><g class="frame" style="opacity:0" transform="translate(5,5.0)"><g id="0"><rect x="89.00" y="6.00" width="40.00" height="138.57" rx="4.00" ry="4.00" fill="#ffffff" stroke="#7b7b7b"/><text class="txt" x="109.00" y="75.28" font-size="16.00" fill="#000000">5</text><animateMotion path="m0,0 l43.00,0.00" begin="0S10.end+0.40s" dur="0.96s" fill="freeze"/><animateMotion path="m0,0 l0,0" begin="0E10.end" dur="0.01s" fill="freeze"/></g><g id="3" style="opacity:1"><rect x="132.00" y="61.43" width="40.00" height="83.14" rx="4.00" ry="4.00" fill="#c0c0c0" stroke="#7b7b7b"/><text class="txt" x="152.00" y="103.00" font-size="16.00" fill="#000000">3</text><animate attributeName="opacity" from="1" to="0" begin="0S10.end+0.00s" dur="0.40s" fill="freeze"/><animate attributeName="opacity" from="0" to="1" begin="0E10.end" dur="0.01s" fill="freeze"/></g><g id="4"><rect x="175.00" y="144.57" width="40.00" height="27.71" rx="2.77" ry="2.77" fill="#c0c0c0" stroke="#7b7b7b"/><text class="txt" x="195.00" y="158.42" font-size="16.00" fill="#000000">-1</text></g><g id="5"><rect x="218.00" y="116.86" width="40.00" height="27.71" rx="2.77" ry="2.77" fill="#c0c0c0" stroke="#7b7b7b"/><text class="txt" x="238.00" y="130.72" font-size="16.00" fill="#000000">1</text></g><g id="6"><rect x="261.00" y="33.71" width="40.00" height="110.86" rx="4.00" ry="4.00" fill="#c0c0c0" stroke="#7b7b7b"/><text class="txt" x="281.00" y="89.14" font-size="16.00" fill="#000000">4</text></g><g id="7" style="opacity:1"><rect x="46.00" y="61.43" width="40.00" height="83.14" rx="4.00" ry="4.00" fill="#ffffff" stroke="#7b7b7b"/><text class="txt" x="66.00" y="103.00" font-size="16.00" fill="#000000">3</text></g><g id="8" style="opacity:1"><rect x="3.00" y="144.57" width="40.00" height="55.43" rx="4.00" ry="4.00" fill="#ffffff" stroke="#7b7b7b"/><text class="txt" x="23.00" y="172.28" font-size="16.00" fill="#000000">-2</text></g><g id="9" style="opacity:0"><rect x="89.00" y="61.43" width="40.00" height="83.14" rx="4.00" ry="4.00" fill="#ffffff" stroke="#7b7b7b"/><text class="txt" x="109.00" y="103.00" font-size="16.00" fill="#000000">3</text><animate attributeName="opacity" from="0" to="1" begin="0S10.end+1.36s" dur="0.64s" fill="freeze"/><animate attributeName="opacity" from="1" to="0" begin="0E10.end" dur="0.01s" fill="freeze"/></g><animate attributeName="opacity" id="0S10" from="0" to="1" begin="0E9.begin" dur="0.01s" fill="freeze"/><animate attributeName="opacity" id="0E10" begin="0S10.begin+2.5s" from="1" to="0" dur="0.01s" fill="freeze"/></g><g><animate attributeName="opacity" begin="1S11.begin" from="1" to="0" dur="0.01s" fill="freeze"/><animate attributeName="opacity" from="0" to="1" begin="1E11.end" dur="0.01s" fill="freeze"/></g></a></svg>