<?xml version="1.0" ?><svg xmlns="http://www.w3.org/2000/svg" xmlns:xlink="http://www.w3.org/1999/xlink" width="243pt" height="285pt" viewBox="0.00 0.00 243.00 285.00"><style>.txt { alignment-baseline:middle; text-anchor:middle; font-family:Times,serif; }</style><a xlink:href="https://algviz.com/"><g class="frame" style="opacity:0" transform="translate(5,5.0)"><g id="graph0" class="graph" transform="scale(1 1) rotate(0) translate(4 271)"><polygon fill="transparent" stroke="transparent" points="-4,4 -4,-271 229,-271 229,4 -4,4"/><g id="node1" class="node"><ellipse fill="#c0c0c0" stroke="#7b7b7b" cx="98" cy="-249" rx="18" ry="18"/><text text-anchor="middle" x="98" y="-245.3" font-family="Times New Roman,serif" font-size="14.00" fill="#000000">1</text></g><g id="node2" class="node"><ellipse fill="#c0c0c0" stroke="#7b7b7b" cx="72" cy="-176" rx="18" ry="18"/><text text-anchor="middle" x="72" y="-172.3" font-family="Times New Roman,serif" font-size="14.00" fill="#000000">2</text></g><g id="edge2" class="edge"><path fill="none" stroke="#7b7b7b" d="M92.1,-231.89C88.94,-223.27 84.98,-212.44 81.41,-202.69"/><polygon fill="#7b7b7b" stroke="#7b7b7b" points="77.88,-193.05 85.54,-200.89 79.6,-197.74 81.32,-202.44 81.32,-202.44 81.32,-202.44 79.6,-197.74 77.09,-203.98 77.88,-193.05 77.88,-193.05"/></g><g id="node7" class="node"><ellipse fill="#ffffff" stroke="#7b7b7b" cx="126" cy="-176" rx="18" ry="18"/><text text-anchor="middle" x="126" y="-172.3" font-family="Times New Roman,serif" font-size="14.00" fill="#000000">3</text></g><g id="edge1" class="edge"><path fill="none" stroke="#7b7b7b" d="M104.35,-231.89C107.79,-223.17 112.11,-212.21 115.99,-202.38"/><polygon fill="#7b7b7b" stroke="#7b7b7b" points="119.67,-193.05 120.19,-204 117.84,-197.7 116,-202.35 116,-202.35 116,-202.35 117.84,-197.7 111.82,-200.7 119.67,-193.05 119.67,-193.05"/></g><g id="node3" class="node"><ellipse fill="#c0c0c0" stroke="#7b7b7b" cx="18" cy="-103" rx="18" ry="18"/><text text-anchor="middle" x="18" y="-99.3" font-family="Times New Roman,serif" font-size="14.00" fill="#000000">4</text></g><g id="edge4" class="edge"><path fill="none" stroke="#7b7b7b" d="M61.59,-161.31C54.07,-151.42 43.74,-137.84 35.03,-126.39"/><polygon fill="#7b7b7b" stroke="#7b7b7b" points="28.75,-118.13 38.38,-123.37 31.78,-122.11 34.8,-126.09 34.8,-126.09 34.8,-126.09 31.78,-122.11 31.22,-128.82 28.75,-118.13 28.75,-118.13"/></g><g id="node5" class="node"><ellipse fill="#c0c0c0" stroke="#7b7b7b" cx="72" cy="-103" rx="18" ry="18"/><text text-anchor="middle" x="72" y="-99.3" font-family="Times New Roman,serif" font-size="14.00" fill="#000000">5</text></g><g id="edge3" class="edge"><path fill="none" stroke="#7b7b7b" d="M72,-157.81C72,-149.79 72,-140.05 72,-131.07"/><polygon fill="#7b7b7b" stroke="#7b7b7b" points="72,-121.03 76.5,-131.03 72,-126.03 72,-131.03 72,-131.03 72,-131.03 72,-126.03 67.5,-131.03 72,-121.03 72,-121.03"/></g><g id="node4" class="node"><ellipse fill="#c0c0c0" stroke="#7b7b7b" cx="18" cy="-18" rx="18" ry="18"/><text text-anchor="middle" x="18" y="-14.3" font-family="Times New Roman,serif" font-size="14.00" fill="#000000">8</text></g><g id="edge5" class="edge"><path fill="none" stroke="#7b7b7b" d="M18,-84.8C18,-73.67 18,-58.94 18,-46.24"/><polygon fill="#7b7b7b" stroke="#7b7b7b" points="18,-36.18 22.5,-46.18 18,-41.18 18,-46.18 18,-46.18 18,-46.18 18,-41.18 13.5,-46.18 18,-36.18 18,-36.18"/><text text-anchor="middle" x="22" y="-57.4" font-family="Times New Roman,serif" font-size="12.00" fill="#c0c0c0">R</text></g><g id="node6" class="node"><ellipse fill="#c0c0c0" stroke="#7b7b7b" cx="72" cy="-18" rx="18" ry="18"/><text text-anchor="middle" x="72" y="-14.3" font-family="Times New Roman,serif" font-size="14.00" fill="#000000">9</text></g><g id="edge6" class="edge"><path fill="none" stroke="#7b7b7b" d="M72,-84.8C72,-73.67 72,-58.94 72,-46.24"/><polygon fill="#7b7b7b" stroke="#7b7b7b" points="72,-36.18 76.5,-46.18 72,-41.18 72,-46.18 72,-46.18 72,-46.18 72,-41.18 67.5,-46.18 72,-36.18 72,-36.18"/><text text-anchor="middle" x="75.5" y="-57.4" font-family="Times New Roman,serif" font-size="12.00" fill="#c0c0c0">L</text></g><g id="node8" class="node"><ellipse fill="#ffffff" stroke="#7b7b7b" cx="126" cy="-103" rx="18" ry="18"/><text text-anchor="middle" x="126" y="-99.3" font-family="Times New Roman,serif" font-size="14.00" fill="#000000">6</text></g><g id="edge8" class="edge"><path fill="none" stroke="#7b7b7b" d="M126,-157.81C126,-149.79 126,-140.05 126,-131.07"/><polygon fill="#7b7b7b" stroke="#7b7b7b" points="126,-121.03 130.5,-131.03 126,-126.03 126,-131.03 126,-131.03 126,-131.03 126,-126.03 121.5,-131.03 126,-121.03 126,-121.03"/></g><g id="node9" class="node"><ellipse fill="#ffffff" stroke="#7b7b7b" cx="180" cy="-103" rx="18" ry="18"/><text text-anchor="middle" x="180" y="-99.3" font-family="Times New Roman,serif" font-size="14.00" fill="#000000">7</text></g><g id="edge7" class="edge"><path fill="none" stroke="#7b7b7b" d="M136.41,-161.31C143.93,-151.42 154.26,-137.84 162.97,-126.39"/><polygon fill="#7b7b7b" stroke="#7b7b7b" points="169.25,-118.13 166.78,-128.82 166.22,-122.11 163.2,-126.09 163.2,-126.09 163.2,-126.09 166.22,-122.11 159.62,-123.37 169.25,-118.13 169.25,-118.13"/></g><g id="node10" class="node"><ellipse fill="#ffffff" stroke="#7b7b7b" cx="153" cy="-18" rx="18" ry="18"/><text text-anchor="middle" x="153" y="-14.3" font-family="Times New Roman,serif" font-size="14.00" fill="#000000">10</text></g><g id="edge10" class="edge"><path fill="none" stroke="#7b7b7b" d="M174.67,-85.6C170.89,-74.01 165.76,-58.22 161.44,-44.93"/><polygon fill="#7b7b7b" stroke="#7b7b7b" points="158.32,-35.36 165.7,-43.48 159.87,-40.12 161.42,-44.87 161.42,-44.87 161.42,-44.87 159.87,-40.12 157.14,-46.27 158.32,-35.36 158.32,-35.36"/></g><g id="node11" class="node"><ellipse fill="#ffffff" stroke="#7b7b7b" cx="207" cy="-18" rx="18" ry="18"/><text text-anchor="middle" x="207" y="-14.3" font-family="Times New Roman,serif" font-size="14.00" fill="#000000">11</text></g><g id="edge9" class="edge"><path fill="none" stroke="#7b7b7b" d="M185.33,-85.6C189.11,-74.01 194.24,-58.22 198.56,-44.93"/><polygon fill="#7b7b7b" stroke="#7b7b7b" points="201.68,-35.36 202.86,-46.27 200.13,-40.12 198.58,-44.87 198.58,-44.87 198.58,-44.87 200.13,-40.12 194.3,-43.48 201.68,-35.36 201.68,-35.36"/></g></g><g id="graph1" class="graph" transform="scale(1 1) rotate(0) translate(4 271)"/><animate attributeName="opacity" id="0S10" from="0" to="1" begin="0s;0E11.end+0s" dur="0.01s" fill="freeze"/><animate attributeName="opacity" id="0E10" begin="0S10.begin+2.5s" from="1" to="0" dur="0.01s" fill="freeze"/></g><g class="frame" style="opacity:0" transform="translate(5,5.0)"><g id="graph0" class="graph" transform="scale(1 1) rotate(0) translate(4 271)"><polygon fill="transparent" stroke="transparent" points="-4,4 -4,-271 229,-271 229,4 -4,4"/><g id="node1" class="node"><ellipse fill="#c0c0c0" stroke="#7b7b7b" cx="98" cy="-249" rx="18" ry="18"/><text text-anchor="middle" x="98" y="-245.3" font-family="Times New Roman,serif" font-size="14.00" fill="#000000">1</text></g><g id="node2" class="node"><ellipse fill="#c0c0c0" stroke="#7b7b7b" cx="72" cy="-176" rx="18" ry="18"/><text text-anchor="middle" x="72" y="-172.3" font-family="Times New Roman,serif" font-size="14.00" fill="#000000">2</text></g><g id="edge2" class="edge"><path fill="none" stroke="#7b7b7b" d="M92.1,-231.89C88.94,-223.27 84.98,-212.44 81.41,-202.69"/><polygon fill="#7b7b7b" stroke="#7b7b7b" points="77.88,-193.05 85.54,-200.89 79.6,-197.74 81.32,-202.44 81.32,-202.44 81.32,-202.44 79.6,-197.74 77.09,-203.98 77.88,-193.05 77.88,-193.05"/></g><g id="node7" class="node"><ellipse fill="#ffffff" stroke="#7b7b7b" cx="126" cy="-176" rx="18" ry="18"/><text text-anchor="middle" x="126" y="-172.3" font-family="Times New Roman,serif" font-size="14.00" fill="#000000">3</text></g><g id="edge1" class="edge"><path fill="none" stroke="#7b7b7b" d="M104.35,-231.89C107.79,-223.17 112.11,-212.21 115.99,-202.38"/><polygon fill="#7b7b7b" stroke="#7b7b7b" points="119.67,-193.05 120.19,-204 117.84,-197.7 116,-202.35 116,-202.35 116,-202.35 117.84,-197.7 111.82,-200.7 119.67,-193.05 119.67,-193.05"/></g><g id="node3" class="node"><ellipse fill="#c0c0c0" stroke="#7b7b7b" cx="18" cy="-103" rx="18" ry="18"/><text text-anchor="middle" x="18" y="-99.3" font-family="Times New Roman,serif" font-size="14.00" fill="#000000">4</text><animateMotion path="m0,0 l54.00,0.00" begin="0S11.end+0.40s" dur="0.96s" fill="freeze"/><animateMotion path="m0,0 l0,0" begin="0E11.end" dur="0.01s" fill="freeze"/></g><g id="edge4" class="edge" style="opacity:1"><path fill="none" stroke="#7b7b7b" d="M61.59,-161.31C54.07,-151.42 43.74,-137.84 35.03,-126.39"/><polygon fill="#7b7b7b" stroke="#7b7b7b" points="28.75,-118.13 38.38,-123.37 31.78,-122.11 34.8,-126.09 34.8,-126.09 34.8,-126.09 31.78,-122.11 31.22,-128.82 28.75,-118.13 28.75,-118.13"/><animate attributeName="opacity" from="1" to="0" begin="0S11.end+0.00s" dur="0.40s" fill="freeze"/><animate attributeName="opacity" from="0" to="1" begin="0E11.end" dur="0.01s" fill="freeze"/></g><g id="node5" class="node"><ellipse fill="#c0c0c0" stroke="#7b7b7b" cx="72" cy="-103" rx="18" ry="18"/><text text-anchor="middle" x="72" y="-99.3" font-family="Times New Roman,serif" font-size="14.00" fill="#000000">5</text><animateMotion path="m0,0 l-54.00,0.00" begin="0S11.end+0.40s" dur="0.96s" fill="freeze"/><animateMotion path="m0,0 l0,0" begin="0E11.end" dur="0.01s" fill="freeze"/></g><g id="edge3" class="edge" style="opacity:1"><path fill="none" stroke="#7b7b7b" d="M72,-157.81C72,-149.79 72,-140.05 72,-131.07"/><polygon fill="#7b7b7b" stroke="#7b7b7b" points="72,-121.03 76.5,-131.03 72,-126.03 72,-131.03 72,-131.03 72,-131.03 72,-126.03 67.5,-131.03 72,-121.03 72,-121.03"/><animate attributeName="opacity" from="1" to="0" begin="0S11.end+0.00s" dur="0.40s" fill="freeze"/><animate attributeName="opacity" from="0" to="1" begin="0E11.end" dur="0.01s" fill="freeze"/></g><g id="node4" class="node"><ellipse fill="#c0c0c0" stroke="#7b7b7b" cx="18" cy="-18" rx="18" ry="18"/><text text-anchor="middle" x="18" y="-14.3" font-family="Times New Roman,serif" font-size="14.00" fill="#000000">8</text><animateMotion path="m0,0 l54.00,0.00" begin="0S11.end+0.40s" dur="0.96s" fill="freeze"/><animateMotion path="m0,0 l0,0" begin="0E11.end" dur="0.01s" fill="freeze"/></g><g id="edge5" class="edge" style="opacity:1"><path fill="none" stroke="#7b7b7b" d="M18,-84.8C18,-73.67 18,-58.94 18,-46.24"/><polygon fill="#7b7b7b" stroke="#7b7b7b" points="18,-36.18 22.5,-46.18 18,-41.18 18,-46.18 18,-46.18 18,-46.18 18,-41.18 13.5,-46.18 18,-36.18 18,-36.18"/><text text-anchor="middle" x="22" y="-57.4" font-family="Times New Roman,serif" font-size="12.00" fill="#c0c0c0">R</text><animate attributeName="opacity" from="1" to="0" begin="0S11.end+0.00s" dur="0.40s" fill="freeze"/><animate attributeName="opacity" from="0" to="1" begin="0E11.end" dur="0.01s" fill="freeze"/></g><g id="node6" class="node"><ellipse fill="#c0c0c0" stroke="#7b7b7b" cx="72" cy="-18" rx="18" ry="18"/><text text-anchor="middle" x="72" y="-14.3" font-family="Times New Roman,serif" font-size="14.00" fill="#000000">9</text><animateMotion path="m0,0 l-54.00,0.00" begin="0S11.end+0.40s" dur="0.96s" fill="freeze"/><animateMotion path="m0,0 l0,0" begin="0E11.end" dur="0.01s" fill="freeze"/></g><g id="edge6" class="edge" style="opacity:1"><path fill="none" stroke="#7b7b7b" d="M72,-84.8C72,-73.67 72,-58.94 72,-46.24"/><polygon fill="#7b7b7b" stroke="#7b7b7b" points="72,-36.18 76.5,-46.18 72,-41.18 72,-46.18 72,-46.18 72,-46.18 72,-41.18 67.5,-46.18 72,-36.18 72,-36.18"/><text text-anchor="middle" x="76" y="-57.4" font-family="Times New Roman,serif" font-size="12.00" fill="#c0c0c0">R</text><animate attributeName="opacity" from="1" to="0" begin="0S11.end+0.00s" dur="0.40s" fill="freeze"/><animate attributeName="opacity" from="0" to="1" begin="0E11.end" dur="0.01s" fill="freeze"/></g><g id="node8" class="node"><ellipse fill="#ffffff" stroke="#7b7b7b" cx="126" cy="-103" rx="18" ry="18"/><text text-anchor="middle" x="126" y="-99.3" font-family="Times New Roman,serif" font-size="14.00" fill="#000000">6</text></g><g id="edge8" class="edge"><path fill="none" stroke="#7b7b7b" d="M126,-157.81C126,-149.79 126,-140.05 126,-131.07"/><polygon fill="#7b7b7b" stroke="#7b7b7b" points="126,-121.03 130.5,-131.03 126,-126.03 126,-131.03 126,-131.03 126,-131.03 126,-126.03 121.5,-131.03 126,-121.03 126,-121.03"/></g><g id="node9" class="node"><ellipse fill="#ffffff" stroke="#7b7b7b" cx="180" cy="-103" rx="18" ry="18"/><text text-anchor="middle" x="180" y="-99.3" font-family="Times New Roman,serif" font-size="14.00" fill="#000000">7</text></g><g id="edge7" class="edge"><path fill="none" stroke="#7b7b7b" d="M136.41,-161.31C143.93,-151.42 154.26,-137.84 162.97,-126.39"/><polygon fill="#7b7b7b" stroke="#7b7b7b" points="169.25,-118.13 166.78,-128.82 166.22,-122.11 163.2,-126.09 163.2,-126.09 163.2,-126.09 166.22,-122.11 159.62,-123.37 169.25,-118.13 169.25,-118.13"/></g><g id="node10" class="node"><ellipse fill="#ffffff" stroke="#7b7b7b" cx="153" cy="-18" rx="18" ry="18"/><text text-anchor="middle" x="153" y="-14.3" font-family="Times New Roman,serif" font-size="14.00" fill="#000000">10</text></g><g id="edge10" class="edge"><path fill="none" stroke="#7b7b7b" d="M174.67,-85.6C170.89,-74.01 165.76,-58.22 161.44,-44.93"/><polygon fill="#7b7b7b" stroke="#7b7b7b" points="158.32,-35.36 165.7,-43.48 159.87,-40.12 161.42,-44.87 161.42,-44.87 161.42,-44.87 159.87,-40.12 157.14,-46.27 158.32,-35.36 158.32,-35.36"/></g><g id="node11" class="node"><ellipse fill="#ffffff" stroke="#7b7b7b" cx="207" cy="-18" rx="18" ry="18"/><text text-anchor="middle" x="207" y="-14.3" font-family="Times New Roman,serif" font-size="14.00" fill="#000000">11</text></g><g id="edge9" class="edge"><path fill="none" stroke="#7b7b7b" d="M185.33,-85.6C189.11,-74.01 194.24,-58.22 198.56,-44.93"/><polygon fill="#7b7b7b" stroke="#7b7b7b" points="201.68,-35.36 202.86,-46.27 200.13,-40.12 198.58,-44.87 198.58,-44.87 198.58,-44.87 200.13,-40.12 194.3,-43.48 201.68,-35.36 201.68,-35.36"/></g></g><g id="graph1" class="graph" transform="scale(1 1) rotate(0) translate(4 271)"><g id="edge3" class="edge" style="opacity:0"><path fill="none" stroke="#7b7b7b" d="M61.59,-161.31C54.07,-151.42 43.74,-137.84 35.03,-126.39"/><polygon fill="#7b7b7b" stroke="#7b7b7b" points="28.75,-118.13 38.38,-123.37 31.78,-122.11 34.8,-126.09 34.8,-126.09 34.8,-126.09 31.78,-122.11 31.22,-128.82 28.75,-118.13 28.75,-118.13"/><animate attributeName="opacity" from="0" to="1" begin="0S11.end+1.36s" dur="0.64s" fill="freeze"/><animate attributeName="opacity" from="1" to="0" begin="0E11.end" dur="0.01s" fill="freeze"/></g><g id="edge4" class="edge" style="opacity:0"><path fill="none" stroke="#7b7b7b" d="M72,-157.81C72,-149.79 72,-140.05 72,-131.07"/><polygon fill="#7b7b7b" stroke="#7b7b7b" points="72,-121.03 76.5,-131.03 72,-126.03 72,-131.03 72,-131.03 72,-131.03 72,-126.03 67.5,-131.03 72,-121.03 72,-121.03"/><animate attributeName="opacity" from="0" to="1" begin="0S11.end+1.36s" dur="0.64s" fill="freeze"/><animate attributeName="opacity" from="1" to="0" begin="0E11.end" dur="0.01s" fill="freeze"/></g><g id="edge6" class="edge" style="opacity:0"><path fill="none" stroke="#7b7b7b" d="M18,-84.8C18,-73.67 18,-58.94 18,-46.24"/><polygon fill="#7b7b7b" stroke="#7b7b7b" points="18,-36.18 22.5,-46.18 18,-41.18 18,-46.18 18,-46.18 18,-46.18 18,-41.18 13.5,-46.18 18,-36.18 18,-36.18"/><text text-anchor="middle" x="22" y="-57.4" font-family="Times New Roman,serif" font-size="12.00" fill="#c0c0c0">R</text><animate attributeName="opacity" from="0" to="1" begin="0S11.end+1.36s" dur="0.64s" fill="freeze"/><animate attributeName="opacity" from="1" to="0" begin="0E11.end" dur="0.01s" fill="freeze"/></g><g id="edge5" class="edge" style="opacity:0"><path fill="none" stroke="#7b7b7b" d="M72,-84.8C72,-73.67 72,-58.94 72,-46.24"/><polygon fill="#7b7b7b" stroke="#7b7b7b" points="72,-36.18 76.5,-46.18 72,-41.18 72,-46.18 72,-46.18 72,-46.18 72,-41.18 67.5,-46.18 72,-36.18 72,-36.18"/><text text-anchor="middle" x="76" y="-57.4" font-family="Times New Roman,serif" font-size="12.00" fill="#c0c0c0">R</text><animate attributeName="opacity" from="0" to="1" begin="0S11.end+1.36s" dur="0.64s" fill="freeze"/><animate attributeName="opacity" from="1" to="0" begin="0E11.end" dur="0.01s" fill="freeze"/></g></g><animate attributeName="opacity" id="0S11" from="0" to="1" begin="0E10.begin" dur="0.01s" fill="freeze"/><animate attributeName="opacity" id="0E11" begin="0S11.begin+2.5s" from="1" to="0" dur="0.01s" fill="freeze"/></g><g><animate attributeName="opacity" begin="1S12.begin" from="1" to="0" dur="0.01s" fill="freeze"/><animate attributeName="opacity" from="0" to="1" begin="1E12.end" dur="0.01s" fill="freeze"/></g></a></svg>