<?xml version="1.0" ?><svg xmlns="http://www.w3.org/2000/svg" xmlns:xlink="http://www.w3.org/1999/xlink" width="471pt" height="321pt" viewBox="0.00 0.00 471.00 321.00"><style>.txt { alignment-baseline:middle; text-anchor:middle; font-family:Times,serif; }</style><a xlink:href="https://zjl9959.github.io/algviz/"><g class="frame" style="opacity:0" transform="translate(162,23.0)"><g id="0"><rect x="3.00" y="136.00" width="40.00" height="52.00" rx="4.00" ry="4.00" fill="#ffffff" stroke="#7b7b7b"/><text class="txt" x="23.00" y="162.00" font-size="16.00" fill="#000000">-2</text></g><g id="1"><rect x="46.00" y="58.00" width="40.00" height="78.00" rx="4.00" ry="4.00" fill="#ffffff" stroke="#7b7b7b"/><text class="txt" x="66.00" y="97.00" font-size="16.00" fill="#000000">3</text></g><g id="2"><rect x="89.00" y="6.00" width="40.00" height="130.00" rx="4.00" ry="4.00" fill="#ffffff" stroke="#7b7b7b"/><text class="txt" x="109.00" y="71.00" font-size="16.00" fill="#000000">5</text></g><g id="3"><rect x="132.00" y="136.00" width="40.00" height="26.00" rx="2.60" ry="2.60" fill="#ffffff" stroke="#7b7b7b"/><text class="txt" x="152.00" y="149.00" font-size="16.00" fill="#000000">-1</text></g><g id="4"><rect x="175.00" y="110.00" width="40.00" height="26.00" rx="2.60" ry="2.60" fill="#ffffff" stroke="#7b7b7b"/><text class="txt" x="195.00" y="123.00" font-size="16.00" fill="#000000">1</text></g><g id="5"><rect x="218.00" y="58.00" width="40.00" height="78.00" rx="4.00" ry="4.00" fill="#ffffff" stroke="#7b7b7b"/><text class="txt" x="238.00" y="97.00" font-size="16.00" fill="#000000">3</text></g><g id="6"><rect x="261.00" y="32.00" width="40.00" height="104.00" rx="4.00" ry="4.00" fill="#ffffff" stroke="#7b7b7b"/><text class="txt" x="281.00" y="84.00" font-size="16.00" fill="#000000">4</text></g><g id="7"><text x="20.00" y="200.00" font-size="12.00" font-family="Times,serif" fill="#7b7b7b">0</text></g><g id="8"><text x="63.00" y="200.00" font-size="12.00" font-family="Times,serif" fill="#7b7b7b">1</text></g><g id="9"><text x="106.00" y="200.00" font-size="12.00" font-family="Times,serif" fill="#7b7b7b">2</text></g><g id="10"><text x="149.00" y="200.00" font-size="12.00" font-family="Times,serif" fill="#7b7b7b">3</text></g><g id="11"><text x="192.00" y="200.00" font-size="12.00" font-family="Times,serif" fill="#7b7b7b">4</text></g><g id="12"><text x="235.00" y="200.00" font-size="12.00" font-family="Times,serif" fill="#7b7b7b">5</text></g><g id="13"><text x="278.00" y="200.00" font-size="12.00" font-family="Times,serif" fill="#7b7b7b">6</text></g><animate attributeName="opacity" id="0S57" from="0" to="1" begin="0s;0E60.end+0s" dur="0.01s" fill="freeze"/><animate attributeName="opacity" id="0E57" begin="0S57.begin+1.5s" from="1" to="0" dur="0.01s" fill="freeze"/></g><g class="frame" style="opacity:0" transform="translate(162,23.0)"><g id="0"><rect x="3.00" y="136.00" width="40.00" height="52.00" rx="4.00" ry="4.00" fill="#ffffff" stroke="#7b7b7b"/><text class="txt" x="23.00" y="162.00" font-size="16.00" fill="#000000">-2</text></g><g id="1"><rect x="46.00" y="58.00" width="40.00" height="78.00" rx="4.00" ry="4.00" fill="#ffffff" stroke="#7b7b7b"/><text class="txt" x="66.00" y="97.00" font-size="16.00" fill="#000000">3</text></g><g id="2"><rect x="89.00" y="6.00" width="40.00" height="130.00" rx="4.00" ry="4.00" fill="#006400" stroke="#7b7b7b"/><text class="txt" x="109.00" y="71.00" font-size="16.00" fill="#FFFFFF">5</text></g><g id="3"><rect x="132.00" y="136.00" width="40.00" height="26.00" rx="2.60" ry="2.60" fill="#ffffff" stroke="#7b7b7b"/><text class="txt" x="152.00" y="149.00" font-size="16.00" fill="#000000">-1</text></g><g id="4"><rect x="175.00" y="110.00" width="40.00" height="26.00" rx="2.60" ry="2.60" fill="#ffffff" stroke="#7b7b7b"/><text class="txt" x="195.00" y="123.00" font-size="16.00" fill="#000000">1</text></g><g id="5"><rect x="218.00" y="58.00" width="40.00" height="78.00" rx="4.00" ry="4.00" fill="#ffd700" stroke="#7b7b7b"/><text class="txt" x="238.00" y="97.00" font-size="16.00" fill="#000000">3</text></g><g id="6"><rect x="261.00" y="32.00" width="40.00" height="104.00" rx="4.00" ry="4.00" fill="#ffffff" stroke="#7b7b7b"/><text class="txt" x="281.00" y="84.00" font-size="16.00" fill="#000000">4</text></g><g id="7"><text x="20.00" y="200.00" font-size="12.00" font-family="Times,serif" fill="#7b7b7b">0</text></g><g id="8"><text x="63.00" y="200.00" font-size="12.00" font-family="Times,serif" fill="#7b7b7b">1</text></g><g id="9"><text x="106.00" y="200.00" font-size="12.00" font-family="Times,serif" fill="#7b7b7b">2</text></g><g id="10"><text x="149.00" y="200.00" font-size="12.00" font-family="Times,serif" fill="#7b7b7b">3</text></g><g id="11"><text x="192.00" y="200.00" font-size="12.00" font-family="Times,serif" fill="#7b7b7b">4</text></g><g id="12"><text x="235.00" y="200.00" font-size="12.00" font-family="Times,serif" fill="#7b7b7b">5</text></g><g id="13"><text x="278.00" y="200.00" font-size="12.00" font-family="Times,serif" fill="#7b7b7b">6</text></g><animate attributeName="opacity" id="0S58" from="0" to="1" begin="0E57.begin" dur="0.01s" fill="freeze"/><animate attributeName="opacity" id="0E58" begin="0S58.begin+2.5s" from="1" to="0" dur="0.01s" fill="freeze"/></g><g class="frame" style="opacity:0" transform="translate(162,23.0)"><g id="0"><rect x="3.00" y="136.00" width="40.00" height="52.00" rx="4.00" ry="4.00" fill="#ffffff" stroke="#7b7b7b"/><text class="txt" x="23.00" y="162.00" font-size="16.00" fill="#000000">-2</text></g><g id="1"><rect x="46.00" y="58.00" width="40.00" height="78.00" rx="4.00" ry="4.00" fill="#ffffff" stroke="#7b7b7b"/><text class="txt" x="66.00" y="97.00" font-size="16.00" fill="#000000">3</text></g><g id="2"><rect x="89.00" y="6.00" width="40.00" height="130.00" rx="4.00" ry="4.00" fill="#ffffff" stroke="#7b7b7b"/><text class="txt" x="109.00" y="71.00" font-size="16.00" fill="#000000">5</text></g><g id="3"><rect x="132.00" y="136.00" width="40.00" height="26.00" rx="2.60" ry="2.60" fill="#ffffff" stroke="#7b7b7b"/><text class="txt" x="152.00" y="149.00" font-size="16.00" fill="#000000">-1</text></g><g id="4"><rect x="175.00" y="110.00" width="40.00" height="26.00" rx="2.60" ry="2.60" fill="#ffffff" stroke="#7b7b7b"/><text class="txt" x="195.00" y="123.00" font-size="16.00" fill="#000000">1</text></g><g id="5"><rect x="218.00" y="58.00" width="40.00" height="78.00" rx="4.00" ry="4.00" fill="#ffffff" stroke="#7b7b7b"/><text class="txt" x="238.00" y="97.00" font-size="16.00" fill="#000000">3</text></g><g id="6"><rect x="261.00" y="32.00" width="40.00" height="104.00" rx="4.00" ry="4.00" fill="#ffffff" stroke="#7b7b7b"/><text class="txt" x="281.00" y="84.00" font-size="16.00" fill="#000000">4</text></g><g id="7"><text x="20.00" y="200.00" font-size="12.00" font-family="Times,serif" fill="#7b7b7b">0</text></g><g id="8"><text x="63.00" y="200.00" font-size="12.00" font-family="Times,serif" fill="#7b7b7b">1</text></g><g id="9"><text x="106.00" y="200.00" font-size="12.00" font-family="Times,serif" fill="#7b7b7b">2</text></g><g id="10"><text x="149.00" y="200.00" font-size="12.00" font-family="Times,serif" fill="#7b7b7b">3</text></g><g id="11"><text x="192.00" y="200.00" font-size="12.00" font-family="Times,serif" fill="#7b7b7b">4</text></g><g id="12"><text x="235.00" y="200.00" font-size="12.00" font-family="Times,serif" fill="#7b7b7b">5</text></g><g id="13"><text x="278.00" y="200.00" font-size="12.00" font-family="Times,serif" fill="#7b7b7b">6</text></g><animate attributeName="opacity" id="0S59" from="0" to="1" begin="0E58.begin" dur="0.01s" fill="freeze"/><animate attributeName="opacity" id="0E59" begin="0S59.begin+1.5s" from="1" to="0" dur="0.01s" fill="freeze"/></g><g class="frame" style="opacity:0" transform="translate(162,23.0)"><g id="0"><rect x="3.00" y="136.00" width="40.00" height="52.00" rx="4.00" ry="4.00" fill="#ffffff" stroke="#7b7b7b"/><text class="txt" x="23.00" y="162.00" font-size="16.00" fill="#000000">-2</text></g><g id="1"><rect x="46.00" y="58.00" width="40.00" height="78.00" rx="4.00" ry="4.00" fill="#ffffff" stroke="#7b7b7b"/><text class="txt" x="66.00" y="97.00" font-size="16.00" fill="#000000">3</text></g><g id="2"><rect x="89.00" y="6.00" width="40.00" height="130.00" rx="4.00" ry="4.00" fill="#006400" stroke="#7b7b7b"/><text class="txt" x="109.00" y="71.00" font-size="16.00" fill="#FFFFFF">5</text></g><g id="3"><rect x="132.00" y="136.00" width="40.00" height="26.00" rx="2.60" ry="2.60" fill="#ffffff" stroke="#7b7b7b"/><text class="txt" x="152.00" y="149.00" font-size="16.00" fill="#000000">-1</text></g><g id="4"><rect x="175.00" y="110.00" width="40.00" height="26.00" rx="2.60" ry="2.60" fill="#ffffff" stroke="#7b7b7b"/><text class="txt" x="195.00" y="123.00" font-size="16.00" fill="#000000">1</text></g><g id="5"><rect x="218.00" y="58.00" width="40.00" height="78.00" rx="4.00" ry="4.00" fill="#ffffff" stroke="#7b7b7b"/><text class="txt" x="238.00" y="97.00" font-size="16.00" fill="#000000">3</text></g><g id="6"><rect x="261.00" y="32.00" width="40.00" height="104.00" rx="4.00" ry="4.00" fill="#ffd700" stroke="#7b7b7b"/><text class="txt" x="281.00" y="84.00" font-size="16.00" fill="#000000">4</text></g><g id="7"><text x="20.00" y="200.00" font-size="12.00" font-family="Times,serif" fill="#7b7b7b">0</text></g><g id="8"><text x="63.00" y="200.00" font-size="12.00" font-family="Times,serif" fill="#7b7b7b">1</text></g><g id="9"><text x="106.00" y="200.00" font-size="12.00" font-family="Times,serif" fill="#7b7b7b">2</text></g><g id="10"><text x="149.00" y="200.00" font-size="12.00" font-family="Times,serif" fill="#7b7b7b">3</text></g><g id="11"><text x="192.00" y="200.00" font-size="12.00" font-family="Times,serif" fill="#7b7b7b">4</text></g><g id="12"><text x="235.00" y="200.00" font-size="12.00" font-family="Times,serif" fill="#7b7b7b">5</text></g><g id="13"><text x="278.00" y="200.00" font-size="12.00" font-family="Times,serif" fill="#7b7b7b">6</text></g><animate attributeName="opacity" id="0S60" from="0" to="1" begin="0E59.begin" dur="0.01s" fill="freeze"/><animate attributeName="opacity" id="0E60" begin="0S60.begin+2.5s" from="1" to="0" dur="0.01s" fill="freeze"/></g><g class="frame" style="opacity:0" transform="translate(162,249.0)"><g id="13" style="opacity:1"><rect x="3.00" y="6.00" width="40.00" height="40.00" rx="4.00" ry="4.00" fill="#ffffff" stroke="#7b7b7b"/><text class="txt" x="23.00" y="26.00" font-size="16.00" fill="#000000">-2</text></g><g id="14" style="opacity:1"><rect x="46.00" y="6.00" width="40.00" height="40.00" rx="4.00" ry="4.00" fill="#ffffff" stroke="#7b7b7b"/><text class="txt" x="66.00" y="26.00" font-size="16.00" fill="#000000">-1</text></g><g id="15" style="opacity:1"><rect x="89.00" y="6.00" width="40.00" height="40.00" rx="4.00" ry="4.00" fill="#ffffff" stroke="#7b7b7b"/><text class="txt" x="109.00" y="26.00" font-size="16.00" fill="#000000">1</text></g><g id="16" style="opacity:1"><rect x="132.00" y="6.00" width="40.00" height="40.00" rx="4.00" ry="4.00" fill="#ffffff" stroke="#7b7b7b"/><text class="txt" x="152.00" y="26.00" font-size="16.00" fill="#000000">3</text></g><animate attributeName="opacity" id="1S57" from="0" to="1" begin="0s;1E60.end+0s" dur="0.01s" fill="freeze"/><animate attributeName="opacity" id="1E57" begin="1S57.begin+1.5s" from="1" to="0" dur="0.01s" fill="freeze"/></g><g class="frame" style="opacity:0" transform="translate(162,249.0)"><g id="13" style="opacity:1"><rect x="3.00" y="6.00" width="40.00" height="40.00" rx="4.00" ry="4.00" fill="#ffffff" stroke="#7b7b7b"/><text class="txt" x="23.00" y="26.00" font-size="16.00" fill="#000000">-2</text></g><g id="14" style="opacity:1"><rect x="46.00" y="6.00" width="40.00" height="40.00" rx="4.00" ry="4.00" fill="#ffffff" stroke="#7b7b7b"/><text class="txt" x="66.00" y="26.00" font-size="16.00" fill="#000000">-1</text></g><g id="15" style="opacity:1"><rect x="89.00" y="6.00" width="40.00" height="40.00" rx="4.00" ry="4.00" fill="#ffffff" stroke="#7b7b7b"/><text class="txt" x="109.00" y="26.00" font-size="16.00" fill="#000000">1</text></g><g id="16" style="opacity:1"><rect x="132.00" y="6.00" width="40.00" height="40.00" rx="4.00" ry="4.00" fill="#ffffff" stroke="#7b7b7b"/><text class="txt" x="152.00" y="26.00" font-size="16.00" fill="#000000">3</text></g><g id="17" style="opacity:0"><rect x="175.00" y="6.00" width="40.00" height="40.00" rx="4.00" ry="4.00" fill="#ffd700" stroke="#7b7b7b"/><text class="txt" x="195.00" y="26.00" font-size="16.00" fill="#000000">3</text><animate attributeName="opacity" from="0" to="1" begin="1S58.end+0.00s" dur="2.00s" fill="freeze"/><animate attributeName="opacity" from="1" to="0" begin="1E58.end" dur="0.01s" fill="freeze"/></g><animate attributeName="opacity" id="1S58" from="0" to="1" begin="1E57.begin" dur="0.01s" fill="freeze"/><animate attributeName="opacity" id="1E58" begin="1S58.begin+2.5s" from="1" to="0" dur="0.01s" fill="freeze"/></g><g class="frame" style="opacity:0" transform="translate(162,249.0)"><g id="13" style="opacity:1"><rect x="3.00" y="6.00" width="40.00" height="40.00" rx="4.00" ry="4.00" fill="#ffffff" stroke="#7b7b7b"/><text class="txt" x="23.00" y="26.00" font-size="16.00" fill="#000000">-2</text></g><g id="14" style="opacity:1"><rect x="46.00" y="6.00" width="40.00" height="40.00" rx="4.00" ry="4.00" fill="#ffffff" stroke="#7b7b7b"/><text class="txt" x="66.00" y="26.00" font-size="16.00" fill="#000000">-1</text></g><g id="15" style="opacity:1"><rect x="89.00" y="6.00" width="40.00" height="40.00" rx="4.00" ry="4.00" fill="#ffffff" stroke="#7b7b7b"/><text class="txt" x="109.00" y="26.00" font-size="16.00" fill="#000000">1</text></g><g id="16" style="opacity:1"><rect x="132.00" y="6.00" width="40.00" height="40.00" rx="4.00" ry="4.00" fill="#ffffff" stroke="#7b7b7b"/><text class="txt" x="152.00" y="26.00" font-size="16.00" fill="#000000">3</text></g><g id="17" style="opacity:1"><rect x="175.00" y="6.00" width="40.00" height="40.00" rx="4.00" ry="4.00" fill="#ffffff" stroke="#7b7b7b"/><text class="txt" x="195.00" y="26.00" font-size="16.00" fill="#000000">3</text></g><animate attributeName="opacity" id="1S59" from="0" to="1" begin="1E58.begin" dur="0.01s" fill="freeze"/><animate attributeName="opacity" id="1E59" begin="1S59.begin+1.5s" from="1" to="0" dur="0.01s" fill="freeze"/></g><g class="frame" style="opacity:0" transform="translate(162,249.0)"><g id="13" style="opacity:1"><rect x="3.00" y="6.00" width="40.00" height="40.00" rx="4.00" ry="4.00" fill="#ffffff" stroke="#7b7b7b"/><text class="txt" x="23.00" y="26.00" font-size="16.00" fill="#000000">-2</text></g><g id="14" style="opacity:1"><rect x="46.00" y="6.00" width="40.00" height="40.00" rx="4.00" ry="4.00" fill="#ffffff" stroke="#7b7b7b"/><text class="txt" x="66.00" y="26.00" font-size="16.00" fill="#000000">-1</text></g><g id="15" style="opacity:1"><rect x="89.00" y="6.00" width="40.00" height="40.00" rx="4.00" ry="4.00" fill="#ffffff" stroke="#7b7b7b"/><text class="txt" x="109.00" y="26.00" font-size="16.00" fill="#000000">1</text></g><g id="16" style="opacity:1"><rect x="132.00" y="6.00" width="40.00" height="40.00" rx="4.00" ry="4.00" fill="#ffffff" stroke="#7b7b7b"/><text class="txt" x="152.00" y="26.00" font-size="16.00" fill="#000000">3</text></g><g id="17" style="opacity:1"><rect x="175.00" y="6.00" width="40.00" height="40.00" rx="4.00" ry="4.00" fill="#ffffff" stroke="#7b7b7b"/><text class="txt" x="195.00" y="26.00" font-size="16.00" fill="#000000">3</text></g><g id="18" style="opacity:0"><rect x="218.00" y="6.00" width="40.00" height="40.00" rx="4.00" ry="4.00" fill="#ffd700" stroke="#7b7b7b"/><text class="txt" x="238.00" y="26.00" font-size="16.00" fill="#000000">4</text><animate attributeName="opacity" from="0" to="1" begin="1S60.end+0.00s" dur="2.00s" fill="freeze"/><animate attributeName="opacity" from="1" to="0" begin="1E60.end" dur="0.01s" fill="freeze"/></g><animate attributeName="opacity" id="1S60" from="0" to="1" begin="1E59.begin" dur="0.01s" fill="freeze"/><animate attributeName="opacity" id="1E60" begin="1S60.begin+2.5s" from="1" to="0" dur="0.01s" fill="freeze"/></g><g class="frame" style="opacity:0" transform="translate(5,23.0)"><g id="graph0" class="graph" transform="scale(1 1) rotate(0) translate(4 256)"><polygon fill="transparent" stroke="transparent" points="-4,4 -4,-256 148,-256 148,4 -4,4"/><g id="node1" class="node"><ellipse fill="#ffffff" stroke="#7b7b7b" cx="45" cy="-234" rx="18" ry="18"/><text text-anchor="middle" x="45" y="-230.76" font-family="Times New Roman,serif" font-size="12.80" fill="#000000">root</text></g><g id="node2" class="node"><ellipse fill="#ff6347" stroke="#7b7b7b" cx="45" cy="-162" rx="18" ry="18"/><text text-anchor="middle" x="45" y="-158.3" font-family="Times New Roman,serif" font-size="14.00" fill="#000000">0:7</text></g><g id="edge1" class="edge"><path fill="none" stroke="#7b7b7b" d="M45,-215.7C45,-207.98 45,-198.71 45,-190.11"/><polygon fill="#7b7b7b" stroke="#7b7b7b" points="45,-180.1 49.5,-190.1 45,-185.1 45,-190.1 45,-190.1 45,-190.1 45,-185.1 40.5,-190.1 45,-180.1 45,-180.1"/></g><g id="node3" class="node"><ellipse fill="#c0c0c0" stroke="#7b7b7b" cx="18" cy="-90" rx="18" ry="18"/><text text-anchor="middle" x="18" y="-86.3" font-family="Times New Roman,serif" font-size="14.00" fill="#000000">0:3</text></g><g id="edge3" class="edge"><path fill="none" stroke="#7b7b7b" d="M38.74,-144.76C35.5,-136.37 31.47,-125.93 27.83,-116.5"/><polygon fill="#7b7b7b" stroke="#7b7b7b" points="24.23,-107.15 32.03,-114.86 26.03,-111.81 27.83,-116.48 27.83,-116.48 27.83,-116.48 26.03,-111.81 23.63,-118.1 24.23,-107.15 24.23,-107.15"/></g><g id="node5" class="node"><ellipse fill="#c0c0c0" stroke="#7b7b7b" cx="72" cy="-90" rx="18" ry="18"/><text text-anchor="middle" x="72" y="-86.3" font-family="Times New Roman,serif" font-size="14.00" fill="#000000">3:7</text></g><g id="edge2" class="edge"><path fill="none" stroke="#7b7b7b" d="M51.26,-144.76C54.5,-136.37 58.53,-125.93 62.17,-116.5"/><polygon fill="#7b7b7b" stroke="#7b7b7b" points="65.77,-107.15 66.37,-118.1 63.97,-111.81 62.17,-116.48 62.17,-116.48 62.17,-116.48 63.97,-111.81 57.97,-114.86 65.77,-107.15 65.77,-107.15"/></g><g id="node4" class="node"><ellipse fill="#c0c0c0" stroke="#7b7b7b" cx="18" cy="-18" rx="18" ry="18"/><text text-anchor="middle" x="18" y="-14.3" font-family="Times New Roman,serif" font-size="14.00" fill="#000000">1:3</text></g><g id="edge4" class="edge"><path fill="none" stroke="#7b7b7b" d="M18,-71.7C18,-63.98 18,-54.71 18,-46.11"/><polygon fill="#7b7b7b" stroke="#7b7b7b" points="18,-36.1 22.5,-46.1 18,-41.1 18,-46.1 18,-46.1 18,-46.1 18,-41.1 13.5,-46.1 18,-36.1 18,-36.1"/></g><g id="node6" class="node"><ellipse fill="#c0c0c0" stroke="#7b7b7b" cx="72" cy="-18" rx="18" ry="18"/><text text-anchor="middle" x="72" y="-14.3" font-family="Times New Roman,serif" font-size="14.00" fill="#000000">5:7</text></g><g id="edge6" class="edge"><path fill="none" stroke="#7b7b7b" d="M72,-71.7C72,-63.98 72,-54.71 72,-46.11"/><polygon fill="#7b7b7b" stroke="#7b7b7b" points="72,-36.1 76.5,-46.1 72,-41.1 72,-46.1 72,-46.1 72,-46.1 72,-41.1 67.5,-46.1 72,-36.1 72,-36.1"/></g><g id="node7" class="node"><ellipse fill="#c0c0c0" stroke="#7b7b7b" cx="126" cy="-18" rx="18" ry="18"/><text text-anchor="middle" x="126" y="-14.3" font-family="Times New Roman,serif" font-size="14.00" fill="#000000">3:5</text></g><g id="edge5" class="edge"><path fill="none" stroke="#7b7b7b" d="M82.67,-75.17C90.21,-65.39 100.48,-52.08 109.13,-40.87"/><polygon fill="#7b7b7b" stroke="#7b7b7b" points="115.35,-32.8 112.81,-43.47 112.3,-36.76 109.25,-40.72 109.25,-40.72 109.25,-40.72 112.3,-36.76 105.68,-37.97 115.35,-32.8 115.35,-32.8"/></g></g><g id="graph1" class="graph" transform="scale(1 1) rotate(0) translate(4 256)"/><animate attributeName="opacity" id="2S57" from="0" to="1" begin="0s;2E60.end+0s" dur="0.01s" fill="freeze"/><animate attributeName="opacity" id="2E57" begin="2S57.begin+1.5s" from="1" to="0" dur="0.01s" fill="freeze"/></g><g class="frame" style="opacity:0" transform="translate(5,23.0)"><g id="graph0" class="graph" transform="scale(1 1) rotate(0) translate(4 256)"><polygon fill="transparent" stroke="transparent" points="-4,4 -4,-256 148,-256 148,4 -4,4"/><g id="node1" class="node"><ellipse fill="#ffffff" stroke="#7b7b7b" cx="45" cy="-234" rx="18" ry="18"/><text text-anchor="middle" x="45" y="-230.76" font-family="Times New Roman,serif" font-size="12.80" fill="#000000">root</text></g><g id="node2" class="node"><ellipse fill="#ff6347" stroke="#7b7b7b" cx="45" cy="-162" rx="18" ry="18"/><text text-anchor="middle" x="45" y="-158.3" font-family="Times New Roman,serif" font-size="14.00" fill="#000000">0:7</text></g><g id="edge1" class="edge"><path fill="none" stroke="#7b7b7b" d="M45,-215.7C45,-207.98 45,-198.71 45,-190.11"/><polygon fill="#7b7b7b" stroke="#7b7b7b" points="45,-180.1 49.5,-190.1 45,-185.1 45,-190.1 45,-190.1 45,-190.1 45,-185.1 40.5,-190.1 45,-180.1 45,-180.1"/></g><g id="node3" class="node"><ellipse fill="#c0c0c0" stroke="#7b7b7b" cx="18" cy="-90" rx="18" ry="18"/><text text-anchor="middle" x="18" y="-86.3" font-family="Times New Roman,serif" font-size="14.00" fill="#000000">0:3</text></g><g id="edge3" class="edge"><path fill="none" stroke="#7b7b7b" d="M38.74,-144.76C35.5,-136.37 31.47,-125.93 27.83,-116.5"/><polygon fill="#7b7b7b" stroke="#7b7b7b" points="24.23,-107.15 32.03,-114.86 26.03,-111.81 27.83,-116.48 27.83,-116.48 27.83,-116.48 26.03,-111.81 23.63,-118.1 24.23,-107.15 24.23,-107.15"/></g><g id="node5" class="node"><ellipse fill="#c0c0c0" stroke="#7b7b7b" cx="72" cy="-90" rx="18" ry="18"/><text text-anchor="middle" x="72" y="-86.3" font-family="Times New Roman,serif" font-size="14.00" fill="#000000">3:7</text></g><g id="edge2" class="edge"><path fill="none" stroke="#7b7b7b" d="M51.26,-144.76C54.5,-136.37 58.53,-125.93 62.17,-116.5"/><polygon fill="#7b7b7b" stroke="#7b7b7b" points="65.77,-107.15 66.37,-118.1 63.97,-111.81 62.17,-116.48 62.17,-116.48 62.17,-116.48 63.97,-111.81 57.97,-114.86 65.77,-107.15 65.77,-107.15"/></g><g id="node4" class="node"><ellipse fill="#c0c0c0" stroke="#7b7b7b" cx="18" cy="-18" rx="18" ry="18"/><text text-anchor="middle" x="18" y="-14.3" font-family="Times New Roman,serif" font-size="14.00" fill="#000000">1:3</text></g><g id="edge4" class="edge"><path fill="none" stroke="#7b7b7b" d="M18,-71.7C18,-63.98 18,-54.71 18,-46.11"/><polygon fill="#7b7b7b" stroke="#7b7b7b" points="18,-36.1 22.5,-46.1 18,-41.1 18,-46.1 18,-46.1 18,-46.1 18,-41.1 13.5,-46.1 18,-36.1 18,-36.1"/></g><g id="node6" class="node"><ellipse fill="#c0c0c0" stroke="#7b7b7b" cx="72" cy="-18" rx="18" ry="18"/><text text-anchor="middle" x="72" y="-14.3" font-family="Times New Roman,serif" font-size="14.00" fill="#000000">5:7</text></g><g id="edge6" class="edge"><path fill="none" stroke="#7b7b7b" d="M72,-71.7C72,-63.98 72,-54.71 72,-46.11"/><polygon fill="#7b7b7b" stroke="#7b7b7b" points="72,-36.1 76.5,-46.1 72,-41.1 72,-46.1 72,-46.1 72,-46.1 72,-41.1 67.5,-46.1 72,-36.1 72,-36.1"/></g><g id="node7" class="node"><ellipse fill="#c0c0c0" stroke="#7b7b7b" cx="126" cy="-18" rx="18" ry="18"/><text text-anchor="middle" x="126" y="-14.3" font-family="Times New Roman,serif" font-size="14.00" fill="#000000">3:5</text></g><g id="edge5" class="edge"><path fill="none" stroke="#7b7b7b" d="M82.67,-75.17C90.21,-65.39 100.48,-52.08 109.13,-40.87"/><polygon fill="#7b7b7b" stroke="#7b7b7b" points="115.35,-32.8 112.81,-43.47 112.3,-36.76 109.25,-40.72 109.25,-40.72 109.25,-40.72 112.3,-36.76 105.68,-37.97 115.35,-32.8 115.35,-32.8"/></g></g><g id="graph1" class="graph" transform="scale(1 1) rotate(0) translate(4 256)"/><animate attributeName="opacity" id="2S58" from="0" to="1" begin="2E57.begin" dur="0.01s" fill="freeze"/><animate attributeName="opacity" id="2E58" begin="2S58.begin+2.5s" from="1" to="0" dur="0.01s" fill="freeze"/></g><g class="frame" style="opacity:0" transform="translate(5,23.0)"><g id="graph0" class="graph" transform="scale(1 1) rotate(0) translate(4 256)"><polygon fill="transparent" stroke="transparent" points="-4,4 -4,-256 148,-256 148,4 -4,4"/><g id="node1" class="node"><ellipse fill="#ffffff" stroke="#7b7b7b" cx="45" cy="-234" rx="18" ry="18"/><text text-anchor="middle" x="45" y="-230.76" font-family="Times New Roman,serif" font-size="12.80" fill="#000000">root</text></g><g id="node2" class="node"><ellipse fill="#ff6347" stroke="#7b7b7b" cx="45" cy="-162" rx="18" ry="18"/><text text-anchor="middle" x="45" y="-158.3" font-family="Times New Roman,serif" font-size="14.00" fill="#000000">0:7</text></g><g id="edge1" class="edge"><path fill="none" stroke="#7b7b7b" d="M45,-215.7C45,-207.98 45,-198.71 45,-190.11"/><polygon fill="#7b7b7b" stroke="#7b7b7b" points="45,-180.1 49.5,-190.1 45,-185.1 45,-190.1 45,-190.1 45,-190.1 45,-185.1 40.5,-190.1 45,-180.1 45,-180.1"/></g><g id="node3" class="node"><ellipse fill="#c0c0c0" stroke="#7b7b7b" cx="18" cy="-90" rx="18" ry="18"/><text text-anchor="middle" x="18" y="-86.3" font-family="Times New Roman,serif" font-size="14.00" fill="#000000">0:3</text></g><g id="edge3" class="edge"><path fill="none" stroke="#7b7b7b" d="M38.74,-144.76C35.5,-136.37 31.47,-125.93 27.83,-116.5"/><polygon fill="#7b7b7b" stroke="#7b7b7b" points="24.23,-107.15 32.03,-114.86 26.03,-111.81 27.83,-116.48 27.83,-116.48 27.83,-116.48 26.03,-111.81 23.63,-118.1 24.23,-107.15 24.23,-107.15"/></g><g id="node5" class="node"><ellipse fill="#c0c0c0" stroke="#7b7b7b" cx="72" cy="-90" rx="18" ry="18"/><text text-anchor="middle" x="72" y="-86.3" font-family="Times New Roman,serif" font-size="14.00" fill="#000000">3:7</text></g><g id="edge2" class="edge"><path fill="none" stroke="#7b7b7b" d="M51.26,-144.76C54.5,-136.37 58.53,-125.93 62.17,-116.5"/><polygon fill="#7b7b7b" stroke="#7b7b7b" points="65.77,-107.15 66.37,-118.1 63.97,-111.81 62.17,-116.48 62.17,-116.48 62.17,-116.48 63.97,-111.81 57.97,-114.86 65.77,-107.15 65.77,-107.15"/></g><g id="node4" class="node"><ellipse fill="#c0c0c0" stroke="#7b7b7b" cx="18" cy="-18" rx="18" ry="18"/><text text-anchor="middle" x="18" y="-14.3" font-family="Times New Roman,serif" font-size="14.00" fill="#000000">1:3</text></g><g id="edge4" class="edge"><path fill="none" stroke="#7b7b7b" d="M18,-71.7C18,-63.98 18,-54.71 18,-46.11"/><polygon fill="#7b7b7b" stroke="#7b7b7b" points="18,-36.1 22.5,-46.1 18,-41.1 18,-46.1 18,-46.1 18,-46.1 18,-41.1 13.5,-46.1 18,-36.1 18,-36.1"/></g><g id="node6" class="node"><ellipse fill="#c0c0c0" stroke="#7b7b7b" cx="72" cy="-18" rx="18" ry="18"/><text text-anchor="middle" x="72" y="-14.3" font-family="Times New Roman,serif" font-size="14.00" fill="#000000">5:7</text></g><g id="edge6" class="edge"><path fill="none" stroke="#7b7b7b" d="M72,-71.7C72,-63.98 72,-54.71 72,-46.11"/><polygon fill="#7b7b7b" stroke="#7b7b7b" points="72,-36.1 76.5,-46.1 72,-41.1 72,-46.1 72,-46.1 72,-46.1 72,-41.1 67.5,-46.1 72,-36.1 72,-36.1"/></g><g id="node7" class="node"><ellipse fill="#c0c0c0" stroke="#7b7b7b" cx="126" cy="-18" rx="18" ry="18"/><text text-anchor="middle" x="126" y="-14.3" font-family="Times New Roman,serif" font-size="14.00" fill="#000000">3:5</text></g><g id="edge5" class="edge"><path fill="none" stroke="#7b7b7b" d="M82.67,-75.17C90.21,-65.39 100.48,-52.08 109.13,-40.87"/><polygon fill="#7b7b7b" stroke="#7b7b7b" points="115.35,-32.8 112.81,-43.47 112.3,-36.76 109.25,-40.72 109.25,-40.72 109.25,-40.72 112.3,-36.76 105.68,-37.97 115.35,-32.8 115.35,-32.8"/></g></g><g id="graph1" class="graph" transform="scale(1 1) rotate(0) translate(4 256)"/><animate attributeName="opacity" id="2S59" from="0" to="1" begin="2E58.begin" dur="0.01s" fill="freeze"/><animate attributeName="opacity" id="2E59" begin="2S59.begin+1.5s" from="1" to="0" dur="0.01s" fill="freeze"/></g><g class="frame" style="opacity:0" transform="translate(5,23.0)"><g id="graph0" class="graph" transform="scale(1 1) rotate(0) translate(4 256)"><polygon fill="transparent" stroke="transparent" points="-4,4 -4,-256 148,-256 148,4 -4,4"/><g id="node1" class="node"><ellipse fill="#ffffff" stroke="#7b7b7b" cx="45" cy="-234" rx="18" ry="18"/><text text-anchor="middle" x="45" y="-230.76" font-family="Times New Roman,serif" font-size="12.80" fill="#000000">root</text></g><g id="node2" class="node"><ellipse fill="#ff6347" stroke="#7b7b7b" cx="45" cy="-162" rx="18" ry="18"/><text text-anchor="middle" x="45" y="-158.3" font-family="Times New Roman,serif" font-size="14.00" fill="#000000">0:7</text></g><g id="edge1" class="edge"><path fill="none" stroke="#7b7b7b" d="M45,-215.7C45,-207.98 45,-198.71 45,-190.11"/><polygon fill="#7b7b7b" stroke="#7b7b7b" points="45,-180.1 49.5,-190.1 45,-185.1 45,-190.1 45,-190.1 45,-190.1 45,-185.1 40.5,-190.1 45,-180.1 45,-180.1"/></g><g id="node3" class="node"><ellipse fill="#c0c0c0" stroke="#7b7b7b" cx="18" cy="-90" rx="18" ry="18"/><text text-anchor="middle" x="18" y="-86.3" font-family="Times New Roman,serif" font-size="14.00" fill="#000000">0:3</text></g><g id="edge3" class="edge"><path fill="none" stroke="#7b7b7b" d="M38.74,-144.76C35.5,-136.37 31.47,-125.93 27.83,-116.5"/><polygon fill="#7b7b7b" stroke="#7b7b7b" points="24.23,-107.15 32.03,-114.86 26.03,-111.81 27.83,-116.48 27.83,-116.48 27.83,-116.48 26.03,-111.81 23.63,-118.1 24.23,-107.15 24.23,-107.15"/></g><g id="node5" class="node"><ellipse fill="#c0c0c0" stroke="#7b7b7b" cx="72" cy="-90" rx="18" ry="18"/><text text-anchor="middle" x="72" y="-86.3" font-family="Times New Roman,serif" font-size="14.00" fill="#000000">3:7</text></g><g id="edge2" class="edge"><path fill="none" stroke="#7b7b7b" d="M51.26,-144.76C54.5,-136.37 58.53,-125.93 62.17,-116.5"/><polygon fill="#7b7b7b" stroke="#7b7b7b" points="65.77,-107.15 66.37,-118.1 63.97,-111.81 62.17,-116.48 62.17,-116.48 62.17,-116.48 63.97,-111.81 57.97,-114.86 65.77,-107.15 65.77,-107.15"/></g><g id="node4" class="node"><ellipse fill="#c0c0c0" stroke="#7b7b7b" cx="18" cy="-18" rx="18" ry="18"/><text text-anchor="middle" x="18" y="-14.3" font-family="Times New Roman,serif" font-size="14.00" fill="#000000">1:3</text></g><g id="edge4" class="edge"><path fill="none" stroke="#7b7b7b" d="M18,-71.7C18,-63.98 18,-54.71 18,-46.11"/><polygon fill="#7b7b7b" stroke="#7b7b7b" points="18,-36.1 22.5,-46.1 18,-41.1 18,-46.1 18,-46.1 18,-46.1 18,-41.1 13.5,-46.1 18,-36.1 18,-36.1"/></g><g id="node6" class="node"><ellipse fill="#c0c0c0" stroke="#7b7b7b" cx="72" cy="-18" rx="18" ry="18"/><text text-anchor="middle" x="72" y="-14.3" font-family="Times New Roman,serif" font-size="14.00" fill="#000000">5:7</text></g><g id="edge6" class="edge"><path fill="none" stroke="#7b7b7b" d="M72,-71.7C72,-63.98 72,-54.71 72,-46.11"/><polygon fill="#7b7b7b" stroke="#7b7b7b" points="72,-36.1 76.5,-46.1 72,-41.1 72,-46.1 72,-46.1 72,-46.1 72,-41.1 67.5,-46.1 72,-36.1 72,-36.1"/></g><g id="node7" class="node"><ellipse fill="#c0c0c0" stroke="#7b7b7b" cx="126" cy="-18" rx="18" ry="18"/><text text-anchor="middle" x="126" y="-14.3" font-family="Times New Roman,serif" font-size="14.00" fill="#000000">3:5</text></g><g id="edge5" class="edge"><path fill="none" stroke="#7b7b7b" d="M82.67,-75.17C90.21,-65.39 100.48,-52.08 109.13,-40.87"/><polygon fill="#7b7b7b" stroke="#7b7b7b" points="115.35,-32.8 112.81,-43.47 112.3,-36.76 109.25,-40.72 109.25,-40.72 109.25,-40.72 112.3,-36.76 105.68,-37.97 115.35,-32.8 115.35,-32.8"/></g></g><g id="graph1" class="graph" transform="scale(1 1) rotate(0) translate(4 256)"/><animate attributeName="opacity" id="2S60" from="0" to="1" begin="2E59.begin" dur="0.01s" fill="freeze"/><animate attributeName="opacity" id="2E60" begin="2S60.begin+2.5s" from="1" to="0" dur="0.01s" fill="freeze"/></g><g><animate attributeName="opacity" begin="3S61.begin" from="1" to="0" dur="0.01s" fill="freeze"/><animate attributeName="opacity" from="0" to="1" begin="3E61.end" dur="0.01s" fill="freeze"/><text x="167.00" y="19.40" font-size="12.00" fill="#808080">Numbers:</text><text x="167.00" y="245.40" font-size="12.00" fill="#808080">Merge list:</text><text x="10.00" y="19.40" font-size="12.00" fill="#808080">Recursive tree:</text><rect x="162.00" y="5.00" width="304.00" height="221.00" stroke="#C0C0C0" stroke-dasharray="1, 5" fill="none"/><rect x="162.00" y="231.00" width="304.00" height="67.00" stroke="#C0C0C0" stroke-dasharray="1, 5" fill="none"/><rect x="5.00" y="5.00" width="152.00" height="278.00" stroke="#C0C0C0" stroke-dasharray="1, 5" fill="none"/></g></a></svg>