<?xml version="1.0" ?><svg xmlns="http://www.w3.org/2000/svg" xmlns:xlink="http://www.w3.org/1999/xlink" width="234pt" height="208pt" viewBox="0.00 0.00 234.00 208.00"><style>.txt { alignment-baseline:middle; text-anchor:middle; font-family:Times,serif; }</style><a xlink:href="https://algviz.com/"><g class="frame" style="opacity:0" transform="translate(5,23.0)"><g id="graph0" class="graph" transform="scale(1 1) rotate(0) translate(4 4)"><polygon fill="transparent" stroke="transparent" points="-4,4 -4,-4 4,-4 4,4 -4,4"/></g><g id="graph1" class="graph" transform="scale(1 1) rotate(0) translate(4 108.52)"><g id="node1" class="node" style="opacity:0"><ellipse fill="#ff6347" stroke="#7b7b7b" cx="18" cy="-66.05" rx="18" ry="18"/><text text-anchor="middle" x="18" y="-62.35" font-family="Times New Roman,serif" font-size="14.00" fill="#000000">0</text><animate attributeName="opacity" from="0" to="1" begin="0S0.end+0.00s" dur="0.50s" fill="freeze"/><animate attributeName="opacity" from="1" to="0" begin="0E0.end" dur="0.01s" fill="freeze"/></g><g id="node2" class="node" style="opacity:0"><ellipse fill="none" stroke="#7b7b7b" cx="145.22" cy="-38.2" rx="18" ry="18"/><text text-anchor="middle" x="145.22" y="-34.5" font-family="Times New Roman,serif" font-size="14.00">2</text><animate attributeName="opacity" from="0" to="1" begin="0S0.end+0.00s" dur="0.50s" fill="freeze"/><animate attributeName="opacity" from="1" to="0" begin="0E0.end" dur="0.01s" fill="freeze"/></g><g id="node3" class="node" style="opacity:0"><ellipse fill="none" stroke="#7b7b7b" cx="74.17" cy="-18" rx="18" ry="18"/><text text-anchor="middle" x="74.17" y="-14.3" font-family="Times New Roman,serif" font-size="14.00">1</text><animate attributeName="opacity" from="0" to="1" begin="0S0.end+0.00s" dur="0.50s" fill="freeze"/><animate attributeName="opacity" from="1" to="0" begin="0E0.end" dur="0.01s" fill="freeze"/></g><g id="node4" class="node" style="opacity:0"><ellipse fill="none" stroke="#7b7b7b" cx="89.16" cy="-86.52" rx="18" ry="18"/><text text-anchor="middle" x="89.16" y="-82.82" font-family="Times New Roman,serif" font-size="14.00">3</text><animate attributeName="opacity" from="0" to="1" begin="0S0.end+0.00s" dur="0.50s" fill="freeze"/><animate attributeName="opacity" from="1" to="0" begin="0E0.end" dur="0.01s" fill="freeze"/></g><g id="edge1" class="edge" style="opacity:0"><path fill="none" stroke="#7b7b7b" d="M60.28,-29.88C51.58,-37.32 40.4,-46.89 31.72,-54.31"/><text text-anchor="middle" x="42.5" y="-45.49" font-family="Times New Roman,serif" font-size="12.00" fill="#c0c0c0">2</text><animate attributeName="opacity" from="0" to="1" begin="0S0.end+0.00s" dur="0.50s" fill="freeze"/><animate attributeName="opacity" from="1" to="0" begin="0E0.end" dur="0.01s" fill="freeze"/></g><g id="edge2" class="edge" style="opacity:0"><path fill="none" stroke="#7b7b7b" d="M127.66,-33.21C116.64,-30.08 102.5,-26.06 91.53,-22.94"/><text text-anchor="middle" x="106.09" y="-31.47" font-family="Times New Roman,serif" font-size="12.00" fill="#c0c0c0">3</text><animate attributeName="opacity" from="0" to="1" begin="0S0.end+0.00s" dur="0.50s" fill="freeze"/><animate attributeName="opacity" from="1" to="0" begin="0E0.end" dur="0.01s" fill="freeze"/></g><g id="edge3" class="edge" style="opacity:0"><path fill="none" stroke="#7b7b7b" d="M131.37,-50.14C122.68,-57.63 111.52,-67.25 102.86,-74.71"/><text text-anchor="middle" x="113.61" y="-65.83" font-family="Times New Roman,serif" font-size="12.00" fill="#c0c0c0">2</text><animate attributeName="opacity" from="0" to="1" begin="0S0.end+0.00s" dur="0.50s" fill="freeze"/><animate attributeName="opacity" from="1" to="0" begin="0E0.end" dur="0.01s" fill="freeze"/></g><g id="edge4" class="edge" style="opacity:0"><path fill="none" stroke="#7b7b7b" d="M71.57,-81.46C60.54,-78.28 46.38,-74.21 35.39,-71.05"/><text text-anchor="middle" x="49.98" y="-79.65" font-family="Times New Roman,serif" font-size="12.00" fill="#c0c0c0">4</text><animate attributeName="opacity" from="0" to="1" begin="0S0.end+0.00s" dur="0.50s" fill="freeze"/><animate attributeName="opacity" from="1" to="0" begin="0E0.end" dur="0.01s" fill="freeze"/></g><g id="edge5" class="edge" style="opacity:0"><path fill="none" stroke="#7b7b7b" d="M85.3,-68.87C83.08,-58.72 80.3,-46 78.07,-35.82"/><text text-anchor="middle" x="78.19" y="-55.75" font-family="Times New Roman,serif" font-size="12.00" fill="#c0c0c0">6</text><animate attributeName="opacity" from="0" to="1" begin="0S0.end+0.00s" dur="0.50s" fill="freeze"/><animate attributeName="opacity" from="1" to="0" begin="0E0.end" dur="0.01s" fill="freeze"/></g></g><animate attributeName="opacity" id="0S0" from="0" to="1" begin="0s;0E4.end+0s" dur="0.01s" fill="freeze"/><animate attributeName="opacity" id="0E0" begin="0S0.begin+1.0s" from="1" to="0" dur="0.01s" fill="freeze"/></g><g class="frame" style="opacity:0" transform="translate(5,23.0)"><g id="graph0" class="graph" transform="scale(1 1) rotate(0) translate(4 108.52)"><polygon fill="transparent" stroke="transparent" points="-4,4 -4,-108.52 167.22,-108.52 167.22,4 -4,4"/><g id="node1" class="node"><ellipse fill="#ff6347" stroke="#7b7b7b" cx="18" cy="-66.05" rx="18" ry="18"/><text text-anchor="middle" x="18" y="-62.35" font-family="Times New Roman,serif" font-size="14.00" fill="#000000">0</text></g><g id="node2" class="node"><ellipse fill="#ff6347" stroke="#7b7b7b" cx="74.17" cy="-18" rx="18" ry="18"/><text text-anchor="middle" x="74.17" y="-14.3" font-family="Times New Roman,serif" font-size="14.00" fill="#000000">1</text></g><g id="edge2" class="edge"><path fill="none" stroke="#ff0000" d="M60.28,-29.88C51.58,-37.32 40.4,-46.89 31.72,-54.31"/><text text-anchor="middle" x="42.5" y="-45.49" font-family="Times New Roman,serif" font-size="12.00" fill="#c0c0c0">2</text></g><g id="node3" class="node"><ellipse fill="#ffffff" stroke="#7b7b7b" cx="145.22" cy="-38.2" rx="18" ry="18"/><text text-anchor="middle" x="145.22" y="-34.5" font-family="Times New Roman,serif" font-size="14.00" fill="#000000">2</text></g><g id="edge4" class="edge"><path fill="none" stroke="#7b7b7b" d="M127.66,-33.21C116.64,-30.08 102.5,-26.06 91.53,-22.94"/><text text-anchor="middle" x="106.09" y="-31.47" font-family="Times New Roman,serif" font-size="12.00" fill="#c0c0c0">3</text></g><g id="node4" class="node"><ellipse fill="#ffffff" stroke="#7b7b7b" cx="89.16" cy="-86.52" rx="18" ry="18"/><text text-anchor="middle" x="89.16" y="-82.82" font-family="Times New Roman,serif" font-size="14.00" fill="#000000">3</text></g><g id="edge5" class="edge"><path fill="none" stroke="#7b7b7b" d="M131.37,-50.14C122.68,-57.63 111.52,-67.25 102.86,-74.71"/><text text-anchor="middle" x="113.61" y="-65.83" font-family="Times New Roman,serif" font-size="12.00" fill="#c0c0c0">2</text></g><g id="edge1" class="edge"><path fill="none" stroke="#7b7b7b" d="M71.57,-81.46C60.54,-78.28 46.38,-74.21 35.39,-71.05"/><text text-anchor="middle" x="49.98" y="-79.65" font-family="Times New Roman,serif" font-size="12.00" fill="#c0c0c0">4</text></g><g id="edge3" class="edge"><path fill="none" stroke="#7b7b7b" d="M85.3,-68.87C83.08,-58.72 80.3,-46 78.07,-35.82"/><text text-anchor="middle" x="78.19" y="-55.75" font-family="Times New Roman,serif" font-size="12.00" fill="#c0c0c0">6</text></g></g><g id="graph1" class="graph" transform="scale(1 1) rotate(0) translate(4 108.52)"/><animate attributeName="opacity" id="0S1" from="0" to="1" begin="0E0.begin" dur="0.01s" fill="freeze"/><animate attributeName="opacity" id="0E1" begin="0S1.begin+1.0s" from="1" to="0" dur="0.01s" fill="freeze"/></g><g class="frame" style="opacity:0" transform="translate(5,23.0)"><g id="graph0" class="graph" transform="scale(1 1) rotate(0) translate(4 108.52)"><polygon fill="transparent" stroke="transparent" points="-4,4 -4,-108.52 167.22,-108.52 167.22,4 -4,4"/><g id="node1" class="node"><ellipse fill="#ff6347" stroke="#7b7b7b" cx="18" cy="-66.05" rx="18" ry="18"/><text text-anchor="middle" x="18" y="-62.35" font-family="Times New Roman,serif" font-size="14.00" fill="#000000">0</text></g><g id="node2" class="node"><ellipse fill="#ff6347" stroke="#7b7b7b" cx="74.17" cy="-18" rx="18" ry="18"/><text text-anchor="middle" x="74.17" y="-14.3" font-family="Times New Roman,serif" font-size="14.00" fill="#000000">1</text></g><g id="edge2" class="edge"><path fill="none" stroke="#ff0000" d="M60.28,-29.88C51.58,-37.32 40.4,-46.89 31.72,-54.31"/><text text-anchor="middle" x="42.5" y="-45.49" font-family="Times New Roman,serif" font-size="12.00" fill="#c0c0c0">2</text></g><g id="node3" class="node"><ellipse fill="#ff6347" stroke="#7b7b7b" cx="145.22" cy="-38.2" rx="18" ry="18"/><text text-anchor="middle" x="145.22" y="-34.5" font-family="Times New Roman,serif" font-size="14.00" fill="#000000">2</text></g><g id="edge4" class="edge"><path fill="none" stroke="#ff0000" d="M127.66,-33.21C116.64,-30.08 102.5,-26.06 91.53,-22.94"/><text text-anchor="middle" x="106.09" y="-31.47" font-family="Times New Roman,serif" font-size="12.00" fill="#c0c0c0">3</text></g><g id="node4" class="node"><ellipse fill="#ffffff" stroke="#7b7b7b" cx="89.16" cy="-86.52" rx="18" ry="18"/><text text-anchor="middle" x="89.16" y="-82.82" font-family="Times New Roman,serif" font-size="14.00" fill="#000000">3</text></g><g id="edge5" class="edge"><path fill="none" stroke="#7b7b7b" d="M131.37,-50.14C122.68,-57.63 111.52,-67.25 102.86,-74.71"/><text text-anchor="middle" x="113.61" y="-65.83" font-family="Times New Roman,serif" font-size="12.00" fill="#c0c0c0">2</text></g><g id="edge1" class="edge"><path fill="none" stroke="#7b7b7b" d="M71.57,-81.46C60.54,-78.28 46.38,-74.21 35.39,-71.05"/><text text-anchor="middle" x="49.98" y="-79.65" font-family="Times New Roman,serif" font-size="12.00" fill="#c0c0c0">4</text></g><g id="edge3" class="edge"><path fill="none" stroke="#7b7b7b" d="M85.3,-68.87C83.08,-58.72 80.3,-46 78.07,-35.82"/><text text-anchor="middle" x="78.19" y="-55.75" font-family="Times New Roman,serif" font-size="12.00" fill="#c0c0c0">6</text></g></g><g id="graph1" class="graph" transform="scale(1 1) rotate(0) translate(4 108.52)"/><animate attributeName="opacity" id="0S2" from="0" to="1" begin="0E1.begin" dur="0.01s" fill="freeze"/><animate attributeName="opacity" id="0E2" begin="0S2.begin+1.0s" from="1" to="0" dur="0.01s" fill="freeze"/></g><g class="frame" style="opacity:0" transform="translate(5,23.0)"><g id="graph0" class="graph" transform="scale(1 1) rotate(0) translate(4 108.52)"><polygon fill="transparent" stroke="transparent" points="-4,4 -4,-108.52 167.22,-108.52 167.22,4 -4,4"/><g id="node1" class="node"><ellipse fill="#ff6347" stroke="#7b7b7b" cx="18" cy="-66.05" rx="18" ry="18"/><text text-anchor="middle" x="18" y="-62.35" font-family="Times New Roman,serif" font-size="14.00" fill="#000000">0</text></g><g id="node2" class="node"><ellipse fill="#ff6347" stroke="#7b7b7b" cx="74.17" cy="-18" rx="18" ry="18"/><text text-anchor="middle" x="74.17" y="-14.3" font-family="Times New Roman,serif" font-size="14.00" fill="#000000">1</text></g><g id="edge2" class="edge"><path fill="none" stroke="#ff0000" d="M60.28,-29.88C51.58,-37.32 40.4,-46.89 31.72,-54.31"/><text text-anchor="middle" x="42.5" y="-45.49" font-family="Times New Roman,serif" font-size="12.00" fill="#c0c0c0">2</text></g><g id="node3" class="node"><ellipse fill="#ff6347" stroke="#7b7b7b" cx="145.22" cy="-38.2" rx="18" ry="18"/><text text-anchor="middle" x="145.22" y="-34.5" font-family="Times New Roman,serif" font-size="14.00" fill="#000000">2</text></g><g id="edge4" class="edge"><path fill="none" stroke="#ff0000" d="M127.66,-33.21C116.64,-30.08 102.5,-26.06 91.53,-22.94"/><text text-anchor="middle" x="106.09" y="-31.47" font-family="Times New Roman,serif" font-size="12.00" fill="#c0c0c0">3</text></g><g id="node4" class="node"><ellipse fill="#ff6347" stroke="#7b7b7b" cx="89.16" cy="-86.52" rx="18" ry="18"/><text text-anchor="middle" x="89.16" y="-82.82" font-family="Times New Roman,serif" font-size="14.00" fill="#000000">3</text></g><g id="edge5" class="edge"><path fill="none" stroke="#ff0000" d="M131.37,-50.14C122.68,-57.63 111.52,-67.25 102.86,-74.71"/><text text-anchor="middle" x="113.61" y="-65.83" font-family="Times New Roman,serif" font-size="12.00" fill="#c0c0c0">2</text></g><g id="edge1" class="edge"><path fill="none" stroke="#7b7b7b" d="M71.57,-81.46C60.54,-78.28 46.38,-74.21 35.39,-71.05"/><text text-anchor="middle" x="49.98" y="-79.65" font-family="Times New Roman,serif" font-size="12.00" fill="#c0c0c0">4</text></g><g id="edge3" class="edge"><path fill="none" stroke="#7b7b7b" d="M85.3,-68.87C83.08,-58.72 80.3,-46 78.07,-35.82"/><text text-anchor="middle" x="78.19" y="-55.75" font-family="Times New Roman,serif" font-size="12.00" fill="#c0c0c0">6</text></g></g><g id="graph1" class="graph" transform="scale(1 1) rotate(0) translate(4 108.52)"/><animate attributeName="opacity" id="0S3" from="0" to="1" begin="0E2.begin" dur="0.01s" fill="freeze"/><animate attributeName="opacity" id="0E3" begin="0S3.begin+1.0s" from="1" to="0" dur="0.01s" fill="freeze"/></g><g class="frame" style="opacity:0" transform="translate(5,23.0)"><g id="graph0" class="graph" transform="scale(1 1) rotate(0) translate(4 108.52)"><polygon fill="transparent" stroke="transparent" points="-4,4 -4,-108.52 167.22,-108.52 167.22,4 -4,4"/><g id="node1" class="node"><ellipse fill="#ffffff" stroke="#7b7b7b" cx="18" cy="-66.05" rx="18" ry="18"/><text text-anchor="middle" x="18" y="-62.35" font-family="Times New Roman,serif" font-size="14.00" fill="#000000">0</text><animateMotion path="m0,0 l0.00,97.12" begin="0S4.end+0.60s" dur="1.44s" fill="freeze"/><animateMotion path="m0,0 l0,0" begin="0E4.end" dur="0.01s" fill="freeze"/></g><g id="node2" class="node"><ellipse fill="#ffffff" stroke="#7b7b7b" cx="74.17" cy="-18" rx="18" ry="18"/><text text-anchor="middle" x="74.17" y="-14.3" font-family="Times New Roman,serif" font-size="14.00" fill="#000000">1</text><animateMotion path="m0,0 l4.51,10.17" begin="0S4.end+0.60s" dur="1.44s" fill="freeze"/><animateMotion path="m0,0 l0,0" begin="0E4.end" dur="0.01s" fill="freeze"/></g><g id="edge2" class="edge" style="opacity:1"><path fill="none" stroke="#ff0000" d="M60.28,-29.88C51.58,-37.32 40.4,-46.89 31.72,-54.31"/><text text-anchor="middle" x="42.5" y="-45.49" font-family="Times New Roman,serif" font-size="12.00" fill="#c0c0c0">2</text><animate attributeName="opacity" from="1" to="0" begin="0S4.end+0.00s" dur="0.60s" fill="freeze"/><animate attributeName="opacity" from="0" to="1" begin="0E4.end" dur="0.01s" fill="freeze"/></g><g id="node3" class="node"><ellipse fill="#ffffff" stroke="#7b7b7b" cx="145.22" cy="-38.2" rx="18" ry="18"/><text text-anchor="middle" x="145.22" y="-34.5" font-family="Times New Roman,serif" font-size="14.00" fill="#000000">2</text><animateMotion path="m0,0 l-0.86,0.10" begin="0S4.end+0.60s" dur="1.44s" fill="freeze"/><animateMotion path="m0,0 l0,0" begin="0E4.end" dur="0.01s" fill="freeze"/></g><g id="edge4" class="edge" style="opacity:1"><path fill="none" stroke="#ff0000" d="M127.66,-33.21C116.64,-30.08 102.5,-26.06 91.53,-22.94"/><text text-anchor="middle" x="106.09" y="-31.47" font-family="Times New Roman,serif" font-size="12.00" fill="#c0c0c0">3</text><animate attributeName="opacity" from="1" to="0" begin="0S4.end+0.00s" dur="0.60s" fill="freeze"/><animate attributeName="opacity" from="0" to="1" begin="0E4.end" dur="0.01s" fill="freeze"/></g><g id="node4" class="node"><ellipse fill="#ffffff" stroke="#7b7b7b" cx="89.16" cy="-86.52" rx="18" ry="18"/><text text-anchor="middle" x="89.16" y="-82.82" font-family="Times New Roman,serif" font-size="14.00" fill="#000000">3</text><animateMotion path="m0,0 l108.92,0.00" begin="0S4.end+0.60s" dur="1.44s" fill="freeze"/><animateMotion path="m0,0 l0,0" begin="0E4.end" dur="0.01s" fill="freeze"/></g><g id="edge5" class="edge" style="opacity:1"><path fill="none" stroke="#ff0000" d="M131.37,-50.14C122.68,-57.63 111.52,-67.25 102.86,-74.71"/><text text-anchor="middle" x="113.61" y="-65.83" font-family="Times New Roman,serif" font-size="12.00" fill="#c0c0c0">2</text><animate attributeName="opacity" from="1" to="0" begin="0S4.end+0.00s" dur="0.60s" fill="freeze"/><animate attributeName="opacity" from="0" to="1" begin="0E4.end" dur="0.01s" fill="freeze"/></g><g id="edge1" class="edge" style="opacity:1"><path fill="none" stroke="#7b7b7b" d="M71.57,-81.46C60.54,-78.28 46.38,-74.21 35.39,-71.05"/><text text-anchor="middle" x="49.98" y="-79.65" font-family="Times New Roman,serif" font-size="12.00" fill="#c0c0c0">4</text><animate attributeName="opacity" from="1" to="0" begin="0S4.end+0.00s" dur="0.60s" fill="freeze"/><animate attributeName="opacity" from="0" to="1" begin="0E4.end" dur="0.01s" fill="freeze"/></g><g id="edge3" class="edge" style="opacity:1"><path fill="none" stroke="#7b7b7b" d="M85.3,-68.87C83.08,-58.72 80.3,-46 78.07,-35.82"/><text text-anchor="middle" x="78.19" y="-55.75" font-family="Times New Roman,serif" font-size="12.00" fill="#c0c0c0">6</text><animate attributeName="opacity" from="1" to="0" begin="0S4.end+0.00s" dur="0.60s" fill="freeze"/><animate attributeName="opacity" from="0" to="1" begin="0E4.end" dur="0.01s" fill="freeze"/></g></g><g id="graph1" class="graph" transform="scale(1 1) rotate(0) translate(4 157.59)"><g id="edge2" class="edge" style="opacity:0"><path fill="none" stroke="#7b7b7b" d="M63.37,-47.08C54.24,-41.23 42.68,-33.82 33.52,-27.95"/><text text-anchor="middle" x="44.94" y="-40.92" font-family="Times New Roman,serif" font-size="12.00" fill="#c0c0c0">2</text><animate attributeName="opacity" from="0" to="1" begin="0S4.end+2.04s" dur="0.96s" fill="freeze"/><animate attributeName="opacity" from="1" to="0" begin="0E4.end" dur="0.01s" fill="freeze"/></g><g id="edge4" class="edge" style="opacity:0"><path fill="none" stroke="#7b7b7b" d="M127.79,-79.53C117.91,-74.98 105.4,-69.21 95.48,-64.64"/><text text-anchor="middle" x="108.13" y="-75.49" font-family="Times New Roman,serif" font-size="12.00" fill="#c0c0c0">3</text><animate attributeName="opacity" from="0" to="1" begin="0S4.end+2.04s" dur="0.96s" fill="freeze"/><animate attributeName="opacity" from="1" to="0" begin="0E4.end" dur="0.01s" fill="freeze"/></g><g id="edge5" class="edge" style="opacity:0"><path fill="none" stroke="#7b7b7b" d="M157.92,-99.39C166,-106.68 176.23,-115.9 184.34,-123.21"/><text text-anchor="middle" x="167.63" y="-114.7" font-family="Times New Roman,serif" font-size="12.00" fill="#c0c0c0">2</text><animate attributeName="opacity" from="0" to="1" begin="0S4.end+2.04s" dur="0.96s" fill="freeze"/><animate attributeName="opacity" from="1" to="0" begin="0E4.end" dur="0.01s" fill="freeze"/></g></g><animate attributeName="opacity" id="0S4" from="0" to="1" begin="0E3.begin" dur="0.01s" fill="freeze"/><animate attributeName="opacity" id="0E4" begin="0S4.begin+3.5s" from="1" to="0" dur="0.01s" fill="freeze"/></g><g><animate attributeName="opacity" begin="1S5.begin" from="1" to="0" dur="0.01s" fill="freeze"/><animate attributeName="opacity" from="0" to="1" begin="1E5.end" dur="0.01s" fill="freeze"/><text x="10.00" y="19.40" font-family="Times,serif" font-weight="bold" font-size="12.00" fill="#808080">Prim algorithm:</text></g></a></svg>