<?xml version="1.0" ?><svg xmlns="http://www.w3.org/2000/svg" xmlns:xlink="http://www.w3.org/1999/xlink" width="525pt" height="378pt" viewBox="0.00 0.00 525.00 378.00"><style>.txt { alignment-baseline:middle; text-anchor:middle; font-family:Times,serif; }</style><a xlink:href="https://algviz.com/"><g class="frame" style="opacity:0" transform="translate(5,23.0)"><g id="0"><rect x="261.00" y="40.20" width="40.00" height="54.60" rx="4.00" ry="4.00" fill="#808080" stroke="#7b7b7b"/><text class="txt" x="281.00" y="67.50" font-size="16.00" fill="#000000">3</text></g><g id="1"><rect x="46.00" y="94.80" width="40.00" height="72.80" rx="4.00" ry="4.00" fill="#c0c0c0" stroke="#7b7b7b"/><text class="txt" x="66.00" y="131.20" font-size="16.00" fill="#000000">-4</text></g><g id="2"><rect x="132.00" y="94.80" width="40.00" height="18.20" rx="1.82" ry="1.82" fill="#808080" stroke="#7b7b7b"/><text class="txt" x="152.00" y="103.90" font-size="16.00" fill="#000000">-1</text></g><g id="3"><rect x="218.00" y="22.00" width="40.00" height="72.80" rx="4.00" ry="4.00" fill="#808080" stroke="#7b7b7b"/><text class="txt" x="238.00" y="58.40" font-size="16.00" fill="#000000">4</text></g><g id="4"><rect x="3.00" y="94.80" width="40.00" height="109.20" rx="4.00" ry="4.00" fill="#808080" stroke="#7b7b7b"/><text class="txt" x="23.00" y="149.40" font-size="16.00" fill="#000000">-6</text></g><g id="5"><rect x="89.00" y="94.80" width="40.00" height="54.60" rx="4.00" ry="4.00" fill="#ffffff" stroke="#7b7b7b"/><text class="txt" x="109.00" y="122.10" font-size="16.00" fill="#000000">-3</text></g><g id="6"><rect x="175.00" y="58.40" width="40.00" height="36.40" rx="3.64" ry="3.64" fill="#808080" stroke="#7b7b7b"/><text class="txt" x="195.00" y="76.60" font-size="16.00" fill="#000000">2</text></g><g id="7"><text x="20.00" y="216.00" font-size="12.00" font-family="Times,serif" fill="#7b7b7b">0</text></g><g id="8"><text x="63.00" y="216.00" font-size="12.00" font-family="Times,serif" fill="#7b7b7b">1</text></g><g id="9"><text x="106.00" y="216.00" font-size="12.00" font-family="Times,serif" fill="#7b7b7b">2</text></g><g id="10"><text x="149.00" y="216.00" font-size="12.00" font-family="Times,serif" fill="#7b7b7b">3</text></g><g id="11"><text x="192.00" y="216.00" font-size="12.00" font-family="Times,serif" fill="#7b7b7b">4</text></g><g id="12"><text x="235.00" y="216.00" font-size="12.00" font-family="Times,serif" fill="#7b7b7b">5</text></g><g id="13"><text x="278.00" y="216.00" font-size="12.00" font-family="Times,serif" fill="#7b7b7b">6</text></g><g id="14"><polyline points="107.00,17.00 109.00,19.00 111.00,17.00" fill="none" stroke="#2874a6"/><text class="txt" x="109.00" y="10.00" font-size="14.00" fill="#2874a6">P</text><line x1="109.00" y1="19.00" stroke="#2874a6" x2="109.00" y2="18.40"/><animateMotion path="m0,0 l0.00,0.00" begin="0S44.end+0.00s" dur="2.00s" fill="freeze"/><animateMotion path="m0,0 l0,0" begin="0E44.end" dur="0.01s" fill="freeze"/></g><animate attributeName="opacity" id="0S44" from="0" to="1" begin="0s;0E49.end+0s" dur="0.01s" fill="freeze"/><animate attributeName="opacity" id="0E44" begin="0S44.begin+2.5s" from="1" to="0" dur="0.01s" fill="freeze"/></g><g class="frame" style="opacity:0" transform="translate(5,23.0)"><g id="0"><rect x="261.00" y="40.20" width="40.00" height="54.60" rx="4.00" ry="4.00" fill="#ffffff" stroke="#7b7b7b"/><text class="txt" x="281.00" y="67.50" font-size="16.00" fill="#000000">3</text></g><g id="1"><rect x="46.00" y="94.80" width="40.00" height="72.80" rx="4.00" ry="4.00" fill="#808080" stroke="#7b7b7b"/><text class="txt" x="66.00" y="131.20" font-size="16.00" fill="#000000">-4</text></g><g id="2"><rect x="132.00" y="94.80" width="40.00" height="18.20" rx="1.82" ry="1.82" fill="#ffffff" stroke="#7b7b7b"/><text class="txt" x="152.00" y="103.90" font-size="16.00" fill="#000000">-1</text></g><g id="3"><rect x="218.00" y="22.00" width="40.00" height="72.80" rx="4.00" ry="4.00" fill="#ffffff" stroke="#7b7b7b"/><text class="txt" x="238.00" y="58.40" font-size="16.00" fill="#000000">4</text></g><g id="4"><rect x="3.00" y="94.80" width="40.00" height="109.20" rx="4.00" ry="4.00" fill="#808080" stroke="#7b7b7b"/><text class="txt" x="23.00" y="149.40" font-size="16.00" fill="#000000">-6</text></g><g id="5"><rect x="89.00" y="94.80" width="40.00" height="54.60" rx="4.00" ry="4.00" fill="#808080" stroke="#7b7b7b"/><text class="txt" x="109.00" y="122.10" font-size="16.00" fill="#000000">-3</text></g><g id="6"><rect x="175.00" y="58.40" width="40.00" height="36.40" rx="3.64" ry="3.64" fill="#ffffff" stroke="#7b7b7b"/><text class="txt" x="195.00" y="76.60" font-size="16.00" fill="#000000">2</text></g><g id="7"><text x="20.00" y="216.00" font-size="12.00" font-family="Times,serif" fill="#7b7b7b">0</text></g><g id="8"><text x="63.00" y="216.00" font-size="12.00" font-family="Times,serif" fill="#7b7b7b">1</text></g><g id="9"><text x="106.00" y="216.00" font-size="12.00" font-family="Times,serif" fill="#7b7b7b">2</text></g><g id="10"><text x="149.00" y="216.00" font-size="12.00" font-family="Times,serif" fill="#7b7b7b">3</text></g><g id="11"><text x="192.00" y="216.00" font-size="12.00" font-family="Times,serif" fill="#7b7b7b">4</text></g><g id="12"><text x="235.00" y="216.00" font-size="12.00" font-family="Times,serif" fill="#7b7b7b">5</text></g><g id="13"><text x="278.00" y="216.00" font-size="12.00" font-family="Times,serif" fill="#7b7b7b">6</text></g><g id="14"><polyline points="107.00,17.00 109.00,19.00 111.00,17.00" fill="none" stroke="#2874a6"/><text class="txt" x="109.00" y="10.00" font-size="14.00" fill="#2874a6">P</text><line x1="109.00" y1="19.00" stroke="#2874a6" x2="109.00" y2="18.40"/><animateMotion path="m0,0 l43.00,0.00" begin="0S45.end+0.00s" dur="1.00s" fill="freeze"/><animateMotion path="m0,0 l0,0" begin="0E45.end" dur="0.01s" fill="freeze"/></g><animate attributeName="opacity" id="0S45" from="0" to="1" begin="0E44.begin" dur="0.01s" fill="freeze"/><animate attributeName="opacity" id="0E45" begin="0S45.begin+1.5s" from="1" to="0" dur="0.01s" fill="freeze"/></g><g class="frame" style="opacity:0" transform="translate(5,23.0)"><g id="0"><rect x="261.00" y="40.20" width="40.00" height="54.60" rx="4.00" ry="4.00" fill="#ffa500" stroke="#7b7b7b"/><text class="txt" x="281.00" y="67.50" font-size="16.00" fill="#000000">3</text></g><g id="1"><rect x="46.00" y="94.80" width="40.00" height="72.80" rx="4.00" ry="4.00" fill="#808080" stroke="#7b7b7b"/><text class="txt" x="66.00" y="131.20" font-size="16.00" fill="#000000">-4</text></g><g id="2"><rect x="132.00" y="94.80" width="40.00" height="18.20" rx="1.82" ry="1.82" fill="#ff6347" stroke="#7b7b7b"/><text class="txt" x="152.00" y="103.90" font-size="16.00" fill="#000000">-1</text></g><g id="3"><rect x="218.00" y="22.00" width="40.00" height="72.80" rx="4.00" ry="4.00" fill="#ffffff" stroke="#7b7b7b"/><text class="txt" x="238.00" y="58.40" font-size="16.00" fill="#000000">4</text></g><g id="4"><rect x="3.00" y="94.80" width="40.00" height="109.20" rx="4.00" ry="4.00" fill="#808080" stroke="#7b7b7b"/><text class="txt" x="23.00" y="149.40" font-size="16.00" fill="#000000">-6</text></g><g id="5"><rect x="89.00" y="94.80" width="40.00" height="54.60" rx="4.00" ry="4.00" fill="#808080" stroke="#7b7b7b"/><text class="txt" x="109.00" y="122.10" font-size="16.00" fill="#000000">-3</text></g><g id="6"><rect x="175.00" y="58.40" width="40.00" height="36.40" rx="3.64" ry="3.64" fill="#ffffff" stroke="#7b7b7b"/><text class="txt" x="195.00" y="76.60" font-size="16.00" fill="#000000">2</text></g><g id="7"><text x="20.00" y="216.00" font-size="12.00" font-family="Times,serif" fill="#7b7b7b">0</text></g><g id="8"><text x="63.00" y="216.00" font-size="12.00" font-family="Times,serif" fill="#7b7b7b">1</text></g><g id="9"><text x="106.00" y="216.00" font-size="12.00" font-family="Times,serif" fill="#7b7b7b">2</text></g><g id="10"><text x="149.00" y="216.00" font-size="12.00" font-family="Times,serif" fill="#7b7b7b">3</text></g><g id="11"><text x="192.00" y="216.00" font-size="12.00" font-family="Times,serif" fill="#7b7b7b">4</text></g><g id="12"><text x="235.00" y="216.00" font-size="12.00" font-family="Times,serif" fill="#7b7b7b">5</text></g><g id="13"><text x="278.00" y="216.00" font-size="12.00" font-family="Times,serif" fill="#7b7b7b">6</text></g><g id="14"><polyline points="150.00,17.00 152.00,19.00 154.00,17.00" fill="none" stroke="#2874a6"/><text class="txt" x="152.00" y="10.00" font-size="14.00" fill="#2874a6">P</text><line x1="152.00" y1="19.00" stroke="#2874a6" x2="152.00" y2="18.40"/><animateMotion path="m0,0 l0.00,0.00" begin="0S46.end+0.00s" dur="1.00s" fill="freeze"/><animateMotion path="m0,0 l0,0" begin="0E46.end" dur="0.01s" fill="freeze"/></g><animate attributeName="opacity" id="0S46" from="0" to="1" begin="0E45.begin" dur="0.01s" fill="freeze"/><animate attributeName="opacity" id="0E46" begin="0S46.begin+1.5s" from="1" to="0" dur="0.01s" fill="freeze"/></g><g class="frame" style="opacity:0" transform="translate(5,23.0)"><g id="0"><rect x="261.00" y="40.20" width="40.00" height="54.60" rx="4.00" ry="4.00" fill="#ffffff" stroke="#7b7b7b"/><text class="txt" x="281.00" y="67.50" font-size="16.00" fill="#000000">3</text></g><g id="1"><rect x="46.00" y="94.80" width="40.00" height="72.80" rx="4.00" ry="4.00" fill="#808080" stroke="#7b7b7b"/><text class="txt" x="66.00" y="131.20" font-size="16.00" fill="#000000">-4</text></g><g id="2"><rect x="132.00" y="94.80" width="40.00" height="18.20" rx="1.82" ry="1.82" fill="#ffffff" stroke="#7b7b7b"/><text class="txt" x="152.00" y="103.90" font-size="16.00" fill="#000000">-1</text></g><g id="3"><rect x="218.00" y="22.00" width="40.00" height="72.80" rx="4.00" ry="4.00" fill="#ffffff" stroke="#7b7b7b"/><text class="txt" x="238.00" y="58.40" font-size="16.00" fill="#000000">4</text></g><g id="4"><rect x="3.00" y="94.80" width="40.00" height="109.20" rx="4.00" ry="4.00" fill="#808080" stroke="#7b7b7b"/><text class="txt" x="23.00" y="149.40" font-size="16.00" fill="#000000">-6</text></g><g id="5"><rect x="89.00" y="94.80" width="40.00" height="54.60" rx="4.00" ry="4.00" fill="#808080" stroke="#7b7b7b"/><text class="txt" x="109.00" y="122.10" font-size="16.00" fill="#000000">-3</text></g><g id="6"><rect x="175.00" y="58.40" width="40.00" height="36.40" rx="3.64" ry="3.64" fill="#ffffff" stroke="#7b7b7b"/><text class="txt" x="195.00" y="76.60" font-size="16.00" fill="#000000">2</text></g><g id="7"><text x="20.00" y="216.00" font-size="12.00" font-family="Times,serif" fill="#7b7b7b">0</text></g><g id="8"><text x="63.00" y="216.00" font-size="12.00" font-family="Times,serif" fill="#7b7b7b">1</text></g><g id="9"><text x="106.00" y="216.00" font-size="12.00" font-family="Times,serif" fill="#7b7b7b">2</text></g><g id="10"><text x="149.00" y="216.00" font-size="12.00" font-family="Times,serif" fill="#7b7b7b">3</text></g><g id="11"><text x="192.00" y="216.00" font-size="12.00" font-family="Times,serif" fill="#7b7b7b">4</text></g><g id="12"><text x="235.00" y="216.00" font-size="12.00" font-family="Times,serif" fill="#7b7b7b">5</text></g><g id="13"><text x="278.00" y="216.00" font-size="12.00" font-family="Times,serif" fill="#7b7b7b">6</text></g><g id="14"><polyline points="150.00,17.00 152.00,19.00 154.00,17.00" fill="none" stroke="#2874a6"/><text class="txt" x="152.00" y="10.00" font-size="14.00" fill="#2874a6">P</text><line x1="152.00" y1="19.00" stroke="#2874a6" x2="152.00" y2="18.40"/><animateMotion path="m0,0 l0.00,0.00" begin="0S47.end+0.00s" dur="2.00s" fill="freeze"/><animateMotion path="m0,0 l0,0" begin="0E47.end" dur="0.01s" fill="freeze"/></g><animate attributeName="opacity" id="0S47" from="0" to="1" begin="0E46.begin" dur="0.01s" fill="freeze"/><animate attributeName="opacity" id="0E47" begin="0S47.begin+2.5s" from="1" to="0" dur="0.01s" fill="freeze"/></g><g class="frame" style="opacity:0" transform="translate(5,23.0)"><g id="0"><rect x="261.00" y="40.20" width="40.00" height="54.60" rx="4.00" ry="4.00" fill="#ffffff" stroke="#7b7b7b"/><text class="txt" x="281.00" y="67.50" font-size="16.00" fill="#000000">3</text></g><g id="1"><rect x="46.00" y="94.80" width="40.00" height="72.80" rx="4.00" ry="4.00" fill="#808080" stroke="#7b7b7b"/><text class="txt" x="66.00" y="131.20" font-size="16.00" fill="#000000">-4</text></g><g id="2"><rect x="132.00" y="94.80" width="40.00" height="18.20" rx="1.82" ry="1.82" fill="#c0c0c0" stroke="#7b7b7b"/><text class="txt" x="152.00" y="103.90" font-size="16.00" fill="#000000">-1</text></g><g id="3"><rect x="218.00" y="22.00" width="40.00" height="72.80" rx="4.00" ry="4.00" fill="#ffffff" stroke="#7b7b7b"/><text class="txt" x="238.00" y="58.40" font-size="16.00" fill="#000000">4</text></g><g id="4"><rect x="3.00" y="94.80" width="40.00" height="109.20" rx="4.00" ry="4.00" fill="#808080" stroke="#7b7b7b"/><text class="txt" x="23.00" y="149.40" font-size="16.00" fill="#000000">-6</text></g><g id="5"><rect x="89.00" y="94.80" width="40.00" height="54.60" rx="4.00" ry="4.00" fill="#808080" stroke="#7b7b7b"/><text class="txt" x="109.00" y="122.10" font-size="16.00" fill="#000000">-3</text></g><g id="6"><rect x="175.00" y="58.40" width="40.00" height="36.40" rx="3.64" ry="3.64" fill="#ffffff" stroke="#7b7b7b"/><text class="txt" x="195.00" y="76.60" font-size="16.00" fill="#000000">2</text></g><g id="7"><text x="20.00" y="216.00" font-size="12.00" font-family="Times,serif" fill="#7b7b7b">0</text></g><g id="8"><text x="63.00" y="216.00" font-size="12.00" font-family="Times,serif" fill="#7b7b7b">1</text></g><g id="9"><text x="106.00" y="216.00" font-size="12.00" font-family="Times,serif" fill="#7b7b7b">2</text></g><g id="10"><text x="149.00" y="216.00" font-size="12.00" font-family="Times,serif" fill="#7b7b7b">3</text></g><g id="11"><text x="192.00" y="216.00" font-size="12.00" font-family="Times,serif" fill="#7b7b7b">4</text></g><g id="12"><text x="235.00" y="216.00" font-size="12.00" font-family="Times,serif" fill="#7b7b7b">5</text></g><g id="13"><text x="278.00" y="216.00" font-size="12.00" font-family="Times,serif" fill="#7b7b7b">6</text></g><g id="14"><polyline points="150.00,17.00 152.00,19.00 154.00,17.00" fill="none" stroke="#2874a6"/><text class="txt" x="152.00" y="10.00" font-size="14.00" fill="#2874a6">P</text><line x1="152.00" y1="19.00" stroke="#2874a6" x2="152.00" y2="18.40"/><animateMotion path="m0,0 l43.00,0.00" begin="0S48.end+0.00s" dur="1.00s" fill="freeze"/><animateMotion path="m0,0 l0,0" begin="0E48.end" dur="0.01s" fill="freeze"/></g><animate attributeName="opacity" id="0S48" from="0" to="1" begin="0E47.begin" dur="0.01s" fill="freeze"/><animate attributeName="opacity" id="0E48" begin="0S48.begin+1.5s" from="1" to="0" dur="0.01s" fill="freeze"/></g><g class="frame" style="opacity:0" transform="translate(5,23.0)"><g id="0"><rect x="261.00" y="40.20" width="40.00" height="54.60" rx="4.00" ry="4.00" fill="#ffa500" stroke="#7b7b7b"/><text class="txt" x="281.00" y="67.50" font-size="16.00" fill="#000000">3</text></g><g id="1"><rect x="46.00" y="94.80" width="40.00" height="72.80" rx="4.00" ry="4.00" fill="#808080" stroke="#7b7b7b"/><text class="txt" x="66.00" y="131.20" font-size="16.00" fill="#000000">-4</text></g><g id="2"><rect x="132.00" y="94.80" width="40.00" height="18.20" rx="1.82" ry="1.82" fill="#c0c0c0" stroke="#7b7b7b"/><text class="txt" x="152.00" y="103.90" font-size="16.00" fill="#000000">-1</text></g><g id="3"><rect x="218.00" y="22.00" width="40.00" height="72.80" rx="4.00" ry="4.00" fill="#ffffff" stroke="#7b7b7b"/><text class="txt" x="238.00" y="58.40" font-size="16.00" fill="#000000">4</text></g><g id="4"><rect x="3.00" y="94.80" width="40.00" height="109.20" rx="4.00" ry="4.00" fill="#808080" stroke="#7b7b7b"/><text class="txt" x="23.00" y="149.40" font-size="16.00" fill="#000000">-6</text></g><g id="5"><rect x="89.00" y="94.80" width="40.00" height="54.60" rx="4.00" ry="4.00" fill="#808080" stroke="#7b7b7b"/><text class="txt" x="109.00" y="122.10" font-size="16.00" fill="#000000">-3</text></g><g id="6"><rect x="175.00" y="58.40" width="40.00" height="36.40" rx="3.64" ry="3.64" fill="#ff6347" stroke="#7b7b7b"/><text class="txt" x="195.00" y="76.60" font-size="16.00" fill="#000000">2</text></g><g id="7"><text x="20.00" y="216.00" font-size="12.00" font-family="Times,serif" fill="#7b7b7b">0</text></g><g id="8"><text x="63.00" y="216.00" font-size="12.00" font-family="Times,serif" fill="#7b7b7b">1</text></g><g id="9"><text x="106.00" y="216.00" font-size="12.00" font-family="Times,serif" fill="#7b7b7b">2</text></g><g id="10"><text x="149.00" y="216.00" font-size="12.00" font-family="Times,serif" fill="#7b7b7b">3</text></g><g id="11"><text x="192.00" y="216.00" font-size="12.00" font-family="Times,serif" fill="#7b7b7b">4</text></g><g id="12"><text x="235.00" y="216.00" font-size="12.00" font-family="Times,serif" fill="#7b7b7b">5</text></g><g id="13"><text x="278.00" y="216.00" font-size="12.00" font-family="Times,serif" fill="#7b7b7b">6</text></g><g id="14"><polyline points="193.00,17.00 195.00,19.00 197.00,17.00" fill="none" stroke="#2874a6"/><text class="txt" x="195.00" y="10.00" font-size="14.00" fill="#2874a6">P</text><line x1="195.00" y1="19.00" stroke="#2874a6" x2="195.00" y2="18.40"/><animateMotion path="m0,0 l0.00,0.00" begin="0S49.end+0.00s" dur="1.00s" fill="freeze"/><animateMotion path="m0,0 l0,0" begin="0E49.end" dur="0.01s" fill="freeze"/></g><animate attributeName="opacity" id="0S49" from="0" to="1" begin="0E48.begin" dur="0.01s" fill="freeze"/><animate attributeName="opacity" id="0E49" begin="0S49.begin+1.5s" from="1" to="0" dur="0.01s" fill="freeze"/></g><g class="frame" style="opacity:0" transform="translate(314,23.0)"><g id="graph0" class="graph" transform="scale(1 1) rotate(0) translate(4 328)"><polygon fill="transparent" stroke="transparent" points="-4,4 -4,-328 94,-328 94,4 -4,4"/><g id="node1" class="node"><ellipse fill="#ffffff" stroke="#7b7b7b" cx="45" cy="-306" rx="18" ry="18"/><text text-anchor="middle" x="45" y="-302.76" font-family="Times New Roman,serif" font-size="12.80" fill="#000000">root</text></g><g id="node2" class="node"><ellipse fill="#ffffff" stroke="#7b7b7b" cx="45" cy="-234" rx="18" ry="18"/><text text-anchor="middle" x="45" y="-230.3" font-family="Times New Roman,serif" font-size="14.00" fill="#000000">0:6</text></g><g id="edge1" class="edge"><path fill="none" stroke="#7b7b7b" d="M45,-287.7C45,-279.98 45,-270.71 45,-262.11"/><polygon fill="#7b7b7b" stroke="#7b7b7b" points="45,-252.1 49.5,-262.1 45,-257.1 45,-262.1 45,-262.1 45,-262.1 45,-257.1 40.5,-262.1 45,-252.1 45,-252.1"/></g><g id="node3" class="node"><ellipse fill="#ff6347" stroke="#7b7b7b" cx="45" cy="-162" rx="18" ry="18"/><text text-anchor="middle" x="45" y="-158.3" font-family="Times New Roman,serif" font-size="14.00" fill="#000000">0:3</text></g><g id="edge2" class="edge"><path fill="none" stroke="#7b7b7b" d="M45,-215.7C45,-207.98 45,-198.71 45,-190.11"/><polygon fill="#7b7b7b" stroke="#7b7b7b" points="45,-180.1 49.5,-190.1 45,-185.1 45,-190.1 45,-190.1 45,-190.1 45,-185.1 40.5,-190.1 45,-180.1 45,-180.1"/></g><g id="node4" class="node"><ellipse fill="#c0c0c0" stroke="#7b7b7b" cx="18" cy="-90" rx="18" ry="18"/><text text-anchor="middle" x="18" y="-86.3" font-family="Times New Roman,serif" font-size="14.00" fill="#000000">0:1</text></g><g id="edge4" class="edge"><path fill="none" stroke="#7b7b7b" d="M38.74,-144.76C35.5,-136.37 31.47,-125.93 27.83,-116.5"/><polygon fill="#7b7b7b" stroke="#7b7b7b" points="24.23,-107.15 32.03,-114.86 26.03,-111.81 27.83,-116.48 27.83,-116.48 27.83,-116.48 26.03,-111.81 23.63,-118.1 24.23,-107.15 24.23,-107.15"/></g><g id="node5" class="node"><ellipse fill="#ffffff" stroke="#7b7b7b" cx="72" cy="-90" rx="18" ry="18"/><text text-anchor="middle" x="72" y="-86.3" font-family="Times New Roman,serif" font-size="14.00" fill="#000000">1:3</text></g><g id="edge3" class="edge"><path fill="none" stroke="#7b7b7b" d="M51.26,-144.76C54.5,-136.37 58.53,-125.93 62.17,-116.5"/><polygon fill="#7b7b7b" stroke="#7b7b7b" points="65.77,-107.15 66.37,-118.1 63.97,-111.81 62.17,-116.48 62.17,-116.48 62.17,-116.48 63.97,-111.81 57.97,-114.86 65.77,-107.15 65.77,-107.15"/></g><g id="node6" class="node"><ellipse fill="#adff2f" stroke="#7b7b7b" cx="72" cy="-18" rx="18" ry="18"/><text text-anchor="middle" x="72" y="-14.3" font-family="Times New Roman,serif" font-size="14.00" fill="#000000">1:2</text></g><g id="edge5" class="edge"><path fill="none" stroke="#7b7b7b" d="M72,-71.7C72,-63.98 72,-54.71 72,-46.11"/><polygon fill="#7b7b7b" stroke="#7b7b7b" points="72,-36.1 76.5,-46.1 72,-41.1 72,-46.1 72,-46.1 72,-46.1 72,-41.1 67.5,-46.1 72,-36.1 72,-36.1"/></g></g><g id="graph1" class="graph" transform="scale(1 1) rotate(0) translate(4 328)"/><animate attributeName="opacity" id="1S44" from="0" to="1" begin="0s;1E49.end+0s" dur="0.01s" fill="freeze"/><animate attributeName="opacity" id="1E44" begin="1S44.begin+2.5s" from="1" to="0" dur="0.01s" fill="freeze"/></g><g class="frame" style="opacity:0" transform="translate(314,23.0)"><g id="graph0" class="graph" transform="scale(1 1) rotate(0) translate(4 328)"><polygon fill="transparent" stroke="transparent" points="-4,4 -4,-328 94,-328 94,4 -4,4"/><g id="node1" class="node"><ellipse fill="#ffffff" stroke="#7b7b7b" cx="45" cy="-306" rx="18" ry="18"/><text text-anchor="middle" x="45" y="-302.76" font-family="Times New Roman,serif" font-size="12.80" fill="#000000">root</text><animateMotion path="m0,0 l27.00,0.00" begin="1S45.end+0.20s" dur="0.48s" fill="freeze"/><animateMotion path="m0,0 l0,0" begin="1E45.end" dur="0.01s" fill="freeze"/></g><g id="node2" class="node"><ellipse fill="#ff6347" stroke="#7b7b7b" cx="45" cy="-234" rx="18" ry="18"/><text text-anchor="middle" x="45" y="-230.3" font-family="Times New Roman,serif" font-size="14.00" fill="#000000">0:6</text><animateMotion path="m0,0 l27.00,0.00" begin="1S45.end+0.20s" dur="0.48s" fill="freeze"/><animateMotion path="m0,0 l0,0" begin="1E45.end" dur="0.01s" fill="freeze"/></g><g id="edge1" class="edge" style="opacity:1"><path fill="none" stroke="#7b7b7b" d="M45,-287.7C45,-279.98 45,-270.71 45,-262.11"/><polygon fill="#7b7b7b" stroke="#7b7b7b" points="45,-252.1 49.5,-262.1 45,-257.1 45,-262.1 45,-262.1 45,-262.1 45,-257.1 40.5,-262.1 45,-252.1 45,-252.1"/><animate attributeName="opacity" from="1" to="0" begin="1S45.end+0.00s" dur="0.20s" fill="freeze"/><animate attributeName="opacity" from="0" to="1" begin="1E45.end" dur="0.01s" fill="freeze"/></g><g id="node3" class="node"><ellipse fill="#c0c0c0" stroke="#7b7b7b" cx="45" cy="-162" rx="18" ry="18"/><text text-anchor="middle" x="45" y="-158.3" font-family="Times New Roman,serif" font-size="14.00" fill="#000000">0:3</text></g><g id="edge2" class="edge" style="opacity:1"><path fill="none" stroke="#7b7b7b" d="M45,-215.7C45,-207.98 45,-198.71 45,-190.11"/><polygon fill="#7b7b7b" stroke="#7b7b7b" points="45,-180.1 49.5,-190.1 45,-185.1 45,-190.1 45,-190.1 45,-190.1 45,-185.1 40.5,-190.1 45,-180.1 45,-180.1"/><animate attributeName="opacity" from="1" to="0" begin="1S45.end+0.00s" dur="0.20s" fill="freeze"/><animate attributeName="opacity" from="0" to="1" begin="1E45.end" dur="0.01s" fill="freeze"/></g><g id="node4" class="node"><ellipse fill="#c0c0c0" stroke="#7b7b7b" cx="18" cy="-90" rx="18" ry="18"/><text text-anchor="middle" x="18" y="-86.3" font-family="Times New Roman,serif" font-size="14.00" fill="#000000">0:1</text></g><g id="edge4" class="edge"><path fill="none" stroke="#7b7b7b" d="M38.74,-144.76C35.5,-136.37 31.47,-125.93 27.83,-116.5"/><polygon fill="#7b7b7b" stroke="#7b7b7b" points="24.23,-107.15 32.03,-114.86 26.03,-111.81 27.83,-116.48 27.83,-116.48 27.83,-116.48 26.03,-111.81 23.63,-118.1 24.23,-107.15 24.23,-107.15"/></g><g id="node5" class="node"><ellipse fill="#c0c0c0" stroke="#7b7b7b" cx="72" cy="-90" rx="18" ry="18"/><text text-anchor="middle" x="72" y="-86.3" font-family="Times New Roman,serif" font-size="14.00" fill="#000000">1:3</text></g><g id="edge3" class="edge"><path fill="none" stroke="#7b7b7b" d="M51.26,-144.76C54.5,-136.37 58.53,-125.93 62.17,-116.5"/><polygon fill="#7b7b7b" stroke="#7b7b7b" points="65.77,-107.15 66.37,-118.1 63.97,-111.81 62.17,-116.48 62.17,-116.48 62.17,-116.48 63.97,-111.81 57.97,-114.86 65.77,-107.15 65.77,-107.15"/></g><g id="node6" class="node"><ellipse fill="#c0c0c0" stroke="#7b7b7b" cx="72" cy="-18" rx="18" ry="18"/><text text-anchor="middle" x="72" y="-14.3" font-family="Times New Roman,serif" font-size="14.00" fill="#000000">1:2</text></g><g id="edge5" class="edge"><path fill="none" stroke="#7b7b7b" d="M72,-71.7C72,-63.98 72,-54.71 72,-46.11"/><polygon fill="#7b7b7b" stroke="#7b7b7b" points="72,-36.1 76.5,-46.1 72,-41.1 72,-46.1 72,-46.1 72,-46.1 72,-41.1 67.5,-46.1 72,-36.1 72,-36.1"/></g></g><g id="graph1" class="graph" transform="scale(1 1) rotate(0) translate(4 328)"><g id="node7" class="node" style="opacity:0"><ellipse fill="#adff2f" stroke="#7b7b7b" cx="99" cy="-162" rx="18" ry="18"/><text text-anchor="middle" x="99" y="-158.3" font-family="Times New Roman,serif" font-size="14.00" fill="#000000">3:6</text><animate attributeName="opacity" from="0" to="1" begin="1S45.end+0.68s" dur="0.32s" fill="freeze"/><animate attributeName="opacity" from="1" to="0" begin="1E45.end" dur="0.01s" fill="freeze"/></g><g id="edge1" class="edge" style="opacity:0"><path fill="none" stroke="#7b7b7b" d="M72,-287.7C72,-279.98 72,-270.71 72,-262.11"/><polygon fill="#7b7b7b" stroke="#7b7b7b" points="72,-252.1 76.5,-262.1 72,-257.1 72,-262.1 72,-262.1 72,-262.1 72,-257.1 67.5,-262.1 72,-252.1 72,-252.1"/><animate attributeName="opacity" from="0" to="1" begin="1S45.end+0.68s" dur="0.32s" fill="freeze"/><animate attributeName="opacity" from="1" to="0" begin="1E45.end" dur="0.01s" fill="freeze"/></g><g id="edge2" class="edge" style="opacity:0"><path fill="none" stroke="#7b7b7b" d="M65.74,-216.76C62.5,-208.37 58.47,-197.93 54.83,-188.5"/><polygon fill="#7b7b7b" stroke="#7b7b7b" points="51.23,-179.15 59.03,-186.86 53.03,-183.81 54.83,-188.48 54.83,-188.48 54.83,-188.48 53.03,-183.81 50.63,-190.1 51.23,-179.15 51.23,-179.15"/><animate attributeName="opacity" from="0" to="1" begin="1S45.end+0.68s" dur="0.32s" fill="freeze"/><animate attributeName="opacity" from="1" to="0" begin="1E45.end" dur="0.01s" fill="freeze"/></g><g id="edge6" class="edge" style="opacity:0"><path fill="none" stroke="#7b7b7b" d="M78.26,-216.76C81.5,-208.37 85.53,-197.93 89.17,-188.5"/><polygon fill="#7b7b7b" stroke="#7b7b7b" points="92.77,-179.15 93.37,-190.1 90.97,-183.81 89.17,-188.48 89.17,-188.48 89.17,-188.48 90.97,-183.81 84.97,-186.86 92.77,-179.15 92.77,-179.15"/><animate attributeName="opacity" from="0" to="1" begin="1S45.end+0.68s" dur="0.32s" fill="freeze"/><animate attributeName="opacity" from="1" to="0" begin="1E45.end" dur="0.01s" fill="freeze"/></g></g><animate attributeName="opacity" id="1S45" from="0" to="1" begin="1E44.begin" dur="0.01s" fill="freeze"/><animate attributeName="opacity" id="1E45" begin="1S45.begin+1.5s" from="1" to="0" dur="0.01s" fill="freeze"/></g><g class="frame" style="opacity:0" transform="translate(314,23.0)"><g id="graph0" class="graph" transform="scale(1 1) rotate(0) translate(4 328)"><polygon fill="transparent" stroke="transparent" points="-4,4 -4,-328 121,-328 121,4 -4,4"/><g id="node1" class="node"><ellipse fill="#ffffff" stroke="#7b7b7b" cx="72" cy="-306" rx="18" ry="18"/><text text-anchor="middle" x="72" y="-302.76" font-family="Times New Roman,serif" font-size="12.80" fill="#000000">root</text></g><g id="node2" class="node"><ellipse fill="#ff6347" stroke="#7b7b7b" cx="72" cy="-234" rx="18" ry="18"/><text text-anchor="middle" x="72" y="-230.3" font-family="Times New Roman,serif" font-size="14.00" fill="#000000">0:6</text></g><g id="edge1" class="edge"><path fill="none" stroke="#7b7b7b" d="M72,-287.7C72,-279.98 72,-270.71 72,-262.11"/><polygon fill="#7b7b7b" stroke="#7b7b7b" points="72,-252.1 76.5,-262.1 72,-257.1 72,-262.1 72,-262.1 72,-262.1 72,-257.1 67.5,-262.1 72,-252.1 72,-252.1"/></g><g id="node3" class="node"><ellipse fill="#c0c0c0" stroke="#7b7b7b" cx="45" cy="-162" rx="18" ry="18"/><text text-anchor="middle" x="45" y="-158.3" font-family="Times New Roman,serif" font-size="14.00" fill="#000000">0:3</text></g><g id="edge3" class="edge"><path fill="none" stroke="#7b7b7b" d="M65.74,-216.76C62.5,-208.37 58.47,-197.93 54.83,-188.5"/><polygon fill="#7b7b7b" stroke="#7b7b7b" points="51.23,-179.15 59.03,-186.86 53.03,-183.81 54.83,-188.48 54.83,-188.48 54.83,-188.48 53.03,-183.81 50.63,-190.1 51.23,-179.15 51.23,-179.15"/></g><g id="node7" class="node"><ellipse fill="#adff2f" stroke="#7b7b7b" cx="99" cy="-162" rx="18" ry="18"/><text text-anchor="middle" x="99" y="-158.3" font-family="Times New Roman,serif" font-size="14.00" fill="#000000">3:6</text></g><g id="edge2" class="edge"><path fill="none" stroke="#7b7b7b" d="M78.26,-216.76C81.5,-208.37 85.53,-197.93 89.17,-188.5"/><polygon fill="#7b7b7b" stroke="#7b7b7b" points="92.77,-179.15 93.37,-190.1 90.97,-183.81 89.17,-188.48 89.17,-188.48 89.17,-188.48 90.97,-183.81 84.97,-186.86 92.77,-179.15 92.77,-179.15"/></g><g id="node4" class="node"><ellipse fill="#c0c0c0" stroke="#7b7b7b" cx="18" cy="-90" rx="18" ry="18"/><text text-anchor="middle" x="18" y="-86.3" font-family="Times New Roman,serif" font-size="14.00" fill="#000000">0:1</text></g><g id="edge5" class="edge"><path fill="none" stroke="#7b7b7b" d="M38.74,-144.76C35.5,-136.37 31.47,-125.93 27.83,-116.5"/><polygon fill="#7b7b7b" stroke="#7b7b7b" points="24.23,-107.15 32.03,-114.86 26.03,-111.81 27.83,-116.48 27.83,-116.48 27.83,-116.48 26.03,-111.81 23.63,-118.1 24.23,-107.15 24.23,-107.15"/></g><g id="node5" class="node"><ellipse fill="#c0c0c0" stroke="#7b7b7b" cx="72" cy="-90" rx="18" ry="18"/><text text-anchor="middle" x="72" y="-86.3" font-family="Times New Roman,serif" font-size="14.00" fill="#000000">1:3</text></g><g id="edge4" class="edge"><path fill="none" stroke="#7b7b7b" d="M51.26,-144.76C54.5,-136.37 58.53,-125.93 62.17,-116.5"/><polygon fill="#7b7b7b" stroke="#7b7b7b" points="65.77,-107.15 66.37,-118.1 63.97,-111.81 62.17,-116.48 62.17,-116.48 62.17,-116.48 63.97,-111.81 57.97,-114.86 65.77,-107.15 65.77,-107.15"/></g><g id="node6" class="node"><ellipse fill="#c0c0c0" stroke="#7b7b7b" cx="72" cy="-18" rx="18" ry="18"/><text text-anchor="middle" x="72" y="-14.3" font-family="Times New Roman,serif" font-size="14.00" fill="#000000">1:2</text></g><g id="edge6" class="edge"><path fill="none" stroke="#7b7b7b" d="M72,-71.7C72,-63.98 72,-54.71 72,-46.11"/><polygon fill="#7b7b7b" stroke="#7b7b7b" points="72,-36.1 76.5,-46.1 72,-41.1 72,-46.1 72,-46.1 72,-46.1 72,-41.1 67.5,-46.1 72,-36.1 72,-36.1"/></g></g><g id="graph1" class="graph" transform="scale(1 1) rotate(0) translate(4 328)"/><animate attributeName="opacity" id="1S46" from="0" to="1" begin="1E45.begin" dur="0.01s" fill="freeze"/><animate attributeName="opacity" id="1E46" begin="1S46.begin+1.5s" from="1" to="0" dur="0.01s" fill="freeze"/></g><g class="frame" style="opacity:0" transform="translate(314,23.0)"><g id="graph0" class="graph" transform="scale(1 1) rotate(0) translate(4 328)"><polygon fill="transparent" stroke="transparent" points="-4,4 -4,-328 121,-328 121,4 -4,4"/><g id="node1" class="node"><ellipse fill="#ffffff" stroke="#7b7b7b" cx="72" cy="-306" rx="18" ry="18"/><text text-anchor="middle" x="72" y="-302.76" font-family="Times New Roman,serif" font-size="12.80" fill="#000000">root</text></g><g id="node2" class="node"><ellipse fill="#ff6347" stroke="#7b7b7b" cx="72" cy="-234" rx="18" ry="18"/><text text-anchor="middle" x="72" y="-230.3" font-family="Times New Roman,serif" font-size="14.00" fill="#000000">0:6</text></g><g id="edge1" class="edge"><path fill="none" stroke="#7b7b7b" d="M72,-287.7C72,-279.98 72,-270.71 72,-262.11"/><polygon fill="#7b7b7b" stroke="#7b7b7b" points="72,-252.1 76.5,-262.1 72,-257.1 72,-262.1 72,-262.1 72,-262.1 72,-257.1 67.5,-262.1 72,-252.1 72,-252.1"/></g><g id="node3" class="node"><ellipse fill="#c0c0c0" stroke="#7b7b7b" cx="45" cy="-162" rx="18" ry="18"/><text text-anchor="middle" x="45" y="-158.3" font-family="Times New Roman,serif" font-size="14.00" fill="#000000">0:3</text></g><g id="edge3" class="edge"><path fill="none" stroke="#7b7b7b" d="M65.74,-216.76C62.5,-208.37 58.47,-197.93 54.83,-188.5"/><polygon fill="#7b7b7b" stroke="#7b7b7b" points="51.23,-179.15 59.03,-186.86 53.03,-183.81 54.83,-188.48 54.83,-188.48 54.83,-188.48 53.03,-183.81 50.63,-190.1 51.23,-179.15 51.23,-179.15"/></g><g id="node7" class="node"><ellipse fill="#adff2f" stroke="#7b7b7b" cx="99" cy="-162" rx="18" ry="18"/><text text-anchor="middle" x="99" y="-158.3" font-family="Times New Roman,serif" font-size="14.00" fill="#000000">3:6</text></g><g id="edge2" class="edge"><path fill="none" stroke="#7b7b7b" d="M78.26,-216.76C81.5,-208.37 85.53,-197.93 89.17,-188.5"/><polygon fill="#7b7b7b" stroke="#7b7b7b" points="92.77,-179.15 93.37,-190.1 90.97,-183.81 89.17,-188.48 89.17,-188.48 89.17,-188.48 90.97,-183.81 84.97,-186.86 92.77,-179.15 92.77,-179.15"/></g><g id="node4" class="node"><ellipse fill="#c0c0c0" stroke="#7b7b7b" cx="18" cy="-90" rx="18" ry="18"/><text text-anchor="middle" x="18" y="-86.3" font-family="Times New Roman,serif" font-size="14.00" fill="#000000">0:1</text></g><g id="edge5" class="edge"><path fill="none" stroke="#7b7b7b" d="M38.74,-144.76C35.5,-136.37 31.47,-125.93 27.83,-116.5"/><polygon fill="#7b7b7b" stroke="#7b7b7b" points="24.23,-107.15 32.03,-114.86 26.03,-111.81 27.83,-116.48 27.83,-116.48 27.83,-116.48 26.03,-111.81 23.63,-118.1 24.23,-107.15 24.23,-107.15"/></g><g id="node5" class="node"><ellipse fill="#c0c0c0" stroke="#7b7b7b" cx="72" cy="-90" rx="18" ry="18"/><text text-anchor="middle" x="72" y="-86.3" font-family="Times New Roman,serif" font-size="14.00" fill="#000000">1:3</text></g><g id="edge4" class="edge"><path fill="none" stroke="#7b7b7b" d="M51.26,-144.76C54.5,-136.37 58.53,-125.93 62.17,-116.5"/><polygon fill="#7b7b7b" stroke="#7b7b7b" points="65.77,-107.15 66.37,-118.1 63.97,-111.81 62.17,-116.48 62.17,-116.48 62.17,-116.48 63.97,-111.81 57.97,-114.86 65.77,-107.15 65.77,-107.15"/></g><g id="node6" class="node"><ellipse fill="#c0c0c0" stroke="#7b7b7b" cx="72" cy="-18" rx="18" ry="18"/><text text-anchor="middle" x="72" y="-14.3" font-family="Times New Roman,serif" font-size="14.00" fill="#000000">1:2</text></g><g id="edge6" class="edge"><path fill="none" stroke="#7b7b7b" d="M72,-71.7C72,-63.98 72,-54.71 72,-46.11"/><polygon fill="#7b7b7b" stroke="#7b7b7b" points="72,-36.1 76.5,-46.1 72,-41.1 72,-46.1 72,-46.1 72,-46.1 72,-41.1 67.5,-46.1 72,-36.1 72,-36.1"/></g></g><g id="graph1" class="graph" transform="scale(1 1) rotate(0) translate(4 328)"/><animate attributeName="opacity" id="1S47" from="0" to="1" begin="1E46.begin" dur="0.01s" fill="freeze"/><animate attributeName="opacity" id="1E47" begin="1S47.begin+2.5s" from="1" to="0" dur="0.01s" fill="freeze"/></g><g class="frame" style="opacity:0" transform="translate(314,23.0)"><g id="graph0" class="graph" transform="scale(1 1) rotate(0) translate(4 328)"><polygon fill="transparent" stroke="transparent" points="-4,4 -4,-328 121,-328 121,4 -4,4"/><g id="node1" class="node"><ellipse fill="#ffffff" stroke="#7b7b7b" cx="72" cy="-306" rx="18" ry="18"/><text text-anchor="middle" x="72" y="-302.76" font-family="Times New Roman,serif" font-size="12.80" fill="#000000">root</text></g><g id="node2" class="node"><ellipse fill="#ff6347" stroke="#7b7b7b" cx="72" cy="-234" rx="18" ry="18"/><text text-anchor="middle" x="72" y="-230.3" font-family="Times New Roman,serif" font-size="14.00" fill="#000000">0:6</text></g><g id="edge1" class="edge"><path fill="none" stroke="#7b7b7b" d="M72,-287.7C72,-279.98 72,-270.71 72,-262.11"/><polygon fill="#7b7b7b" stroke="#7b7b7b" points="72,-252.1 76.5,-262.1 72,-257.1 72,-262.1 72,-262.1 72,-262.1 72,-257.1 67.5,-262.1 72,-252.1 72,-252.1"/></g><g id="node3" class="node"><ellipse fill="#c0c0c0" stroke="#7b7b7b" cx="45" cy="-162" rx="18" ry="18"/><text text-anchor="middle" x="45" y="-158.3" font-family="Times New Roman,serif" font-size="14.00" fill="#000000">0:3</text></g><g id="edge3" class="edge"><path fill="none" stroke="#7b7b7b" d="M65.74,-216.76C62.5,-208.37 58.47,-197.93 54.83,-188.5"/><polygon fill="#7b7b7b" stroke="#7b7b7b" points="51.23,-179.15 59.03,-186.86 53.03,-183.81 54.83,-188.48 54.83,-188.48 54.83,-188.48 53.03,-183.81 50.63,-190.1 51.23,-179.15 51.23,-179.15"/></g><g id="node7" class="node"><ellipse fill="#adff2f" stroke="#7b7b7b" cx="99" cy="-162" rx="18" ry="18"/><text text-anchor="middle" x="99" y="-158.3" font-family="Times New Roman,serif" font-size="14.00" fill="#000000">3:6</text></g><g id="edge2" class="edge"><path fill="none" stroke="#7b7b7b" d="M78.26,-216.76C81.5,-208.37 85.53,-197.93 89.17,-188.5"/><polygon fill="#7b7b7b" stroke="#7b7b7b" points="92.77,-179.15 93.37,-190.1 90.97,-183.81 89.17,-188.48 89.17,-188.48 89.17,-188.48 90.97,-183.81 84.97,-186.86 92.77,-179.15 92.77,-179.15"/></g><g id="node4" class="node"><ellipse fill="#c0c0c0" stroke="#7b7b7b" cx="18" cy="-90" rx="18" ry="18"/><text text-anchor="middle" x="18" y="-86.3" font-family="Times New Roman,serif" font-size="14.00" fill="#000000">0:1</text></g><g id="edge5" class="edge"><path fill="none" stroke="#7b7b7b" d="M38.74,-144.76C35.5,-136.37 31.47,-125.93 27.83,-116.5"/><polygon fill="#7b7b7b" stroke="#7b7b7b" points="24.23,-107.15 32.03,-114.86 26.03,-111.81 27.83,-116.48 27.83,-116.48 27.83,-116.48 26.03,-111.81 23.63,-118.1 24.23,-107.15 24.23,-107.15"/></g><g id="node5" class="node"><ellipse fill="#c0c0c0" stroke="#7b7b7b" cx="72" cy="-90" rx="18" ry="18"/><text text-anchor="middle" x="72" y="-86.3" font-family="Times New Roman,serif" font-size="14.00" fill="#000000">1:3</text></g><g id="edge4" class="edge"><path fill="none" stroke="#7b7b7b" d="M51.26,-144.76C54.5,-136.37 58.53,-125.93 62.17,-116.5"/><polygon fill="#7b7b7b" stroke="#7b7b7b" points="65.77,-107.15 66.37,-118.1 63.97,-111.81 62.17,-116.48 62.17,-116.48 62.17,-116.48 63.97,-111.81 57.97,-114.86 65.77,-107.15 65.77,-107.15"/></g><g id="node6" class="node"><ellipse fill="#c0c0c0" stroke="#7b7b7b" cx="72" cy="-18" rx="18" ry="18"/><text text-anchor="middle" x="72" y="-14.3" font-family="Times New Roman,serif" font-size="14.00" fill="#000000">1:2</text></g><g id="edge6" class="edge"><path fill="none" stroke="#7b7b7b" d="M72,-71.7C72,-63.98 72,-54.71 72,-46.11"/><polygon fill="#7b7b7b" stroke="#7b7b7b" points="72,-36.1 76.5,-46.1 72,-41.1 72,-46.1 72,-46.1 72,-46.1 72,-41.1 67.5,-46.1 72,-36.1 72,-36.1"/></g></g><g id="graph1" class="graph" transform="scale(1 1) rotate(0) translate(4 328)"/><animate attributeName="opacity" id="1S48" from="0" to="1" begin="1E47.begin" dur="0.01s" fill="freeze"/><animate attributeName="opacity" id="1E48" begin="1S48.begin+1.5s" from="1" to="0" dur="0.01s" fill="freeze"/></g><g class="frame" style="opacity:0" transform="translate(314,23.0)"><g id="graph0" class="graph" transform="scale(1 1) rotate(0) translate(4 328)"><polygon fill="transparent" stroke="transparent" points="-4,4 -4,-328 121,-328 121,4 -4,4"/><g id="node1" class="node"><ellipse fill="#ffffff" stroke="#7b7b7b" cx="72" cy="-306" rx="18" ry="18"/><text text-anchor="middle" x="72" y="-302.76" font-family="Times New Roman,serif" font-size="12.80" fill="#000000">root</text></g><g id="node2" class="node"><ellipse fill="#ff6347" stroke="#7b7b7b" cx="72" cy="-234" rx="18" ry="18"/><text text-anchor="middle" x="72" y="-230.3" font-family="Times New Roman,serif" font-size="14.00" fill="#000000">0:6</text></g><g id="edge1" class="edge"><path fill="none" stroke="#7b7b7b" d="M72,-287.7C72,-279.98 72,-270.71 72,-262.11"/><polygon fill="#7b7b7b" stroke="#7b7b7b" points="72,-252.1 76.5,-262.1 72,-257.1 72,-262.1 72,-262.1 72,-262.1 72,-257.1 67.5,-262.1 72,-252.1 72,-252.1"/></g><g id="node3" class="node"><ellipse fill="#c0c0c0" stroke="#7b7b7b" cx="45" cy="-162" rx="18" ry="18"/><text text-anchor="middle" x="45" y="-158.3" font-family="Times New Roman,serif" font-size="14.00" fill="#000000">0:3</text></g><g id="edge3" class="edge"><path fill="none" stroke="#7b7b7b" d="M65.74,-216.76C62.5,-208.37 58.47,-197.93 54.83,-188.5"/><polygon fill="#7b7b7b" stroke="#7b7b7b" points="51.23,-179.15 59.03,-186.86 53.03,-183.81 54.83,-188.48 54.83,-188.48 54.83,-188.48 53.03,-183.81 50.63,-190.1 51.23,-179.15 51.23,-179.15"/></g><g id="node7" class="node"><ellipse fill="#adff2f" stroke="#7b7b7b" cx="99" cy="-162" rx="18" ry="18"/><text text-anchor="middle" x="99" y="-158.3" font-family="Times New Roman,serif" font-size="14.00" fill="#000000">3:6</text></g><g id="edge2" class="edge"><path fill="none" stroke="#7b7b7b" d="M78.26,-216.76C81.5,-208.37 85.53,-197.93 89.17,-188.5"/><polygon fill="#7b7b7b" stroke="#7b7b7b" points="92.77,-179.15 93.37,-190.1 90.97,-183.81 89.17,-188.48 89.17,-188.48 89.17,-188.48 90.97,-183.81 84.97,-186.86 92.77,-179.15 92.77,-179.15"/></g><g id="node4" class="node"><ellipse fill="#c0c0c0" stroke="#7b7b7b" cx="18" cy="-90" rx="18" ry="18"/><text text-anchor="middle" x="18" y="-86.3" font-family="Times New Roman,serif" font-size="14.00" fill="#000000">0:1</text></g><g id="edge5" class="edge"><path fill="none" stroke="#7b7b7b" d="M38.74,-144.76C35.5,-136.37 31.47,-125.93 27.83,-116.5"/><polygon fill="#7b7b7b" stroke="#7b7b7b" points="24.23,-107.15 32.03,-114.86 26.03,-111.81 27.83,-116.48 27.83,-116.48 27.83,-116.48 26.03,-111.81 23.63,-118.1 24.23,-107.15 24.23,-107.15"/></g><g id="node5" class="node"><ellipse fill="#c0c0c0" stroke="#7b7b7b" cx="72" cy="-90" rx="18" ry="18"/><text text-anchor="middle" x="72" y="-86.3" font-family="Times New Roman,serif" font-size="14.00" fill="#000000">1:3</text></g><g id="edge4" class="edge"><path fill="none" stroke="#7b7b7b" d="M51.26,-144.76C54.5,-136.37 58.53,-125.93 62.17,-116.5"/><polygon fill="#7b7b7b" stroke="#7b7b7b" points="65.77,-107.15 66.37,-118.1 63.97,-111.81 62.17,-116.48 62.17,-116.48 62.17,-116.48 63.97,-111.81 57.97,-114.86 65.77,-107.15 65.77,-107.15"/></g><g id="node6" class="node"><ellipse fill="#c0c0c0" stroke="#7b7b7b" cx="72" cy="-18" rx="18" ry="18"/><text text-anchor="middle" x="72" y="-14.3" font-family="Times New Roman,serif" font-size="14.00" fill="#000000">1:2</text></g><g id="edge6" class="edge"><path fill="none" stroke="#7b7b7b" d="M72,-71.7C72,-63.98 72,-54.71 72,-46.11"/><polygon fill="#7b7b7b" stroke="#7b7b7b" points="72,-36.1 76.5,-46.1 72,-41.1 72,-46.1 72,-46.1 72,-46.1 72,-41.1 67.5,-46.1 72,-36.1 72,-36.1"/></g></g><g id="graph1" class="graph" transform="scale(1 1) rotate(0) translate(4 328)"/><animate attributeName="opacity" id="1S49" from="0" to="1" begin="1E48.begin" dur="0.01s" fill="freeze"/><animate attributeName="opacity" id="1E49" begin="1S49.begin+1.5s" from="1" to="0" dur="0.01s" fill="freeze"/></g><g><animate attributeName="opacity" begin="2S50.begin" from="1" to="0" dur="0.01s" fill="freeze"/><animate attributeName="opacity" from="0" to="1" begin="2E50.end" dur="0.01s" fill="freeze"/><text x="10.00" y="19.40" font-size="12.00" fill="#808080">Numbers:</text><text x="319.00" y="19.40" font-size="12.00" fill="#808080">Recursive tree:</text><rect x="5.00" y="5.00" width="304.00" height="237.00" stroke="#C0C0C0" stroke-dasharray="1, 5" fill="none"/><rect x="314.00" y="5.00" width="206.00" height="350.00" stroke="#C0C0C0" stroke-dasharray="1, 5" fill="none"/></g></a></svg>