<?xml version="1.0" ?><svg xmlns="http://www.w3.org/2000/svg" xmlns:xlink="http://www.w3.org/1999/xlink" width="486pt" height="108pt" viewBox="0.00 0.00 486.00 108.00"><style>.txt { alignment-baseline:middle; text-anchor:middle; font-family:Times,serif; }</style><a xlink:href="https://algviz.com/"><g class="frame" style="opacity:0" transform="translate(5,5.0)"><g id="graph0" class="graph" transform="scale(1 1) rotate(0) translate(4 94)"><polygon fill="transparent" stroke="transparent" points="-4,4 -4,-94 328,-94 328,4 -4,4"/><g id="node1" class="node"><ellipse fill="#ffffff" stroke="#7b7b7b" cx="90" cy="-18" rx="18" ry="18"/><text text-anchor="middle" x="90" y="-14.3" font-family="Times New Roman,serif" font-size="14.00" fill="#000000">1</text><animateMotion path="m0,0 l72.00,0.00" begin="0S3.end+0.20s" dur="0.48s" fill="freeze"/><animateMotion path="m0,0 l0,0" begin="0E3.end" dur="0.01s" fill="freeze"/></g><g id="node2" class="node"><ellipse fill="#ffffff" stroke="#7b7b7b" cx="18" cy="-18" rx="18" ry="18"/><text text-anchor="middle" x="18" y="-14.3" font-family="Times New Roman,serif" font-size="14.00" fill="#000000">2</text><animateMotion path="m0,0 l72.00,0.00" begin="0S3.end+0.20s" dur="0.48s" fill="freeze"/><animateMotion path="m0,0 l0,0" begin="0E3.end" dur="0.01s" fill="freeze"/></g><g id="edge1" class="edge" style="opacity:1"><path fill="none" stroke="#7b7b7b" d="M36.3,-18C44.02,-18 53.29,-18 61.89,-18"/><polygon fill="#7b7b7b" stroke="#7b7b7b" points="71.9,-18 61.9,-22.5 66.9,-18 61.9,-18 61.9,-18 61.9,-18 66.9,-18 61.9,-13.5 71.9,-18 71.9,-18"/><animate attributeName="opacity" from="1" to="0" begin="0S3.end+0.00s" dur="0.20s" fill="freeze"/><animate attributeName="opacity" from="0" to="1" begin="0E3.end" dur="0.01s" fill="freeze"/></g><g id="node3" class="node"><ellipse fill="#ffd700" stroke="#7b7b7b" cx="18" cy="-72" rx="18" ry="18"/><text text-anchor="middle" x="18" y="-68.3" font-family="Times New Roman,serif" font-size="14.00" fill="#000000">3</text><animateMotion path="m0,0 l0.00,54.00" begin="0S3.end+0.20s" dur="0.48s" fill="freeze"/><animateMotion path="m0,0 l0,0" begin="0E3.end" dur="0.01s" fill="freeze"/></g><g id="node4" class="node"><ellipse fill="#00ffff" stroke="#7b7b7b" cx="90" cy="-72" rx="18" ry="18"/><text text-anchor="middle" x="90" y="-68.3" font-family="Times New Roman,serif" font-size="14.00" fill="#000000">4</text><animateMotion path="m0,0 l-72.00,0.00" begin="0S3.end+0.20s" dur="0.48s" fill="freeze"/><animateMotion path="m0,0 l0,0" begin="0E3.end" dur="0.01s" fill="freeze"/></g><g id="edge2" class="edge" style="opacity:1"><path fill="none" stroke="#7b7b7b" d="M36.3,-72C44.02,-72 53.29,-72 61.89,-72"/><polygon fill="#7b7b7b" stroke="#7b7b7b" points="71.9,-72 61.9,-76.5 66.9,-72 61.9,-72 61.9,-72 61.9,-72 66.9,-72 61.9,-67.5 71.9,-72 71.9,-72"/><animate attributeName="opacity" from="1" to="0" begin="0S3.end+0.00s" dur="0.20s" fill="freeze"/><animate attributeName="opacity" from="0" to="1" begin="0E3.end" dur="0.01s" fill="freeze"/></g><g id="node5" class="node"><ellipse fill="#ffffff" stroke="#7b7b7b" cx="162" cy="-72" rx="18" ry="18"/><text text-anchor="middle" x="162" y="-68.3" font-family="Times New Roman,serif" font-size="14.00" fill="#000000">5</text><animateMotion path="m0,0 l-72.00,0.00" begin="0S3.end+0.20s" dur="0.48s" fill="freeze"/><animateMotion path="m0,0 l0,0" begin="0E3.end" dur="0.01s" fill="freeze"/></g><g id="edge3" class="edge" style="opacity:1"><path fill="none" stroke="#7b7b7b" d="M108.3,-72C116.02,-72 125.29,-72 133.89,-72"/><polygon fill="#7b7b7b" stroke="#7b7b7b" points="143.9,-72 133.9,-76.5 138.9,-72 133.9,-72 133.9,-72 133.9,-72 138.9,-72 133.9,-67.5 143.9,-72 143.9,-72"/><animate attributeName="opacity" from="1" to="0" begin="0S3.end+0.00s" dur="0.20s" fill="freeze"/><animate attributeName="opacity" from="0" to="1" begin="0E3.end" dur="0.01s" fill="freeze"/></g><g id="node6" class="node"><ellipse fill="#ffffff" stroke="#7b7b7b" cx="234" cy="-72" rx="18" ry="18"/><text text-anchor="middle" x="234" y="-68.3" font-family="Times New Roman,serif" font-size="14.00" fill="#000000">6</text><animateMotion path="m0,0 l-72.00,0.00" begin="0S3.end+0.20s" dur="0.48s" fill="freeze"/><animateMotion path="m0,0 l0,0" begin="0E3.end" dur="0.01s" fill="freeze"/></g><g id="edge4" class="edge" style="opacity:1"><path fill="none" stroke="#7b7b7b" d="M180.3,-72C188.02,-72 197.29,-72 205.89,-72"/><polygon fill="#7b7b7b" stroke="#7b7b7b" points="215.9,-72 205.9,-76.5 210.9,-72 205.9,-72 205.9,-72 205.9,-72 210.9,-72 205.9,-67.5 215.9,-72 215.9,-72"/><animate attributeName="opacity" from="1" to="0" begin="0S3.end+0.00s" dur="0.20s" fill="freeze"/><animate attributeName="opacity" from="0" to="1" begin="0E3.end" dur="0.01s" fill="freeze"/></g><g id="node7" class="node"><ellipse fill="#ffffff" stroke="#7b7b7b" cx="306" cy="-72" rx="18" ry="18"/><text text-anchor="middle" x="306" y="-68.3" font-family="Times New Roman,serif" font-size="14.00" fill="#000000">7</text><animateMotion path="m0,0 l-72.00,0.00" begin="0S3.end+0.20s" dur="0.48s" fill="freeze"/><animateMotion path="m0,0 l0,0" begin="0E3.end" dur="0.01s" fill="freeze"/></g><g id="edge5" class="edge" style="opacity:1"><path fill="none" stroke="#7b7b7b" d="M252.3,-72C260.02,-72 269.29,-72 277.89,-72"/><polygon fill="#7b7b7b" stroke="#7b7b7b" points="287.9,-72 277.9,-76.5 282.9,-72 277.9,-72 277.9,-72 277.9,-72 282.9,-72 277.9,-67.5 287.9,-72 287.9,-72"/><animate attributeName="opacity" from="1" to="0" begin="0S3.end+0.00s" dur="0.20s" fill="freeze"/><animate attributeName="opacity" from="0" to="1" begin="0E3.end" dur="0.01s" fill="freeze"/></g></g><g id="graph1" class="graph" transform="scale(1 1) rotate(0) translate(4 94)"><g id="edge1" class="edge" style="opacity:0"><path fill="none" stroke="#7b7b7b" d="M108.3,-18C116.02,-18 125.29,-18 133.89,-18"/><polygon fill="#7b7b7b" stroke="#7b7b7b" points="143.9,-18 133.9,-22.5 138.9,-18 133.9,-18 133.9,-18 133.9,-18 138.9,-18 133.9,-13.5 143.9,-18 143.9,-18"/><animate attributeName="opacity" from="0" to="1" begin="0S3.end+0.68s" dur="0.32s" fill="freeze"/><animate attributeName="opacity" from="1" to="0" begin="0E3.end" dur="0.01s" fill="freeze"/></g><g id="edge6" class="edge" style="opacity:0"><path fill="none" stroke="#7b7b7b" d="M36.3,-18C44.02,-18 53.29,-18 61.89,-18"/><polygon fill="#7b7b7b" stroke="#7b7b7b" points="71.9,-18 61.9,-22.5 66.9,-18 61.9,-18 61.9,-18 61.9,-18 66.9,-18 61.9,-13.5 71.9,-18 71.9,-18"/><animate attributeName="opacity" from="0" to="1" begin="0S3.end+0.68s" dur="0.32s" fill="freeze"/><animate attributeName="opacity" from="1" to="0" begin="0E3.end" dur="0.01s" fill="freeze"/></g><g id="edge3" class="edge" style="opacity:0"><path fill="none" stroke="#7b7b7b" d="M36.3,-72C44.02,-72 53.29,-72 61.89,-72"/><polygon fill="#7b7b7b" stroke="#7b7b7b" points="71.9,-72 61.9,-76.5 66.9,-72 61.9,-72 61.9,-72 61.9,-72 66.9,-72 61.9,-67.5 71.9,-72 71.9,-72"/><animate attributeName="opacity" from="0" to="1" begin="0S3.end+0.68s" dur="0.32s" fill="freeze"/><animate attributeName="opacity" from="1" to="0" begin="0E3.end" dur="0.01s" fill="freeze"/></g><g id="edge4" class="edge" style="opacity:0"><path fill="none" stroke="#7b7b7b" d="M108.3,-72C116.02,-72 125.29,-72 133.89,-72"/><polygon fill="#7b7b7b" stroke="#7b7b7b" points="143.9,-72 133.9,-76.5 138.9,-72 133.9,-72 133.9,-72 133.9,-72 138.9,-72 133.9,-67.5 143.9,-72 143.9,-72"/><animate attributeName="opacity" from="0" to="1" begin="0S3.end+0.68s" dur="0.32s" fill="freeze"/><animate attributeName="opacity" from="1" to="0" begin="0E3.end" dur="0.01s" fill="freeze"/></g><g id="edge5" class="edge" style="opacity:0"><path fill="none" stroke="#7b7b7b" d="M180.3,-72C188.02,-72 197.29,-72 205.89,-72"/><polygon fill="#7b7b7b" stroke="#7b7b7b" points="215.9,-72 205.9,-76.5 210.9,-72 205.9,-72 205.9,-72 205.9,-72 210.9,-72 205.9,-67.5 215.9,-72 215.9,-72"/><animate attributeName="opacity" from="0" to="1" begin="0S3.end+0.68s" dur="0.32s" fill="freeze"/><animate attributeName="opacity" from="1" to="0" begin="0E3.end" dur="0.01s" fill="freeze"/></g></g><animate attributeName="opacity" id="0S3" from="0" to="1" begin="0s;0E4.end+0s" dur="0.01s" fill="freeze"/><animate attributeName="opacity" id="0E3" begin="0S3.begin+1.5s" from="1" to="0" dur="0.01s" fill="freeze"/></g><g class="frame" style="opacity:0" transform="translate(5,5.0)"><g id="graph0" class="graph" transform="scale(1 1) rotate(0) translate(4 94)"><polygon fill="transparent" stroke="transparent" points="-4,4 -4,-94 256,-94 256,4 -4,4"/><g id="node1" class="node"><ellipse fill="#ffffff" stroke="#7b7b7b" cx="162" cy="-18" rx="18" ry="18"/><text text-anchor="middle" x="162" y="-14.3" font-family="Times New Roman,serif" font-size="14.00" fill="#000000">1</text><animateMotion path="m0,0 l72.00,0.00" begin="0S4.end+0.20s" dur="0.48s" fill="freeze"/><animateMotion path="m0,0 l0,0" begin="0E4.end" dur="0.01s" fill="freeze"/></g><g id="node2" class="node"><ellipse fill="#ffffff" stroke="#7b7b7b" cx="90" cy="-18" rx="18" ry="18"/><text text-anchor="middle" x="90" y="-14.3" font-family="Times New Roman,serif" font-size="14.00" fill="#000000">2</text><animateMotion path="m0,0 l72.00,0.00" begin="0S4.end+0.20s" dur="0.48s" fill="freeze"/><animateMotion path="m0,0 l0,0" begin="0E4.end" dur="0.01s" fill="freeze"/></g><g id="edge1" class="edge" style="opacity:1"><path fill="none" stroke="#7b7b7b" d="M108.3,-18C116.02,-18 125.29,-18 133.89,-18"/><polygon fill="#7b7b7b" stroke="#7b7b7b" points="143.9,-18 133.9,-22.5 138.9,-18 133.9,-18 133.9,-18 133.9,-18 138.9,-18 133.9,-13.5 143.9,-18 143.9,-18"/><animate attributeName="opacity" from="1" to="0" begin="0S4.end+0.00s" dur="0.20s" fill="freeze"/><animate attributeName="opacity" from="0" to="1" begin="0E4.end" dur="0.01s" fill="freeze"/></g><g id="node3" class="node"><ellipse fill="#ffffff" stroke="#7b7b7b" cx="18" cy="-18" rx="18" ry="18"/><text text-anchor="middle" x="18" y="-14.3" font-family="Times New Roman,serif" font-size="14.00" fill="#000000">3</text><animateMotion path="m0,0 l72.00,0.00" begin="0S4.end+0.20s" dur="0.48s" fill="freeze"/><animateMotion path="m0,0 l0,0" begin="0E4.end" dur="0.01s" fill="freeze"/></g><g id="edge2" class="edge" style="opacity:1"><path fill="none" stroke="#7b7b7b" d="M36.3,-18C44.02,-18 53.29,-18 61.89,-18"/><polygon fill="#7b7b7b" stroke="#7b7b7b" points="71.9,-18 61.9,-22.5 66.9,-18 61.9,-18 61.9,-18 61.9,-18 66.9,-18 61.9,-13.5 71.9,-18 71.9,-18"/><animate attributeName="opacity" from="1" to="0" begin="0S4.end+0.00s" dur="0.20s" fill="freeze"/><animate attributeName="opacity" from="0" to="1" begin="0E4.end" dur="0.01s" fill="freeze"/></g><g id="node4" class="node"><ellipse fill="#ffd700" stroke="#7b7b7b" cx="18" cy="-72" rx="18" ry="18"/><text text-anchor="middle" x="18" y="-68.3" font-family="Times New Roman,serif" font-size="14.00" fill="#000000">4</text><animateMotion path="m0,0 l0.00,54.00" begin="0S4.end+0.20s" dur="0.48s" fill="freeze"/><animateMotion path="m0,0 l0,0" begin="0E4.end" dur="0.01s" fill="freeze"/></g><g id="node5" class="node"><ellipse fill="#00ffff" stroke="#7b7b7b" cx="90" cy="-72" rx="18" ry="18"/><text text-anchor="middle" x="90" y="-68.3" font-family="Times New Roman,serif" font-size="14.00" fill="#000000">5</text><animateMotion path="m0,0 l-72.00,0.00" begin="0S4.end+0.20s" dur="0.48s" fill="freeze"/><animateMotion path="m0,0 l0,0" begin="0E4.end" dur="0.01s" fill="freeze"/></g><g id="edge3" class="edge" style="opacity:1"><path fill="none" stroke="#7b7b7b" d="M36.3,-72C44.02,-72 53.29,-72 61.89,-72"/><polygon fill="#7b7b7b" stroke="#7b7b7b" points="71.9,-72 61.9,-76.5 66.9,-72 61.9,-72 61.9,-72 61.9,-72 66.9,-72 61.9,-67.5 71.9,-72 71.9,-72"/><animate attributeName="opacity" from="1" to="0" begin="0S4.end+0.00s" dur="0.20s" fill="freeze"/><animate attributeName="opacity" from="0" to="1" begin="0E4.end" dur="0.01s" fill="freeze"/></g><g id="node6" class="node"><ellipse fill="#ffffff" stroke="#7b7b7b" cx="162" cy="-72" rx="18" ry="18"/><text text-anchor="middle" x="162" y="-68.3" font-family="Times New Roman,serif" font-size="14.00" fill="#000000">6</text><animateMotion path="m0,0 l-72.00,0.00" begin="0S4.end+0.20s" dur="0.48s" fill="freeze"/><animateMotion path="m0,0 l0,0" begin="0E4.end" dur="0.01s" fill="freeze"/></g><g id="edge4" class="edge" style="opacity:1"><path fill="none" stroke="#7b7b7b" d="M108.3,-72C116.02,-72 125.29,-72 133.89,-72"/><polygon fill="#7b7b7b" stroke="#7b7b7b" points="143.9,-72 133.9,-76.5 138.9,-72 133.9,-72 133.9,-72 133.9,-72 138.9,-72 133.9,-67.5 143.9,-72 143.9,-72"/><animate attributeName="opacity" from="1" to="0" begin="0S4.end+0.00s" dur="0.20s" fill="freeze"/><animate attributeName="opacity" from="0" to="1" begin="0E4.end" dur="0.01s" fill="freeze"/></g><g id="node7" class="node"><ellipse fill="#ffffff" stroke="#7b7b7b" cx="234" cy="-72" rx="18" ry="18"/><text text-anchor="middle" x="234" y="-68.3" font-family="Times New Roman,serif" font-size="14.00" fill="#000000">7</text><animateMotion path="m0,0 l-72.00,0.00" begin="0S4.end+0.20s" dur="0.48s" fill="freeze"/><animateMotion path="m0,0 l0,0" begin="0E4.end" dur="0.01s" fill="freeze"/></g><g id="edge5" class="edge" style="opacity:1"><path fill="none" stroke="#7b7b7b" d="M180.3,-72C188.02,-72 197.29,-72 205.89,-72"/><polygon fill="#7b7b7b" stroke="#7b7b7b" points="215.9,-72 205.9,-76.5 210.9,-72 205.9,-72 205.9,-72 205.9,-72 210.9,-72 205.9,-67.5 215.9,-72 215.9,-72"/><animate attributeName="opacity" from="1" to="0" begin="0S4.end+0.00s" dur="0.20s" fill="freeze"/><animate attributeName="opacity" from="0" to="1" begin="0E4.end" dur="0.01s" fill="freeze"/></g></g><g id="graph1" class="graph" transform="scale(1 1) rotate(0) translate(4 94)"><g id="edge1" class="edge" style="opacity:0"><path fill="none" stroke="#7b7b7b" d="M180.3,-18C188.02,-18 197.29,-18 205.89,-18"/><polygon fill="#7b7b7b" stroke="#7b7b7b" points="215.9,-18 205.9,-22.5 210.9,-18 205.9,-18 205.9,-18 205.9,-18 210.9,-18 205.9,-13.5 215.9,-18 215.9,-18"/><animate attributeName="opacity" from="0" to="1" begin="0S4.end+0.68s" dur="0.32s" fill="freeze"/><animate attributeName="opacity" from="1" to="0" begin="0E4.end" dur="0.01s" fill="freeze"/></g><g id="edge2" class="edge" style="opacity:0"><path fill="none" stroke="#7b7b7b" d="M108.3,-18C116.02,-18 125.29,-18 133.89,-18"/><polygon fill="#7b7b7b" stroke="#7b7b7b" points="143.9,-18 133.9,-22.5 138.9,-18 133.9,-18 133.9,-18 133.9,-18 138.9,-18 133.9,-13.5 143.9,-18 143.9,-18"/><animate attributeName="opacity" from="0" to="1" begin="0S4.end+0.68s" dur="0.32s" fill="freeze"/><animate attributeName="opacity" from="1" to="0" begin="0E4.end" dur="0.01s" fill="freeze"/></g><g id="edge6" class="edge" style="opacity:0"><path fill="none" stroke="#7b7b7b" d="M36.3,-18C44.02,-18 53.29,-18 61.89,-18"/><polygon fill="#7b7b7b" stroke="#7b7b7b" points="71.9,-18 61.9,-22.5 66.9,-18 61.9,-18 61.9,-18 61.9,-18 66.9,-18 61.9,-13.5 71.9,-18 71.9,-18"/><animate attributeName="opacity" from="0" to="1" begin="0S4.end+0.68s" dur="0.32s" fill="freeze"/><animate attributeName="opacity" from="1" to="0" begin="0E4.end" dur="0.01s" fill="freeze"/></g><g id="edge4" class="edge" style="opacity:0"><path fill="none" stroke="#7b7b7b" d="M36.3,-72C44.02,-72 53.29,-72 61.89,-72"/><polygon fill="#7b7b7b" stroke="#7b7b7b" points="71.9,-72 61.9,-76.5 66.9,-72 61.9,-72 61.9,-72 61.9,-72 66.9,-72 61.9,-67.5 71.9,-72 71.9,-72"/><animate attributeName="opacity" from="0" to="1" begin="0S4.end+0.68s" dur="0.32s" fill="freeze"/><animate attributeName="opacity" from="1" to="0" begin="0E4.end" dur="0.01s" fill="freeze"/></g><g id="edge5" class="edge" style="opacity:0"><path fill="none" stroke="#7b7b7b" d="M108.3,-72C116.02,-72 125.29,-72 133.89,-72"/><polygon fill="#7b7b7b" stroke="#7b7b7b" points="143.9,-72 133.9,-76.5 138.9,-72 133.9,-72 133.9,-72 133.9,-72 138.9,-72 133.9,-67.5 143.9,-72 143.9,-72"/><animate attributeName="opacity" from="0" to="1" begin="0S4.end+0.68s" dur="0.32s" fill="freeze"/><animate attributeName="opacity" from="1" to="0" begin="0E4.end" dur="0.01s" fill="freeze"/></g></g><animate attributeName="opacity" id="0S4" from="0" to="1" begin="0E3.begin" dur="0.01s" fill="freeze"/><animate attributeName="opacity" id="0E4" begin="0S4.begin+1.5s" from="1" to="0" dur="0.01s" fill="freeze"/></g><g><animate attributeName="opacity" begin="1S5.begin" from="1" to="0" dur="0.01s" fill="freeze"/><animate attributeName="opacity" from="0" to="1" begin="1E5.end" dur="0.01s" fill="freeze"/></g></a></svg>