<?xml version="1.0" ?><svg xmlns="http://www.w3.org/2000/svg" xmlns:xlink="http://www.w3.org/1999/xlink" width="541pt" height="416pt" viewBox="0.00 0.00 541.00 416.00"><style>.txt { alignment-baseline:middle; text-anchor:middle; font-family:Times,serif; }</style><a xlink:href="https://algviz.com/"><g class="frame" style="opacity:0" transform="translate(5,67.0)"><g id="graph0" class="graph" transform="scale(1 1) rotate(0) translate(4 340)"><polygon fill="transparent" stroke="transparent" points="-4,4 -4,-340 328,-340 328,4 -4,4"/><g id="node1" class="node"><ellipse fill="#d2b48c" stroke="#7b7b7b" cx="18" cy="-218" rx="18" ry="18"/><text text-anchor="middle" x="18" y="-214.3" font-family="Times New Roman,serif" font-size="14.00" fill="#000000">0</text></g><g id="node2" class="node"><ellipse fill="#c0c0c0" stroke="#7b7b7b" cx="234" cy="-318" rx="18" ry="18"/><text text-anchor="middle" x="234" y="-314.3" font-family="Times New Roman,serif" font-size="14.00" fill="#000000">1</text></g><g id="edge5" class="edge"><path fill="none" stroke="#7b7b7b" d="M24.97,-234.86C32.67,-253.9 48,-284.14 72,-299 113.24,-324.54 171.92,-324.3 205.87,-321.42"/><polygon fill="#7b7b7b" stroke="#7b7b7b" points="215.97,-320.42 206.46,-325.88 211,-320.91 206.02,-321.41 206.02,-321.41 206.02,-321.41 211,-320.91 205.58,-316.93 215.97,-320.42 215.97,-320.42"/></g><g id="node4" class="node"><ellipse fill="#c0c0c0" stroke="#7b7b7b" cx="90" cy="-272" rx="18" ry="18"/><text text-anchor="middle" x="90" y="-268.3" font-family="Times New Roman,serif" font-size="14.00" fill="#000000">2</text></g><g id="edge4" class="edge"><path fill="none" stroke="#7b7b7b" d="M32.83,-228.67C42.61,-236.21 55.92,-246.48 67.13,-255.13"/><polygon fill="#7b7b7b" stroke="#7b7b7b" points="75.2,-261.35 64.53,-258.81 71.24,-258.3 67.28,-255.25 67.28,-255.25 67.28,-255.25 71.24,-258.3 70.03,-251.68 75.2,-261.35 75.2,-261.35"/></g><g id="node6" class="node"><ellipse fill="#d2b48c" stroke="#7b7b7b" cx="90" cy="-64" rx="18" ry="18"/><text text-anchor="middle" x="90" y="-60.3" font-family="Times New Roman,serif" font-size="14.00" fill="#000000">3</text></g><g id="edge3" class="edge"><path fill="none" stroke="#7b7b7b" d="M26.36,-201.81C38.51,-175.08 62.87,-121.49 77.37,-89.59"/><polygon fill="#7b7b7b" stroke="#7b7b7b" points="81.53,-80.44 81.49,-91.4 79.46,-84.99 77.39,-89.54 77.39,-89.54 77.39,-89.54 79.46,-84.99 73.29,-87.68 81.53,-80.44 81.53,-80.44"/></g><g id="node11" class="node"><ellipse fill="#ffffff" stroke="#7b7b7b" cx="90" cy="-164" rx="18" ry="18"/><text text-anchor="middle" x="90" y="-160.3" font-family="Times New Roman,serif" font-size="14.00" fill="#000000">4</text></g><g id="edge2" class="edge"><path fill="none" stroke="#7b7b7b" d="M32.83,-207.33C42.61,-199.79 55.92,-189.52 67.13,-180.87"/><polygon fill="#7b7b7b" stroke="#7b7b7b" points="75.2,-174.65 70.03,-184.32 71.24,-177.7 67.28,-180.75 67.28,-180.75 67.28,-180.75 71.24,-177.7 64.53,-177.19 75.2,-174.65 75.2,-174.65"/></g><g id="node16" class="node"><ellipse fill="#ffffff" stroke="#7b7b7b" cx="90" cy="-218" rx="18" ry="18"/><text text-anchor="middle" x="90" y="-214.3" font-family="Times New Roman,serif" font-size="14.00" fill="#000000">5</text></g><g id="edge1" class="edge"><path fill="none" stroke="#7b7b7b" d="M36.3,-218C44.02,-218 53.29,-218 61.89,-218"/><polygon fill="#7b7b7b" stroke="#7b7b7b" points="71.9,-218 61.9,-222.5 66.9,-218 61.9,-218 61.9,-218 61.9,-218 66.9,-218 61.9,-213.5 71.9,-218 71.9,-218"/></g><g id="node3" class="node"><ellipse fill="#c0c0c0" stroke="#7b7b7b" cx="306" cy="-241" rx="18" ry="18"/><text text-anchor="middle" x="306" y="-237.3" font-family="Times New Roman,serif" font-size="14.00" fill="#000000">6</text></g><g id="edge6" class="edge"><path fill="none" stroke="#7b7b7b" d="M246.87,-304.94C257.7,-293.03 273.87,-275.25 286.41,-261.45"/><polygon fill="#7b7b7b" stroke="#7b7b7b" points="293.3,-253.87 289.9,-264.3 289.94,-257.57 286.57,-261.27 286.57,-261.27 286.57,-261.27 289.94,-257.57 283.24,-258.24 293.3,-253.87 293.3,-253.87"/></g><g id="node5" class="node"><ellipse fill="#c0c0c0" stroke="#7b7b7b" cx="234" cy="-264" rx="18" ry="18"/><text text-anchor="middle" x="234" y="-260.3" font-family="Times New Roman,serif" font-size="14.00" fill="#000000">7</text></g><g id="edge7" class="edge"><path fill="none" stroke="#7b7b7b" d="M108.13,-271.04C132.33,-269.67 176.79,-267.17 205.61,-265.54"/><polygon fill="#7b7b7b" stroke="#7b7b7b" points="215.81,-264.97 206.08,-270.02 210.82,-265.25 205.83,-265.53 205.83,-265.53 205.83,-265.53 210.82,-265.25 205.57,-261.04 215.81,-264.97 215.81,-264.97"/></g><g id="edge8" class="edge"><path fill="none" stroke="#7b7b7b" d="M251.24,-258.67C259.42,-255.98 269.55,-252.65 278.8,-249.61"/><polygon fill="#7b7b7b" stroke="#7b7b7b" points="288.37,-246.47 280.27,-253.86 283.62,-248.03 278.87,-249.59 278.87,-249.59 278.87,-249.59 283.62,-248.03 277.46,-245.31 288.37,-246.47 288.37,-246.47"/></g><g id="node7" class="node"><ellipse fill="#d2b48c" stroke="#7b7b7b" cx="162" cy="-18" rx="18" ry="18"/><text text-anchor="middle" x="162" y="-14.3" font-family="Times New Roman,serif" font-size="14.00" fill="#000000">8</text></g><g id="edge10" class="edge"><path fill="none" stroke="#7b7b7b" d="M105.5,-54.47C114.89,-48.3 127.31,-40.14 138.02,-33.1"/><polygon fill="#7b7b7b" stroke="#7b7b7b" points="146.51,-27.52 140.63,-36.77 142.34,-30.26 138.16,-33.01 138.16,-33.01 138.16,-33.01 142.34,-30.26 135.69,-29.25 146.51,-27.52 146.51,-27.52"/></g><g id="node10" class="node"><ellipse fill="#ffffff" stroke="#7b7b7b" cx="234" cy="-72" rx="18" ry="18"/><text text-anchor="middle" x="234" y="-68.3" font-family="Times New Roman,serif" font-size="14.00" fill="#000000">9</text></g><g id="edge9" class="edge"><path fill="none" stroke="#7b7b7b" d="M108.13,-64.96C132.33,-66.33 176.79,-68.83 205.61,-70.46"/><polygon fill="#7b7b7b" stroke="#7b7b7b" points="215.81,-71.03 205.57,-74.96 210.82,-70.75 205.83,-70.47 205.83,-70.47 205.83,-70.47 210.82,-70.75 206.08,-65.98 215.81,-71.03 215.81,-71.03"/></g><g id="node8" class="node"><ellipse fill="#d2b48c" stroke="#7b7b7b" cx="234" cy="-18" rx="18" ry="18"/><text text-anchor="middle" x="234" y="-14.3" font-family="Times New Roman,serif" font-size="14.00" fill="#000000">13</text></g><g id="edge11" class="edge"><path fill="none" stroke="#7b7b7b" d="M180.3,-18C188.02,-18 197.29,-18 205.89,-18"/><polygon fill="#7b7b7b" stroke="#7b7b7b" points="215.9,-18 205.9,-22.5 210.9,-18 205.9,-18 205.9,-18 205.9,-18 210.9,-18 205.9,-13.5 215.9,-18 215.9,-18"/></g><g id="node9" class="node"><ellipse fill="#adff2f" stroke="#7b7b7b" cx="306" cy="-72" rx="18" ry="18"/><text text-anchor="middle" x="306" y="-68.3" font-family="Times New Roman,serif" font-size="14.00" fill="#000000">14</text></g><g id="edge12" class="edge"><path fill="none" stroke="#7b7b7b" d="M248.83,-28.67C258.61,-36.21 271.92,-46.48 283.13,-55.13"/><polygon fill="#7b7b7b" stroke="#7b7b7b" points="291.2,-61.35 280.53,-58.81 287.24,-58.3 283.28,-55.25 283.28,-55.25 283.28,-55.25 287.24,-58.3 286.03,-51.68 291.2,-61.35 291.2,-61.35"/></g><g id="edge13" class="edge"><path fill="none" stroke="#7b7b7b" d="M252.3,-72C260.02,-72 269.29,-72 277.89,-72"/><polygon fill="#7b7b7b" stroke="#7b7b7b" points="287.9,-72 277.9,-76.5 282.9,-72 277.9,-72 277.9,-72 277.9,-72 282.9,-72 277.9,-67.5 287.9,-72 287.9,-72"/></g><g id="node12" class="node"><ellipse fill="#ffffff" stroke="#7b7b7b" cx="162" cy="-110" rx="18" ry="18"/><text text-anchor="middle" x="162" y="-106.3" font-family="Times New Roman,serif" font-size="14.00" fill="#000000">10</text></g><g id="edge16" class="edge"><path fill="none" stroke="#7b7b7b" d="M104.83,-153.33C114.61,-145.79 127.92,-135.52 139.13,-126.87"/><polygon fill="#7b7b7b" stroke="#7b7b7b" points="147.2,-120.65 142.03,-130.32 143.24,-123.7 139.28,-126.75 139.28,-126.75 139.28,-126.75 143.24,-123.7 136.53,-123.19 147.2,-120.65 147.2,-120.65"/></g><g id="node14" class="node"><ellipse fill="#ffffff" stroke="#7b7b7b" cx="162" cy="-164" rx="18" ry="18"/><text text-anchor="middle" x="162" y="-160.3" font-family="Times New Roman,serif" font-size="14.00" fill="#000000">11</text></g><g id="edge15" class="edge"><path fill="none" stroke="#7b7b7b" d="M108.3,-164C116.02,-164 125.29,-164 133.89,-164"/><polygon fill="#7b7b7b" stroke="#7b7b7b" points="143.9,-164 133.9,-168.5 138.9,-164 133.9,-164 133.9,-164 133.9,-164 138.9,-164 133.9,-159.5 143.9,-164 143.9,-164"/></g><g id="node15" class="node"><ellipse fill="#ffffff" stroke="#7b7b7b" cx="162" cy="-218" rx="18" ry="18"/><text text-anchor="middle" x="162" y="-214.3" font-family="Times New Roman,serif" font-size="14.00" fill="#000000">12</text></g><g id="edge14" class="edge"><path fill="none" stroke="#7b7b7b" d="M104.83,-174.67C114.61,-182.21 127.92,-192.48 139.13,-201.13"/><polygon fill="#7b7b7b" stroke="#7b7b7b" points="147.2,-207.35 136.53,-204.81 143.24,-204.3 139.28,-201.25 139.28,-201.25 139.28,-201.25 143.24,-204.3 142.03,-197.68 147.2,-207.35 147.2,-207.35"/></g><g id="node13" class="node"><ellipse fill="#ffffff" stroke="#7b7b7b" cx="234" cy="-145" rx="18" ry="18"/><text text-anchor="middle" x="234" y="-141.3" font-family="Times New Roman,serif" font-size="14.00" fill="#000000">15</text></g><g id="edge17" class="edge"><path fill="none" stroke="#7b7b7b" d="M178.54,-117.77C187.33,-122.16 198.52,-127.76 208.47,-132.73"/><polygon fill="#7b7b7b" stroke="#7b7b7b" points="217.51,-137.25 206.55,-136.81 213.04,-135.02 208.56,-132.78 208.56,-132.78 208.56,-132.78 213.04,-135.02 210.58,-128.76 217.51,-137.25 217.51,-137.25"/></g><g id="edge19" class="edge"><path fill="none" stroke="#7b7b7b" d="M245.33,-159.17C256.7,-174.76 275.15,-200.06 288.52,-218.4"/><polygon fill="#7b7b7b" stroke="#7b7b7b" points="294.63,-226.78 285.1,-221.35 291.68,-222.74 288.74,-218.7 288.74,-218.7 288.74,-218.7 291.68,-222.74 292.37,-216.05 294.63,-226.78 294.63,-226.78"/></g><g id="edge18" class="edge"><path fill="none" stroke="#7b7b7b" d="M247.19,-132.28C257.83,-121.19 273.45,-104.9 285.77,-92.05"/><polygon fill="#7b7b7b" stroke="#7b7b7b" points="292.95,-84.57 289.27,-94.9 289.49,-88.18 286.03,-91.79 286.03,-91.79 286.03,-91.79 289.49,-88.18 282.78,-88.67 292.95,-84.57 292.95,-84.57"/></g><g id="edge20" class="edge"><path fill="none" stroke="#7b7b7b" d="M179.59,-159.5C187.7,-157.3 197.65,-154.6 206.75,-152.12"/><polygon fill="#7b7b7b" stroke="#7b7b7b" points="216.53,-149.47 208.06,-156.43 211.7,-150.78 206.88,-152.09 206.88,-152.09 206.88,-152.09 211.7,-150.78 205.7,-147.75 216.53,-149.47 216.53,-149.47"/></g><g id="edge21" class="edge"><path fill="none" stroke="#7b7b7b" d="M179.85,-220.73C204.08,-224.65 249.04,-231.94 277.95,-236.62"/><polygon fill="#7b7b7b" stroke="#7b7b7b" points="288.18,-238.27 277.58,-241.12 283.24,-237.48 278.3,-236.68 278.3,-236.68 278.3,-236.68 283.24,-237.48 279.02,-232.23 288.18,-238.27 288.18,-238.27"/></g><g id="edge22" class="edge"><path fill="none" stroke="#7b7b7b" d="M108.3,-218C116.02,-218 125.29,-218 133.89,-218"/><polygon fill="#7b7b7b" stroke="#7b7b7b" points="143.9,-218 133.9,-222.5 138.9,-218 133.9,-218 133.9,-218 133.9,-218 138.9,-218 133.9,-213.5 143.9,-218 143.9,-218"/></g></g><g id="graph1" class="graph" transform="scale(1 1) rotate(0) translate(4 340)"/><animate attributeName="opacity" id="0S13" from="0" to="1" begin="0s;0E14.end+0s" dur="0.01s" fill="freeze"/><animate attributeName="opacity" id="0E13" begin="0S13.begin+1.2s" from="1" to="0" dur="0.01s" fill="freeze"/></g><g class="frame" style="opacity:0" transform="translate(5,67.0)"><g id="graph0" class="graph" transform="scale(1 1) rotate(0) translate(4 340)"><polygon fill="transparent" stroke="transparent" points="-4,4 -4,-340 328,-340 328,4 -4,4"/><g id="node1" class="node"><ellipse fill="#d2b48c" stroke="#7b7b7b" cx="18" cy="-218" rx="18" ry="18"/><text text-anchor="middle" x="18" y="-214.3" font-family="Times New Roman,serif" font-size="14.00" fill="#000000">0</text></g><g id="node2" class="node"><ellipse fill="#c0c0c0" stroke="#7b7b7b" cx="234" cy="-318" rx="18" ry="18"/><text text-anchor="middle" x="234" y="-314.3" font-family="Times New Roman,serif" font-size="14.00" fill="#000000">1</text></g><g id="edge5" class="edge"><path fill="none" stroke="#7b7b7b" d="M24.97,-234.86C32.67,-253.9 48,-284.14 72,-299 113.24,-324.54 171.92,-324.3 205.87,-321.42"/><polygon fill="#7b7b7b" stroke="#7b7b7b" points="215.97,-320.42 206.46,-325.88 211,-320.91 206.02,-321.41 206.02,-321.41 206.02,-321.41 211,-320.91 205.58,-316.93 215.97,-320.42 215.97,-320.42"/></g><g id="node4" class="node"><ellipse fill="#c0c0c0" stroke="#7b7b7b" cx="90" cy="-272" rx="18" ry="18"/><text text-anchor="middle" x="90" y="-268.3" font-family="Times New Roman,serif" font-size="14.00" fill="#000000">2</text></g><g id="edge4" class="edge"><path fill="none" stroke="#7b7b7b" d="M32.83,-228.67C42.61,-236.21 55.92,-246.48 67.13,-255.13"/><polygon fill="#7b7b7b" stroke="#7b7b7b" points="75.2,-261.35 64.53,-258.81 71.24,-258.3 67.28,-255.25 67.28,-255.25 67.28,-255.25 71.24,-258.3 70.03,-251.68 75.2,-261.35 75.2,-261.35"/></g><g id="node6" class="node"><ellipse fill="#d2b48c" stroke="#7b7b7b" cx="90" cy="-64" rx="18" ry="18"/><text text-anchor="middle" x="90" y="-60.3" font-family="Times New Roman,serif" font-size="14.00" fill="#000000">3</text></g><g id="edge3" class="edge"><path fill="none" stroke="#7b7b7b" d="M26.36,-201.81C38.51,-175.08 62.87,-121.49 77.37,-89.59"/><polygon fill="#7b7b7b" stroke="#7b7b7b" points="81.53,-80.44 81.49,-91.4 79.46,-84.99 77.39,-89.54 77.39,-89.54 77.39,-89.54 79.46,-84.99 73.29,-87.68 81.53,-80.44 81.53,-80.44"/></g><g id="node11" class="node"><ellipse fill="#ffffff" stroke="#7b7b7b" cx="90" cy="-164" rx="18" ry="18"/><text text-anchor="middle" x="90" y="-160.3" font-family="Times New Roman,serif" font-size="14.00" fill="#000000">4</text></g><g id="edge2" class="edge"><path fill="none" stroke="#7b7b7b" d="M32.83,-207.33C42.61,-199.79 55.92,-189.52 67.13,-180.87"/><polygon fill="#7b7b7b" stroke="#7b7b7b" points="75.2,-174.65 70.03,-184.32 71.24,-177.7 67.28,-180.75 67.28,-180.75 67.28,-180.75 71.24,-177.7 64.53,-177.19 75.2,-174.65 75.2,-174.65"/></g><g id="node16" class="node"><ellipse fill="#ffffff" stroke="#7b7b7b" cx="90" cy="-218" rx="18" ry="18"/><text text-anchor="middle" x="90" y="-214.3" font-family="Times New Roman,serif" font-size="14.00" fill="#000000">5</text></g><g id="edge1" class="edge"><path fill="none" stroke="#7b7b7b" d="M36.3,-218C44.02,-218 53.29,-218 61.89,-218"/><polygon fill="#7b7b7b" stroke="#7b7b7b" points="71.9,-218 61.9,-222.5 66.9,-218 61.9,-218 61.9,-218 61.9,-218 66.9,-218 61.9,-213.5 71.9,-218 71.9,-218"/></g><g id="node3" class="node"><ellipse fill="#c0c0c0" stroke="#7b7b7b" cx="306" cy="-241" rx="18" ry="18"/><text text-anchor="middle" x="306" y="-237.3" font-family="Times New Roman,serif" font-size="14.00" fill="#000000">6</text></g><g id="edge6" class="edge"><path fill="none" stroke="#7b7b7b" d="M246.87,-304.94C257.7,-293.03 273.87,-275.25 286.41,-261.45"/><polygon fill="#7b7b7b" stroke="#7b7b7b" points="293.3,-253.87 289.9,-264.3 289.94,-257.57 286.57,-261.27 286.57,-261.27 286.57,-261.27 289.94,-257.57 283.24,-258.24 293.3,-253.87 293.3,-253.87"/></g><g id="node5" class="node"><ellipse fill="#c0c0c0" stroke="#7b7b7b" cx="234" cy="-264" rx="18" ry="18"/><text text-anchor="middle" x="234" y="-260.3" font-family="Times New Roman,serif" font-size="14.00" fill="#000000">7</text></g><g id="edge7" class="edge"><path fill="none" stroke="#7b7b7b" d="M108.13,-271.04C132.33,-269.67 176.79,-267.17 205.61,-265.54"/><polygon fill="#7b7b7b" stroke="#7b7b7b" points="215.81,-264.97 206.08,-270.02 210.82,-265.25 205.83,-265.53 205.83,-265.53 205.83,-265.53 210.82,-265.25 205.57,-261.04 215.81,-264.97 215.81,-264.97"/></g><g id="edge8" class="edge"><path fill="none" stroke="#7b7b7b" d="M251.24,-258.67C259.42,-255.98 269.55,-252.65 278.8,-249.61"/><polygon fill="#7b7b7b" stroke="#7b7b7b" points="288.37,-246.47 280.27,-253.86 283.62,-248.03 278.87,-249.59 278.87,-249.59 278.87,-249.59 283.62,-248.03 277.46,-245.31 288.37,-246.47 288.37,-246.47"/></g><g id="node7" class="node"><ellipse fill="#d2b48c" stroke="#7b7b7b" cx="162" cy="-18" rx="18" ry="18"/><text text-anchor="middle" x="162" y="-14.3" font-family="Times New Roman,serif" font-size="14.00" fill="#000000">8</text></g><g id="edge10" class="edge"><path fill="none" stroke="#7b7b7b" d="M105.5,-54.47C114.89,-48.3 127.31,-40.14 138.02,-33.1"/><polygon fill="#7b7b7b" stroke="#7b7b7b" points="146.51,-27.52 140.63,-36.77 142.34,-30.26 138.16,-33.01 138.16,-33.01 138.16,-33.01 142.34,-30.26 135.69,-29.25 146.51,-27.52 146.51,-27.52"/></g><g id="node10" class="node"><ellipse fill="#ffffff" stroke="#7b7b7b" cx="234" cy="-72" rx="18" ry="18"/><text text-anchor="middle" x="234" y="-68.3" font-family="Times New Roman,serif" font-size="14.00" fill="#000000">9</text></g><g id="edge9" class="edge"><path fill="none" stroke="#7b7b7b" d="M108.13,-64.96C132.33,-66.33 176.79,-68.83 205.61,-70.46"/><polygon fill="#7b7b7b" stroke="#7b7b7b" points="215.81,-71.03 205.57,-74.96 210.82,-70.75 205.83,-70.47 205.83,-70.47 205.83,-70.47 210.82,-70.75 206.08,-65.98 215.81,-71.03 215.81,-71.03"/></g><g id="node8" class="node"><ellipse fill="#adff2f" stroke="#7b7b7b" cx="234" cy="-18" rx="18" ry="18"/><text text-anchor="middle" x="234" y="-14.3" font-family="Times New Roman,serif" font-size="14.00" fill="#000000">13</text></g><g id="edge11" class="edge"><path fill="none" stroke="#7b7b7b" d="M180.3,-18C188.02,-18 197.29,-18 205.89,-18"/><polygon fill="#7b7b7b" stroke="#7b7b7b" points="215.9,-18 205.9,-22.5 210.9,-18 205.9,-18 205.9,-18 205.9,-18 210.9,-18 205.9,-13.5 215.9,-18 215.9,-18"/></g><g id="node9" class="node"><ellipse fill="#c0c0c0" stroke="#7b7b7b" cx="306" cy="-72" rx="18" ry="18"/><text text-anchor="middle" x="306" y="-68.3" font-family="Times New Roman,serif" font-size="14.00" fill="#000000">14</text></g><g id="edge12" class="edge"><path fill="none" stroke="#7b7b7b" d="M248.83,-28.67C258.61,-36.21 271.92,-46.48 283.13,-55.13"/><polygon fill="#7b7b7b" stroke="#7b7b7b" points="291.2,-61.35 280.53,-58.81 287.24,-58.3 283.28,-55.25 283.28,-55.25 283.28,-55.25 287.24,-58.3 286.03,-51.68 291.2,-61.35 291.2,-61.35"/></g><g id="edge13" class="edge"><path fill="none" stroke="#7b7b7b" d="M252.3,-72C260.02,-72 269.29,-72 277.89,-72"/><polygon fill="#7b7b7b" stroke="#7b7b7b" points="287.9,-72 277.9,-76.5 282.9,-72 277.9,-72 277.9,-72 277.9,-72 282.9,-72 277.9,-67.5 287.9,-72 287.9,-72"/></g><g id="node12" class="node"><ellipse fill="#ffffff" stroke="#7b7b7b" cx="162" cy="-110" rx="18" ry="18"/><text text-anchor="middle" x="162" y="-106.3" font-family="Times New Roman,serif" font-size="14.00" fill="#000000">10</text></g><g id="edge16" class="edge"><path fill="none" stroke="#7b7b7b" d="M104.83,-153.33C114.61,-145.79 127.92,-135.52 139.13,-126.87"/><polygon fill="#7b7b7b" stroke="#7b7b7b" points="147.2,-120.65 142.03,-130.32 143.24,-123.7 139.28,-126.75 139.28,-126.75 139.28,-126.75 143.24,-123.7 136.53,-123.19 147.2,-120.65 147.2,-120.65"/></g><g id="node14" class="node"><ellipse fill="#ffffff" stroke="#7b7b7b" cx="162" cy="-164" rx="18" ry="18"/><text text-anchor="middle" x="162" y="-160.3" font-family="Times New Roman,serif" font-size="14.00" fill="#000000">11</text></g><g id="edge15" class="edge"><path fill="none" stroke="#7b7b7b" d="M108.3,-164C116.02,-164 125.29,-164 133.89,-164"/><polygon fill="#7b7b7b" stroke="#7b7b7b" points="143.9,-164 133.9,-168.5 138.9,-164 133.9,-164 133.9,-164 133.9,-164 138.9,-164 133.9,-159.5 143.9,-164 143.9,-164"/></g><g id="node15" class="node"><ellipse fill="#ffffff" stroke="#7b7b7b" cx="162" cy="-218" rx="18" ry="18"/><text text-anchor="middle" x="162" y="-214.3" font-family="Times New Roman,serif" font-size="14.00" fill="#000000">12</text></g><g id="edge14" class="edge"><path fill="none" stroke="#7b7b7b" d="M104.83,-174.67C114.61,-182.21 127.92,-192.48 139.13,-201.13"/><polygon fill="#7b7b7b" stroke="#7b7b7b" points="147.2,-207.35 136.53,-204.81 143.24,-204.3 139.28,-201.25 139.28,-201.25 139.28,-201.25 143.24,-204.3 142.03,-197.68 147.2,-207.35 147.2,-207.35"/></g><g id="node13" class="node"><ellipse fill="#ffffff" stroke="#7b7b7b" cx="234" cy="-145" rx="18" ry="18"/><text text-anchor="middle" x="234" y="-141.3" font-family="Times New Roman,serif" font-size="14.00" fill="#000000">15</text></g><g id="edge17" class="edge"><path fill="none" stroke="#7b7b7b" d="M178.54,-117.77C187.33,-122.16 198.52,-127.76 208.47,-132.73"/><polygon fill="#7b7b7b" stroke="#7b7b7b" points="217.51,-137.25 206.55,-136.81 213.04,-135.02 208.56,-132.78 208.56,-132.78 208.56,-132.78 213.04,-135.02 210.58,-128.76 217.51,-137.25 217.51,-137.25"/></g><g id="edge19" class="edge"><path fill="none" stroke="#7b7b7b" d="M245.33,-159.17C256.7,-174.76 275.15,-200.06 288.52,-218.4"/><polygon fill="#7b7b7b" stroke="#7b7b7b" points="294.63,-226.78 285.1,-221.35 291.68,-222.74 288.74,-218.7 288.74,-218.7 288.74,-218.7 291.68,-222.74 292.37,-216.05 294.63,-226.78 294.63,-226.78"/></g><g id="edge18" class="edge"><path fill="none" stroke="#7b7b7b" d="M247.19,-132.28C257.83,-121.19 273.45,-104.9 285.77,-92.05"/><polygon fill="#7b7b7b" stroke="#7b7b7b" points="292.95,-84.57 289.27,-94.9 289.49,-88.18 286.03,-91.79 286.03,-91.79 286.03,-91.79 289.49,-88.18 282.78,-88.67 292.95,-84.57 292.95,-84.57"/></g><g id="edge20" class="edge"><path fill="none" stroke="#7b7b7b" d="M179.59,-159.5C187.7,-157.3 197.65,-154.6 206.75,-152.12"/><polygon fill="#7b7b7b" stroke="#7b7b7b" points="216.53,-149.47 208.06,-156.43 211.7,-150.78 206.88,-152.09 206.88,-152.09 206.88,-152.09 211.7,-150.78 205.7,-147.75 216.53,-149.47 216.53,-149.47"/></g><g id="edge21" class="edge"><path fill="none" stroke="#7b7b7b" d="M179.85,-220.73C204.08,-224.65 249.04,-231.94 277.95,-236.62"/><polygon fill="#7b7b7b" stroke="#7b7b7b" points="288.18,-238.27 277.58,-241.12 283.24,-237.48 278.3,-236.68 278.3,-236.68 278.3,-236.68 283.24,-237.48 279.02,-232.23 288.18,-238.27 288.18,-238.27"/></g><g id="edge22" class="edge"><path fill="none" stroke="#7b7b7b" d="M108.3,-218C116.02,-218 125.29,-218 133.89,-218"/><polygon fill="#7b7b7b" stroke="#7b7b7b" points="143.9,-218 133.9,-222.5 138.9,-218 133.9,-218 133.9,-218 133.9,-218 138.9,-218 133.9,-213.5 143.9,-218 143.9,-218"/></g></g><g id="graph1" class="graph" transform="scale(1 1) rotate(0) translate(4 340)"/><animate attributeName="opacity" id="0S14" from="0" to="1" begin="0E13.begin" dur="0.01s" fill="freeze"/><animate attributeName="opacity" id="0E14" begin="0S14.begin+1.2s" from="1" to="0" dur="0.01s" fill="freeze"/></g><g class="frame" style="opacity:0" transform="translate(5,23.0)"><g id="0" style="opacity:1"><rect x="102.00" y="6.00" width="30.00" height="30.00" rx="3.00" ry="3.00" fill="#ffffff" stroke="#7b7b7b"/><text class="txt" x="117.00" y="21.00" font-size="16.00" fill="#000000">6</text><animateMotion path="m0,0 l33.00,0.00" begin="1S13.end+0.00s" dur="0.42s" fill="freeze"/><animateMotion path="m0,0 l0,0" begin="1E13.end" dur="0.01s" fill="freeze"/></g><g id="1" style="opacity:1"><rect x="69.00" y="6.00" width="30.00" height="30.00" rx="3.00" ry="3.00" fill="#ffffff" stroke="#7b7b7b"/><text class="txt" x="84.00" y="21.00" font-size="16.00" fill="#000000">1</text><animateMotion path="m0,0 l33.00,0.00" begin="1S13.end+0.00s" dur="0.42s" fill="freeze"/><animateMotion path="m0,0 l0,0" begin="1E13.end" dur="0.01s" fill="freeze"/></g><g id="2" style="opacity:1"><rect x="36.00" y="6.00" width="30.00" height="30.00" rx="3.00" ry="3.00" fill="#ffffff" stroke="#7b7b7b"/><text class="txt" x="51.00" y="21.00" font-size="16.00" fill="#000000">7</text><animateMotion path="m0,0 l33.00,0.00" begin="1S13.end+0.00s" dur="0.42s" fill="freeze"/><animateMotion path="m0,0 l0,0" begin="1E13.end" dur="0.01s" fill="freeze"/></g><g id="3" style="opacity:1"><rect x="3.00" y="6.00" width="30.00" height="30.00" rx="3.00" ry="3.00" fill="#ffffff" stroke="#7b7b7b"/><text class="txt" x="18.00" y="21.00" font-size="16.00" fill="#000000">2</text><animateMotion path="m0,0 l33.00,0.00" begin="1S13.end+0.00s" dur="0.42s" fill="freeze"/><animateMotion path="m0,0 l0,0" begin="1E13.end" dur="0.01s" fill="freeze"/></g><g id="4" style="opacity:0"><rect x="3.00" y="6.00" width="30.00" height="30.00" rx="3.00" ry="3.00" fill="#adff2f" stroke="#7b7b7b"/><text class="txt" x="18.00" y="21.00" font-size="16.00" fill="#000000">14</text><animate attributeName="opacity" from="0" to="1" begin="1S13.end+0.42s" dur="0.28s" fill="freeze"/><animate attributeName="opacity" from="1" to="0" begin="1E13.end" dur="0.01s" fill="freeze"/></g><animate attributeName="opacity" id="1S13" from="0" to="1" begin="0s;1E14.end+0s" dur="0.01s" fill="freeze"/><animate attributeName="opacity" id="1E13" begin="1S13.begin+1.2s" from="1" to="0" dur="0.01s" fill="freeze"/></g><g class="frame" style="opacity:0" transform="translate(5,23.0)"><g id="0" style="opacity:1"><rect x="135.00" y="6.00" width="30.00" height="30.00" rx="3.00" ry="3.00" fill="#ffffff" stroke="#7b7b7b"/><text class="txt" x="150.00" y="21.00" font-size="16.00" fill="#000000">6</text><animateMotion path="m0,0 l33.00,0.00" begin="1S14.end+0.00s" dur="0.42s" fill="freeze"/><animateMotion path="m0,0 l0,0" begin="1E14.end" dur="0.01s" fill="freeze"/></g><g id="1" style="opacity:1"><rect x="102.00" y="6.00" width="30.00" height="30.00" rx="3.00" ry="3.00" fill="#ffffff" stroke="#7b7b7b"/><text class="txt" x="117.00" y="21.00" font-size="16.00" fill="#000000">1</text><animateMotion path="m0,0 l33.00,0.00" begin="1S14.end+0.00s" dur="0.42s" fill="freeze"/><animateMotion path="m0,0 l0,0" begin="1E14.end" dur="0.01s" fill="freeze"/></g><g id="2" style="opacity:1"><rect x="69.00" y="6.00" width="30.00" height="30.00" rx="3.00" ry="3.00" fill="#ffffff" stroke="#7b7b7b"/><text class="txt" x="84.00" y="21.00" font-size="16.00" fill="#000000">7</text><animateMotion path="m0,0 l33.00,0.00" begin="1S14.end+0.00s" dur="0.42s" fill="freeze"/><animateMotion path="m0,0 l0,0" begin="1E14.end" dur="0.01s" fill="freeze"/></g><g id="3" style="opacity:1"><rect x="36.00" y="6.00" width="30.00" height="30.00" rx="3.00" ry="3.00" fill="#ffffff" stroke="#7b7b7b"/><text class="txt" x="51.00" y="21.00" font-size="16.00" fill="#000000">2</text><animateMotion path="m0,0 l33.00,0.00" begin="1S14.end+0.00s" dur="0.42s" fill="freeze"/><animateMotion path="m0,0 l0,0" begin="1E14.end" dur="0.01s" fill="freeze"/></g><g id="4" style="opacity:1"><rect x="3.00" y="6.00" width="30.00" height="30.00" rx="3.00" ry="3.00" fill="#ffffff" stroke="#7b7b7b"/><text class="txt" x="18.00" y="21.00" font-size="16.00" fill="#000000">14</text><animateMotion path="m0,0 l33.00,0.00" begin="1S14.end+0.00s" dur="0.42s" fill="freeze"/><animateMotion path="m0,0 l0,0" begin="1E14.end" dur="0.01s" fill="freeze"/></g><g id="5" style="opacity:0"><rect x="3.00" y="6.00" width="30.00" height="30.00" rx="3.00" ry="3.00" fill="#adff2f" stroke="#7b7b7b"/><text class="txt" x="18.00" y="21.00" font-size="16.00" fill="#000000">13</text><animate attributeName="opacity" from="0" to="1" begin="1S14.end+0.42s" dur="0.28s" fill="freeze"/><animate attributeName="opacity" from="1" to="0" begin="1E14.end" dur="0.01s" fill="freeze"/></g><animate attributeName="opacity" id="1S14" from="0" to="1" begin="1E13.begin" dur="0.01s" fill="freeze"/><animate attributeName="opacity" id="1E14" begin="1S14.begin+1.2s" from="1" to="0" dur="0.01s" fill="freeze"/></g><g><animate attributeName="opacity" begin="2S15.begin" from="1" to="0" dur="0.01s" fill="freeze"/><animate attributeName="opacity" from="0" to="1" begin="2E15.end" dur="0.01s" fill="freeze"/><text x="10.00" y="19.40" font-family="Times,serif" font-weight="bold" font-size="12.00" fill="#808080">Result:</text><rect x="5.00" y="67.00" width="332.00" height="344.00" stroke="#C0C0C0" stroke-dasharray="1, 5" fill="none"/><rect x="5.00" y="5.00" width="531.00" height="57.00" stroke="#C0C0C0" stroke-dasharray="1, 5" fill="none"/></g></a></svg>