<?xml version="1.0" ?><svg xmlns="http://www.w3.org/2000/svg" xmlns:xlink="http://www.w3.org/1999/xlink" width="302pt" height="270pt" viewBox="0.00 0.00 302.00 270.00"><style>.txt { alignment-baseline:middle; text-anchor:middle; font-family:Times,serif; }</style><a xlink:href="https://algviz.com/"><g class="frame" style="opacity:0" transform="translate(5,5.0)"><g id="0"><rect x="6.00" y="6.00" width="20.00" height="20.00" fill="#ffffff" stroke="#7b7b7b"/><text class="txt" x="16.00" y="16.00" font-size="16.00" fill="#000000">a</text></g><g id="1"><rect x="26.00" y="6.00" width="20.00" height="20.00" fill="#ffffff" stroke="#7b7b7b"/><text class="txt" x="36.00" y="16.00" font-size="16.00" fill="#000000">b</text></g><g id="2"><rect x="46.00" y="6.00" width="20.00" height="20.00" fill="#ffffff" stroke="#7b7b7b"/><text class="txt" x="56.00" y="16.00" font-size="16.00" fill="#000000">c</text></g><g id="3"><rect x="6.00" y="26.00" width="20.00" height="20.00" fill="#ffffff" stroke="#7b7b7b"/><text class="txt" x="16.00" y="36.00" font-size="16.00" fill="#000000">a</text></g><g id="4"><rect x="26.00" y="26.00" width="20.00" height="20.00" fill="#ffffff" stroke="#7b7b7b"/><text class="txt" x="36.00" y="36.00" font-size="16.00" fill="#000000">b</text></g><g id="5"><rect x="46.00" y="26.00" width="20.00" height="20.00" fill="#ffffff" stroke="#7b7b7b"/><text class="txt" x="56.00" y="36.00" font-size="16.00" fill="#000000">d</text></g><g id="6"><rect x="6.00" y="46.00" width="20.00" height="20.00" fill="#ffffff" stroke="#7b7b7b"/><text class="txt" x="16.00" y="56.00" font-size="16.00" fill="#000000">b</text></g><g id="7"><rect x="26.00" y="46.00" width="20.00" height="20.00" fill="#ffffff" stroke="#7b7b7b"/><text class="txt" x="36.00" y="56.00" font-size="16.00" fill="#000000">c</text></g><g id="8"><rect x="46.00" y="46.00" width="20.00" height="20.00" fill="#ffffff" stroke="#7b7b7b"/><text class="txt" x="56.00" y="56.00" font-size="16.00" fill="#000000">d</text></g><g id="9"><rect x="6.00" y="66.00" width="20.00" height="20.00" fill="#ffffff" stroke="#7b7b7b"/><text class="txt" x="16.00" y="76.00" font-size="16.00" fill="#000000">b</text></g><g id="10"><rect x="26.00" y="66.00" width="20.00" height="20.00" fill="#00ffff" stroke="#7b7b7b"/><text class="txt" x="36.00" y="76.00" font-size="16.00" fill="#000000">c</text></g><g id="11"><rect x="46.00" y="66.00" width="20.00" height="20.00" fill="#ffffff" stroke="#7b7b7b"/><text class="txt" x="56.00" y="76.00" font-size="16.00" fill="#000000">e</text></g><g id="12"><text x="69.00" y="22.00" font-size="12.00" font-family="Times,serif" fill="#7b7b7b">0</text></g><g id="13"><text x="69.00" y="42.00" font-size="12.00" font-family="Times,serif" fill="#7b7b7b">1</text></g><g id="14"><text x="69.00" y="62.00" font-size="12.00" font-family="Times,serif" fill="#7b7b7b">2</text></g><g id="15"><text x="69.00" y="82.00" font-size="12.00" font-family="Times,serif" fill="#7b7b7b">3</text></g><g id="16"><text x="13.00" y="99.00" font-size="12.00" font-family="Times,serif" fill="#7b7b7b">0</text></g><g id="17"><text x="33.00" y="99.00" font-size="12.00" font-family="Times,serif" fill="#7b7b7b">1</text></g><g id="18"><text x="53.00" y="99.00" font-size="12.00" font-family="Times,serif" fill="#7b7b7b">2</text></g><animate attributeName="opacity" id="0S10" from="0" to="1" begin="0s;0E11.end+0s" dur="0.01s" fill="freeze"/><animate attributeName="opacity" id="0E10" begin="0S10.begin+1.5s" from="1" to="0" dur="0.01s" fill="freeze"/></g><g class="frame" style="opacity:0" transform="translate(5,5.0)"><g id="0"><rect x="6.00" y="6.00" width="20.00" height="20.00" fill="#ffffff" stroke="#7b7b7b"/><text class="txt" x="16.00" y="16.00" font-size="16.00" fill="#000000">a</text></g><g id="1"><rect x="26.00" y="6.00" width="20.00" height="20.00" fill="#ffffff" stroke="#7b7b7b"/><text class="txt" x="36.00" y="16.00" font-size="16.00" fill="#000000">b</text></g><g id="2"><rect x="46.00" y="6.00" width="20.00" height="20.00" fill="#ffffff" stroke="#7b7b7b"/><text class="txt" x="56.00" y="16.00" font-size="16.00" fill="#000000">c</text></g><g id="3"><rect x="6.00" y="26.00" width="20.00" height="20.00" fill="#ffffff" stroke="#7b7b7b"/><text class="txt" x="16.00" y="36.00" font-size="16.00" fill="#000000">a</text></g><g id="4"><rect x="26.00" y="26.00" width="20.00" height="20.00" fill="#ffffff" stroke="#7b7b7b"/><text class="txt" x="36.00" y="36.00" font-size="16.00" fill="#000000">b</text></g><g id="5"><rect x="46.00" y="26.00" width="20.00" height="20.00" fill="#ffffff" stroke="#7b7b7b"/><text class="txt" x="56.00" y="36.00" font-size="16.00" fill="#000000">d</text></g><g id="6"><rect x="6.00" y="46.00" width="20.00" height="20.00" fill="#ffffff" stroke="#7b7b7b"/><text class="txt" x="16.00" y="56.00" font-size="16.00" fill="#000000">b</text></g><g id="7"><rect x="26.00" y="46.00" width="20.00" height="20.00" fill="#ffffff" stroke="#7b7b7b"/><text class="txt" x="36.00" y="56.00" font-size="16.00" fill="#000000">c</text></g><g id="8"><rect x="46.00" y="46.00" width="20.00" height="20.00" fill="#ffffff" stroke="#7b7b7b"/><text class="txt" x="56.00" y="56.00" font-size="16.00" fill="#000000">d</text></g><g id="9"><rect x="6.00" y="66.00" width="20.00" height="20.00" fill="#ffffff" stroke="#7b7b7b"/><text class="txt" x="16.00" y="76.00" font-size="16.00" fill="#000000">b</text></g><g id="10"><rect x="26.00" y="66.00" width="20.00" height="20.00" fill="#ffffff" stroke="#7b7b7b"/><text class="txt" x="36.00" y="76.00" font-size="16.00" fill="#000000">c</text></g><g id="11"><rect x="46.00" y="66.00" width="20.00" height="20.00" fill="#00ffff" stroke="#7b7b7b"/><text class="txt" x="56.00" y="76.00" font-size="16.00" fill="#000000">e</text></g><g id="12"><text x="69.00" y="22.00" font-size="12.00" font-family="Times,serif" fill="#7b7b7b">0</text></g><g id="13"><text x="69.00" y="42.00" font-size="12.00" font-family="Times,serif" fill="#7b7b7b">1</text></g><g id="14"><text x="69.00" y="62.00" font-size="12.00" font-family="Times,serif" fill="#7b7b7b">2</text></g><g id="15"><text x="69.00" y="82.00" font-size="12.00" font-family="Times,serif" fill="#7b7b7b">3</text></g><g id="16"><text x="13.00" y="99.00" font-size="12.00" font-family="Times,serif" fill="#7b7b7b">0</text></g><g id="17"><text x="33.00" y="99.00" font-size="12.00" font-family="Times,serif" fill="#7b7b7b">1</text></g><g id="18"><text x="53.00" y="99.00" font-size="12.00" font-family="Times,serif" fill="#7b7b7b">2</text></g><animate attributeName="opacity" id="0S11" from="0" to="1" begin="0E10.begin" dur="0.01s" fill="freeze"/><animate attributeName="opacity" id="0E11" begin="0S11.begin+1.5s" from="1" to="0" dur="0.01s" fill="freeze"/></g><g class="frame" style="opacity:0" transform="translate(91,5.0)"><g id="graph0" class="graph" transform="scale(1 1) rotate(0) translate(4 256)"><polygon fill="transparent" stroke="transparent" points="-4,4 -4,-256 148,-256 148,4 -4,4"/><g id="node1" class="node"><ellipse fill="#ffffff" stroke="#7b7b7b" cx="99" cy="-234" rx="18" ry="18"/><text text-anchor="middle" x="99" y="-230.76" font-family="Times New Roman,serif" font-size="12.80" fill="#000000">root</text></g><g id="node2" class="node"><ellipse fill="#ffffff" stroke="#7b7b7b" cx="72" cy="-162" rx="18" ry="18"/><text text-anchor="middle" x="72" y="-158.3" font-family="Times New Roman,serif" font-size="14.00" fill="#000000">a</text></g><g id="edge2" class="edge"><path fill="none" stroke="#7b7b7b" d="M92.74,-216.76C89.5,-208.37 85.47,-197.93 81.83,-188.5"/><polygon fill="#7b7b7b" stroke="#7b7b7b" points="78.23,-179.15 86.03,-186.86 80.03,-183.81 81.83,-188.48 81.83,-188.48 81.83,-188.48 80.03,-183.81 77.63,-190.1 78.23,-179.15 78.23,-179.15"/></g><g id="node6" class="node"><ellipse fill="#ffffff" stroke="#7b7b7b" cx="126" cy="-162" rx="18" ry="18"/><text text-anchor="middle" x="126" y="-158.3" font-family="Times New Roman,serif" font-size="14.00" fill="#000000">b</text></g><g id="edge1" class="edge"><path fill="none" stroke="#7b7b7b" d="M105.26,-216.76C108.5,-208.37 112.53,-197.93 116.17,-188.5"/><polygon fill="#7b7b7b" stroke="#7b7b7b" points="119.77,-179.15 120.37,-190.1 117.97,-183.81 116.17,-188.48 116.17,-188.48 116.17,-188.48 117.97,-183.81 111.97,-186.86 119.77,-179.15 119.77,-179.15"/></g><g id="node3" class="node"><ellipse fill="#ffffff" stroke="#7b7b7b" cx="72" cy="-90" rx="18" ry="18"/><text text-anchor="middle" x="72" y="-86.3" font-family="Times New Roman,serif" font-size="14.00" fill="#000000">b</text></g><g id="edge3" class="edge"><path fill="none" stroke="#7b7b7b" d="M72,-143.7C72,-135.98 72,-126.71 72,-118.11"/><polygon fill="#7b7b7b" stroke="#7b7b7b" points="72,-108.1 76.5,-118.1 72,-113.1 72,-118.1 72,-118.1 72,-118.1 72,-113.1 67.5,-118.1 72,-108.1 72,-108.1"/></g><g id="node4" class="node"><ellipse fill="#ffffff" stroke="#7b7b7b" cx="18" cy="-18" rx="18" ry="18"/><text text-anchor="middle" x="18" y="-14.3" font-family="Times New Roman,serif" font-size="14.00" fill="#000000">c</text></g><g id="edge5" class="edge"><path fill="none" stroke="#7b7b7b" d="M61.33,-75.17C53.79,-65.39 43.52,-52.08 34.87,-40.87"/><polygon fill="#7b7b7b" stroke="#7b7b7b" points="28.65,-32.8 38.32,-37.97 31.7,-36.76 34.75,-40.72 34.75,-40.72 34.75,-40.72 31.7,-36.76 31.19,-43.47 28.65,-32.8 28.65,-32.8"/></g><g id="node5" class="node"><ellipse fill="#ffffff" stroke="#7b7b7b" cx="72" cy="-18" rx="18" ry="18"/><text text-anchor="middle" x="72" y="-14.3" font-family="Times New Roman,serif" font-size="14.00" fill="#000000">d</text></g><g id="edge4" class="edge"><path fill="none" stroke="#7b7b7b" d="M72,-71.7C72,-63.98 72,-54.71 72,-46.11"/><polygon fill="#7b7b7b" stroke="#7b7b7b" points="72,-36.1 76.5,-46.1 72,-41.1 72,-46.1 72,-46.1 72,-46.1 72,-41.1 67.5,-46.1 72,-36.1 72,-36.1"/></g><g id="node7" class="node"><ellipse fill="#00ffff" stroke="#7b7b7b" cx="126" cy="-90" rx="18" ry="18"/><text text-anchor="middle" x="126" y="-86.3" font-family="Times New Roman,serif" font-size="14.00" fill="#000000">c</text></g><g id="edge6" class="edge"><path fill="none" stroke="#7b7b7b" d="M126,-143.7C126,-135.98 126,-126.71 126,-118.11"/><polygon fill="#7b7b7b" stroke="#7b7b7b" points="126,-108.1 130.5,-118.1 126,-113.1 126,-118.1 126,-118.1 126,-118.1 126,-113.1 121.5,-118.1 126,-108.1 126,-108.1"/></g><g id="node8" class="node"><ellipse fill="#ffffff" stroke="#7b7b7b" cx="126" cy="-18" rx="18" ry="18"/><text text-anchor="middle" x="126" y="-14.3" font-family="Times New Roman,serif" font-size="14.00" fill="#000000">d</text></g><g id="edge7" class="edge"><path fill="none" stroke="#7b7b7b" d="M126,-71.7C126,-63.98 126,-54.71 126,-46.11"/><polygon fill="#7b7b7b" stroke="#7b7b7b" points="126,-36.1 130.5,-46.1 126,-41.1 126,-46.1 126,-46.1 126,-46.1 126,-41.1 121.5,-46.1 126,-36.1 126,-36.1"/></g></g><g id="graph1" class="graph" transform="scale(1 1) rotate(0) translate(4 256)"/><animate attributeName="opacity" id="1S10" from="0" to="1" begin="0s;1E11.end+0s" dur="0.01s" fill="freeze"/><animate attributeName="opacity" id="1E10" begin="1S10.begin+1.5s" from="1" to="0" dur="0.01s" fill="freeze"/></g><g class="frame" style="opacity:0" transform="translate(91,5.0)"><g id="graph0" class="graph" transform="scale(1 1) rotate(0) translate(4 256)"><polygon fill="transparent" stroke="transparent" points="-4,4 -4,-256 148,-256 148,4 -4,4"/><g id="node1" class="node"><ellipse fill="#ffffff" stroke="#7b7b7b" cx="99" cy="-234" rx="18" ry="18"/><text text-anchor="middle" x="99" y="-230.76" font-family="Times New Roman,serif" font-size="12.80" fill="#000000">root</text></g><g id="node2" class="node"><ellipse fill="#ffffff" stroke="#7b7b7b" cx="72" cy="-162" rx="18" ry="18"/><text text-anchor="middle" x="72" y="-158.3" font-family="Times New Roman,serif" font-size="14.00" fill="#000000">a</text></g><g id="edge2" class="edge"><path fill="none" stroke="#7b7b7b" d="M92.74,-216.76C89.5,-208.37 85.47,-197.93 81.83,-188.5"/><polygon fill="#7b7b7b" stroke="#7b7b7b" points="78.23,-179.15 86.03,-186.86 80.03,-183.81 81.83,-188.48 81.83,-188.48 81.83,-188.48 80.03,-183.81 77.63,-190.1 78.23,-179.15 78.23,-179.15"/></g><g id="node6" class="node"><ellipse fill="#ffffff" stroke="#7b7b7b" cx="126" cy="-162" rx="18" ry="18"/><text text-anchor="middle" x="126" y="-158.3" font-family="Times New Roman,serif" font-size="14.00" fill="#000000">b</text></g><g id="edge1" class="edge"><path fill="none" stroke="#7b7b7b" d="M105.26,-216.76C108.5,-208.37 112.53,-197.93 116.17,-188.5"/><polygon fill="#7b7b7b" stroke="#7b7b7b" points="119.77,-179.15 120.37,-190.1 117.97,-183.81 116.17,-188.48 116.17,-188.48 116.17,-188.48 117.97,-183.81 111.97,-186.86 119.77,-179.15 119.77,-179.15"/></g><g id="node3" class="node"><ellipse fill="#ffffff" stroke="#7b7b7b" cx="72" cy="-90" rx="18" ry="18"/><text text-anchor="middle" x="72" y="-86.3" font-family="Times New Roman,serif" font-size="14.00" fill="#000000">b</text></g><g id="edge3" class="edge"><path fill="none" stroke="#7b7b7b" d="M72,-143.7C72,-135.98 72,-126.71 72,-118.11"/><polygon fill="#7b7b7b" stroke="#7b7b7b" points="72,-108.1 76.5,-118.1 72,-113.1 72,-118.1 72,-118.1 72,-118.1 72,-113.1 67.5,-118.1 72,-108.1 72,-108.1"/></g><g id="node4" class="node"><ellipse fill="#ffffff" stroke="#7b7b7b" cx="18" cy="-18" rx="18" ry="18"/><text text-anchor="middle" x="18" y="-14.3" font-family="Times New Roman,serif" font-size="14.00" fill="#000000">c</text></g><g id="edge5" class="edge"><path fill="none" stroke="#7b7b7b" d="M61.33,-75.17C53.79,-65.39 43.52,-52.08 34.87,-40.87"/><polygon fill="#7b7b7b" stroke="#7b7b7b" points="28.65,-32.8 38.32,-37.97 31.7,-36.76 34.75,-40.72 34.75,-40.72 34.75,-40.72 31.7,-36.76 31.19,-43.47 28.65,-32.8 28.65,-32.8"/></g><g id="node5" class="node"><ellipse fill="#ffffff" stroke="#7b7b7b" cx="72" cy="-18" rx="18" ry="18"/><text text-anchor="middle" x="72" y="-14.3" font-family="Times New Roman,serif" font-size="14.00" fill="#000000">d</text></g><g id="edge4" class="edge"><path fill="none" stroke="#7b7b7b" d="M72,-71.7C72,-63.98 72,-54.71 72,-46.11"/><polygon fill="#7b7b7b" stroke="#7b7b7b" points="72,-36.1 76.5,-46.1 72,-41.1 72,-46.1 72,-46.1 72,-46.1 72,-41.1 67.5,-46.1 72,-36.1 72,-36.1"/></g><g id="node7" class="node"><ellipse fill="#ffffff" stroke="#7b7b7b" cx="126" cy="-90" rx="18" ry="18"/><text text-anchor="middle" x="126" y="-86.3" font-family="Times New Roman,serif" font-size="14.00" fill="#000000">c</text></g><g id="edge6" class="edge"><path fill="none" stroke="#7b7b7b" d="M126,-143.7C126,-135.98 126,-126.71 126,-118.11"/><polygon fill="#7b7b7b" stroke="#7b7b7b" points="126,-108.1 130.5,-118.1 126,-113.1 126,-118.1 126,-118.1 126,-118.1 126,-113.1 121.5,-118.1 126,-108.1 126,-108.1"/></g><g id="node8" class="node"><ellipse fill="#ffffff" stroke="#7b7b7b" cx="126" cy="-18" rx="18" ry="18"/><text text-anchor="middle" x="126" y="-14.3" font-family="Times New Roman,serif" font-size="14.00" fill="#000000">d</text></g><g id="edge7" class="edge"><path fill="none" stroke="#7b7b7b" d="M126,-71.7C126,-63.98 126,-54.71 126,-46.11"/><polygon fill="#7b7b7b" stroke="#7b7b7b" points="126,-36.1 130.5,-46.1 126,-41.1 126,-46.1 126,-46.1 126,-46.1 126,-41.1 121.5,-46.1 126,-36.1 126,-36.1"/></g></g><g id="graph1" class="graph" transform="scale(1 1) rotate(0) translate(4 256)"><g id="node9" class="node" style="opacity:0"><ellipse fill="#00ffff" stroke="#7b7b7b" cx="180" cy="-18" rx="18" ry="18"/><text text-anchor="middle" x="180" y="-14.3" font-family="Times New Roman,serif" font-size="14.00" fill="#000000">e</text><animate attributeName="opacity" from="0" to="1" begin="1S11.end+0.00s" dur="1.00s" fill="freeze"/><animate attributeName="opacity" from="1" to="0" begin="1E11.end" dur="0.01s" fill="freeze"/></g><g id="edge8" class="edge" style="opacity:0"><path fill="none" stroke="#7b7b7b" d="M136.67,-75.17C144.21,-65.39 154.48,-52.08 163.13,-40.87"/><polygon fill="#7b7b7b" stroke="#7b7b7b" points="169.35,-32.8 166.81,-43.47 166.3,-36.76 163.25,-40.72 163.25,-40.72 163.25,-40.72 166.3,-36.76 159.68,-37.97 169.35,-32.8 169.35,-32.8"/><animate attributeName="opacity" from="0" to="1" begin="1S11.end+0.00s" dur="1.00s" fill="freeze"/><animate attributeName="opacity" from="1" to="0" begin="1E11.end" dur="0.01s" fill="freeze"/></g></g><animate attributeName="opacity" id="1S11" from="0" to="1" begin="1E10.begin" dur="0.01s" fill="freeze"/><animate attributeName="opacity" id="1E11" begin="1S11.begin+1.5s" from="1" to="0" dur="0.01s" fill="freeze"/></g><g><animate attributeName="opacity" begin="2S12.begin" from="1" to="0" dur="0.01s" fill="freeze"/><animate attributeName="opacity" from="0" to="1" begin="2E12.end" dur="0.01s" fill="freeze"/><rect x="5.00" y="5.00" width="81.00" height="101.00" stroke="#C0C0C0" stroke-dasharray="1, 5" fill="none"/><rect x="91.00" y="5.00" width="206.00" height="260.00" stroke="#C0C0C0" stroke-dasharray="1, 5" fill="none"/></g></a></svg>